<svg width="397" height="418" viewBox="0 0 397 418" fill="none" xmlns="http://www.w3.org/2000/svg">
<path d="M9.47907 222.466C-9.40238 258.549 4.45823 292.732 12.2124 311.84C28.1667 351.261 81.7093 401.797 210.08 410.605C375.399 421.953 400.484 278.143 395.812 216.2C391.14 154.256 383.968 72.9712 248.327 27.7698C112.687 -17.4316 165.842 139.532 61.4709 185.587C42.919 193.754 18.9586 204.385 9.47907 222.466Z" fill="#E6EBF0" fill-opacity="0.26"/>
<path d="M9.47907 222.466C-9.40238 258.549 4.45823 292.732 12.2124 311.84C28.1667 351.261 81.7093 401.797 210.08 410.605C375.399 421.953 400.484 278.143 395.812 216.2C391.14 154.256 383.968 72.9712 248.327 27.7698C112.687 -17.4316 165.842 139.532 61.4709 185.587C42.919 193.754 18.9586 204.385 9.47907 222.466Z" fill="#E6EBF0" fill-opacity="0.26"/>
<path d="M19.3851 157.128C20.144 158.936 21.3768 160.505 22.9533 161.669C24.5298 162.834 26.3913 163.55 28.3412 163.743C43.8496 165.276 66.2204 158.699 89.3473 129.6C115.13 96.9886 143.452 63.427 115.712 65.949C87.9709 68.471 42.0661 95.0486 25.4528 122.596C15.2366 139.552 16.6712 150.862 19.3851 157.128Z" fill="#E6EBF0" fill-opacity="0.26"/>
<path d="M9.47907 222.466C-9.40238 258.549 4.45823 292.732 12.2124 311.84C28.1667 351.261 81.7093 401.797 210.08 410.605C375.399 421.953 400.484 278.143 395.812 216.2C391.14 154.256 383.968 72.9712 248.327 27.7698C112.687 -17.4316 165.842 139.532 61.4709 185.587C42.919 193.754 18.9586 204.385 9.47907 222.466Z" fill="#E6EBF0" fill-opacity="0.26"/>
<path d="M382.126 411.284H14.1897V414.078H382.126V411.284Z" fill="black"/>
<path d="M94.5038 286.214H59.9589V267.26H94.5038V286.214ZM61.9362 284.274H92.5265V269.258H62.0332L61.9362 284.274Z" fill="#AAB6C2"/>
<path d="M70.8535 303.189H36.2892V284.235H70.8535V303.189ZM38.2665 301.249H68.8762V286.272H38.2665V301.249Z" fill="#AAB6C2"/>
<path d="M179.722 123.391H145.177V104.438H179.722V123.391ZM147.155 121.451H177.745V106.417H147.155V121.451Z" fill="#AAB6C2"/>
<path d="M240.379 332.559H205.893V313.606H240.379V332.559ZM207.812 330.62H238.441V315.624H207.889L207.812 330.62Z" fill="#AAB6C2"/>
<path d="M207.851 332.559H173.286V313.606H207.851V332.559ZM175.264 330.62H205.873V315.624H175.264V330.62Z" fill="#AAB6C2"/>
<path d="M224.173 349.515H189.609V330.581H224.173V349.515ZM191.586 347.575H222.196V332.598H191.586V347.575Z" fill="#AAB6C2"/>
<path d="M212.29 209.837H177.745V190.884H212.29V209.837ZM179.722 207.897H210.313V192.862H179.722V207.897Z" fill="#AAB6C2"/>
<path d="M235.96 226.792H201.415V207.858H235.96V226.792ZM203.392 224.852H233.982V209.875H203.392V224.852Z" fill="#AAB6C2"/>
<path d="M348.298 145.643H313.753V126.689H348.298V145.643ZM315.731 143.703H346.321V128.668H315.731V143.703Z" fill="#AAB6C2"/>
<path d="M315.692 145.643H281.089V126.689H315.634L315.692 145.643ZM283.124 143.703H313.715V128.668H283.124V143.703Z" fill="#AAB6C2"/>
<path d="M332.015 162.598H297.47V143.664H332.015V162.598ZM299.447 160.658H330.037V145.643H299.447V160.658Z" fill="#AAB6C2"/>
<path d="M180.924 410.877H174.663C143.103 410.372 118.154 408.937 108.035 396.831C103.615 391.496 102.219 384.357 103.848 374.968C107.395 354.171 124.532 310.289 157.216 274.632C160.767 271.323 165.449 269.498 170.301 269.53C173.356 269.612 176.359 270.347 179.107 271.685C181.855 273.024 184.286 274.935 186.236 277.29C188.174 279.366 190.326 281.48 192.633 283.731C205.505 296.243 223.126 313.354 224.987 352.386C225.298 358.982 228.147 365.966 230.919 372.678C234.971 382.534 238.79 391.845 234.157 398.771C228.593 407.055 211.689 410.915 180.924 410.915V410.877Z" fill="white" fill-opacity="0.94"/>
<path d="M170.301 269.879C176 269.879 181.254 272.459 185.926 277.542C187.864 279.618 190.035 281.732 192.342 284.002C205.175 296.457 222.719 313.509 224.58 352.367C224.89 359.04 227.759 365.946 230.532 372.795C234.544 382.494 238.286 391.768 233.808 398.499C228.419 406.55 211.127 410.449 180.924 410.449H174.682C143.219 409.926 118.348 408.51 108.364 396.54C104.022 391.321 102.684 384.279 104.255 375.006C107.783 354.229 124.9 310.386 157.507 274.845C160.987 271.624 165.561 269.849 170.301 269.879ZM170.301 269.064C165.336 269.039 160.547 270.905 156.906 274.283C125.016 309.066 107.162 353.065 103.44 374.832C97.7799 408.044 129.882 410.508 174.663 411.264H180.924C269.051 411.264 226.655 378.673 225.394 352.308C223.204 306.059 198.933 290.423 186.624 276.96C181.137 271.004 175.38 269.045 170.378 269.045L170.301 269.064Z" fill="black"/>
<path d="M160.569 275.039C155.045 266.736 145.061 250.285 146.224 246.153C146.253 246.015 146.312 245.885 146.395 245.771C146.479 245.657 146.586 245.563 146.709 245.494C147.111 245.284 147.554 245.164 148.008 245.144C149.345 245.144 149.946 246.716 150.47 248.248C150.993 249.781 151.439 250.906 152.524 250.906C152.811 250.899 153.091 250.819 153.339 250.673C154.676 249.917 154.23 248.151 153.707 246.095C152.873 242.855 151.768 238.801 156.479 236.201C157.065 235.844 157.732 235.643 158.418 235.619C160.821 235.619 161.539 239.751 162.198 243.379C162.857 247.007 163.342 249.839 165.241 249.839C165.472 249.837 165.701 249.797 165.92 249.723C166.342 249.618 166.739 249.428 167.085 249.164C167.432 248.9 167.72 248.568 167.933 248.188C168.145 247.808 168.278 247.388 168.322 246.955C168.366 246.521 168.32 246.083 168.188 245.668C167.992 244.707 168.07 243.71 168.413 242.791C168.755 241.871 169.349 241.067 170.126 240.469C170.374 240.217 170.705 240.065 171.057 240.042C172.336 240.042 173.596 242.816 174.701 245.261C175.942 248.016 177.008 250.402 178.579 250.402C179.567 250.402 180.517 249.412 181.331 247.278C183.793 241.458 188.814 238.025 192.245 238.025C192.785 238.003 193.323 238.1 193.822 238.308C194.321 238.515 194.768 238.829 195.134 239.227C195.734 240.142 196.143 241.169 196.336 242.246C196.529 243.322 196.503 244.427 196.258 245.494C194.804 257.133 184.956 272.168 183.774 273.934L160.569 275.039Z" fill="white" fill-opacity="0.94"/>
<path d="M158.34 236.027C160.395 236.027 161.093 239.907 161.713 243.496C162.334 247.084 162.838 250.247 165.164 250.247C165.448 250.241 165.73 250.188 165.997 250.091C166.461 249.968 166.895 249.754 167.274 249.461C167.654 249.167 167.971 248.802 168.207 248.384C168.444 247.967 168.595 247.507 168.651 247.03C168.708 246.554 168.669 246.071 168.537 245.61C168.338 244.719 168.396 243.79 168.705 242.932C169.014 242.073 169.561 241.32 170.282 240.76C170.457 240.578 170.69 240.462 170.941 240.43C171.968 240.43 173.306 243.437 174.197 245.416C175.516 248.307 176.64 250.79 178.404 250.79C180.168 250.79 180.885 249.005 181.545 247.434C183.929 241.788 188.775 238.432 192.071 238.432C192.553 238.409 193.033 238.493 193.479 238.677C193.925 238.862 194.324 239.142 194.649 239.499C195.214 240.367 195.597 241.341 195.774 242.361C195.95 243.382 195.917 244.428 195.677 245.436C194.261 256.668 184.956 271.121 183.386 273.507L160.783 274.555C154.444 265.01 145.623 249.878 146.612 246.212C146.628 246.127 146.663 246.046 146.713 245.976C146.763 245.906 146.828 245.847 146.903 245.804C147.246 245.626 147.622 245.521 148.008 245.494C148.977 245.494 149.481 246.677 150.082 248.345C150.683 250.014 151.148 251.255 152.524 251.255C152.881 251.253 153.23 251.152 153.532 250.964C155.161 250.072 154.657 248.074 154.114 245.94C153.28 242.661 152.331 238.956 156.673 236.512C157.173 236.191 157.747 236.004 158.34 235.968V236.027ZM158.34 235.192C157.61 235.235 156.903 235.462 156.285 235.852C148.415 240.256 155.975 248.733 153.145 250.305C152.96 250.425 152.745 250.492 152.524 250.499C150.702 250.499 150.915 244.679 148.008 244.679C147.494 244.695 146.99 244.828 146.534 245.067C141.669 247.473 160.356 275.466 160.356 275.466L183.832 274.38C183.832 274.38 194.92 258.162 196.491 245.591C197.189 240.023 195.056 237.656 192.071 237.656C188.31 237.656 183.231 241.381 180.788 247.162C179.916 249.218 179.141 250.033 178.404 250.033C175.826 250.033 173.945 239.654 170.941 239.654C170.489 239.689 170.064 239.882 169.739 240.198C165.067 244.33 170.32 247.628 165.707 249.374C165.527 249.399 165.344 249.399 165.164 249.374C161.733 249.374 163.342 235.095 158.34 235.095V235.192Z" fill="black"/>
<path d="M171.891 280.976C165.946 281.001 160.098 279.469 154.928 276.533C154.497 276.291 154.117 275.967 153.811 275.578C153.505 275.189 153.278 274.744 153.144 274.267C153.01 273.791 152.971 273.292 153.029 272.801C153.088 272.309 153.242 271.834 153.484 271.402C153.726 270.97 154.05 270.59 154.439 270.284C154.828 269.978 155.273 269.751 155.749 269.617C156.225 269.483 156.723 269.444 157.214 269.502C157.705 269.56 158.18 269.715 158.612 269.957C162.475 272.04 166.765 273.208 171.15 273.373C175.536 273.538 179.901 272.694 183.91 270.907C184.355 270.642 184.849 270.47 185.363 270.404C185.877 270.338 186.4 270.378 186.897 270.522C187.395 270.666 187.858 270.911 188.257 271.242C188.657 271.573 188.984 271.982 189.218 272.445C189.452 272.907 189.589 273.413 189.62 273.931C189.651 274.449 189.575 274.967 189.397 275.454C189.219 275.941 188.943 276.387 188.586 276.763C188.229 277.138 187.799 277.437 187.321 277.639C182.477 279.847 177.214 280.985 171.891 280.976Z" fill="black"/>
<path d="M142.754 363.231C142.395 361.812 142.303 360.338 142.483 358.885C142.669 357.522 143.11 356.206 143.782 355.005C144.507 353.73 145.422 352.572 146.496 351.572C147.752 350.445 149.1 349.426 150.528 348.526C152.155 347.502 153.844 346.582 155.587 345.771C157.429 344.898 159.368 344.025 161.403 343.172C160.957 334.364 161.791 328.408 163.07 317.952C159.959 319.125 157.15 320.981 154.851 323.384C152.613 325.713 150.814 328.427 149.539 331.396C146.147 332.075 144.576 332.463 141.785 333.336C142.51 330.696 143.648 328.188 145.158 325.906C146.685 323.566 148.431 321.377 150.373 319.368C152.323 317.298 154.45 315.402 156.731 313.703C158.988 312.02 161.435 310.608 164.02 309.494C164.311 306.719 164.427 305.478 164.776 303.208C166.809 302.359 168.919 301.71 171.076 301.268C171.251 303.557 171.367 304.838 171.483 307.728C173.795 307.841 176.073 308.325 178.23 309.164C180.914 310.159 183.396 311.631 185.557 313.509C187.866 315.523 189.632 318.085 190.694 320.959C190.957 321.668 191.171 322.394 191.334 323.132C191.813 325.564 191.963 328.05 191.78 330.523C191.719 331.474 191.596 332.42 191.412 333.355C191.14 334.913 190.539 336.395 189.648 337.701C188.361 339.32 186.741 340.644 184.898 341.581C183.987 342.105 182.96 342.628 181.932 343.113L180.304 343.851L178.482 344.607L178.171 344.743C175.651 345.752 173.092 346.838 170.669 347.905C171.466 353.512 172.83 359.024 174.74 364.356C174.74 364.666 174.876 364.841 174.973 365.151L175.205 365.927C175.69 367.441 175.942 368.236 176.485 369.807C177.933 368.968 179.241 367.908 180.362 366.665C181.137 365.81 181.825 364.881 182.417 363.89C182.611 363.58 182.785 363.25 182.96 362.94L183.076 362.726L183.367 362.048C183.871 360.925 184.286 359.763 184.607 358.575C184.928 357.306 185.09 356.003 185.092 354.695C189.202 354.016 191.218 353.706 194.513 353.415C194.546 355.066 194.371 356.715 193.99 358.323C194.008 358.38 194.008 358.441 193.99 358.497C194.001 358.639 194.001 358.782 193.99 358.924C193.981 358.988 193.981 359.054 193.99 359.118C193.959 359.292 193.907 359.461 193.835 359.623C193.846 359.693 193.846 359.765 193.835 359.836C193.259 362.002 192.507 364.117 191.586 366.16C191.315 366.762 191.024 367.382 190.714 367.964C190.565 368.311 190.383 368.642 190.171 368.954C190.015 369.307 189.827 369.645 189.609 369.963C188.801 371.372 187.874 372.709 186.837 373.959C184.878 376.342 182.322 378.163 179.431 379.236C180.331 382.816 180.224 386.576 179.121 390.1C176.156 390.648 173.141 390.882 170.126 390.798C170.303 387.359 170.101 383.911 169.526 380.516C166.416 380.336 163.338 379.789 160.356 378.886C157.466 377.986 154.718 376.68 152.195 375.007C149.939 373.59 147.917 371.829 146.205 369.788C144.551 367.907 143.368 365.66 142.754 363.231ZM181.04 328.525C181.213 325.623 180.347 322.755 178.598 320.435C176.781 318.272 174.18 316.918 171.367 316.671C170.747 326.371 169.719 332.191 169.971 339.951C171.406 339.272 172.821 338.593 174.139 337.856C175.387 337.193 176.558 336.393 177.629 335.47C178.606 334.653 179.422 333.659 180.032 332.54C180.662 331.293 181.006 329.922 181.04 328.525ZM152.68 366.471C153.618 367.627 154.761 368.601 156.053 369.342C157.565 370.249 159.196 370.942 160.899 371.398C162.922 371.901 164.998 372.161 167.083 372.174C164.947 365.445 163.32 358.565 162.217 351.591C160.529 352.344 158.885 353.192 157.293 354.132C155.905 354.923 154.605 355.859 153.416 356.926C152.502 357.755 151.752 358.749 151.206 359.855C150.732 360.832 150.615 361.944 150.877 362.998C151.205 364.278 151.821 365.466 152.68 366.471Z" fill="black"/>
<path d="M108.422 410.799C72.3461 410.799 52.4954 406.279 46.0013 396.56C40.5539 388.45 45.0514 377.528 49.8784 365.947C53.1157 358.07 56.45 349.903 56.8183 342.163C58.9895 296.379 79.6738 276.301 94.7557 261.634C97.4891 258.996 100.048 256.513 102.277 254.088C107.841 248.035 114.141 244.97 120.965 244.97C126.656 244.935 132.146 247.071 136.318 250.945C174.643 292.752 194.746 344.219 198.894 368.624C200.833 379.624 199.166 388.024 193.99 394.251C182.126 408.549 152.873 410.139 115.847 410.741L108.422 410.799Z" fill="white" fill-opacity="0.94"/>
<path d="M120.887 245.455C126.44 245.419 131.798 247.5 135.872 251.275C174.139 293.023 194.203 344.394 198.352 368.721C200.29 379.585 198.623 387.83 193.544 393.941C181.913 408.083 152.66 409.654 115.75 410.256H108.423C73.0053 410.256 52.728 405.658 46.389 396.23C41.0968 388.334 45.536 377.528 50.2661 366.083C53.5035 358.148 56.8765 349.942 57.2449 342.124C59.416 296.534 80.0034 276.533 95.0465 261.925C97.7605 259.287 100.339 256.784 102.568 254.359C108.054 248.404 114.199 245.397 120.907 245.397L120.887 245.455ZM120.887 244.485C115.072 244.485 108.267 246.774 101.831 253.758C87.2342 269.646 58.8345 287.882 56.2174 342.143C54.7829 373.047 5.07855 411.265 108.423 411.265H115.77C168.285 410.411 205.931 407.52 199.302 368.585C194.94 342.958 173.984 291.452 136.59 250.673C132.332 246.694 126.713 244.5 120.887 244.543V244.485Z" fill="black"/>
<path d="M105.282 250.246C103.886 248.19 92.352 230.575 90.646 216.898C90.2196 213.561 90.646 211.078 91.9836 209.565C92.404 209.091 92.9253 208.718 93.5091 208.473C94.093 208.228 94.7244 208.117 95.3567 208.149C99.3889 208.149 105.263 212.203 108.151 218.993C109.198 221.496 110.225 222.66 111.369 222.66C113.153 222.66 114.413 219.866 115.867 216.627C117.165 213.755 118.619 210.496 120.151 210.496C120.557 210.525 120.937 210.705 121.217 211.001C122.124 211.707 122.814 212.655 123.208 213.736C123.603 214.816 123.685 215.986 123.446 217.112C123.294 217.597 123.242 218.108 123.295 218.614C123.347 219.12 123.502 219.61 123.751 220.053C124 220.497 124.337 220.884 124.741 221.193C125.146 221.501 125.609 221.723 126.102 221.845C126.361 221.949 126.637 222.002 126.916 222C129.146 222 129.766 218.489 130.483 214.415C131.2 210.341 132.092 205.258 134.903 205.258C135.681 205.299 136.435 205.54 137.094 205.957C142.522 209.002 141.32 213.717 140.35 217.597C139.73 220.002 139.207 222.097 140.777 222.97C141.067 223.135 141.393 223.228 141.727 223.242C143.006 223.242 143.665 221.729 144.15 220.138C144.635 218.547 145.468 216.471 147.038 216.471C147.569 216.491 148.088 216.637 148.55 216.898C148.697 216.979 148.824 217.09 148.924 217.224C149.025 217.358 149.095 217.511 149.132 217.674C150.431 222.505 138.78 241.807 132.286 251.546L105.282 250.246Z" fill="white" fill-opacity="0.94"/>
<path d="M134.903 205.724C135.592 205.774 136.259 205.994 136.842 206.365C141.94 209.216 140.835 213.581 139.866 217.422C139.226 219.925 138.625 222.272 140.525 223.242C140.881 223.461 141.289 223.582 141.708 223.592C143.336 223.592 143.976 221.846 144.577 220.158C145.178 218.47 145.875 216.821 147.019 216.821C147.473 216.852 147.915 216.977 148.318 217.19C148.401 217.241 148.473 217.309 148.53 217.389C148.586 217.469 148.626 217.56 148.648 217.655C149.811 221.962 139.459 239.732 132.015 250.906L105.534 249.684C103.596 246.891 92.7592 229.935 91.1114 216.705C90.8307 215.523 90.7925 214.296 90.9991 213.099C91.2057 211.902 91.6528 210.759 92.3133 209.74C92.6967 209.325 93.1659 208.999 93.6883 208.785C94.2106 208.57 94.7735 208.473 95.3375 208.499C99.2146 208.499 104.875 212.378 107.686 219.052C108.461 220.992 109.625 222.932 111.35 222.932C113.443 222.932 114.762 220.003 116.293 216.608C117.34 214.28 118.93 210.788 120.17 210.788C120.459 210.827 120.726 210.964 120.926 211.176C121.774 211.829 122.417 212.711 122.781 213.718C123.145 214.725 123.215 215.815 122.981 216.86C122.823 217.399 122.774 217.964 122.839 218.522C122.903 219.08 123.079 219.619 123.355 220.108C123.632 220.596 124.004 221.024 124.449 221.366C124.895 221.708 125.404 221.957 125.947 222.098C126.262 222.224 126.597 222.289 126.936 222.292C129.572 222.292 130.231 218.586 130.987 214.318C131.743 210.051 132.519 205.55 134.864 205.55L134.903 205.724ZM134.903 204.754C129.088 204.754 131.026 221.496 126.916 221.496C126.698 221.492 126.482 221.453 126.277 221.38C120.868 219.343 127.013 215.56 121.547 210.613C121.174 210.241 120.677 210.02 120.151 209.992C116.623 209.992 114.335 222.156 111.369 222.156C110.516 222.156 109.605 221.205 108.597 218.8C105.709 212.01 99.7573 207.645 95.3568 207.645C91.8675 207.645 89.3473 210.419 90.1615 216.957C92.1001 231.701 105.011 250.712 105.011 250.712L132.538 251.993C132.538 251.993 154.463 219.207 148.764 216.394C148.229 216.117 147.64 215.958 147.039 215.929C143.627 215.929 143.859 222.699 141.727 222.699C141.475 222.684 141.229 222.611 141.01 222.486C137.695 220.546 146.554 210.671 137.326 205.511C136.597 205.054 135.763 204.794 134.903 204.754Z" fill="black"/>
<path d="M119.026 258.453C112.782 258.478 106.607 257.155 100.92 254.573C99.9481 254.001 99.23 253.079 98.9121 251.996C98.5942 250.913 98.7002 249.749 99.2086 248.742C99.717 247.734 100.59 246.958 101.649 246.571C102.709 246.184 103.876 246.215 104.914 246.658C109.609 248.78 114.732 249.786 119.881 249.597C125.029 249.409 130.065 248.031 134.593 245.572C135.102 245.286 135.662 245.104 136.242 245.035C136.821 244.967 137.409 245.013 137.97 245.172C138.532 245.33 139.057 245.598 139.515 245.959C139.973 246.321 140.356 246.769 140.641 247.279C140.926 247.788 141.108 248.349 141.177 248.929C141.246 249.509 141.199 250.097 141.041 250.659C140.882 251.221 140.615 251.746 140.254 252.205C139.892 252.663 139.444 253.046 138.935 253.331C132.855 256.738 125.994 258.503 119.026 258.453Z" fill="black"/>
<path d="M153.145 355.005C153.576 353.334 153.688 351.596 153.474 349.884C153.26 348.295 152.747 346.761 151.962 345.363C151.104 343.872 150.025 342.518 148.764 341.348C147.302 340.02 145.726 338.826 144.053 337.778C142.138 336.577 140.15 335.495 138.102 334.538C135.931 333.51 133.662 332.482 131.259 331.493C131.782 321.153 130.813 314.169 129.32 301.85C132.988 303.223 136.301 305.404 139.013 308.232C141.633 310.952 143.735 314.127 145.216 317.602C149.21 318.417 151.032 318.863 154.308 319.795C153.465 316.778 152.157 313.911 150.431 311.297C148.643 308.525 146.599 305.927 144.324 303.538C142.025 301.072 139.507 298.819 136.803 296.806C134.16 294.822 131.29 293.162 128.254 291.859C127.924 288.619 127.769 287.145 127.382 284.506C124.999 283.469 122.518 282.677 119.976 282.14C119.763 284.836 119.627 286.349 119.511 289.725C116.8 289.847 114.127 290.417 111.602 291.413C108.45 292.573 105.534 294.295 102.995 296.495C100.255 298.874 98.1666 301.912 96.927 305.322C96.6085 306.153 96.3621 307.01 96.1903 307.883C95.6191 310.729 95.443 313.641 95.6669 316.535C95.7356 317.656 95.8781 318.771 96.0934 319.872C96.4089 321.697 97.1166 323.431 98.1677 324.955C99.6591 326.888 101.55 328.477 103.712 329.611C104.778 330.212 105.98 330.833 107.201 331.396L109.14 332.249C109.818 332.56 110.536 332.851 111.272 333.142L111.641 333.316C114.587 334.48 117.592 335.761 120.442 337.022C119.499 343.632 117.895 350.132 115.653 356.421C115.556 356.79 115.498 356.964 115.382 357.333C115.285 357.682 115.227 357.876 115.111 358.225C114.529 360.01 114.238 360.941 113.618 362.881C111.894 361.906 110.337 360.661 109.004 359.195C108.098 358.175 107.298 357.063 106.62 355.878C106.385 355.522 106.171 355.153 105.98 354.772L105.864 354.52C105.728 354.268 105.612 353.977 105.495 353.705C104.906 352.396 104.426 351.04 104.061 349.651C103.661 348.125 103.472 346.552 103.499 344.975C98.6523 344.18 96.2873 343.811 92.4489 343.482C92.3813 345.44 92.5835 347.398 93.0499 349.302C93.03 349.371 93.03 349.445 93.0499 349.515C93.0499 349.69 93.0499 349.864 93.0499 350.019C93.0589 350.103 93.0589 350.188 93.0499 350.272C93.081 350.473 93.1397 350.669 93.2244 350.854C93.2086 350.937 93.2086 351.022 93.2244 351.106C93.891 353.644 94.7664 356.123 95.8414 358.516C96.1516 359.215 96.5005 359.933 96.8688 360.631C97.0504 361.036 97.2644 361.425 97.5086 361.795C97.7218 362.241 97.9157 362.59 98.1483 362.978C99.0995 364.633 100.189 366.203 101.405 367.673C103.708 370.457 106.704 372.585 110.09 373.842C109.031 378.044 109.165 382.458 110.477 386.588C113.954 387.234 117.489 387.507 121.023 387.403C120.805 383.373 121.039 379.333 121.721 375.355C125.364 375.128 128.968 374.477 132.461 373.415C135.882 372.367 139.144 370.852 142.153 368.915C144.822 367.236 147.22 365.163 149.268 362.765C151.154 360.521 152.482 357.862 153.145 355.005ZM108.306 314.266C108.092 310.858 109.102 307.486 111.156 304.76C112.213 303.503 113.506 302.468 114.963 301.712C116.42 300.956 118.012 300.496 119.647 300.356C120.364 311.705 121.585 318.592 121.256 327.516C119.589 326.74 117.941 325.925 116.39 325.071C114.925 324.288 113.548 323.352 112.28 322.278C111.146 321.31 110.194 320.147 109.469 318.844C108.747 317.423 108.35 315.859 108.306 314.266ZM141.514 358.73C140.431 360.07 139.118 361.207 137.636 362.086C135.823 363.166 133.865 363.983 131.821 364.511C129.44 365.089 127.001 365.394 124.551 365.423C127.09 357.529 129.034 349.455 130.367 341.27C132.363 342.15 134.305 343.148 136.183 344.258C137.789 345.186 139.29 346.285 140.661 347.536C141.753 348.499 142.649 349.665 143.297 350.97C143.867 352.111 144.005 353.421 143.685 354.656C143.294 356.167 142.549 357.563 141.514 358.73Z" fill="black"/>
<path d="M209.634 53.7271C201.763 46.4134 199.941 32.8336 205.757 20.5536C211.573 8.27352 223.204 1.34781 233.827 2.78339L234.234 1.9104L239.643 4.52937C251.41 10.1747 255.306 26.5093 248.366 41.0009C241.426 55.4925 226.228 62.6898 214.461 57.0445L209.188 54.6583L209.634 53.7271Z" fill="black"/>
<path d="M200.349 17.954C193.389 32.4456 197.421 48.9936 209.188 54.6583C220.955 60.323 235.979 52.9123 242.938 38.4013C249.898 23.8903 245.982 7.57509 234.234 1.92976C222.487 -3.71557 207.289 3.44294 200.349 17.954Z" fill="#11A97D"/>
<path d="M204.148 19.7967C198.332 31.7082 201.744 45.3074 211.398 49.9439C221.052 54.5805 233.42 48.4889 239.119 36.5969C244.819 24.7048 241.64 11.2608 231.966 6.62427C222.293 1.98773 209.847 7.88526 204.148 19.7967Z" fill="#11A97D"/>
<path d="M226.17 11.0088L221.905 25.2288L210.991 28.391L226.17 11.0088Z" fill="black"/>
<path d="M225.685 11.9009L221.808 25.0539L211.708 27.9833L225.763 11.9009H225.685ZM226.655 10.1355L210.351 28.7981L221.983 25.4031L226.558 10.1355H226.655Z" fill="#11A97D"/>
<path d="M210.565 30.3696L218.299 37.2953L215.837 45.5208L210.565 30.3696Z" fill="black"/>
<path d="M211.049 31.0295L218.067 37.315L215.837 44.7839L211.049 31.0295ZM210.099 29.6133L215.915 46.1807L218.61 37.1792L210.158 29.6133H210.099Z" fill="#11A97D"/>
<path d="M222.312 25.3451L226.577 11.1445L229.679 34.1138L222.312 25.3451Z" fill="black"/>
<path d="M226.48 12.1531L229.369 33.4928L222.564 25.3837L226.441 12.2307L226.48 12.1531ZM226.655 10.2131L222.08 25.4807L229.969 34.909L226.655 10.1355V10.2131Z" fill="#11A97D"/>
<path d="M218.706 37.4117L228.942 36.0149L216.264 45.6566L218.706 37.4117Z" fill="black"/>
<path d="M228.167 36.3253L216.652 45.0939L218.881 37.6056L228.167 36.3253ZM229.717 35.6851L218.551 37.2176L215.857 46.2191L229.717 35.6851Z" fill="#11A97D"/>
<path d="M210.661 29.3804L221.886 26.1406L229.446 35.1615L218.803 36.4613L210.661 29.3804Z" fill="black"/>
<path d="M221.808 26.393L229.02 34.9094L218.881 36.151L211.127 29.3999L221.828 26.3154L221.808 26.393ZM221.963 25.908L210.332 29.2835L218.842 36.6748L229.95 35.3168L222.06 25.908H221.963Z" fill="#11A97D"/>
<path d="M214.345 51.2632C213.295 50.9992 212.276 50.6287 211.301 50.1574C208.873 48.9247 206.754 47.1592 205.102 44.9926C203.451 42.826 202.31 40.3142 201.764 37.6446C200.408 31.5864 201.168 25.2464 203.915 19.6804C206.514 14.0753 210.945 9.52461 216.477 6.77956C218.868 5.55334 221.504 4.88331 224.189 4.81949C226.875 4.75566 229.54 5.29969 231.986 6.41096C241.678 11.0863 245.013 24.6855 239.255 36.694C236.663 42.3083 232.259 46.8866 226.751 49.6918C222.928 51.6541 218.537 52.2103 214.345 51.2632ZM204.361 19.8938C201.654 25.3546 200.908 31.5816 202.248 37.5282C202.774 40.1293 203.881 42.5778 205.486 44.6908C207.09 46.8037 209.151 48.5266 211.515 49.7306C213.904 50.8132 216.51 51.3324 219.131 51.2483C221.753 51.1642 224.32 50.4791 226.635 49.2456C232.048 46.4985 236.373 41.9996 238.906 36.4806C244.547 24.7049 241.388 11.4161 231.869 6.83776C229.473 5.75367 226.864 5.22548 224.235 5.29266C221.607 5.35985 219.028 6.02068 216.69 7.22575C211.254 9.91375 206.903 14.3848 204.361 19.8938Z" fill="black"/>
<path d="M378.268 247.57H334.632C330.595 247.57 327.323 250.844 327.323 254.883V300.589C327.323 304.628 330.595 307.903 334.632 307.903H378.268C382.305 307.903 385.577 304.628 385.577 300.589V254.883C385.577 250.844 382.305 247.57 378.268 247.57Z" fill="white" fill-opacity="0.94"/>
<path d="M378.288 308.446H334.632C332.575 308.446 330.603 307.628 329.149 306.173C327.694 304.718 326.877 302.744 326.877 300.686V254.883C326.877 252.825 327.694 250.851 329.149 249.396C330.603 247.941 332.575 247.123 334.632 247.123H378.288C380.344 247.123 382.317 247.941 383.771 249.396C385.225 250.851 386.042 252.825 386.042 254.883V300.686C386.042 302.744 385.225 304.718 383.771 306.173C382.317 307.628 380.344 308.446 378.288 308.446ZM334.632 248.112C332.823 248.118 331.091 248.839 329.812 250.118C328.534 251.398 327.813 253.132 327.808 254.941V300.686C327.813 302.495 328.534 304.229 329.812 305.509C331.091 306.788 332.823 307.509 334.632 307.514H378.288C380.096 307.509 381.828 306.788 383.107 305.509C384.386 304.229 385.106 302.495 385.111 300.686V254.883C385.106 253.073 384.386 251.34 383.107 250.06C381.828 248.78 380.096 248.059 378.288 248.054L334.632 248.112Z" fill="black"/>
<path d="M362.275 257.192C362.008 257.17 361.739 257.205 361.486 257.292C361.232 257.38 361 257.52 360.803 257.702C360.606 257.884 360.449 258.106 360.342 258.352C360.236 258.598 360.181 258.863 360.182 259.132V266.698V287.281C357.623 286.059 353.242 286.175 348.725 287.843C342.405 290.171 340.835 292.752 341.998 295.914C343.161 299.076 346.612 301.637 352.931 299.309C358.941 297.097 363.012 292.984 362.411 289.861V265.922C367.102 264.622 370.165 265.922 370.165 269.064C370.262 272.75 372.666 271.955 372.666 271.955C376.388 259.694 366.715 257.541 362.275 257.192Z" fill="black"/>
<path d="M199.767 192.047L147.911 191.873C147.333 191.873 146.761 191.758 146.228 191.535C145.695 191.312 145.212 190.985 144.806 190.574C144.4 190.162 144.08 189.674 143.864 189.138C143.649 188.601 143.541 188.028 143.549 187.449L143.801 135.575C143.811 134.408 144.282 133.293 145.109 132.472C145.937 131.651 147.055 131.19 148.221 131.19L200.077 131.462C201.227 131.462 202.331 131.916 203.148 132.726C203.965 133.537 204.429 134.637 204.439 135.788L204.187 187.682C204.177 188.847 203.706 189.96 202.877 190.778C202.049 191.596 200.931 192.052 199.767 192.047Z" fill="white" fill-opacity="0.94"/>
<path d="M199.786 192.61L147.911 192.358C146.619 192.348 145.383 191.825 144.475 190.906C143.566 189.986 143.059 188.743 143.064 187.45L143.316 135.575C143.327 134.283 143.845 133.048 144.76 132.136C145.674 131.225 146.911 130.711 148.202 130.706L200.058 130.977C200.698 130.975 201.333 131.1 201.924 131.345C202.516 131.59 203.053 131.951 203.504 132.406C203.955 132.861 204.311 133.401 204.552 133.995C204.792 134.589 204.912 135.225 204.904 135.866L204.652 187.76C204.65 188.403 204.52 189.04 204.27 189.632C204.021 190.225 203.656 190.762 203.198 191.213C202.749 191.659 202.217 192.012 201.631 192.252C201.046 192.492 200.419 192.613 199.786 192.61ZM148.202 131.676C147.173 131.676 146.187 132.084 145.46 132.812C144.733 133.54 144.325 134.526 144.325 135.556L144.034 187.45C144.034 188.479 144.442 189.466 145.169 190.193C145.896 190.921 146.883 191.33 147.911 191.33L199.748 191.582C200.776 191.582 201.762 191.173 202.489 190.446C203.216 189.718 203.625 188.731 203.625 187.702L203.954 135.788C203.954 134.759 203.546 133.772 202.819 133.045C202.092 132.317 201.105 131.908 200.077 131.908L148.221 131.637L148.202 131.676Z" fill="black"/>
<path d="M196.549 187.818L151.206 187.585C150.771 187.588 150.339 187.504 149.936 187.34C149.533 187.176 149.166 186.933 148.857 186.627C148.547 186.321 148.301 185.957 148.132 185.555C147.963 185.154 147.874 184.723 147.872 184.287L148.085 138.872C148.088 138.434 148.176 138.001 148.346 137.597C148.516 137.193 148.764 136.827 149.075 136.519C149.387 136.211 149.756 135.967 150.161 135.802C150.567 135.636 151.001 135.552 151.439 135.555L196.82 135.788C197.257 135.788 197.69 135.874 198.093 136.042C198.497 136.21 198.863 136.456 199.171 136.766C199.479 137.076 199.723 137.444 199.888 137.849C200.054 138.254 200.138 138.687 200.135 139.125L199.903 184.539C199.887 185.418 199.527 186.254 198.899 186.868C198.271 187.482 197.427 187.823 196.549 187.818Z" fill="#AAB6C2"/>
<path d="M150.237 184.695L166.715 152.588L177.183 174.879L184.666 163.142L197.227 184.676C197.411 184.993 197.507 185.354 197.508 185.721C197.508 186.088 197.412 186.448 197.23 186.766C197.047 187.085 196.785 187.349 196.468 187.534C196.151 187.718 195.791 187.817 195.425 187.818H152.195C151.818 187.843 151.442 187.765 151.105 187.593C150.769 187.421 150.486 187.161 150.285 186.841C150.084 186.521 149.974 186.152 149.966 185.775C149.957 185.397 150.051 185.024 150.237 184.695Z" fill="black"/>
<path d="M181.913 148.553C181.898 149.582 181.474 150.563 180.736 151.28C179.998 151.996 179.006 152.39 177.978 152.375C176.949 152.359 175.969 151.936 175.253 151.197C174.537 150.459 174.143 149.466 174.159 148.437C174.166 147.927 174.274 147.424 174.476 146.956C174.678 146.489 174.97 146.065 175.335 145.71C175.701 145.355 176.133 145.076 176.606 144.888C177.079 144.7 177.585 144.607 178.094 144.615C178.603 144.623 179.106 144.731 179.573 144.933C180.041 145.135 180.464 145.427 180.819 145.792C181.173 146.158 181.452 146.59 181.64 147.064C181.828 147.538 181.921 148.044 181.913 148.553Z" fill="white" fill-opacity="0.94"/>
<path d="M177.997 152.899C176.83 152.878 175.718 152.399 174.901 151.563C174.085 150.728 173.63 149.605 173.635 148.437C173.653 147.266 174.134 146.149 174.973 145.333C175.794 144.523 176.902 144.07 178.055 144.072C179.224 144.092 180.337 144.575 181.151 145.415C181.965 146.255 182.413 147.383 182.398 148.553C182.393 149.134 182.272 149.707 182.043 150.241C181.813 150.774 181.479 151.255 181.06 151.657C180.657 152.057 180.179 152.372 179.653 152.585C179.127 152.798 178.564 152.905 177.997 152.899ZM177.997 145.139C177.095 145.118 176.22 145.451 175.561 146.067C174.901 146.684 174.509 147.534 174.469 148.437C174.464 149.356 174.818 150.24 175.458 150.901C175.768 151.225 176.141 151.483 176.555 151.66C176.968 151.837 177.412 151.928 177.861 151.929C178.778 151.943 179.663 151.595 180.323 150.959C180.65 150.645 180.91 150.269 181.086 149.852C181.263 149.435 181.353 148.987 181.351 148.534C181.361 147.621 181.01 146.742 180.374 146.087C179.739 145.433 178.87 145.057 177.958 145.042L177.997 145.139Z" fill="black"/>
<path d="M191.683 292.926C197.945 300.492 212.464 300.472 216.884 297.33C217.923 296.523 218.786 295.514 219.423 294.364C220.059 293.213 220.455 291.945 220.587 290.637C221.13 288.095 218.745 283.827 218.648 278.745C218.648 277.619 220.199 275.854 221.149 275.233C221.727 274.804 222.254 274.309 222.719 273.759C223.505 272.755 224.071 271.598 224.381 270.361C224.692 269.125 224.74 267.837 224.522 266.581C222.894 257.25 228.69 256.435 229.601 255.426C232.199 252.555 233.575 247.142 231.734 243.573C231.69 243.416 231.625 243.265 231.54 243.127L231.21 242.7C231.21 242.583 234.68 241.361 234.564 241.245C231.927 238.025 222.933 235.425 219.056 238.277C216.555 240.217 217.64 242.467 217.117 245.028C215.508 254.204 210.507 250.499 205.718 254.456C204.885 255.166 204.233 256.064 203.815 257.076C203.397 258.088 203.225 259.185 203.314 260.276C203.314 261.75 204.226 263.186 204.226 264.602C204.226 270.732 199.36 270.422 195.618 273.662C191.024 277.561 187.341 287.63 191.683 292.926Z" fill="black"/>
<path d="M269.807 373.959C281.632 373.823 303.479 353.783 312.3 342.57L311.563 334.189C311.563 334.189 277.386 344.549 268.527 342.919C264.902 342.26 262.227 339.718 259.358 333.821C253.891 322.511 246.079 292.247 229.737 296.961C195.017 306.991 246.059 374.25 269.807 373.959Z" fill="white" fill-opacity="0.94"/>
<path d="M269.651 374.405C252.205 374.405 221.188 339.854 217.776 316.419C216.244 305.982 220.335 298.959 229.582 296.379C243.345 292.499 251.235 312.345 256.489 325.479C257.729 328.622 258.815 331.299 259.823 333.452C262.556 339.078 265.096 341.619 268.605 342.279C277.251 343.87 311.078 333.666 311.427 333.549L312.028 333.375L312.842 342.609L312.707 342.764C303.847 354.016 281.922 374.211 269.807 374.347H269.651V374.405ZM233.129 297C232.028 297.008 230.932 297.164 229.872 297.466C218.9 300.647 217.815 309.474 218.823 316.342C222.138 338.884 252.941 373.435 269.651 373.435H269.807C281.438 373.299 303.15 353.259 311.757 342.395L311.098 334.849C306.29 336.304 276.766 344.956 268.45 343.424C264.572 342.706 261.8 339.99 258.912 334.015C257.865 331.881 256.78 329.145 255.519 325.983C250.576 313.587 243.985 297 233.129 297Z" fill="black"/>
<path d="M243.733 284.565C243.733 284.565 223.243 292.577 226.48 314.596L224.832 331.842C224.832 331.842 251.662 327.535 259.048 318.262C259.048 318.301 258.35 303.868 243.733 284.565Z" fill="#11A97D"/>
<path d="M249.549 300.414C251.707 307.586 253.263 314.925 254.201 322.355C250.514 324.706 246.486 326.473 242.26 327.593C233.653 330.27 240.593 306.001 240.593 306.001L249.549 300.414Z" fill="black"/>
<path d="M257.826 368.585C257.826 368.585 243.404 388.47 183.25 377.722C183.25 377.722 170.805 268.754 226.441 276.398C267.112 281.965 238.615 330.387 257.826 368.585Z" fill="#11A97D"/>
<path d="M185.868 314.926C185.868 314.926 185.868 310.076 185.247 318.631C185.247 318.631 188.31 329.417 206.436 325.692L214.868 299.27L185.868 314.926Z" fill="black"/>
<path d="M306.678 326.527C281.477 288.27 241.795 345.791 241.795 345.791C238.521 349.658 235.854 354.002 233.885 358.672C231.398 360.845 228.371 362.307 225.123 362.901L200.62 372.465C200.62 372.465 177.454 386.685 183.793 401.972C184.204 403.171 184.865 404.269 185.732 405.193C200.639 419.141 224.096 408.316 232.935 402.108C261.258 383.31 265.58 360.205 280.023 361.213C281.059 361.276 282.072 361.54 283.008 361.989C304.041 375.744 312.59 393.165 314.374 394.969L319.336 390.72C319.336 390.72 324.59 353.822 306.678 326.527Z" fill="black"/>
<path d="M319.782 388.703L325.21 399.761L320.558 403.155L310.438 393.941L319.782 388.703Z" fill="white" fill-opacity="0.94"/>
<path d="M320.519 403.834L309.547 393.805L320.015 387.985L325.83 399.916L320.519 403.834ZM311.33 394.135L320.596 402.573L324.473 399.683L319.491 389.537L311.33 394.135Z" fill="black"/>
<path d="M324.008 399.062C324.008 399.062 349.714 398.791 354.754 411.459L313.928 411.924C313.928 411.924 310.497 403.02 317.534 399.528C317.534 399.625 319.86 401.953 324.008 399.062Z" fill="black"/>
<path d="M313.695 410.547L341.785 410.217C341.714 407.413 342.312 404.634 343.53 402.108C343.56 402.063 343.606 402.031 343.659 402.018C343.711 402.006 343.767 402.014 343.814 402.042C343.861 402.069 343.895 402.113 343.911 402.165C343.927 402.217 343.922 402.273 343.898 402.321C342.717 404.782 342.139 407.488 342.211 410.217L354.424 410.081C354.481 410.081 354.535 410.104 354.575 410.144C354.615 410.184 354.637 410.238 354.637 410.294C354.637 410.351 354.615 410.405 354.575 410.445C354.535 410.485 354.481 410.508 354.424 410.508L342.211 410.644C342.211 410.954 342.211 411.284 342.211 411.594C342.211 411.905 341.804 411.866 341.785 411.594C341.766 411.323 341.785 410.973 341.785 410.644L313.695 410.973C313.639 410.973 313.585 410.951 313.545 410.911C313.505 410.871 313.482 410.817 313.482 410.76C313.482 410.703 313.505 410.649 313.545 410.609C313.585 410.569 313.639 410.547 313.695 410.547Z" fill="white" fill-opacity="0.94"/>
<path d="M328.273 404.455C328.273 404.727 328.719 404.727 328.7 404.455C328.624 403.51 328.791 402.562 329.185 401.699C329.578 400.837 330.185 400.09 330.948 399.528C331.658 399.67 332.377 399.755 333.1 399.78C332.443 400.365 331.928 401.091 331.592 401.904C331.256 402.718 331.109 403.596 331.162 404.475C331.162 404.746 331.588 404.746 331.569 404.475C331.515 403.622 331.663 402.769 332 401.983C332.336 401.198 332.853 400.503 333.507 399.955C333.526 399.926 333.537 399.892 333.537 399.858C333.537 399.823 333.526 399.789 333.507 399.761C334.392 399.749 335.25 399.45 335.95 398.907C336.48 398.528 336.882 397.996 337.103 397.383C337.325 396.77 337.355 396.104 337.19 395.473C337.5 394.795 337.598 394.04 337.47 393.305C337.342 392.571 336.994 391.893 336.473 391.36C332.964 388.858 329.494 396.812 330.173 399.314C330.183 399.349 330.203 399.381 330.231 399.405C330.258 399.429 330.292 399.444 330.328 399.45C329.616 400.064 329.059 400.837 328.702 401.707C328.345 402.576 328.198 403.518 328.273 404.455ZM337.113 394.949C336.124 393.844 334.147 394.348 333.139 395.124C331.945 395.94 331.084 397.159 330.716 398.558C330.749 396.929 331.255 395.346 332.17 393.999C333.042 392.389 336.047 389.44 337.093 392.699C337.372 393.422 337.379 394.222 337.113 394.949ZM332.79 395.978C333.416 395.288 334.269 394.848 335.194 394.736C335.513 394.694 335.839 394.732 336.14 394.847C336.441 394.962 336.709 395.151 336.919 395.396C335.892 397.336 333.042 398.247 331.103 398.946C331.294 397.787 331.892 396.734 332.79 395.978ZM331.898 399.101C333.928 398.654 335.755 397.55 337.093 395.958C337.093 395.958 337.093 395.958 337.093 396.113C337.037 396.815 336.761 397.481 336.305 398.017C335.85 398.553 335.237 398.932 334.554 399.101C333.678 399.28 332.774 399.28 331.898 399.101Z" fill="white" fill-opacity="0.94"/>
<path d="M324.493 390.798C324.678 390.51 324.802 390.186 324.856 389.848C324.911 389.51 324.895 389.164 324.809 388.833C324.723 388.501 324.57 388.191 324.359 387.921C324.148 387.652 323.883 387.429 323.582 387.267C323.302 386.477 322.867 385.751 322.303 385.133C321.643 384.667 307.802 393.203 308.403 395.492C309.004 397.781 310.671 397.432 310.671 397.432C310.671 397.432 310.012 399.857 311.989 399.042C313.967 398.228 321.101 395.279 324.493 390.798Z" fill="black"/>
<path d="M231.869 277.406C231.869 277.406 234.661 287.533 231.869 292.15C228.089 287.009 221.188 278.57 217.194 276.087C219.962 272.281 222.254 268.151 224.018 263.787L235.843 266.678C235.843 266.678 227.624 271.838 231.869 277.406Z" fill="white" fill-opacity="0.94"/>
<path d="M231.947 293.178L231.482 292.538C228.264 288.135 221.072 279.133 216.962 276.611L216.458 276.32L216.826 275.854C219.56 272.082 221.825 267.991 223.572 263.671L223.747 263.245L237.317 266.543L236.25 267.202C236.25 267.202 232.005 269.86 231.365 273.274C231.25 273.957 231.282 274.656 231.459 275.326C231.636 275.995 231.955 276.618 232.393 277.154V277.329C232.509 277.756 235.204 287.727 232.393 292.48L231.947 293.178ZM217.989 276.029C222.06 278.823 228.322 286.524 231.811 291.238C233.75 286.835 231.656 278.687 231.404 277.659C230.893 277.012 230.525 276.265 230.325 275.465C230.124 274.666 230.096 273.833 230.241 273.022C230.955 270.541 232.511 268.387 234.641 266.931L224.367 264.428C222.668 268.515 220.529 272.405 217.989 276.029Z" fill="black"/>
<path d="M240.806 247.123C234.874 245.397 228.108 250.732 225.666 259.035C223.223 267.338 226.073 275.505 232.005 277.251C237.937 278.997 244.702 273.662 247.145 265.34C249.587 257.017 246.738 248.869 240.806 247.123Z" fill="white" fill-opacity="0.94"/>
<path d="M234.312 278.105C233.479 278.106 232.65 277.988 231.85 277.756C230.262 277.219 228.827 276.305 227.669 275.092C226.511 273.879 225.664 272.403 225.201 270.791C223.977 266.922 223.977 262.768 225.201 258.899C227.721 250.324 234.796 244.815 241 246.638C242.591 247.169 244.029 248.081 245.188 249.295C246.347 250.509 247.192 251.988 247.649 253.603C248.81 257.481 248.817 261.613 247.671 265.496C246.525 269.378 244.274 272.842 241.194 275.466C239.266 277.103 236.839 278.033 234.312 278.105ZM238.441 247.337C233.381 247.337 228.147 252.167 226.092 259.19C224.937 262.851 224.937 266.78 226.092 270.442C226.436 271.927 227.169 273.294 228.215 274.402C229.261 275.511 230.583 276.321 232.045 276.749C233.507 277.178 235.057 277.209 236.535 276.841C238.013 276.472 239.367 275.717 240.457 274.652C243.353 272.148 245.466 268.862 246.542 265.187C247.618 261.512 247.612 257.604 246.525 253.933C246.112 252.48 245.356 251.149 244.32 250.051C243.284 248.954 241.999 248.122 240.573 247.628C239.878 247.438 239.161 247.34 238.441 247.337Z" fill="black"/>
<path d="M244.644 263.458C245.227 266.658 245.506 269.905 245.478 273.158C245.467 273.273 245.432 273.384 245.374 273.485C245.317 273.585 245.239 273.672 245.146 273.74C245.052 273.808 244.945 273.855 244.832 273.878C244.719 273.902 244.602 273.901 244.489 273.875C242.615 273.515 240.787 272.942 239.042 272.168C237.627 271.218 244.644 263.458 244.644 263.458Z" fill="white" fill-opacity="0.94"/>
<path d="M244.664 274.38H244.373C242.438 274.031 240.556 273.438 238.77 272.615C238.652 272.537 238.552 272.435 238.478 272.314C238.404 272.193 238.359 272.057 238.344 271.916C238.092 270.112 242.803 264.738 244.16 263.128L244.877 262.333L245.071 263.4C245.654 266.632 245.933 269.912 245.904 273.197C245.888 273.385 245.831 273.568 245.738 273.732C245.644 273.896 245.516 274.038 245.361 274.147C245.156 274.29 244.914 274.37 244.664 274.38ZM244.295 264.68C241.407 267.998 239.216 271.16 239.391 271.8C241.061 272.526 242.812 273.054 244.605 273.371C244.642 273.388 244.681 273.397 244.722 273.397C244.762 273.397 244.802 273.388 244.838 273.371C244.872 273.346 244.899 273.314 244.92 273.277C244.94 273.24 244.951 273.2 244.954 273.158C245.004 270.296 244.77 267.437 244.256 264.622L244.295 264.68Z" fill="black"/>
<path d="M230.066 254.534C230.834 254.933 231.712 255.063 232.562 254.905C233.412 254.747 234.185 254.309 234.758 253.661C237.103 251.41 240.573 253.544 242.376 256.319C244.179 259.093 246.253 261.343 250.13 261.265C253.019 261.265 258.098 258.181 255.694 252.865C253.503 248.054 249.374 250.615 248.754 247.899C248.134 245.183 245.09 241.322 241.853 242.564C238.615 243.806 234.099 239.615 231.501 239.305C226.519 238.723 221.983 247.065 221.052 248.617C216.768 255.504 217.446 263.205 221.285 265.204C227.352 268.385 226.81 256.804 230.066 254.534Z" fill="black"/>
<path d="M229.853 257.812C229.853 257.812 229.039 254.514 226.519 255.426C223.999 256.338 223.34 263.186 227.003 262.798C230.667 262.41 229.853 257.812 229.853 257.812Z" fill="white" fill-opacity="0.94"/>
<path d="M226.81 263.341C226.153 263.332 225.523 263.085 225.035 262.646C224.546 262.208 224.233 261.607 224.154 260.955C223.669 258.782 224.58 255.601 226.441 254.922C226.791 254.785 227.165 254.725 227.539 254.745C227.914 254.766 228.28 254.865 228.612 255.038C229.572 255.646 230.265 256.596 230.551 257.696C230.8 259.158 230.51 260.66 229.737 261.925C229.44 262.321 229.061 262.647 228.626 262.881C228.191 263.116 227.71 263.253 227.217 263.283L226.81 263.341ZM227.449 255.795C227.231 255.799 227.015 255.838 226.81 255.911C225.608 256.338 224.755 258.86 225.181 260.722C225.433 261.867 226.073 262.391 227.12 262.274C227.466 262.256 227.805 262.163 228.113 262.003C228.42 261.842 228.69 261.617 228.903 261.343C229.492 260.308 229.71 259.104 229.524 257.929C229.309 257.15 228.837 256.466 228.186 255.989C227.931 255.848 227.643 255.781 227.352 255.795H227.449Z" fill="black"/>
<path d="M244.353 264.447L243.966 261.479L237.995 269.239L237.045 272.052L238.867 272.595C238.867 272.595 238.422 271.761 239.274 271.741C240.127 271.722 240.69 270.616 240.69 270.616L244.353 264.447Z" fill="white" fill-opacity="0.94"/>
<path d="M229.116 255.601L228.399 256.92L226.461 262.352C226.414 262.904 226.22 263.433 225.898 263.885C225.356 264.661 228.322 265.475 228.69 265.631C229.029 265.699 229.378 265.699 229.717 265.631C230.606 264.161 231.333 262.6 231.889 260.975C232.199 259.461 232.334 258.588 232.082 258.162C231.146 257.249 230.155 256.394 229.116 255.601Z" fill="white" fill-opacity="0.94"/>
<path d="M240.224 372.019L199.515 371.534C199.515 371.534 189.376 373.203 184.007 377.218C184.007 377.218 174.702 394.678 187.884 406.57C190.052 408.108 192.355 409.446 194.766 410.566C201.415 414.621 240.864 408.626 255.423 411.323C265.232 411.323 334.554 410.217 345.177 409.034L347.445 408.801H347.639L347.445 402.011C332.116 392.891 315.823 385.499 298.866 379.973C262.905 369.012 260.676 373.183 240.224 372.019Z" fill="black"/>
<path d="M345.953 400.265L358.456 403.078L358.166 409.092L344.072 411.284L345.953 400.265Z" fill="white" fill-opacity="0.94"/>
<path d="M343.413 411.924L345.507 399.625L359.077 402.671L358.728 409.557L343.413 411.924ZM346.379 400.905L344.712 410.605L357.662 408.665L357.894 403.544L346.379 400.905Z" fill="black"/>
<path d="M357.216 401.565C357.216 401.565 372.724 379.721 386.507 383.251L361.849 417.977C361.849 417.977 352.156 415.397 353.61 407.307C353.61 407.385 357.022 406.9 357.216 401.565Z" fill="black"/>
<path d="M360.569 417.298L377.551 393.417C375.121 391.755 373.126 389.533 371.735 386.937C371.6 386.685 372.007 386.51 372.142 386.763C373.476 389.279 375.398 391.435 377.745 393.048L385.131 382.669C385.286 382.436 385.654 382.669 385.499 382.921L378.113 393.3C378.385 393.475 378.637 393.688 378.927 393.863C379.218 394.037 378.927 394.367 378.675 394.212C378.392 394.042 378.12 393.854 377.861 393.649L360.879 417.55C360.842 417.564 360.801 417.568 360.761 417.561C360.721 417.554 360.684 417.537 360.653 417.512C360.622 417.487 360.597 417.453 360.583 417.416C360.568 417.378 360.563 417.338 360.569 417.298Z" fill="white" fill-opacity="0.94"/>
<path d="M364.446 401.254C364.699 401.41 364.951 401.041 364.718 400.905C363.875 400.387 363.179 399.663 362.694 398.801C362.209 397.939 361.951 396.967 361.946 395.978C362.51 395.474 363.023 394.915 363.477 394.309C363.562 395.225 363.856 396.109 364.337 396.893C364.817 397.677 365.472 398.339 366.249 398.829C366.501 398.985 366.753 398.616 366.521 398.461C365.764 397.989 365.13 397.343 364.671 396.578C364.213 395.812 363.943 394.948 363.884 394.057C363.879 394.026 363.865 393.997 363.845 393.973C363.824 393.949 363.798 393.931 363.768 393.921C364.285 393.161 364.556 392.26 364.543 391.341C364.543 390.158 363.71 388.431 362.392 388.179C362.012 387.506 361.44 386.962 360.749 386.616C360.059 386.271 359.28 386.139 358.515 386.239C354.25 387.655 358.825 395.473 361.345 396.424C361.376 396.445 361.414 396.456 361.451 396.456C361.489 396.456 361.526 396.445 361.558 396.424C361.627 397.4 361.924 398.345 362.426 399.184C362.928 400.024 363.62 400.733 364.446 401.254ZM361.771 387.985C360.24 388.14 359.445 390.119 359.464 391.458C359.437 392.958 359.938 394.421 360.88 395.59C359.535 394.56 358.512 393.166 357.933 391.574C357.119 389.847 356.421 385.579 359.872 386.627C360.646 386.839 361.32 387.32 361.771 387.985ZM359.988 392.272C359.78 391.318 359.939 390.321 360.434 389.479C360.586 389.182 360.813 388.93 361.091 388.746C361.37 388.563 361.691 388.454 362.023 388.431C362.954 390.371 362.023 393.475 361.461 395.512C360.603 394.632 360.082 393.479 359.988 392.253V392.272ZM362.081 394.93C362.944 392.944 363.135 390.73 362.624 388.625C362.624 388.625 362.721 388.625 362.76 388.625C363.321 389.1 363.715 389.743 363.886 390.458C364.057 391.173 363.995 391.924 363.71 392.602C363.344 393.483 362.788 394.271 362.081 394.911V394.93Z" fill="white" fill-opacity="0.94"/>
<path d="M350.722 397.801C350.608 397.464 350.426 397.154 350.188 396.89C349.95 396.626 349.66 396.414 349.337 396.267C349.013 396.12 348.663 396.04 348.308 396.034C347.952 396.028 347.599 396.094 347.271 396.23C346.443 395.945 345.567 395.827 344.693 395.88C343.878 396.094 341.727 412.933 343.995 413.942C346.263 414.95 347 413.36 347 413.36C347 413.36 348.55 415.455 349.171 413.36C349.791 411.264 352.137 403.505 350.722 397.801Z" fill="black"/>
<path d="M150.78 328.486C148.55 348.448 198.235 351.397 215.101 352.134L216.69 344.374C216.69 344.374 176.659 337.507 177.493 328.389C178.075 321.948 221.517 299.173 215.857 289.783C198.352 260.645 153.145 307.165 150.78 328.486Z" fill="white" fill-opacity="0.94"/>
<path d="M215.527 352.677H215.178C181.37 351.125 160.531 346.042 153.145 337.39C152.051 336.189 151.228 334.768 150.73 333.222C150.231 331.676 150.07 330.041 150.256 328.427C152.001 312.675 176.117 284.72 195.463 280.471C199.438 279.37 203.668 279.658 207.457 281.287C211.246 282.917 214.366 285.79 216.303 289.434C219.947 295.487 205.718 305.885 193.176 315.061C185.829 320.454 178.21 326.022 177.997 328.35C177.357 335.45 205.776 341.93 216.768 343.87H217.311L215.527 352.677ZM200.581 280.898C198.937 280.902 197.298 281.091 195.696 281.461C176.698 285.612 153.048 313.063 151.284 328.505C151.12 329.977 151.272 331.467 151.73 332.876C152.188 334.285 152.941 335.579 153.94 336.672C158.864 342.492 173.325 349.69 214.674 351.552L216.07 344.684C210.022 343.617 176.155 337.235 176.97 328.214C177.202 325.556 183.037 321.153 192.478 314.188C204.109 305.71 218.474 295.157 215.333 289.938C211.786 283.963 206.804 280.937 200.581 280.937V280.898Z" fill="black"/>
<path d="M199.67 319.368C199.67 319.368 225.143 296.263 217.33 284.08C209.518 271.897 183.115 279.152 169.778 289.997C169.739 289.997 183.716 315.76 199.67 319.368Z" fill="#11A97D"/>
<path d="M227.953 349.302C226.374 348.015 224.565 347.041 222.622 346.431C222.409 346.275 222.196 346.178 221.983 346.043C222.197 345.898 222.404 345.743 222.603 345.577C223.785 344.452 224.832 342.182 223.417 340.785C222.002 339.388 219.85 341.154 218.474 341.891C216.889 342.822 215.137 343.435 213.317 343.695C211.551 343.569 209.803 343.257 208.103 342.764C206.862 342.492 204.923 341.775 203.741 342.628C202.718 343.626 202.039 344.924 201.802 346.334C201.776 346.997 201.907 347.656 202.183 348.26C202.459 348.863 202.873 349.393 203.392 349.806C204.187 350.631 205.086 351.349 206.067 351.94C207.634 353.334 209.563 354.255 211.631 354.598C212.082 354.636 212.536 354.636 212.988 354.598C214.374 355.983 216.12 356.95 218.028 357.391C218.218 357.436 218.417 357.436 218.607 357.392C218.798 357.348 218.976 357.261 219.127 357.137C219.279 357.014 219.4 356.857 219.482 356.679C219.564 356.501 219.603 356.307 219.598 356.111C220.012 356.167 220.433 356.114 220.819 355.956C221.236 355.77 221.562 355.429 221.731 355.005C222.148 354.95 222.558 354.846 222.952 354.695C223.566 354.443 224.095 354.021 224.476 353.478C224.858 352.934 225.075 352.293 225.104 351.63C226.469 353.256 227.514 355.125 228.186 357.139C228.268 357.36 228.406 357.557 228.586 357.709C228.766 357.862 228.983 357.965 229.214 358.01C229.446 358.055 229.685 358.039 229.909 357.965C230.133 357.891 230.334 357.76 230.493 357.585C232.955 355.335 229.834 350.912 227.953 349.302Z" fill="white" fill-opacity="0.94"/>
<path d="M229.485 358.575H229.058C228.759 358.505 228.482 358.359 228.255 358.152C228.028 357.945 227.857 357.683 227.759 357.391C227.215 355.792 226.438 354.282 225.453 352.91C225.261 353.431 224.964 353.906 224.58 354.307C224.197 354.707 223.735 355.024 223.223 355.238C222.877 355.39 222.512 355.494 222.138 355.548C221.899 355.981 221.524 356.322 221.071 356.518C220.765 356.651 220.436 356.723 220.102 356.732C219.984 357.108 219.754 357.44 219.443 357.682C219.235 357.839 218.995 357.946 218.74 357.997C218.485 358.047 218.221 358.039 217.97 357.973C216.041 357.523 214.267 356.566 212.833 355.199C212.433 355.228 212.031 355.228 211.631 355.199C209.473 354.831 207.46 353.871 205.815 352.425C204.814 351.822 203.896 351.091 203.082 350.252C202.514 349.783 202.063 349.188 201.764 348.515C201.465 347.842 201.325 347.108 201.356 346.372C201.598 344.83 202.332 343.407 203.45 342.318C204.092 342.009 204.792 341.841 205.504 341.825C206.216 341.808 206.923 341.943 207.579 342.221L208.219 342.376L209.537 342.686C210.756 343.036 212.012 343.238 213.279 343.288C215.014 343.017 216.684 342.424 218.202 341.542C218.454 341.425 218.706 341.251 218.997 341.076C220.296 340.281 222.235 339.136 223.766 340.533C224.039 340.8 224.254 341.12 224.397 341.474C224.541 341.828 224.61 342.208 224.6 342.589C224.516 343.916 223.926 345.159 222.952 346.062C224.912 346.687 226.735 347.681 228.322 348.991C230.282 350.645 231.576 352.954 231.966 355.49C231.989 355.97 231.907 356.45 231.726 356.896C231.546 357.341 231.27 357.742 230.919 358.07C230.523 358.416 230.01 358.596 229.485 358.575ZM224.677 350.349L225.55 351.3C226.969 352.958 228.055 354.875 228.748 356.945C228.792 357.077 228.868 357.196 228.97 357.291C229.072 357.386 229.195 357.453 229.33 357.488C229.486 357.513 229.646 357.502 229.798 357.455C229.949 357.408 230.087 357.326 230.202 357.217C230.449 356.989 230.641 356.708 230.765 356.396C230.889 356.084 230.942 355.748 230.919 355.413C230.529 353.181 229.37 351.156 227.643 349.69C226.11 348.444 224.353 347.502 222.467 346.915L222.312 346.818L222.002 346.624L221.711 346.45L221.091 346.043L221.924 345.422L222.273 345.169C223.039 344.463 223.51 343.493 223.592 342.454C223.6 342.212 223.558 341.972 223.468 341.748C223.377 341.524 223.241 341.322 223.068 341.154C222.215 340.3 221.13 340.902 219.579 341.833L218.745 342.337C217.093 343.315 215.271 343.973 213.375 344.277C211.99 344.237 210.616 344.022 209.285 343.637L208.006 343.327L207.327 343.171C206.222 342.9 204.865 342.551 204.07 343.171C203.167 344.088 202.582 345.272 202.403 346.547C202.209 347.73 202.985 348.642 203.857 349.573C204.625 350.353 205.484 351.037 206.416 351.61C207.925 352.952 209.778 353.846 211.766 354.19C212.186 354.229 212.607 354.229 213.027 354.19H213.24L213.414 354.346C214.729 355.668 216.388 356.595 218.202 357.023C218.305 357.05 218.412 357.054 218.516 357.034C218.62 357.014 218.719 356.97 218.803 356.906C218.907 356.826 218.99 356.723 219.047 356.605C219.104 356.488 219.134 356.358 219.133 356.227V355.684H219.676C219.997 355.725 220.324 355.685 220.626 355.568C220.773 355.505 220.906 355.412 221.016 355.295C221.127 355.178 221.211 355.04 221.265 354.889L221.401 354.617H221.692C222.057 354.568 222.414 354.477 222.758 354.346C223.279 354.13 223.728 353.772 224.054 353.312C224.38 352.852 224.569 352.309 224.6 351.746L224.677 350.349Z" fill="black"/>
<path d="M203.915 341.794L206.203 342.726L210.08 343.812L208.335 351.436L205.486 351.126L199.67 350.796L198.41 347.343C198.335 346.621 198.421 345.893 198.662 345.209C199.066 344.539 199.679 344.021 200.407 343.734C201.182 343.54 200.872 341.484 201.453 341.426C202.284 341.471 203.108 341.595 203.915 341.794Z" fill="white" fill-opacity="0.94"/>
<path d="M230.551 359.487L196.471 359.196L228.322 370.564L230.551 359.487Z" fill="black"/>
<path d="M196.626 362.067L196.898 359.875L227.779 370.913L227.585 373.939L196.626 362.067Z" fill="white" fill-opacity="0.94"/>
<path d="M197.324 360.573L227.255 371.262L227.12 373.202L197.189 361.737L197.324 360.573ZM196.471 359.196L196.064 362.397L228.05 374.657L228.322 370.564L196.471 359.196Z" fill="black"/>
<path d="M298.827 371.185L228.322 370.564L228.05 374.658L298.555 374.832L298.827 371.185Z" fill="black"/>
<path d="M228.942 370.06L236.871 332.87C236.977 332.357 237.257 331.895 237.663 331.563C238.068 331.231 238.576 331.049 239.1 331.047L303.964 331.629C304.298 331.629 304.628 331.704 304.93 331.848C305.232 331.993 305.498 332.203 305.708 332.463C305.927 332.73 306.083 333.043 306.163 333.379C306.244 333.715 306.247 334.065 306.174 334.403L298.42 370.739L228.942 370.06Z" fill="white" fill-opacity="0.94"/>
<path d="M239.119 330.523V331.551L303.964 332.133C304.225 332.136 304.482 332.196 304.716 332.31C304.951 332.424 305.157 332.589 305.321 332.792C305.484 332.993 305.6 333.228 305.661 333.48C305.721 333.732 305.724 333.994 305.67 334.247L297.915 370.156L229.485 369.555L237.239 332.967C237.323 332.567 237.543 332.207 237.86 331.95C238.178 331.692 238.575 331.551 238.984 331.551V330.523H239.119ZM239.119 330.523C238.473 330.527 237.847 330.752 237.346 331.161C236.845 331.571 236.499 332.14 236.367 332.773L228.322 370.525L298.827 371.146L306.581 334.422C306.66 334.018 306.65 333.601 306.551 333.202C306.452 332.802 306.267 332.429 306.008 332.109C305.749 331.789 305.423 331.53 305.053 331.349C304.683 331.169 304.278 331.072 303.867 331.066L239.042 330.484L239.119 330.523Z" fill="black"/>
<path fill-rule="evenodd" clip-rule="evenodd" d="M279.771 194.453C289.052 150.101 291.348 104.57 286.575 59.5084L386.391 48.8191C392.291 104.355 389.465 160.472 378.016 215.133L279.771 194.453Z" fill="white" fill-opacity="0.94"/>
<path d="M385.906 49.4205C391.693 104.545 388.881 160.234 377.571 214.493L293.554 196.781L280.43 193.988C289.585 149.927 291.861 104.713 287.176 59.9546L324.609 55.9583L385.906 49.3817V49.4205ZM386.876 48.2178L286.071 59.0234C290.915 104.369 288.606 150.194 279.228 194.822L378.52 215.754C390.111 160.686 392.964 104.135 386.972 48.179L386.876 48.2178Z" fill="black"/>
<path d="M370.941 100.694L367.568 104.574L369.894 109.171L365.648 112.062L366.695 117.106L361.849 118.774L361.539 123.915L356.402 124.264L354.793 129.153L349.752 128.183L346.941 132.509L342.308 130.259L338.489 133.712L334.573 130.375L330.58 132.878L328.079 128.882L323.621 130.414L322.07 125.952L317.379 126.457L316.875 121.762L312.183 121.238L312.707 116.543L308.248 114.991L309.799 110.529L305.786 108.027L308.287 104.03L304.952 100.694L308.287 97.3569L305.786 93.3412L309.799 90.858L308.248 86.3961L312.707 84.8441L312.183 80.1493L316.875 79.6061L317.379 74.9114L322.07 75.4158L323.621 70.9539L328.079 72.5058L330.58 68.5095L334.573 71.0121L338.489 67.6753L342.308 71.1091L346.941 68.8781L349.752 73.1848L354.812 72.2148L356.421 77.1036L361.539 77.4722L361.849 82.6131L366.695 84.2815L365.648 89.3254L369.894 92.216L367.568 96.8137L370.941 100.694Z" fill="#11A97D"/>
<path d="M338.509 135.051L334.477 131.617L330.251 134.255L327.614 130.084L322.962 131.695L321.353 127.039L316.448 127.562L315.983 122.674L311.078 122.208L311.621 117.319L306.988 115.709L308.578 111.053L304.352 108.357L306.949 104.166L303.46 100.694L306.949 97.2018L304.352 93.1085L308.519 90.5089L306.93 85.853L311.563 84.2234L311.02 79.3541L315.905 78.7721L316.448 73.8833L321.333 74.4071L322.942 69.7512L327.595 71.3614L330.212 67.1904L334.477 69.8288L338.509 66.395L342.386 69.984L347.213 67.656L350.14 72.1373L355.394 71.1286L357.061 76.2113L362.411 76.5799L362.702 81.9342L367.761 83.6802L366.676 88.9375L371.096 91.9445L368.673 96.7168L372.201 100.694L368.769 104.748L371.193 109.521L366.773 112.508L367.858 117.766L362.799 119.512L362.508 124.866L357.177 125.234L355.49 130.317L350.237 129.308L347.31 133.848L342.483 131.52L338.509 135.051ZM334.632 129.134L338.509 132.374L342.173 129.076L346.612 131.21L349.306 127.077L354.153 128.009L355.704 123.314L360.569 122.984L360.86 118.057L365.513 116.427L364.447 111.616L368.518 108.822L366.385 104.419L369.642 100.694L366.385 96.9884L368.614 92.5653L364.447 89.7717L365.455 84.9412L360.802 83.331L360.569 78.4035L355.646 78.0737L354.114 73.3789L349.268 74.3101L346.573 70.178L342.114 72.3119L338.451 69.014L334.574 72.2537L330.89 69.8288L328.506 73.7087L324.241 72.2343L322.768 76.5023L318.27 76.0173L317.786 80.518L313.308 81.0418L313.792 85.5232L309.528 87.017L311.001 91.2849L307.124 93.6711L309.508 97.551L306.29 100.694L309.469 103.875L307.104 107.755L310.981 110.141L309.508 114.409L313.773 115.903L313.288 120.268L317.786 120.792L318.27 125.273L322.768 124.788L324.241 129.056L328.506 127.601L330.89 131.481L334.632 129.134Z" fill="black"/>
<path d="M332.519 183.007L332.771 183.783C332.921 184.005 333.083 184.219 333.255 184.424C333.47 184.584 333.696 184.727 333.934 184.85C334.186 184.942 334.445 185.013 334.709 185.064C335.79 185.148 336.878 185.017 337.908 184.676C339.962 183.992 341.918 183.04 343.723 181.843C347.384 179.527 350.655 176.647 353.416 173.308C356.328 170.109 358.247 166.132 358.941 161.862C359.185 159.746 358.814 157.604 357.875 155.693C356.887 153.814 355.481 152.188 353.765 150.94C352.974 150.267 352.017 149.819 350.995 149.642C349.972 149.465 348.921 149.564 347.949 149.931C346.109 150.961 344.623 152.523 343.685 154.412C341.723 158.246 340.488 162.409 340.04 166.692C339.422 170.952 339.514 175.285 340.312 179.515C340.665 181.612 341.487 183.601 342.715 185.335C343.315 186.148 344.126 186.779 345.061 187.159C346.021 187.515 347.054 187.629 348.068 187.491C349.083 187.352 350.047 186.965 350.877 186.364C351.659 185.72 352.316 184.937 352.815 184.055C353.912 182.276 354.649 180.298 354.986 178.235C355.373 176.142 355.432 174.002 355.161 171.891C355.042 170.855 354.754 169.846 354.308 168.904C354.112 168.469 353.821 168.084 353.455 167.779C353.281 167.659 353.084 167.578 352.877 167.541C352.67 167.505 352.457 167.513 352.253 167.565C351.302 167.941 350.504 168.624 349.985 169.505C349.369 170.342 348.922 171.291 348.667 172.299C348.23 174.378 348.23 176.525 348.667 178.604C349.05 180.715 349.702 182.768 350.605 184.715C351.437 186.687 352.598 188.504 354.036 190.088C354.694 190.866 355.585 191.41 356.576 191.64C356.799 191.65 357.022 191.616 357.231 191.54C357.441 191.463 357.633 191.346 357.797 191.194C358.129 190.816 358.392 190.383 358.573 189.914C358.915 188.91 359.13 187.867 359.212 186.81C359.387 185.743 359.406 184.656 359.484 183.589C359.545 181.443 359.23 179.303 358.553 177.265C358.23 176.281 357.655 175.398 356.886 174.704C356.684 174.563 356.47 174.44 356.246 174.336C356.015 174.307 355.78 174.307 355.549 174.336C355.074 174.422 354.643 174.669 354.327 175.034C353.062 176.751 352.444 178.861 352.583 180.99C352.652 183.147 353.287 185.248 354.424 187.081C355.506 188.967 357.224 190.404 359.271 191.136C360.308 191.453 361.404 191.525 362.473 191.346C363.543 191.168 364.557 190.744 365.435 190.108C364.561 190.768 363.546 191.216 362.469 191.415C361.392 191.613 360.283 191.558 359.232 191.252C357.134 190.553 355.358 189.121 354.23 187.217C353.052 185.353 352.383 183.213 352.292 181.009C352.103 178.767 352.722 176.53 354.036 174.704C354.428 174.241 354.97 173.932 355.568 173.831C355.87 173.792 356.177 173.792 356.479 173.831C356.756 173.95 357.022 174.093 357.274 174.258C358.154 175.01 358.823 175.98 359.212 177.071C359.922 179.163 360.263 181.362 360.22 183.57C360.22 184.676 360.22 185.782 359.968 186.868C359.883 187.979 359.655 189.074 359.29 190.127C359.091 190.678 358.788 191.185 358.398 191.621C358.168 191.838 357.897 192.006 357.6 192.116C357.304 192.226 356.989 192.275 356.673 192.261C355.522 192.04 354.482 191.431 353.726 190.535C352.218 188.911 350.998 187.041 350.121 185.006C349.215 182.999 348.564 180.888 348.182 178.72C347.717 176.533 347.717 174.272 348.182 172.085C348.448 170.975 348.929 169.927 349.597 169.001C350.24 167.999 351.194 167.236 352.311 166.828C352.64 166.743 352.984 166.731 353.318 166.791C353.653 166.851 353.971 166.983 354.25 167.177C354.738 167.552 355.13 168.037 355.393 168.593C355.879 169.616 356.2 170.71 356.343 171.833C356.628 174.039 356.582 176.275 356.208 178.468C355.861 180.683 355.091 182.81 353.94 184.734C353.32 185.706 352.532 186.56 351.613 187.256C350.665 187.937 349.569 188.382 348.415 188.556C347.25 188.689 346.07 188.556 344.964 188.168C343.877 187.717 342.932 186.98 342.231 186.034C340.917 184.2 340.042 182.09 339.672 179.865C338.884 175.528 338.812 171.091 339.459 166.731C339.977 162.352 341.291 158.105 343.336 154.199C344.267 152.184 345.788 150.499 347.697 149.368C348.772 148.967 349.934 148.858 351.064 149.053C352.195 149.247 353.254 149.737 354.133 150.474C355.934 151.791 357.402 153.512 358.418 155.499C359.404 157.513 359.788 159.77 359.523 161.997C358.76 166.362 356.738 170.408 353.707 173.637C350.853 176.953 347.497 179.8 343.762 182.076C341.946 183.229 339.992 184.148 337.946 184.812C336.901 185.142 335.799 185.254 334.709 185.141C334.439 185.082 334.174 185.004 333.914 184.909C333.673 184.785 333.445 184.635 333.236 184.462C333.059 184.254 332.897 184.034 332.751 183.803L332.519 183.007Z" fill="black"/>
<path d="M366.637 200.991L328.506 193.755C328.362 193.729 328.234 193.647 328.15 193.527C328.067 193.407 328.034 193.259 328.06 193.114C328.086 192.97 328.168 192.842 328.288 192.759C328.408 192.675 328.556 192.643 328.7 192.668L366.85 199.904C366.92 199.918 366.987 199.946 367.046 199.986C367.106 200.025 367.157 200.076 367.196 200.136C367.236 200.195 367.264 200.262 367.277 200.332C367.291 200.402 367.291 200.474 367.277 200.545C367.265 200.616 367.239 200.685 367.2 200.747C367.162 200.808 367.111 200.862 367.051 200.903C366.992 200.945 366.924 200.974 366.853 200.989C366.782 201.004 366.709 201.005 366.637 200.991Z" fill="black"/>
<path d="M306.174 183.899C305.51 178.811 303.892 173.895 301.405 169.408C299.88 166.744 297.756 164.473 295.202 162.773L302.045 151.541C310.923 156.74 323.756 152.355 325.792 151.541L333.972 177.711L318.464 168.011C318.708 167.189 318.673 166.309 318.365 165.508C318.056 164.708 317.491 164.033 316.758 163.588C315.883 163.051 314.83 162.883 313.831 163.122C313.231 163.261 312.673 163.541 312.203 163.939C311.732 164.337 311.364 164.841 311.127 165.41C310.89 165.979 310.792 166.596 310.841 167.21C310.89 167.824 311.084 168.418 311.408 168.942C311.732 169.477 312.177 169.929 312.707 170.261C313.425 170.703 314.268 170.899 315.108 170.819C315.947 170.738 316.738 170.386 317.359 169.815L333.779 178.467L306.174 183.899Z" fill="black"/>
<path d="M156.324 70.2557C155.581 71.4719 155.085 72.8228 154.864 74.2311C154.643 75.6394 154.701 77.0775 155.036 78.4631C155.371 79.8487 155.976 81.1546 156.815 82.3062C157.655 83.4577 158.713 84.4323 159.93 85.1741L166.715 89.2287L178.016 70.7019L171.27 66.5892C170.05 65.8419 168.694 65.3438 167.28 65.1236C165.867 64.9035 164.423 64.9656 163.034 65.3065C161.644 65.6473 160.336 66.2602 159.184 67.1096C158.033 67.9591 157.061 69.0284 156.324 70.2557Z" fill="black"/>
<path d="M268.023 146.206L267.636 146.846C267.396 147.25 267.055 147.583 266.647 147.815C266.239 148.046 265.778 148.167 265.309 148.165C264.808 148.168 264.317 148.026 263.894 147.758L167.723 89.0348L178.23 71.769L274.401 130.55C274.708 130.735 274.975 130.979 275.186 131.269C275.397 131.558 275.549 131.886 275.632 132.235C275.715 132.584 275.728 132.945 275.67 133.299C275.611 133.653 275.483 133.991 275.293 134.294L274.905 134.935L300.688 150.668L293.806 161.958L268.023 146.206Z" fill="white" fill-opacity="0.94"/>
<path d="M178.346 72.4868L274.11 130.958C274.416 131.143 274.669 131.404 274.847 131.714C275.065 132.063 275.181 132.466 275.181 132.878C275.181 133.29 275.065 133.693 274.847 134.042L274.711 134.275L274.207 135.09L275.021 135.594L299.97 150.842L293.612 161.279L268.663 146.051L267.829 145.546L267.325 146.361L267.17 146.613C266.969 146.946 266.684 147.22 266.344 147.407C266.003 147.594 265.62 147.689 265.232 147.68C264.821 147.679 264.419 147.565 264.068 147.35L168.401 88.8796L178.346 72.4868ZM178.036 71.1482L167.063 89.2288L263.642 148.185C264.145 148.488 264.721 148.649 265.309 148.65C265.858 148.653 266.398 148.513 266.877 148.244C267.356 147.976 267.758 147.588 268.042 147.118L268.197 146.865L293.961 162.618L301.347 150.513L275.564 134.779L275.719 134.547C276.024 134.043 276.185 133.466 276.185 132.878C276.185 132.29 276.024 131.713 275.719 131.21C275.463 130.762 275.095 130.388 274.653 130.123L178.074 71.1482H178.036Z" fill="black"/>
</svg>
