<svg width="328" height="291" viewBox="0 0 328 291" fill="none" xmlns="http://www.w3.org/2000/svg">
<path d="M171.925 7.87103C130.008 16.1228 108.608 63.5702 41.1057 105.797C-26.3964 148.024 -11.5254 312.848 95.0708 285.96C196.78 260.306 201.485 262.341 268.102 264.699C351.472 267.674 304.57 -18.2454 171.925 7.87103Z" fill="#E6EBF0" fill-opacity="0.26"/>
<path d="M58.2515 77.4213C77.911 61.7739 94.2985 34.4646 84.9322 8.16579C75.5659 -18.1331 56.412 30.83 40.9653 47.1369C18.4973 70.7133 17.0931 110.162 58.2515 77.4213Z" fill="#E6EBF0" fill-opacity="0.26"/>
<path d="M300.414 288.907H9.53824V290.928H300.414V288.907Z" fill="black"/>
<mask id="mask0_4_945" style="mask-type:luminance" maskUnits="userSpaceOnUse" x="0" y="6" width="310" height="283">
<path d="M171.925 7.87103C130.008 16.1228 108.608 63.5702 41.1057 105.797C-26.3964 148.024 -11.5254 312.848 95.0708 285.96C196.78 260.306 201.485 262.341 268.102 264.699C351.472 267.674 304.57 -18.2454 171.925 7.87103Z" fill="white"/>
</mask>
<g mask="url(#mask0_4_945)">
<path d="M43.4507 78.2633H33.0312V274.396H43.4507V78.2633Z" fill="#AAB6C2"/>
<path d="M81.0143 130.201H70.5948V296.302H81.0143V130.201Z" fill="#AAB6C2"/>
<path d="M135.26 137.274H124.476V141.751H135.26V137.274Z" fill="#AAB6C2"/>
<path d="M117.103 137.274H106.319V141.751H117.103V137.274Z" fill="#AAB6C2"/>
<path d="M135.26 153.553H124.476V158.03H135.26V153.553Z" fill="#AAB6C2"/>
<path d="M117.103 153.553H106.319V158.03H117.103V153.553Z" fill="#AAB6C2"/>
<path d="M98.9466 153.553H88.162V158.03H98.9466V153.553Z" fill="#AAB6C2"/>
<path d="M135.26 169.846H124.476V174.323H135.26V169.846Z" fill="#AAB6C2"/>
<path d="M98.9466 169.846H88.162V174.323H98.9466V169.846Z" fill="#AAB6C2"/>
<path d="M117.103 177.986H106.319V182.462H117.103V177.986Z" fill="#AAB6C2"/>
<path d="M135.26 186.125H124.476V190.602H135.26V186.125Z" fill="#AAB6C2"/>
<path d="M117.103 194.265H106.319V198.741H117.103V194.265Z" fill="#AAB6C2"/>
<path d="M135.26 202.404H124.476V206.881H135.26V202.404Z" fill="#AAB6C2"/>
<path d="M98.9466 202.404H88.162V206.881H98.9466V202.404Z" fill="#AAB6C2"/>
<path d="M135.26 217.448H124.476V221.925H135.26V217.448Z" fill="#AAB6C2"/>
<path d="M117.103 217.448H106.319V221.925H117.103V217.448Z" fill="#AAB6C2"/>
<path d="M135.26 233.741H124.476V238.218H135.26V233.741Z" fill="#AAB6C2"/>
<path d="M117.103 233.741H106.319V238.218H117.103V233.741Z" fill="#AAB6C2"/>
<path d="M98.9466 233.741H88.162V238.218H98.9466V233.741Z" fill="#AAB6C2"/>
<path d="M135.26 250.02H124.476V254.496H135.26V250.02Z" fill="#AAB6C2"/>
<path d="M98.9466 250.02H88.162V254.496H98.9466V250.02Z" fill="#AAB6C2"/>
<path d="M117.103 258.159H106.319V262.636H117.103V258.159Z" fill="#AAB6C2"/>
<path d="M98.9466 258.159H88.162V262.636H98.9466V258.159Z" fill="#AAB6C2"/>
<path d="M135.26 266.299H124.476V270.775H135.26V266.299Z" fill="#AAB6C2"/>
<path d="M117.103 274.438H106.319V278.915H117.103V274.438Z" fill="#AAB6C2"/>
<path d="M135.26 282.592H124.476V287.068H135.26V282.592Z" fill="#AAB6C2"/>
<path d="M98.9466 282.592H88.162V287.068H98.9466V282.592Z" fill="#AAB6C2"/>
<path d="M260.8 130.201H250.38V296.302H260.8V130.201Z" fill="#AAB6C2"/>
<path d="M154.063 51.1926H143.644V296.288H154.063V51.1926Z" fill="#AAB6C2"/>
<path d="M233.838 62.9387H218.097V69.4643H233.838V62.9387Z" fill="#AAB6C2"/>
<path d="M207.326 62.9387H191.585V69.4643H207.326V62.9387Z" fill="#AAB6C2"/>
<path d="M233.838 86.7114H218.097V93.237H233.838V86.7114Z" fill="#AAB6C2"/>
<path d="M207.326 86.7114H191.585V93.237H207.326V86.7114Z" fill="#AAB6C2"/>
<path d="M180.814 86.7114H165.073V93.237H180.814V86.7114Z" fill="#AAB6C2"/>
<path d="M233.838 110.484H218.097V117.01H233.838V110.484Z" fill="#AAB6C2"/>
<path d="M180.814 110.484H165.073V117.01H180.814V110.484Z" fill="#AAB6C2"/>
<path d="M207.326 122.371H191.585V128.896H207.326V122.371Z" fill="#AAB6C2"/>
<path d="M233.838 134.271H218.097V140.797H233.838V134.271Z" fill="#AAB6C2"/>
<path d="M207.326 146.158H191.585V152.683H207.326V146.158Z" fill="#AAB6C2"/>
<path d="M233.838 158.044H218.097V164.57H233.838V158.044Z" fill="#AAB6C2"/>
<path d="M180.814 158.044H165.073V164.57H180.814V158.044Z" fill="#AAB6C2"/>
<path d="M233.838 180.021H218.097V186.546H233.838V180.021Z" fill="#AAB6C2"/>
<path d="M207.326 180.021H191.585V186.546H207.326V180.021Z" fill="#AAB6C2"/>
<path d="M233.838 203.793H218.097V210.319H233.838V203.793Z" fill="#AAB6C2"/>
<path d="M207.326 203.793H191.585V210.319H207.326V203.793Z" fill="#AAB6C2"/>
<path d="M180.814 203.793H165.073V210.319H180.814V203.793Z" fill="#AAB6C2"/>
<path d="M233.838 227.566H218.097V234.092H233.838V227.566Z" fill="#AAB6C2"/>
<path d="M180.814 227.566H165.073V234.092H180.814V227.566Z" fill="#AAB6C2"/>
<path d="M207.326 239.467H191.585V245.992H207.326V239.467Z" fill="#AAB6C2"/>
<path d="M180.814 239.467H165.073V245.992H180.814V239.467Z" fill="#AAB6C2"/>
<path d="M233.838 251.353H218.097V257.879H233.838V251.353Z" fill="#AAB6C2"/>
<path d="M207.326 263.239H191.585V269.765H207.326V263.239Z" fill="#AAB6C2"/>
<path d="M233.838 275.126H218.097V281.651H233.838V275.126Z" fill="#AAB6C2"/>
<path d="M180.814 275.126H165.073V281.651H180.814V275.126Z" fill="#AAB6C2"/>
<path d="M312.35 69.4642H302.141V296.302H312.35V69.4642Z" fill="#AAB6C2"/>
<path d="M39.7576 148.992H29.8156V153.118H39.7576V148.992Z" fill="#AAB6C2"/>
<path d="M23.033 148.992H13.091V153.118H23.033V148.992Z" fill="#AAB6C2"/>
<path d="M39.7576 163.994H29.8156V168.12H39.7576V163.994Z" fill="#AAB6C2"/>
<path d="M23.033 163.994H13.091V168.12H23.033V163.994Z" fill="#AAB6C2"/>
<path d="M6.29444 163.994H-3.64761V168.12H6.29444V163.994Z" fill="#AAB6C2"/>
<path d="M39.7576 179.01H29.8156V183.136H39.7576V179.01Z" fill="#AAB6C2"/>
<path d="M6.29444 179.01H-3.64761V183.136H6.29444V179.01Z" fill="#AAB6C2"/>
<path d="M23.033 186.518H13.091V190.644H23.033V186.518Z" fill="#AAB6C2"/>
<path d="M39.7576 194.012H29.8156V198.138H39.7576V194.012Z" fill="#AAB6C2"/>
<path d="M23.033 201.52H13.091V205.646H23.033V201.52Z" fill="#AAB6C2"/>
<path d="M39.7576 209.028H29.8156V213.154H39.7576V209.028Z" fill="#AAB6C2"/>
<path d="M6.29444 209.028H-3.64761V213.154H6.29444V209.028Z" fill="#AAB6C2"/>
<path d="M39.7576 222.893H29.8156V227.019H39.7576V222.893Z" fill="#AAB6C2"/>
<path d="M23.033 222.893H13.091V227.019H23.033V222.893Z" fill="#AAB6C2"/>
<path d="M39.7576 237.909H29.8156V242.035H39.7576V237.909Z" fill="#AAB6C2"/>
<path d="M23.033 237.909H13.091V242.035H23.033V237.909Z" fill="#AAB6C2"/>
<path d="M6.29444 237.909H-3.64761V242.035H6.29444V237.909Z" fill="#AAB6C2"/>
<path d="M39.7576 252.911H29.8156V257.037H39.7576V252.911Z" fill="#AAB6C2"/>
<path d="M6.29444 252.911H-3.64761V257.037H6.29444V252.911Z" fill="#AAB6C2"/>
<path d="M23.033 260.419H13.091V264.544H23.033V260.419Z" fill="#AAB6C2"/>
<path d="M6.29444 260.419H-3.64761V264.544H6.29444V260.419Z" fill="#AAB6C2"/>
<path d="M39.7576 267.927H29.8156V272.052H39.7576V267.927Z" fill="#AAB6C2"/>
<path d="M23.033 275.435H13.091V279.56H23.033V275.435Z" fill="#AAB6C2"/>
<path d="M39.7576 282.928H29.8156V287.054H39.7576V282.928Z" fill="#AAB6C2"/>
<path d="M6.29444 282.928H-3.64761V287.054H6.29444V282.928Z" fill="#AAB6C2"/>
<path opacity="0.35" d="M212.634 -9.92346H-57.0511V297.369H212.634V-9.92346Z" fill="white" fill-opacity="0.94"/>
<path opacity="0.5" d="M35.7977 291.826H14.8604L127.074 -6.401H147.997L35.7977 291.826Z" fill="white" fill-opacity="0.94"/>
<path opacity="0.5" d="M-1.16212 291.826H-11.6237L100.575 -6.401H111.037L-1.16212 291.826Z" fill="white" fill-opacity="0.94"/>
<path opacity="0.5" d="M123.802 291.826H113.34L209.531 25.6235V47.0668L123.802 291.826Z" fill="white" fill-opacity="0.94"/>
<path opacity="0.35" d="M483.738 -16H214.053V291.292H483.738V-16Z" fill="white" fill-opacity="0.94"/>
<path opacity="0.5" d="M258.665 291.826H237.728L349.927 -6.401H370.865L258.665 291.826Z" fill="white" fill-opacity="0.94"/>
<path opacity="0.5" d="M221.706 291.826H211.244L323.443 -6.401H333.905L221.706 291.826Z" fill="white" fill-opacity="0.94"/>
<path d="M495 45.4528V41.9865H485.311V-13.488H-60V-6.47127H-54.1303V-3.98733H119.8V41.9865H-59.9438V45.4528H119.8V135.688H-59.9438V139.211H119.8V229.447H-59.9438V232.969H119.8V291.77H-54.0741V293.846H-60V301.986H485.311V301.326V233.025H495V229.503H485.311V139.267H495V135.745H485.311V45.4528H495ZM215.555 139.211H299.557V229.447H215.611L215.555 139.211ZM215.555 135.688V45.4528H299.557V135.688H215.555ZM215.555 41.9304V-3.91716H299.557V41.9865L215.555 41.9304ZM215.555 232.969H299.557V291.77H215.583V293.846L215.555 232.969ZM305.427 291.77V232.969H389.429V291.77H305.427ZM305.427 229.447V139.267H389.429V229.503L305.427 229.447ZM305.427 135.688V45.4528H389.429V135.688H305.427ZM305.427 41.9304V-3.91716H389.429V41.9865L305.427 41.9304ZM395.298 -3.9733H479.286V41.9865H395.411L395.298 -3.9733ZM125.585 -3.9733H209.573V41.9865H125.697L125.585 -3.9733ZM125.585 45.4528H209.573V135.688H125.697L125.585 45.4528ZM125.585 139.211H209.573V229.447H125.697L125.585 139.211ZM125.585 232.969H209.573V293.846V291.812H125.697L125.585 232.969ZM479.399 293.846V291.812H395.411V233.011H479.399V293.846ZM479.399 229.489H395.411V139.267H479.399V229.489ZM479.399 135.731H395.411V45.4528H479.399V135.731Z" fill="white" fill-opacity="0.94"/>
</g>
<path d="M134.277 122.132C135.204 121.88 131.02 120.49 128.281 121.234C128.242 120.944 128.181 120.658 128.099 120.378C128.433 120.217 128.781 120.085 129.138 119.985C130.008 119.746 129.938 118.315 128.969 118.357C128.512 118.32 128.052 118.39 127.625 118.56C127.199 118.731 126.818 118.997 126.512 119.339C125.299 121.27 124.202 123.271 123.226 125.332C121.822 125.711 101.376 135.296 100.028 134.566C99.2414 134.117 96.433 128.742 93.9474 124.335L93.4559 123.521C93.2032 123.058 92.9504 122.609 92.6555 122.118V122.006C87.6424 113.235 80.9441 104.478 75.3833 101.854C69.8225 99.2294 74.948 123.171 74.948 123.171C74.816 124.927 74.8866 126.693 75.1586 128.433C75.5659 131.478 76.6471 133.64 79.2029 137.078C79.2871 137.204 79.3995 137.33 79.4837 137.471C80.0735 138.243 80.7335 139.015 81.4497 139.8C81.9833 140.362 82.545 140.909 83.1488 141.484C83.4999 141.821 83.893 142.144 84.2862 142.467C87.9934 145.568 92.1921 147.673 99.0168 150.087C105.434 152.332 109.521 149.694 117.806 141.19C121.605 137.187 125.08 132.889 128.197 128.335C128.854 128.458 129.522 128.514 130.191 128.503C132.775 128.7 134.965 125.262 134.404 124.897C135.485 124.532 136.201 122.244 134.277 122.132Z" fill="white" fill-opacity="0.94"/>
<path d="M103.047 151.266C101.607 151.241 100.183 150.97 98.8342 150.466C91.813 147.982 87.6003 145.835 83.9773 142.775C83.5841 142.467 83.1909 142.116 82.8258 141.779C82.208 141.204 81.6463 140.656 81.1127 140.095C80.3403 139.239 79.7084 138.467 79.1186 137.723L78.8799 137.457L78.7676 137.316C76.0995 133.71 75.0604 131.492 74.6531 128.503C74.3902 126.753 74.3149 124.979 74.4284 123.213C73.965 120.981 70.5106 104.029 73.5719 101.601C73.8512 101.399 74.1867 101.289 74.5315 101.286C74.8764 101.284 75.2134 101.389 75.4957 101.587C80.4948 103.874 87.0245 111.41 92.9224 121.823C92.9587 121.875 92.9871 121.932 93.0066 121.992C93.1892 122.272 93.3717 122.595 93.5683 122.932L93.9755 123.648C94.0879 123.83 94.1862 123.985 94.2704 124.153C94.8462 125.163 95.436 126.23 96.0117 127.282C97.2269 129.73 98.6356 132.076 100.224 134.299C101.348 134.58 112.582 129.612 117.974 127.282C120.783 126.076 122.313 125.374 122.917 125.149C123.91 123.12 125.007 121.144 126.203 119.227C126.549 118.831 126.984 118.521 127.472 118.324C127.959 118.127 128.487 118.047 129.011 118.09C129.292 118.074 129.569 118.165 129.786 118.345C130.002 118.524 130.142 118.78 130.177 119.059C130.228 119.358 130.167 119.666 130.007 119.925C129.847 120.183 129.598 120.374 129.306 120.462L128.618 120.687V120.855C130.677 120.504 132.794 120.824 134.657 121.767C134.697 121.808 134.73 121.856 134.755 121.908C135.041 121.966 135.302 122.113 135.5 122.327C135.699 122.541 135.826 122.811 135.864 123.1C135.89 123.513 135.806 123.925 135.621 124.295C135.436 124.664 135.157 124.979 134.811 125.205C134.835 125.354 134.835 125.506 134.811 125.655C134.439 126.594 133.807 127.409 132.989 128.003C132.171 128.597 131.2 128.946 130.191 129.009C129.594 129.01 128.998 128.967 128.408 128.882C125.309 133.352 121.867 137.575 118.115 141.512C111.529 148.164 107.555 151.266 103.047 151.266ZM74.5689 102.064C74.4047 102.055 74.2435 102.111 74.1195 102.219C72.0693 103.846 73.6842 115.607 75.271 123.1V123.227C75.1567 124.951 75.2273 126.682 75.4816 128.391C75.8748 131.268 76.8859 133.331 79.4556 136.811L79.5539 136.937L79.7646 137.232C80.2982 137.934 80.9301 138.636 81.6884 139.52C82.208 140.067 82.7556 140.614 83.3594 141.176C83.7105 141.498 84.0897 141.821 84.4688 142.13C88.0637 145.119 92.15 147.238 99.101 149.68C105.294 151.869 109.296 149.273 117.469 140.895C121.25 136.902 124.71 132.618 127.818 128.082L127.972 127.858H128.239C128.869 127.972 129.509 128.024 130.149 128.012C130.706 127.999 131.253 127.867 131.754 127.625C132.256 127.383 132.699 127.036 133.056 126.609C133.496 126.186 133.824 125.66 134.011 125.079L133.323 124.7L134.179 124.42C134.449 124.3 134.678 124.102 134.835 123.853C134.993 123.603 135.072 123.311 135.064 123.016C135.064 122.876 135.064 122.483 134.263 122.441L131.792 122.301L133.463 121.851C131.824 121.311 130.074 121.2 128.38 121.529L127.944 121.641V121.192C127.923 120.928 127.866 120.669 127.776 120.42L127.677 120.097L127.972 119.943C128.327 119.769 128.699 119.633 129.082 119.536C129.196 119.495 129.291 119.414 129.35 119.308C129.409 119.203 129.429 119.079 129.405 118.961C129.403 118.916 129.392 118.871 129.372 118.831C129.353 118.79 129.325 118.754 129.291 118.725C129.256 118.696 129.216 118.675 129.173 118.662C129.13 118.649 129.084 118.646 129.04 118.652C128.639 118.618 128.236 118.677 127.861 118.823C127.486 118.968 127.149 119.198 126.877 119.494C125.687 121.394 124.609 123.362 123.647 125.388L123.563 125.57H123.38C123.015 125.669 120.853 126.623 118.353 127.731C105.224 133.513 100.744 135.225 99.9015 134.748C99.0589 134.271 97.8232 131.942 95.4079 127.507C94.8181 126.454 94.2283 125.388 93.6526 124.377L93.3296 124.041L92.9224 123.311L92.3607 122.329C92.3205 122.277 92.2874 122.22 92.2624 122.16C87.7828 114.315 80.9161 104.913 75.1867 102.219C74.9953 102.12 74.7839 102.068 74.5689 102.064Z" fill="black"/>
<path d="M80.6211 141.049C78.936 139.113 76.4084 136.966 74.1897 134.861C73.3331 134.061 72.5186 133.247 71.7884 132.489C70.8773 131.57 70.1019 130.525 69.4855 129.387C69.2552 128.978 69.0984 128.532 69.0221 128.068C68.8811 125.666 68.8811 123.257 69.0221 120.855C69.4855 111.621 71.5778 99.1873 75.7344 100.703C82.8539 103.285 89.2713 113.333 94.804 121.164C94.6636 128.882 90.3104 137.008 80.6211 141.049Z" fill="#11A97D"/>
<path d="M81.8288 112.168C81.8288 112.168 86.0415 113.951 82.5731 122.315C81.6463 124.49 80.4948 133.541 78.3603 138.692C77.3493 137.597 69.9348 130.272 69.5276 129.387L75.5378 118.554L81.8288 112.168Z" fill="black"/>
<path d="M52.1992 74.9234C52.0516 75.0449 51.8685 75.1154 51.6774 75.1241C51.4863 75.1329 51.2975 75.0795 51.1393 74.972C50.9812 74.8645 50.8621 74.7087 50.8 74.5279C50.7379 74.3471 50.7362 74.151 50.795 73.9691C50.9354 73.6604 51.0758 73.3516 51.2303 73.0429C52.0777 71.2883 53.0151 69.5787 54.0388 67.9207C56.1192 64.6051 58.4674 61.4652 61.06 58.5322C66.1939 52.6816 72.0988 47.5546 78.6131 43.2918C85.173 39.0444 92.2523 35.658 99.6768 33.2157C105.508 31.2677 111.536 29.9641 117.651 29.3284C117.861 29.3019 118.073 29.3526 118.248 29.4711C118.424 29.5895 118.55 29.7677 118.603 29.9723C118.656 30.1768 118.633 30.3938 118.538 30.5826C118.443 30.7715 118.283 30.9193 118.086 30.9984C112.568 33.4964 107.147 35.9242 101.881 38.5765C95.2757 41.8465 88.8577 45.4821 82.6573 49.4666C76.4802 53.4652 70.5742 57.8673 64.9779 62.6441C62.1694 65.0438 59.4592 67.5698 56.7911 70.1941C55.2184 71.7378 53.6877 73.3095 52.1992 74.9234Z" fill="#AAB6C2"/>
<path d="M83.4016 50.3226C82.7455 50.7635 81.9414 50.9268 81.1651 50.7769C80.3889 50.627 79.7036 50.1761 79.259 49.5227L75.931 44.5969C75.7114 44.272 75.5582 43.9069 75.4803 43.5226C75.4023 43.1383 75.4012 42.7424 75.4769 42.3577C75.5526 41.973 75.7036 41.607 75.9213 41.2808C76.139 40.9546 76.4191 40.6747 76.7454 40.457C77.0686 40.2372 77.4321 40.0835 77.815 40.0048C78.1979 39.926 78.5925 39.9237 78.9763 39.9981C79.3601 40.0725 79.7253 40.222 80.051 40.438C80.3767 40.6541 80.6563 40.9324 80.8739 41.2569L84.202 46.1827C84.4223 46.5068 84.5763 46.8711 84.6553 47.2549C84.7343 47.6386 84.7367 48.0342 84.6623 48.4188C84.588 48.8035 84.4383 49.1697 84.2219 49.4964C84.0056 49.8231 83.7268 50.1038 83.4016 50.3226Z" fill="#11A97D"/>
<path d="M136.805 129.317C136.553 129.49 136.269 129.611 135.97 129.673C135.67 129.735 135.362 129.738 135.062 129.68C134.761 129.623 134.475 129.507 134.22 129.339C133.965 129.17 133.746 128.953 133.575 128.7L84.8199 56.5816L88.7096 53.9713L137.437 126.09C137.78 126.602 137.907 127.229 137.788 127.834C137.67 128.439 137.316 128.972 136.805 129.317Z" fill="#11A97D"/>
<path d="M89.5943 49.9857L80.7756 55.9359C80.5096 56.1197 80.1883 56.2061 79.8659 56.1805C79.5436 56.155 79.2399 56.019 79.0063 55.7956L73.3893 50.5751C73.2294 50.4315 73.1046 50.2531 73.0246 50.0537C72.9445 49.8543 72.9114 49.6392 72.9277 49.425C72.944 49.2108 73.0092 49.0032 73.1185 48.8181C73.2277 48.6331 73.378 48.4756 73.5578 48.3578L85.199 40.499C85.3759 40.3737 85.5794 40.2911 85.7936 40.2576C86.0079 40.2241 86.2269 40.2406 86.4337 40.3059C86.6404 40.3711 86.8293 40.4833 86.9854 40.6337C87.1415 40.7841 87.2606 40.9685 87.3334 41.1726L90.1138 48.2596C90.2438 48.5624 90.263 48.9014 90.168 49.217C90.073 49.5326 89.8699 49.8047 89.5943 49.9857Z" fill="black"/>
<path d="M89.2573 54.6168L85.185 57.3534C84.9715 57.4927 84.7178 57.5572 84.4637 57.5369C84.2095 57.5166 83.9693 57.4125 83.7807 57.2411L81.4778 55.0799C81.3535 54.9619 81.2571 54.8177 81.1958 54.6577C81.1344 54.4978 81.1095 54.3262 81.123 54.1554C81.1364 53.9846 81.1879 53.819 81.2735 53.6706C81.3592 53.5222 81.477 53.3948 81.6182 53.2977L86.856 49.7612C87.001 49.6656 87.1655 49.6036 87.3375 49.5797C87.5095 49.5558 87.6847 49.5706 87.8503 49.6231C88.0158 49.6755 88.1676 49.7643 88.2944 49.8829C88.4212 50.0015 88.5199 50.1469 88.5832 50.3085L89.7207 53.2415C89.808 53.4896 89.8098 53.7597 89.7258 54.0089C89.6419 54.2581 89.4769 54.4721 89.2573 54.6168Z" fill="#AAB6C2"/>
<path d="M34.4215 92.381C34.2109 99.1592 42.6504 106.288 49.3767 103.804C53.5895 102.261 60.4281 99.931 60.6107 91.4548C60.7651 85.4765 67.8987 80.3823 67.4634 80.2279C55.4852 74.6145 45.6976 90.5145 44.6725 91.6933C41.864 94.8369 37.8759 92.5775 36.0364 91.8617C35.9122 91.7384 35.7564 91.6515 35.5861 91.6107C35.4158 91.5698 35.2375 91.5766 35.0708 91.6302C34.9041 91.6838 34.7553 91.7822 34.6408 91.9146C34.5263 92.047 34.4504 92.2084 34.4215 92.381Z" fill="black"/>
<path d="M44.2372 284.023L51.3286 284.907C51.3286 284.907 53.2103 277.301 54.9515 270.874C56.6928 264.446 70.5387 231.215 70.5387 231.215C73.8387 217.364 56.1311 201.155 56.1311 201.155L41.1899 213.07C41.1899 213.07 49.1661 222.346 48.9975 222.893C48.7448 223.861 48.4639 224.9 48.141 226.036C46.3238 232.093 45.5358 238.412 45.8099 244.729C46.0205 249.501 45.2903 264.657 44.7427 274.677C44.4618 280.052 44.2372 284.023 44.2372 284.023Z" fill="white" fill-opacity="0.94"/>
<path d="M51.6235 285.286L43.7738 284.318V283.953C43.7738 283.953 43.9984 280.037 44.2933 274.606C44.6865 267.351 45.5712 249.922 45.3465 244.687C45.0828 238.351 45.8753 232.015 47.6916 225.938C48.0005 224.844 48.2814 223.833 48.5341 222.893C46.1872 219.554 43.6606 216.345 40.9653 213.28L40.6985 212.971L56.2154 200.594L56.4541 200.818C57.1843 201.492 74.3021 217.35 70.988 231.271C70.8336 231.664 57.1141 264.601 55.4009 270.93C53.6877 277.259 51.792 284.879 51.778 284.963L51.6235 285.286ZM44.6023 283.63L50.9916 284.43C51.3707 282.886 53.0137 276.319 54.5303 270.719C56.2996 264.376 69.6119 232.38 70.1876 231.032C73.1646 218.5 58.2094 203.653 56.1452 201.562L41.7938 213.013C49.6295 222.149 49.489 222.696 49.4188 222.935C49.1661 223.903 48.8852 224.956 48.5622 226.079C46.7599 232.071 45.9767 238.323 46.2452 244.575C46.4699 249.851 45.5712 267.309 45.178 274.578C44.9112 279.097 44.7146 282.535 44.6444 283.63H44.6023Z" fill="black"/>
<path d="M88.513 202.544C88.513 202.544 84.0616 222.079 83.6964 227.033C83.6429 227.705 83.5349 228.371 83.3735 229.026C83.3644 229.11 83.3644 229.194 83.3735 229.278C82.559 233.488 83.0084 247.101 81.576 277.189C81.576 277.483 81.576 277.778 81.576 278.031C81.4021 281.298 81.0222 284.551 80.4386 287.77L87.8811 286.956C87.8811 286.956 89.0326 280.571 90.4368 274.059C91.8411 267.548 103.875 233.643 103.875 233.643C106.417 219.609 95.6747 192.019 95.6747 192.019L88.513 202.544Z" fill="white" fill-opacity="0.94"/>
<path d="M79.8629 288.233L79.9752 287.7C80.5478 284.503 80.923 281.274 81.0986 278.031C81.0986 277.75 81.0986 277.469 81.0986 277.189C81.8148 261.948 82.0535 251.142 82.222 243.256C82.1706 238.569 82.3956 233.883 82.896 229.222C82.8748 229.12 82.8748 229.015 82.896 228.913C83.0464 228.291 83.1451 227.657 83.1909 227.019C83.556 222.093 87.839 203.26 88.0215 202.46V202.334L95.7308 191.177L96.0117 191.879C96.447 193.016 106.768 219.763 104.241 233.713C104.1 234.12 92.164 267.73 90.7879 274.143C89.4117 280.557 88.2462 286.956 88.2322 287.026V287.321L79.8629 288.233ZM88.8781 202.713C88.5832 204.004 84.4407 222.36 84.0896 227.075C84.0326 227.766 83.9199 228.451 83.7526 229.124C83.7469 229.185 83.7469 229.246 83.7526 229.306C83.2594 233.963 83.039 238.644 83.0926 243.326C82.9101 251.213 82.6713 262.032 81.9552 277.287C81.9552 277.582 81.9552 277.876 81.9552 278.143C81.7871 281.243 81.4401 284.331 80.916 287.391L87.5441 286.675C87.7828 285.356 88.836 279.659 90.0436 274.045C91.4479 267.576 103.019 234.962 103.51 233.586C105.757 221.153 97.2053 197.338 95.5764 192.889L88.8781 202.713Z" fill="black"/>
<path d="M81.3654 279.659C81.3654 279.659 77.6161 284.683 80.0735 289.103C80.0735 289.103 96.0679 290.114 102.092 289.524C102.092 289.524 106.122 284.444 101.039 283.518C95.9555 282.592 88.7096 280.88 88.7096 280.88C88.1564 281.306 87.5211 281.614 86.8435 281.784C86.1659 281.954 85.4606 281.982 84.7714 281.868C84.0823 281.753 83.4241 281.498 82.8381 281.118C82.2521 280.738 81.7508 280.241 81.3654 279.659Z" fill="black"/>
<path d="M45.3044 278.732C45.3044 278.732 41.5691 283.77 44.0546 288.177C44.0546 288.177 60.049 289.117 66.0732 288.514C66.0732 288.514 70.0893 283.406 65.006 282.507C59.9226 281.609 52.6065 279.925 52.6065 279.925C52.0569 280.348 51.4263 280.654 50.7538 280.823C50.0813 280.992 49.3812 281.022 48.6968 280.91C48.0123 280.799 47.3581 280.548 46.7746 280.173C46.1911 279.798 45.6907 279.308 45.3044 278.732Z" fill="black"/>
<path d="M84.3845 220.76C82.5731 225.293 82.545 246.259 81.576 277.189C81.576 277.483 81.576 277.778 81.576 278.031C81.9973 277.933 82.8539 276.136 83.0646 275.631C88.2322 263.001 95.0147 219.904 94.2985 219.862C90.967 219.627 87.6194 219.93 84.3845 220.76Z" fill="black"/>
<path d="M50.9354 178.772C51.9184 179.894 52.9856 181.059 54.0669 182.266C55.6396 184.006 57.6758 186.574 59.9647 189.634C67.8036 200.139 75.1057 211.033 81.8429 222.276C82.0195 222.594 82.1789 222.922 82.3203 223.258L83.0084 223.174C85.9152 222.837 88.6254 222.556 91.1109 222.149C99.5364 220.872 105.996 218.472 111.388 209.786C104.915 193.31 80.4948 152.599 69.4855 141.835C58.9537 131.619 44.504 163.012 42.9874 167.096C42.3695 168.681 46.0065 173.158 50.9354 178.772Z" fill="black"/>
<path d="M59.9647 189.634C67.8036 200.139 75.1057 211.033 81.8429 222.276C82.2067 222.606 82.5965 222.906 83.0084 223.174C85.9152 222.837 88.6254 222.556 91.1109 222.149C87.9794 214.908 85.0867 207.484 81.4075 200.524C79.905 197.647 77.925 195.177 76.1978 192.44C73.7404 188.497 72.5748 184.02 71.1004 179.6C69.8601 175.58 68.4022 171.631 66.7332 167.769C66.1476 166.1 65.0398 164.663 63.5736 163.671C59.4732 161.454 56.3698 165.496 54.6286 168.808C54.514 168.886 54.4198 168.991 54.3538 169.113C54.2879 169.235 54.2521 169.371 54.2494 169.509C54.147 169.698 54.122 169.919 54.1797 170.126C54.2373 170.333 54.3731 170.509 54.5584 170.618C56.5524 176.947 57.7179 183.445 59.9647 189.634Z" fill="black"/>
<path d="M44.2091 225.91C47.1364 228.709 50.8066 230.609 54.783 231.383C62.2115 232.787 70.0051 229.91 76.8016 225.124C69.9489 198.461 58.7571 166.913 56.3418 160.135C55.4361 158.683 54.3769 157.333 53.1822 156.107C44.0265 150.873 38.7044 145.512 33.7755 146.761C30.7523 147.992 28.305 150.317 26.9228 153.273C25.75 156.745 25.1062 160.373 25.013 164.036C24.992 164.359 24.992 164.682 25.013 165.005C24.9316 172.511 26.1331 179.977 28.5658 187.079C32.4275 199.176 38.7746 211.414 44.2091 225.91Z" fill="black"/>
<path d="M26.0943 150.62C28.636 153.048 32.7926 156.921 36.1066 158.535C55.3728 167.783 83.9633 158.942 83.9633 158.942C80.8329 153.697 78.5532 147.989 77.2088 142.032C76.9561 141.063 76.7454 140.109 76.5348 139.127C75.4676 134.327 76.6612 131.647 78.599 129.486C81.239 126.511 85.3113 124.546 86.856 119.396C89.5241 110.47 72.2519 98.0366 72.2519 98.0366C43.9001 88.9709 46.3856 107.579 45.5712 121.894C45.5712 123.199 45.4027 124.462 45.2482 125.669C45.2209 125.937 45.1787 126.204 45.1218 126.469C45.1218 126.819 45.0095 127.156 44.9393 127.493C42.0887 141.134 26.0943 150.62 26.0943 150.62Z" fill="#11A97D"/>
<path d="M46.6665 106.05C45.9841 111.511 45.6324 117.008 45.6133 122.511C48.785 126.391 52.8127 129.484 57.3809 131.549C57.3809 131.549 65.9047 128.742 69.6961 124.237C73.4876 119.732 46.6665 106.05 46.6665 106.05Z" fill="black"/>
<path d="M76.2399 94.9071L74.948 99.9872C74.948 99.9872 75.6642 102.794 74.2318 102.794C71.0583 102.626 67.9268 96.8157 67.9268 96.8157L69.668 89.9954L76.2399 94.9071Z" fill="white" fill-opacity="0.94"/>
<path d="M74.288 103.173H74.2037C70.8616 102.99 67.7161 97.2367 67.6459 96.9981L67.5757 96.8578L69.4995 89.3077L76.7595 94.7387L75.3552 100.001C75.4676 100.45 75.7765 102.036 75.1727 102.808C75.0612 102.93 74.9241 103.026 74.7712 103.089C74.6182 103.152 74.4533 103.181 74.288 103.173ZM68.334 96.7455C68.8255 97.6016 71.5919 102.247 74.2459 102.359C74.3006 102.37 74.3574 102.365 74.4096 102.346C74.4618 102.326 74.5073 102.291 74.5408 102.247C74.7902 101.538 74.7902 100.766 74.5408 100.057V99.9592L75.8046 95.0334L69.9068 90.6129L68.334 96.7455Z" fill="black"/>
<path d="M81.8569 80.5368C82.6121 84.3136 82.839 88.177 82.5309 92.0162C82.0816 95.7632 74.2038 98.8506 70.0893 92.353C65.9749 85.8555 69.4855 78.4177 69.4855 78.4177L81.8569 80.5368Z" fill="white" fill-opacity="0.94"/>
<path d="M76.4365 96.4929C75.0757 96.4641 73.7454 96.0846 72.5744 95.3913C71.4034 94.698 70.4313 93.7143 69.7523 92.5354C65.5396 85.9256 69.0923 78.3054 69.1344 78.2212L69.2608 77.9546L82.1799 80.1719V80.4245C82.9476 84.2424 83.1745 88.1492 82.8539 92.0302C82.6292 93.9669 80.6773 95.7211 78.1076 96.2403C77.5621 96.3886 77.0014 96.4734 76.4365 96.4929ZM69.7242 78.8247C69.1625 80.228 66.9157 86.5712 70.4263 92.1144C71.1491 93.4252 72.2768 94.467 73.6411 95.0842C75.0053 95.7013 76.5328 95.8608 77.9952 95.5386C80.1999 95.0334 81.9411 93.5178 82.2079 91.932C82.5116 88.2257 82.3037 84.4952 81.5901 80.8455L69.7242 78.8247Z" fill="black"/>
<path d="M84.4969 80.9859C84.188 80.6631 83.7105 80.5228 83.4156 80.214C82.4888 79.2177 83.0365 78.9931 82.5871 78.1371C82.2463 77.4171 81.7296 76.7946 81.0846 76.3267C79.1732 75.0774 76.9504 74.3872 74.6672 74.334C74.0072 74.334 68.5587 74.9374 66.8736 77.7301C66.0153 79.1838 65.4597 80.7958 65.2401 82.4694C65.0205 84.143 65.1415 85.8437 65.5957 87.4694C66.4102 89.841 68.4885 92.1425 70.5246 89.7989C71.852 88.0609 72.6426 85.9734 72.7995 83.7926C72.8993 83.072 73.0832 82.3655 73.3472 81.6876C73.9789 81.0942 74.7417 80.6579 75.5736 80.4141C76.4056 80.1703 77.2833 80.1258 78.1357 80.2842C78.4305 80.8034 78.6271 81.5051 78.908 82.0103C79.3235 82.7775 79.898 83.4474 80.5931 83.975C81.1017 84.4632 81.762 84.7628 82.4645 84.824C83.167 84.8853 83.8693 84.7046 84.4548 84.3118C84.6915 84.1055 84.8821 83.8516 85.0139 83.5667C85.1458 83.2817 85.216 82.9722 85.22 82.6583C85.224 82.3444 85.1616 82.0331 85.037 81.745C84.9124 81.4568 84.7284 81.1981 84.4969 80.9859Z" fill="black"/>
<path d="M73.2629 84.4942C73.2629 84.4942 71.3532 82.9225 70.4544 84.4942C70.2715 84.7698 70.1628 85.0879 70.1388 85.4178C70.1148 85.7477 70.1764 86.0781 70.3176 86.3772C70.4588 86.6764 70.6748 86.934 70.9448 87.1253C71.2147 87.3167 71.5295 87.4351 71.8587 87.4693C72.6872 87.4272 73.5157 85.3503 73.2629 84.4942Z" fill="white" fill-opacity="0.94"/>
<path d="M114.786 102.597L117.033 108.913C117.033 108.913 116.359 109.923 115.152 111.523C111.585 116.196 99.2836 126.763 93.0628 131.408C86.4769 136.32 83.7667 134.664 75.594 132.545C75.594 132.545 67.2949 130.061 63.9949 127.802C62.9446 127.11 61.9619 126.32 61.06 125.444L60.2175 124.574C60.184 124.529 60.1464 124.486 60.1051 124.448C51.8903 115.621 52.6205 115.887 48.3656 109.095C46.161 105.573 49.6014 98.6962 53.6596 97.7699C56.5805 97.0963 55.8222 97.5735 59.9507 98.8365C64.0791 100.1 67.7161 100.745 70.2438 104.45C71.1565 105.853 72.2378 107.383 73.3612 108.899L73.7684 109.474C76.5769 113.277 87.4879 118.989 89.6364 118.147C96.2645 115.621 114.786 102.597 114.786 102.597Z" fill="white" fill-opacity="0.94"/>
<path d="M85.2271 135.015C82.836 134.851 80.4762 134.379 78.2058 133.612C77.3773 133.373 76.4786 133.134 75.4957 132.882C75.1446 132.77 67.0702 130.342 63.7702 128.082C62.7018 127.371 61.7048 126.558 60.7932 125.655L59.9226 124.77L59.8383 124.672C52.8873 117.164 52.2835 116.252 49.7418 112.042C49.2643 111.256 48.7167 110.344 48.0286 109.235C47.5261 108.238 47.2644 107.138 47.2644 106.022C47.2644 104.905 47.5261 103.805 48.0286 102.808C48.4855 101.54 49.2248 100.392 50.1905 99.4512C51.1563 98.5104 52.3233 97.8011 53.6035 97.377C54.2273 97.1304 54.8961 97.0179 55.5663 97.047C56.2365 97.076 56.8931 97.2458 57.4932 97.5454C58.069 97.7699 58.8975 98.0787 60.1051 98.4435C60.6107 98.612 61.1162 98.7523 61.5936 98.8926C65.1885 99.9311 68.2919 100.843 70.5948 104.239C71.634 105.811 72.7153 107.341 73.6982 108.674L73.8106 108.828L74.1054 109.235C76.9139 113.01 87.5581 118.568 89.5522 117.796C96.0679 115.284 114.435 102.359 114.618 102.261L115.039 101.966L117.525 108.983L117.426 109.151C117.426 109.151 116.724 110.19 115.531 111.775C111.922 116.406 99.761 126.847 93.2874 131.717C90.0296 134.145 87.6986 135.015 85.2271 135.015ZM55.5413 97.8541C54.9381 97.8891 54.3403 97.9879 53.7579 98.1488C52.6057 98.5636 51.5605 99.2297 50.6982 100.099C49.8359 100.968 49.1782 102.018 48.7729 103.173C48.3191 104.057 48.0767 105.034 48.0645 106.027C48.0523 107.021 48.2707 108.004 48.7026 108.899L50.4158 111.705C52.9154 115.789 53.5192 116.757 60.386 124.167L60.5264 124.335C60.7651 124.588 61.0319 124.869 61.3128 125.135C62.1942 126.018 63.1635 126.808 64.2055 127.493C67.4353 129.696 75.622 132.166 75.7063 132.194L78.4165 132.924C84.6092 134.594 87.179 135.268 92.824 131.057C99.2555 126.258 111.332 115.831 114.843 111.242C115.755 110.035 116.373 109.165 116.598 108.814L114.59 103.201C111.781 105.194 95.8993 116.154 89.7768 118.526C87.3334 119.48 76.3382 113.558 73.4595 109.712L73.1365 109.277L73.0382 109.137C72.0412 107.734 70.9599 106.246 69.9208 104.674C67.7723 101.503 64.9357 100.689 61.3549 99.6504L59.8383 99.2014C58.5885 98.8084 57.7741 98.4997 57.1843 98.2751C56.6709 98.0249 56.1119 97.8817 55.5413 97.8541Z" fill="black"/>
<path d="M76.4786 109.825C75.3131 108.253 67.7583 98.3453 59.3328 95.9175C55.4992 94.8229 49.0116 98.1068 47.2703 102.836C44.4618 110.4 51.4128 118.989 59.066 127.24C66.9157 124.869 73.0242 118.287 76.4786 109.825Z" fill="#11A97D"/>
<path d="M124.195 104.211C124.206 103.747 124.09 103.289 123.86 102.886C123.63 102.483 123.294 102.151 122.889 101.924C123.031 101.437 123.012 100.917 122.835 100.442C122.658 99.9667 122.332 99.5611 121.906 99.2855C121.98 98.7371 121.844 98.181 121.527 97.7278C120.783 96.6753 119.968 97.0401 119.182 97.6155C118.234 98.0163 117.338 98.5299 116.514 99.1452C116.845 98.6116 117.038 98.0039 117.075 97.3769C117.075 96.3946 116.177 96.6753 115.671 97.1524C114.85 98.4954 114.323 99.9974 114.126 101.559C112.947 103.313 110.883 107.341 112.919 108.492C113.986 109.109 116.036 110.933 116.5 109.993C118.016 106.836 122.397 108.59 123.324 107.467C123.622 107.488 123.919 107.413 124.171 107.255C124.424 107.096 124.619 106.86 124.729 106.583C124.95 106.192 125.018 105.733 124.919 105.294C124.821 104.856 124.562 104.47 124.195 104.211Z" fill="white" fill-opacity="0.94"/>
<path d="M116.106 110.583C115.196 110.385 114.351 109.96 113.649 109.348C113.326 109.123 113.017 108.913 112.764 108.772C112.508 108.624 112.288 108.421 112.118 108.179C111.948 107.937 111.833 107.66 111.781 107.369C111.29 105.236 113.396 101.91 113.803 101.292C113.96 99.6891 114.505 98.1479 115.39 96.8017C115.561 96.6039 115.78 96.4544 116.027 96.3682C116.273 96.282 116.538 96.2621 116.795 96.3105C116.978 96.3975 117.131 96.5377 117.234 96.7129C117.337 96.8882 117.384 97.0903 117.37 97.2929C117.379 97.5676 117.346 97.8421 117.272 98.1068C117.799 97.7792 118.354 97.4975 118.929 97.2648C119.154 97.0603 119.418 96.9038 119.705 96.8048C119.992 96.7059 120.297 96.6666 120.6 96.6894C120.838 96.7421 121.063 96.8427 121.261 96.9851C121.459 97.1274 121.626 97.3085 121.752 97.5174C122.072 97.9724 122.234 98.5193 122.215 99.0751C122.604 99.3875 122.903 99.798 123.081 100.264C123.258 100.73 123.309 101.235 123.226 101.727C123.6 101.99 123.907 102.336 124.124 102.738C124.341 103.14 124.461 103.587 124.476 104.043C124.888 104.32 125.189 104.735 125.325 105.212C125.461 105.69 125.424 106.2 125.22 106.653C125.08 106.974 124.851 107.248 124.559 107.442C124.268 107.636 123.927 107.742 123.577 107.748C122.868 108.187 122.031 108.37 121.204 108.267C119.575 108.267 117.735 108.267 116.893 110.091C116.842 110.203 116.766 110.302 116.671 110.38C116.576 110.458 116.465 110.513 116.345 110.541C116.269 110.569 116.188 110.583 116.106 110.583ZM116.57 97.0403C116.341 97.0752 116.133 97.1895 115.98 97.363C115.699 97.6437 115.138 98.5699 114.576 101.573V101.713C113.607 102.99 112.189 105.699 112.582 107.201C112.613 107.377 112.683 107.545 112.787 107.69C112.892 107.836 113.028 107.957 113.186 108.043C113.452 108.197 113.775 108.421 114.126 108.674C114.758 109.109 115.84 109.839 116.177 109.755C117.258 107.523 119.547 107.481 121.218 107.439C122.018 107.439 122.861 107.439 123.1 107.116L123.212 106.962H123.437C123.67 106.987 123.905 106.935 124.106 106.813C124.306 106.691 124.461 106.507 124.546 106.288C124.686 105.973 124.705 105.616 124.599 105.287C124.493 104.958 124.269 104.68 123.97 104.506L123.816 104.394V104.183C123.825 103.794 123.728 103.409 123.535 103.07C123.342 102.731 123.06 102.452 122.72 102.261L122.44 102.12L122.524 101.812C122.645 101.407 122.633 100.975 122.488 100.578C122.344 100.181 122.076 99.8409 121.723 99.6084L121.499 99.4821V99.2295C121.563 98.7756 121.453 98.3141 121.19 97.9384C121.123 97.8184 121.032 97.713 120.924 97.6286C120.815 97.5442 120.691 97.4825 120.558 97.4472C120.263 97.4472 119.912 97.5455 119.392 97.9244C118.467 98.3309 117.594 98.8493 116.795 99.468L115.39 100.478L116.163 98.9769C116.462 98.4931 116.64 97.9443 116.682 97.3771C116.704 97.2847 116.704 97.1887 116.682 97.0964L116.57 97.0403Z" fill="black"/>
<path d="M113.452 103.552L111.388 105.559C111.388 105.559 110.841 110.049 110.911 110.049L113.93 111.032L115.475 110.47L116.289 109.67C116.319 108.817 116.281 107.963 116.177 107.116C116.036 106.99 113.452 103.552 113.452 103.552Z" fill="white" fill-opacity="0.94"/>
<path d="M135.85 123.802C135.882 123.735 135.905 123.664 135.92 123.592C135.935 123.404 135.911 123.215 135.85 123.037C135.79 122.858 135.695 122.694 135.569 122.553C135.719 122.179 135.719 121.762 135.569 121.388C135.453 121.029 135.221 120.718 134.909 120.504V120.378C135.331 119.76 135.331 119.143 134.348 118.736C134.105 118.655 133.87 118.551 133.645 118.427C133.748 118.202 133.789 117.953 133.764 117.707C133.74 117.46 133.65 117.225 133.505 117.024C132.227 114.863 129.601 117.669 128.688 118.61C128.53 118.777 128.442 118.998 128.442 119.227C128.442 119.457 128.53 119.678 128.688 119.845C128.76 120.009 128.881 120.147 129.035 120.24C129.188 120.333 129.366 120.376 129.545 120.364C129.767 120.352 129.987 120.324 130.205 120.28C130.053 120.433 129.939 120.619 129.871 120.823C129.803 121.028 129.782 121.245 129.812 121.459C129.842 121.702 129.95 121.929 130.119 122.106C130.289 122.283 130.511 122.4 130.753 122.441C130.635 122.617 130.563 122.819 130.541 123.029C130.519 123.239 130.548 123.451 130.626 123.648C130.671 123.923 130.817 124.171 131.035 124.345C131.253 124.519 131.528 124.606 131.806 124.588C131.385 125.332 132.199 126.104 132.943 125.991C133.955 125.87 134.895 125.41 135.611 124.686C135.788 124.427 135.872 124.115 135.85 123.802Z" fill="white" fill-opacity="0.94"/>
<path d="M132.733 126.454C132.501 126.453 132.272 126.397 132.065 126.293C131.858 126.188 131.678 126.037 131.539 125.851C131.363 125.612 131.274 125.32 131.286 125.023C131.027 124.937 130.794 124.786 130.61 124.585C130.426 124.383 130.296 124.138 130.233 123.872C130.114 123.512 130.114 123.124 130.233 122.764C130.011 122.656 129.822 122.491 129.684 122.287C129.546 122.082 129.464 121.845 129.447 121.599C129.39 121.354 129.39 121.1 129.447 120.855C129.18 120.826 128.925 120.725 128.71 120.564C128.495 120.403 128.327 120.187 128.224 119.939C128.121 119.691 128.086 119.42 128.123 119.154C128.16 118.888 128.268 118.637 128.436 118.427C129.306 117.515 131.005 115.761 132.494 115.929C132.79 115.967 133.073 116.076 133.318 116.247C133.562 116.418 133.762 116.646 133.898 116.912C134.155 117.305 134.256 117.781 134.179 118.245H134.263L134.502 118.329C134.736 118.403 134.951 118.529 135.131 118.696C135.31 118.864 135.451 119.069 135.541 119.297C135.623 119.64 135.573 120 135.401 120.308C135.686 120.556 135.899 120.876 136.019 121.234C136.152 121.625 136.152 122.05 136.019 122.441C136.247 122.774 136.355 123.175 136.328 123.578C136.319 123.661 136.295 123.742 136.257 123.816C136.267 124.206 136.154 124.589 135.934 124.911C135.153 125.695 134.128 126.19 133.028 126.314L132.733 126.454ZM132.48 124.265L132.129 124.869C132.081 124.963 132.066 125.071 132.086 125.176C132.107 125.28 132.161 125.374 132.241 125.444C132.318 125.547 132.421 125.626 132.54 125.673C132.659 125.72 132.789 125.733 132.915 125.711C133.827 125.594 134.677 125.191 135.345 124.56C135.479 124.361 135.547 124.126 135.541 123.886V123.69C135.557 123.552 135.543 123.412 135.502 123.279C135.461 123.146 135.393 123.023 135.302 122.918L135.12 122.637L135.204 122.413C135.316 122.124 135.316 121.804 135.204 121.515C135.107 121.237 134.926 120.996 134.685 120.827L134.572 120.743V120.616C134.569 120.565 134.569 120.513 134.572 120.462V120.294L134.671 120.153C134.739 120.072 134.79 119.978 134.821 119.877C134.852 119.776 134.863 119.669 134.853 119.564C134.853 119.353 134.502 119.185 134.277 119.101L134.067 119.017C133.702 118.89 133.533 118.834 133.435 118.666L133.337 118.497L133.421 118.315C133.482 118.151 133.502 117.975 133.48 117.801C133.458 117.628 133.395 117.462 133.294 117.319C133.22 117.162 133.108 117.026 132.968 116.924C132.829 116.821 132.666 116.754 132.494 116.729C131.399 116.603 129.77 118.287 129.166 118.918C129.107 118.964 129.059 119.02 129.023 119.084C128.987 119.149 128.964 119.22 128.956 119.293C128.948 119.367 128.955 119.441 128.977 119.512C128.998 119.582 129.034 119.648 129.082 119.704C129.122 119.813 129.195 119.906 129.291 119.971C129.386 120.036 129.5 120.071 129.615 120.069C129.816 120.087 130.018 120.087 130.219 120.069L131.343 119.873L130.584 120.715C130.469 120.823 130.382 120.957 130.331 121.106C130.279 121.255 130.265 121.415 130.289 121.571C130.289 121.809 130.416 122.104 130.935 122.23L131.469 122.357L131.16 122.82C131.079 122.951 131.03 123.099 131.015 123.252C131.001 123.405 131.021 123.56 131.076 123.704C131.272 124.307 131.567 124.377 131.876 124.363L132.48 124.265Z" fill="black"/>
<path d="M290.767 288.907H107.864C109.001 286.521 110.798 282.802 113.158 278.171C112.847 277.346 112.653 276.482 112.582 275.603C112.118 267.716 115.39 261.71 122.734 258.286C122.664 255.184 122.426 254.188 123.521 251.269C125.234 246.582 128.955 245.066 132.297 241.614L132.957 242.357L133.716 241.094L134.207 240.28C134.081 239.719 133.968 239.158 133.898 238.596C133.898 238.344 133.898 238.077 133.898 237.839C133.898 237.6 134.039 237.067 134.123 236.702C134.123 236.435 134.221 236.183 134.277 235.93C134.754 233.133 135.57 230.405 136.707 227.805C136.833 227.51 136.974 227.215 137.128 226.935C137.617 225.993 138.18 225.092 138.813 224.24C138.88 224.1 138.971 223.972 139.08 223.861C139.571 223.188 140.105 222.458 140.723 221.77C140.962 221.461 141.214 221.167 141.481 220.844L141.734 220.563C142.239 219.96 142.801 219.328 143.405 218.627C143.896 218.079 144.43 217.49 144.964 216.858C145.497 216.227 146.073 215.553 146.565 214.866C148.054 212.81 149.414 210.663 150.637 208.438C151.114 207.61 151.592 206.768 152.041 205.94C154.108 201.914 156.947 198.333 160.396 195.401C161.458 194.572 162.585 193.83 163.767 193.184C166.332 191.83 169.053 190.793 171.869 190.097C173.105 188.904 174.326 187.711 175.562 186.63C180.337 182.237 185.89 178.772 191.936 176.414C192.994 176.051 194.072 175.751 195.165 175.516C196.359 173.663 197.974 172.288 202.187 171.951C205.551 172.067 208.832 173.032 211.722 174.758C212.873 175.417 224.57 179.164 228.151 182.939C228.291 183.086 228.422 183.241 228.544 183.403C228.779 183.693 228.964 184.02 229.092 184.371L232.687 188.581L236.099 192.51C237.569 192.496 239.018 192.853 240.312 193.549C242.202 194.607 243.6 196.366 244.202 198.446C244.688 200.012 244.808 201.669 244.553 203.288C244.693 202.376 245.592 203.162 246.926 204.902L247.628 205.842C248.737 207.4 250.071 209.449 251.448 211.694C255.913 218.95 260.982 228.113 261.376 228.689C262.991 231.004 266.276 232.422 268.256 234.639C274.028 241.052 271.5 245.866 279.841 254.174C283.858 258.215 282.65 263.436 279.448 266.495C286.133 278.831 290.289 287.882 290.767 288.907Z" fill="#11A97D"/>
<path d="M222.759 247.031C220.891 245.333 217.816 244.224 216.313 242.47C215.948 242.021 211.216 234.976 207.045 229.405C205.753 227.678 204.504 226.107 203.479 224.914L202.833 224.184C201.707 222.686 200.847 221.005 200.291 219.216C199.624 217.531 198.316 216.179 196.654 215.455C193.692 213.51 190.855 211.382 188.158 209.084C187.049 208.031 171.012 201.576 169.903 201.071C167.121 199.735 164.086 199.003 161 198.924C157.925 199.134 156.338 199.794 155.257 200.734C154.105 202.348 153.08 204.032 152.083 205.744C151.592 206.572 151.114 207.414 150.679 208.242C149.456 210.467 148.096 212.613 146.607 214.669C146.115 215.357 145.568 216.073 145.006 216.662C144.444 217.252 143.939 217.883 143.447 218.43C142.843 219.132 142.282 219.764 141.776 220.367L141.523 220.648C141.256 220.97 141.004 221.265 140.765 221.574C140.147 222.29 139.614 222.977 139.122 223.665C139.013 223.775 138.923 223.904 138.855 224.044C138.222 224.895 137.659 225.797 137.17 226.738C137.016 227.019 136.875 227.314 136.749 227.608C135.612 230.208 134.796 232.937 134.32 235.734C134.32 235.986 134.207 236.239 134.165 236.506C134.081 236.87 134.011 237.249 133.94 237.642C133.87 238.035 133.94 238.147 133.94 238.4C134.011 238.961 134.123 239.523 134.249 240.084L133.758 240.898L133 242.161L132.34 241.417C128.997 244.87 125.318 246.385 123.563 251.072C122.468 254.047 122.706 255.044 122.777 258.089C115.39 261.64 112.104 267.646 112.582 275.603C112.651 276.506 112.849 277.395 113.172 278.241C110.812 282.872 108.959 286.591 107.878 288.977H243.682C243.247 288.191 239.357 281.23 233.206 271.575C227.182 256.138 228.151 251.956 222.759 247.031Z" fill="black"/>
<path d="M215.499 190.672L211.174 193.745L212.452 198.882L207.495 200.748L207.425 206.053L202.159 206.614L200.782 211.736L195.531 211.007L192.961 215.638L188.046 213.673L184.451 217.574L180.126 214.501L175.731 217.448L172.234 213.462L167.361 215.357L164.946 210.726L159.764 211.456L158.487 206.404L153.277 205.912L153.207 200.706L148.264 199.022L149.415 193.928L145.006 191.121L147.351 186.462L143.77 182.673L147.196 178.729L144.669 174.169L148.952 171.193L147.632 166.141L152.519 164.317L152.49 159.111L157.672 158.535L158.894 153.455L164.075 154.143L166.449 149.498L171.335 151.364L174.72 147.393L179.031 150.34L183.243 147.252L186.782 151.097L191.683 149.077L194.337 153.666L199.561 152.824L201.063 157.904L206.343 158.325L206.596 163.615L211.623 165.285L210.598 170.478L215.064 173.327L212.789 178.098L216.398 181.971L212.985 186.013L215.499 190.672Z" fill="white" fill-opacity="0.94"/>
<path d="M184.592 218.95L180.112 215.764L175.534 218.823L171.925 214.697L166.87 216.662L164.356 211.863L158.992 212.62L157.588 207.372L152.182 206.867V201.45L147.042 199.696L148.236 194.405L143.658 191.5L146.101 186.644L142.366 182.701L145.933 178.589L143.293 173.846L147.758 170.744L146.354 165.496L151.451 163.601V158.17L156.844 157.581L158.121 152.304L163.5 153.006L165.943 148.178L170.998 150.115L174.523 146.003L179.003 149.063L183.37 145.863L187.049 149.848L192.104 147.757L194.913 152.515L200.347 151.659L201.906 156.921L207.382 157.356L207.649 162.843L212.873 164.584L211.792 169.973L216.44 172.934L214.067 177.901L217.83 181.929L214.277 186.139L216.889 190.981L212.396 194.18L213.716 199.527L208.576 201.478L208.492 206.979L203.015 207.568L201.611 212.887L196.163 212.129L193.508 216.943L188.397 214.908L184.592 218.95ZM180.14 213.238L184.353 216.185L187.807 212.438L192.54 214.319L195.011 209.87L200.052 210.572L201.372 205.66L206.442 205.113V200.032L211.202 198.222L209.98 193.296L214.123 190.349L211.707 185.887L214.993 181.999L211.525 178.28L213.716 173.705L209.419 170.899L210.402 165.917L205.571 164.303L205.332 159.223L200.249 158.816L198.845 153.932L193.817 154.732L191.22 150.382L186.487 152.332L183.103 148.642L179.045 151.603L174.832 148.796L171.574 152.613L166.884 150.817L164.595 155.279L159.624 154.62L158.444 159.504L153.459 160.051V165.047L148.769 166.801L150.033 171.643L145.919 174.449L148.348 178.828L145.062 182.603L148.502 186.251L146.256 190.728L150.468 193.409L149.359 198.306L154.105 199.92L154.19 204.93L159.189 205.407L160.424 210.263L165.395 209.561L167.727 214.024L172.403 212.199L175.773 216.045L180.14 213.238Z" fill="black"/>
<path d="M154.344 185.227L158.557 167.306L162.152 168.12L166.884 181.873L169.692 169.846L173.175 170.632L168.962 188.693L165.213 187.795L160.537 174.337L157.798 186.041L154.344 185.227Z" fill="black"/>
<path d="M172.964 189.647L177.177 171.544L190.054 174.477L189.338 177.565L180.238 175.474L179.241 179.768L187.007 181.578L186.291 184.666L178.455 182.827L176.658 190.532L172.964 189.647Z" fill="black"/>
<path d="M193.171 194.461L196.724 179.263L191.107 177.972L191.823 174.884L206.989 178.337L206.259 181.452L200.642 180.147L197.089 195.373L193.171 194.461Z" fill="black"/>
<path d="M226.115 288.907H74.4565C75.3974 286.928 76.8999 283.855 78.8518 279.995C78.5801 279.299 78.4145 278.566 78.3603 277.82C77.9812 271.267 80.6914 266.285 86.7858 263.45C86.5208 261.471 86.7425 259.458 87.4317 257.584C88.836 253.697 91.9534 252.434 94.7198 249.585L95.2674 250.202L95.8993 249.15C96.0398 248.911 96.1662 248.687 96.3066 248.476C96.2083 247.999 96.11 247.55 96.0538 247.073C96.0538 246.862 96.0538 246.652 96.0538 246.441C96.0538 246.231 96.1662 245.81 96.2364 245.501C96.2364 245.291 96.3206 245.066 96.3768 244.87C96.7646 242.55 97.4392 240.287 98.3849 238.133C98.4972 237.881 98.6095 237.642 98.7359 237.404C99.1547 236.63 99.6238 235.885 100.14 235.172C100.211 235.058 100.29 234.95 100.379 234.85C100.772 234.288 101.24 233.713 101.783 233.123L102.401 232.352C102.478 232.279 102.549 232.199 102.612 232.113L104.016 230.513L105.308 229.11C105.771 228.577 106.221 228.029 106.712 227.454C107.941 225.75 109.067 223.974 110.082 222.135L111.276 220.058C112.994 216.718 115.35 213.748 118.213 211.315C119.1 210.631 120.039 210.016 121.021 209.477C123.077 208.345 125.259 207.459 127.523 206.839C128.534 205.842 129.559 204.846 130.584 203.948C134.549 200.325 139.154 197.469 144.163 195.528C145.041 195.223 145.936 194.975 146.845 194.784C147.828 193.24 149.148 192.103 152.701 191.823C155.495 191.907 158.222 192.705 160.621 194.138C161.576 194.686 171.279 197.801 174.242 200.916C174.359 201.035 174.466 201.162 174.565 201.295C174.761 201.536 174.917 201.806 175.029 202.095L178.006 205.548C178.96 206.628 179.901 207.709 180.814 208.803C182.032 208.798 183.233 209.092 184.311 209.659C185.876 210.537 187.036 211.993 187.54 213.715C187.943 215.018 188.044 216.395 187.835 217.743C187.948 216.985 188.706 217.63 189.801 219.076C189.984 219.3 190.18 219.567 190.377 219.862C191.29 221.167 192.385 222.865 193.537 224.731C197.244 230.738 201.442 238.344 201.779 238.765C203.114 240.688 205.838 241.866 207.481 243.691C212.269 249.023 210.177 252.981 217.086 259.899C217.776 260.571 218.319 261.379 218.68 262.272C219.04 263.165 219.211 264.123 219.181 265.086C219.15 266.048 218.92 266.994 218.503 267.862C218.087 268.731 217.494 269.503 216.763 270.13C222.267 280.543 225.722 288.051 226.115 288.907Z" fill="#11A97D"/>
<path d="M218.658 222.865C219.529 221.84 220.442 220.872 221.327 219.876C222.211 218.879 223.152 217.939 224.065 216.971C225.89 215.02 227.758 213.126 229.682 211.259L230.131 210.824L230.609 211.245C232.724 213.116 234.826 214.987 236.914 216.859L236.394 216.69C237.967 216.522 239.526 216.367 241.098 216.255C242.671 216.143 244.23 215.96 245.803 215.876H245.985V215.988C246.687 217.083 247.389 218.15 248.091 219.258C247.207 218.304 246.378 217.322 245.522 216.339L245.788 216.452C244.244 216.76 242.685 216.985 241.14 217.251C239.596 217.518 238.037 217.757 236.478 217.981H236.197L235.973 217.785C233.824 215.96 231.76 214.122 229.626 212.241H230.552C228.624 214.113 226.667 215.918 224.683 217.658C223.672 218.529 222.703 219.441 221.678 220.297C220.652 221.153 219.712 222.037 218.658 222.865Z" fill="black"/>
<path d="M260.028 250.104C261.133 248.272 262.342 246.506 263.651 244.813C264.942 243.115 266.319 241.487 267.723 239.873L268.172 239.354L268.664 239.803C270.511 241.486 272.242 243.291 273.845 245.206C271.731 243.875 269.709 242.403 267.793 240.8H268.734C267.33 242.456 266.052 244.098 264.605 245.669C263.173 247.241 261.644 248.722 260.028 250.104Z" fill="black"/>
<path d="M120.783 223.819C121.344 223.061 121.92 222.318 122.51 221.588C123.086 220.858 123.661 220.1 124.265 219.385L127.874 215.076L128.267 214.599L128.745 215.048C131.31 217.453 133.847 219.899 136.356 222.388L135.555 222.275C137.549 221.223 139.557 220.17 141.593 219.188L141.832 219.076L142.029 219.16C144.837 220.339 147.547 221.532 150.258 222.865C147.351 222.051 144.5 221.111 141.65 220.128H142.085C140.147 221.307 138.167 222.402 136.201 223.496L135.766 223.735L135.401 223.384C132.845 220.942 130.36 218.458 127.902 215.932H128.773L124.841 219.96C124.181 220.634 123.437 221.279 122.819 221.925C122.201 222.57 121.471 223.188 120.783 223.819Z" fill="black"/>
<path d="M198.606 262.215C197.679 261.261 196.78 260.292 195.896 259.324C195.011 258.356 194.084 257.401 193.214 256.405C191.472 254.44 189.689 252.49 187.962 250.497L188.987 250.329L186.249 257.43V257.598L186.108 257.71C184.479 259.114 182.836 260.405 181.179 261.738L180.744 262.089L180.323 261.752L173.47 256.237H174.186L168.274 261.162C166.266 262.762 164.286 264.404 162.264 265.962C164.075 264.152 165.943 262.397 167.797 260.615L173.414 255.395L173.751 255.086L174.13 255.367L181.151 260.699H180.309C181.937 259.296 183.566 257.977 185.237 256.658L185.027 256.938L187.906 249.922L188.285 248.967L188.931 249.753C190.588 251.802 192.217 253.893 193.86 255.956C194.688 256.98 195.474 258.047 196.275 259.085C197.075 260.124 197.834 261.148 198.606 262.215Z" fill="black"/>
<path d="M228.565 93.091L203.679 87.2164C201.376 86.6729 199.069 88.0974 198.526 90.398L192.373 116.43C191.829 118.73 193.255 121.036 195.557 121.579L220.443 127.454C222.745 127.997 225.052 126.573 225.596 124.272L231.749 98.2405C232.292 95.9399 230.867 93.6344 228.565 93.091Z" fill="white" fill-opacity="0.94"/>
<path d="M221.439 127.858C221.084 127.857 220.731 127.815 220.386 127.732L195.432 121.851C194.256 121.572 193.239 120.837 192.604 119.808C191.97 118.779 191.77 117.54 192.048 116.364L198.241 90.3602C198.381 89.7806 198.634 89.2344 198.986 88.7527C199.338 88.2711 199.781 87.8636 200.291 87.5535C200.798 87.2357 201.364 87.0223 201.955 86.9259C202.545 86.8295 203.149 86.852 203.731 86.9922L228.629 92.8722C229.796 93.1561 230.804 93.8869 231.437 94.9071C231.756 95.4164 231.969 95.984 232.066 96.5767C232.162 97.1695 232.139 97.7755 231.999 98.3593L225.848 124.392C225.61 125.39 225.043 126.28 224.238 126.918C223.434 127.557 222.438 127.908 221.411 127.914L221.439 127.858ZM220.512 127.17C221.022 127.295 221.552 127.317 222.071 127.236C222.589 127.154 223.087 126.97 223.534 126.694C223.981 126.419 224.368 126.057 224.674 125.631C224.98 125.204 225.198 124.721 225.315 124.209L231.465 98.1769C231.592 97.6677 231.615 97.1382 231.533 96.6199C231.451 96.1015 231.266 95.605 230.988 95.1597C230.712 94.7117 230.351 94.3224 229.924 94.0141C229.498 93.7059 229.014 93.4848 228.502 93.3634L203.605 87.5535C202.573 87.3113 201.487 87.4879 200.586 88.0447C200.138 88.3186 199.749 88.6796 199.443 89.1062C199.136 89.5329 198.919 90.0165 198.802 90.5286L192.624 116.491C192.383 117.523 192.561 118.609 193.119 119.511C193.677 120.413 194.569 121.057 195.601 121.304L220.512 127.17Z" fill="black"/>
<path d="M218.139 96.4086C217.992 96.3687 217.839 96.3586 217.688 96.3788C217.538 96.399 217.393 96.4492 217.262 96.5263C217.131 96.6035 217.017 96.7062 216.926 96.8282C216.836 96.9501 216.771 97.089 216.735 97.2366L215.667 101.587L212.859 113.305C210.879 112.1 208.525 111.665 206.245 112.084C202.327 112.561 201.091 113.824 201.316 115.775C201.541 117.726 203.184 119.648 207.102 119.185C211.019 118.722 213.687 116.926 213.772 115.073L216.987 101.447C219.796 101.348 221.383 102.457 221.004 104.253C220.554 106.358 222.029 106.232 222.029 106.232C225.848 99.7486 220.624 97.2086 218.139 96.4086Z" fill="black"/>
<path d="M288.73 73.8007C294.558 68.3837 295.962 58.3638 291.539 49.242C287.115 40.1202 278.564 35.026 270.742 36.0926L270.447 35.447L266.417 37.3836C257.711 41.5937 254.818 53.6485 259.971 64.3842C265.125 75.1198 276.429 80.4245 285.15 76.3267L289.067 74.5585L288.73 73.8007Z" fill="black"/>
<path d="M295.611 47.3194C300.765 58.055 297.774 70.3063 289.067 74.4883C280.361 78.6703 269.197 73.1972 264.044 62.4615C258.89 51.7259 261.783 39.629 270.503 35.447C279.224 31.265 290.458 36.5837 295.611 47.3194Z" fill="#11A97D"/>
<path d="M292.803 48.6806C297.015 57.4937 294.586 67.5698 287.424 70.9939C280.263 74.4181 271.093 69.9274 266.866 61.1705C262.639 52.4135 265.013 42.4217 272.174 38.9834C279.336 35.5452 288.562 39.8395 292.803 48.6806Z" fill="#11A97D"/>
<path d="M279.631 52.7083L276.485 42.1831L287.719 55.0519L279.631 52.7083Z" fill="black"/>
<path d="M276.879 42.8287L287.284 54.7431L279.799 52.582L276.879 42.8287ZM276.162 41.5376L279.547 52.7644L288.239 55.2764L276.162 41.4674V41.5376Z" fill="#11A97D"/>
<path d="M282.299 61.6336L288.028 56.5114L284.124 67.7242L282.299 61.6336Z" fill="black"/>
<path d="M287.677 57.0305L284.138 67.2189L282.495 61.6897L287.691 57.0305H287.677ZM288.379 55.978L282.116 61.5914L284.11 68.2433L288.323 55.978H288.379Z" fill="#11A97D"/>
<path d="M276.176 42.2814L279.322 52.8065L273.873 59.29L276.176 42.2814Z" fill="black"/>
<path d="M276.233 43.0252L279.153 52.7644L274.07 58.7708L276.19 43.0252H276.233ZM276.12 41.5376L273.649 59.7812L279.504 52.7644L276.12 41.5376Z" fill="#11A97D"/>
<path d="M274.421 60.6934L282.004 61.7318L283.815 67.8224L274.421 60.6934Z" fill="black"/>
<path d="M274.997 60.8897L281.878 61.844L283.535 67.3732L274.997 60.8897ZM273.831 60.4126L284.11 68.2152L282.116 61.5633L273.831 60.4126Z" fill="#11A97D"/>
<path d="M274.042 60.0618L279.645 53.3818L287.958 55.7816L281.934 61.0161L274.042 60.0618Z" fill="black"/>
<path d="M279.687 53.5643L287.621 55.8518L281.878 60.8898L274.351 59.9777L279.687 53.5643ZM279.575 53.1995L273.719 60.2162L281.962 61.2266L288.267 55.7536L279.575 53.2416V53.1995Z" fill="#11A97D"/>
<path d="M275.966 70.8115C271.884 68.7365 268.623 65.3441 266.712 61.1845C262.499 52.3013 264.858 42.2393 272.09 38.7309C273.914 37.9002 275.904 37.4939 277.908 37.5425C279.912 37.5911 281.879 38.0934 283.661 39.0115C287.733 41.0987 291.005 44.4657 292.974 48.5939C294.943 52.7222 295.5 57.3828 294.558 61.8581C294.156 63.8289 293.317 65.6843 292.102 67.2874C290.886 68.8905 289.326 70.2003 287.537 71.1203C286.812 71.466 286.055 71.7386 285.276 71.9342C282.137 72.6706 278.839 72.2729 275.966 70.8115ZM292.634 48.7508C290.752 44.6759 287.531 41.3677 283.507 39.3764C281.777 38.4842 279.868 37.9954 277.922 37.9468C275.976 37.8982 274.045 38.291 272.273 39.0957C265.251 42.4778 262.878 52.3153 267.063 61.0302C268.941 65.1144 272.142 68.4467 276.148 70.4888C277.87 71.4011 279.777 71.9071 281.725 71.968C283.672 72.0288 285.607 71.6428 287.382 70.8396C289.132 69.9484 290.658 68.6741 291.847 67.1118C293.036 65.5495 293.857 63.7393 294.249 61.816C295.243 57.4098 294.688 52.7957 292.676 48.7508H292.634Z" fill="black"/>
<path d="M204.77 51.7681L162.32 65.8858C161.847 66.0441 161.348 66.1075 160.85 66.0726C160.352 66.0376 159.867 65.9048 159.421 65.6819C158.974 65.459 158.577 65.1502 158.25 64.7735C157.924 64.3967 157.675 63.9592 157.518 63.4861L143.475 21.0627C143.317 20.591 143.254 20.0926 143.289 19.5964C143.324 19.1001 143.457 18.6157 143.68 18.171C143.903 17.7263 144.212 17.33 144.589 17.005C144.966 16.68 145.404 16.4327 145.876 16.2772L188.257 2.15949C188.729 2.00142 189.227 1.93815 189.724 1.97331C190.22 2.00847 190.705 2.14138 191.15 2.36439C191.595 2.5874 191.992 2.89611 192.317 3.27278C192.642 3.64945 192.889 4.08664 193.045 4.55923L207.172 46.9826C207.487 47.9355 207.412 48.9745 206.962 49.8717C206.511 50.7688 205.723 51.4509 204.77 51.7681Z" fill="white" fill-opacity="0.94"/>
<path d="M161.127 66.5032C160.24 66.5035 159.376 66.2243 158.657 65.7052C157.939 65.1862 157.402 64.4538 157.124 63.6123L143.082 21.1889C142.73 20.1319 142.812 18.9785 143.31 17.9816C143.807 16.9847 144.68 16.2255 145.736 15.8702L188.186 1.83668C189.244 1.48516 190.398 1.56693 191.396 2.06407C192.393 2.56121 193.153 3.43319 193.508 4.48902L207.565 46.8563C207.916 47.9152 207.832 49.0701 207.332 50.0673C206.832 51.0645 205.956 51.8226 204.897 52.175L162.447 66.2787C162.023 66.4281 161.576 66.5041 161.127 66.5032ZM189.45 2.38399C189.088 2.38497 188.728 2.44178 188.383 2.55239L145.933 16.6701C145.096 16.9524 144.403 17.5517 144.004 18.3391C143.605 19.1264 143.531 20.0389 143.798 20.8802L157.925 63.3036C158.21 64.1377 158.81 64.8274 159.597 65.2259C160.384 65.6243 161.296 65.7 162.138 65.4367L204.574 51.3189C205.409 51.0334 206.1 50.4344 206.501 49.6486C206.902 48.8629 206.981 47.9521 206.722 47.1089L192.624 4.75566C192.409 4.07828 191.988 3.48512 191.419 3.05967C190.849 2.63422 190.161 2.39791 189.45 2.38399Z" fill="black"/>
<path d="M200.951 49.1296L163.795 61.4932C163.07 61.7291 162.282 61.6698 161.601 61.3282C160.92 60.9866 160.401 60.3903 160.158 59.6688L147.8 22.5361C147.674 22.179 147.621 21.8 147.645 21.4219C147.669 21.0439 147.769 20.6746 147.94 20.3363C148.11 19.998 148.347 19.6977 148.637 19.4535C148.927 19.2093 149.263 19.0263 149.626 18.9154L186.768 6.55188C187.493 6.31599 188.281 6.37528 188.962 6.71687C189.643 7.05846 190.161 7.65475 190.405 8.37624L202.762 45.4528C202.898 45.8123 202.959 46.1958 202.94 46.5795C202.922 46.9633 202.824 47.3391 202.654 47.6838C202.485 48.0285 202.246 48.3347 201.953 48.5834C201.66 48.8321 201.319 49.018 200.951 49.1296Z" fill="#AAB6C2"/>
<path d="M162.236 59.3742L166.744 28.6127L181.46 43.9233L184.269 32.2754L200.474 46.3932C200.713 46.6005 200.893 46.8674 200.996 47.1667C201.099 47.4661 201.121 47.7873 201.059 48.0978C200.998 48.4083 200.856 48.6971 200.647 48.935C200.438 49.1729 200.17 49.3514 199.87 49.4525L164.539 61.3389C164.25 61.4265 163.944 61.4401 163.649 61.3785C163.354 61.3169 163.079 61.182 162.849 60.9863C162.62 60.7906 162.444 60.5404 162.336 60.2587C162.229 59.9769 162.195 59.6728 162.236 59.3742Z" fill="black"/>
<path d="M178.132 21.1328C178.339 21.7712 178.352 22.4568 178.168 23.1024C177.984 23.7479 177.612 24.3242 177.1 24.7579C176.587 25.1915 175.957 25.463 175.289 25.5377C174.622 25.6123 173.947 25.4869 173.352 25.1772C172.756 24.8676 172.266 24.3877 171.943 23.7988C171.621 23.2099 171.482 22.5385 171.543 21.8701C171.603 21.2017 171.862 20.5665 172.285 20.0453C172.708 19.5242 173.277 19.1407 173.919 18.9436C174.768 18.6791 175.688 18.7608 176.477 19.1709C177.266 19.581 177.861 20.2862 178.132 21.1328Z" fill="white" fill-opacity="0.94"/>
<path d="M174.902 25.9743C173.996 25.9713 173.121 25.6452 172.434 25.0549C171.747 24.4645 171.293 23.6486 171.155 22.7538C171.016 21.8591 171.201 20.9442 171.677 20.1737C172.153 19.4032 172.888 18.8277 173.751 18.5506C174.223 18.3917 174.723 18.3297 175.22 18.3683C175.717 18.4069 176.201 18.5453 176.643 18.7751C177.096 18.9994 177.501 19.3107 177.833 19.6911C178.166 20.0716 178.42 20.5138 178.581 20.9924C178.735 21.4685 178.792 21.9702 178.751 22.4687C178.71 22.9671 178.572 23.4526 178.343 23.8974C178.116 24.3526 177.798 24.7568 177.409 25.085C177.021 25.4132 176.569 25.6585 176.082 25.8059C175.7 25.9241 175.302 25.9809 174.902 25.9743ZM174.902 19.1961C174.592 19.1935 174.284 19.2409 173.989 19.3365C173.252 19.5608 172.632 20.0645 172.262 20.7398C172.08 21.0845 171.97 21.4624 171.939 21.8508C171.907 22.2392 171.955 22.6299 172.08 22.9992C172.301 23.7411 172.805 24.3662 173.484 24.7394C173.831 24.9187 174.211 25.0275 174.6 25.0596C174.99 25.0917 175.382 25.0465 175.754 24.9264C176.126 24.8064 176.47 24.614 176.768 24.3604C177.065 24.1067 177.309 23.7967 177.486 23.4483C177.664 23.1024 177.772 22.7246 177.803 22.3368C177.835 21.9491 177.789 21.5589 177.669 21.1889C177.552 20.8148 177.362 20.468 177.108 20.169C176.855 19.87 176.544 19.6251 176.194 19.4487C175.792 19.2726 175.355 19.1864 174.916 19.1961H174.902Z" fill="black"/>
<path d="M323.219 178.772L272.202 185.788C271.665 185.861 271.118 185.828 270.593 185.69C270.069 185.551 269.577 185.311 269.145 184.983C268.713 184.654 268.351 184.244 268.078 183.776C267.805 183.307 267.627 182.789 267.554 182.252L262.836 147.673C262.763 147.136 262.796 146.59 262.935 146.065C263.073 145.541 263.313 145.049 263.642 144.618C263.971 144.186 264.381 143.824 264.85 143.551C265.319 143.278 265.837 143.101 266.375 143.028L317.391 136.11C317.929 136.036 318.475 136.07 319 136.208C319.525 136.346 320.017 136.587 320.448 136.915C320.88 137.243 321.243 137.654 321.516 138.122C321.789 138.591 321.966 139.109 322.039 139.646L326.729 174.183C326.861 175.254 326.568 176.335 325.912 177.193C325.255 178.051 324.288 178.618 323.219 178.772Z" fill="white" fill-opacity="0.94"/>
<path d="M271.641 186.181C270.545 186.181 269.486 185.785 268.66 185.065C267.834 184.345 267.296 183.351 267.147 182.266L262.457 147.729C262.297 146.537 262.617 145.33 263.346 144.372C264.075 143.415 265.154 142.785 266.347 142.621L317.363 135.703C318.554 135.547 319.758 135.868 320.713 136.596C321.668 137.325 322.296 138.401 322.46 139.59L327.151 174.126C327.232 174.716 327.196 175.316 327.045 175.892C326.894 176.468 326.631 177.008 326.271 177.483C325.911 177.957 325.462 178.356 324.947 178.657C324.433 178.957 323.865 179.154 323.275 179.235L272.259 186.139L271.641 186.181ZM317.981 136.474C317.813 136.461 317.644 136.461 317.475 136.474L266.459 143.379C265.973 143.446 265.505 143.608 265.082 143.856C264.659 144.104 264.289 144.433 263.993 144.824C263.697 145.215 263.481 145.661 263.357 146.135C263.233 146.609 263.204 147.103 263.271 147.589L267.948 182.126C268.015 182.611 268.177 183.079 268.425 183.502C268.673 183.925 269.002 184.295 269.394 184.59C269.785 184.886 270.231 185.102 270.705 185.226C271.18 185.349 271.674 185.378 272.16 185.311L323.219 178.421C323.706 178.357 324.176 178.197 324.601 177.95C325.026 177.703 325.398 177.374 325.694 176.983C325.991 176.591 326.207 176.144 326.329 175.668C326.451 175.192 326.477 174.697 326.406 174.211L321.716 139.674C321.587 138.779 321.137 137.961 320.45 137.373C319.763 136.784 318.886 136.465 317.981 136.474Z" fill="black"/>
<path d="M314.288 171.516L279.013 176.484C278.224 176.592 277.424 176.385 276.788 175.906C276.151 175.428 275.73 174.717 275.615 173.93L272.806 153.722C272.751 153.332 272.773 152.935 272.872 152.553C272.97 152.172 273.143 151.814 273.381 151.5C273.618 151.185 273.915 150.921 274.255 150.722C274.595 150.523 274.972 150.393 275.362 150.34L310.58 145.372C310.971 145.316 311.368 145.338 311.749 145.437C312.131 145.535 312.489 145.708 312.804 145.946C313.118 146.183 313.383 146.48 313.582 146.82C313.781 147.16 313.911 147.536 313.965 147.926L316.773 168.134C316.883 168.91 316.684 169.699 316.22 170.331C315.755 170.963 315.062 171.388 314.288 171.516Z" fill="#11A97D"/>
<path d="M291.104 154.83L303.573 159.854L292.985 168.134L291.104 154.83Z" fill="white" fill-opacity="0.94"/>
<path d="M291.412 155.209L303.082 159.924L293.168 167.671L291.412 155.209ZM290.795 154.437L292.789 168.597L304.023 159.784L290.752 154.437H290.795Z" fill="black"/>
</svg>
