<svg width="386" height="389" viewBox="0 0 386 389" fill="none" xmlns="http://www.w3.org/2000/svg">
<path d="M373.857 385.47H15.1007V388.188H373.857V385.47Z" fill="black"/>
<path d="M235.212 11.3267C292.825 27.8827 389.546 79.0609 385.198 196.614C380.851 314.168 278.157 253.513 201.019 359.72C143.501 438.913 -97.2328 330.629 44.9089 97.9956C101.501 5.36123 185.236 -3.09611 235.212 11.3267Z" fill="#E6EBF0" fill-opacity="0.26"/>
<path d="M286.814 313.224C235.779 328.76 228.956 351.697 229.315 372.029C229.712 395.079 320.138 383.884 358.018 322.795C395.897 261.706 313.75 305.031 286.814 313.224Z" fill="#E6EBF0" fill-opacity="0.26"/>
<mask id="mask0_4_1665" style="mask-type:luminance" maskUnits="userSpaceOnUse" x="0" y="5" width="386" height="381">
<path d="M235.212 11.3267C292.825 27.8827 389.546 79.0609 385.198 196.614C380.851 314.168 278.157 253.513 201.019 359.72C143.501 438.913 -97.2328 330.629 44.9089 97.9956C101.501 5.36123 185.236 -3.09611 235.212 11.3267Z" fill="white"/>
</mask>
<g mask="url(#mask0_4_1665)">
<path d="M237.273 304.181H434.249L434.249 51.9711L237.273 51.9711L237.273 304.181Z" fill="#E6EBF0" fill-opacity="0.26"/>
<mask id="mask1_4_1665" style="mask-type:luminance" maskUnits="userSpaceOnUse" x="237" y="49" width="198" height="255">
<path d="M434.457 49.1582H237.311V303.086H434.457V49.1582Z" fill="white"/>
</mask>
<g mask="url(#mask1_4_1665)">
<path d="M315.356 250.87C316.698 258.591 329.23 260.026 335.468 257.741C337.455 257.063 339.154 255.732 340.288 253.966C340.571 253.569 340.817 252.682 341.157 252.38C342.435 251.813 343.764 251.371 345.127 251.059C346.28 250.907 347.546 251.228 348.756 251.059C355.088 250.19 361.023 245.622 366.448 242.356C366.535 242.411 366.637 242.441 366.741 242.441C366.845 242.441 366.946 242.411 367.034 242.356C370.984 239.788 375.256 235.22 373.252 230.123C373.074 229.675 372.852 229.245 372.591 228.839C372.079 230.474 371.249 231.991 370.148 233.304C369.047 234.618 367.698 235.701 366.177 236.492C364.656 237.283 362.994 237.766 361.286 237.914C359.577 238.062 357.856 237.871 356.222 237.353C356.118 237.328 356.009 237.326 355.904 237.348C355.799 237.37 355.7 237.415 355.615 237.48C355.53 237.546 355.46 237.629 355.411 237.725C355.363 237.82 355.336 237.925 355.334 238.033C355.787 241.808 352.385 243.696 349.172 243.847C346.85 243.763 344.567 243.237 342.443 242.299C342.008 242.129 341.592 242.545 341.554 242.979C341.533 244.062 341.227 245.121 340.666 246.049C340.105 246.977 339.31 247.741 338.36 248.265C337.66 248.642 336.659 248.642 335.997 249.039C334.901 249.68 335.071 250.285 334.485 251.266C330.931 257.232 321.14 252.418 316.263 250.398C316.144 250.364 316.017 250.364 315.897 250.397C315.777 250.43 315.668 250.496 315.583 250.587C315.502 250.676 315.426 250.771 315.356 250.87Z" fill="#AAB6C2"/>
<path d="M352.045 224.648C354.275 223.1 354.823 229.424 354.766 230.557C355.22 231.255 354.275 232.18 353.746 231.482C352.86 230.368 352.217 229.082 351.856 227.706C351.61 226.876 351.137 225.271 352.045 224.648Z" fill="#AAB6C2"/>
<path d="M340.42 233.559C339.097 231.483 338.323 229.105 338.171 226.649C338.172 226.497 338.222 226.348 338.314 226.226C338.406 226.104 338.535 226.014 338.681 225.97C340.269 225.479 340.987 227.386 341.384 228.594C342.031 230.601 342.135 232.744 341.686 234.805C341.497 235.692 340.136 235.314 340.325 234.427C340.344 234.087 340.382 233.823 340.42 233.559Z" fill="#AAB6C2"/>
<path d="M321.027 239.92C321.027 238.561 322.255 238.033 323.352 238.561C324.384 239.003 325.356 239.574 326.244 240.26C326.94 240.561 327.616 240.908 328.266 241.299C328.814 241.62 328.625 242.677 327.907 242.601C327.779 242.705 327.619 242.762 327.453 242.762C327.288 242.762 327.128 242.705 327 242.601C324.618 242.507 321.178 242.62 321.027 239.92Z" fill="#AAB6C2"/>
<path d="M324.448 205.638C321.36 205.181 318.506 203.729 316.32 201.504C316.743 200.27 317.448 199.151 318.38 198.238C320.705 195.935 324.051 195.482 327.056 194.462C336.507 191.196 336.885 182.531 336.507 173.923C336.5 173.636 336.559 173.351 336.679 173.09C336.798 172.829 336.976 172.599 337.199 172.417C337.421 172.235 337.682 172.106 337.962 172.039C338.242 171.973 338.533 171.972 338.813 172.035C343.489 172.975 348.318 172.84 352.933 171.639C353.198 171.412 353.5 171.223 353.746 170.978C355.107 169.619 354.332 168.146 354.445 166.447C354.431 166.398 354.431 166.346 354.445 166.296C354.434 166.054 354.489 165.812 354.606 165.599C354.723 165.386 354.896 165.209 355.107 165.088C356.203 164.125 358.301 164.522 358.131 166.334C358.114 166.402 358.114 166.473 358.131 166.542C358.244 167.712 359.076 168.222 360.153 168.429C361.268 167.967 362.249 167.234 363.008 166.296C363.794 165.575 364.28 164.584 364.369 163.521C364.382 162.787 364.451 162.055 364.576 161.331C364.608 161.234 364.662 161.146 364.734 161.073C364.806 161.001 364.895 160.947 364.992 160.916C365.002 160.765 365.059 160.621 365.156 160.504C365.252 160.387 365.383 160.304 365.53 160.266C365.677 160.228 365.832 160.238 365.973 160.294C366.114 160.349 366.234 160.448 366.315 160.576C366.661 161.088 366.888 161.671 366.979 162.282C367.071 162.892 367.025 163.516 366.845 164.106C367.109 163.842 367.393 163.597 367.639 163.332C369.302 161.652 370.512 159.293 372.61 158.047C377.014 155.366 381.664 155.083 385.293 150.665C385.642 150.342 386.102 150.162 386.578 150.162C387.055 150.162 387.514 150.342 387.864 150.665C390.493 153.287 393.296 155.728 396.256 157.971C397.25 158.099 398.259 157.941 399.166 157.516C400.073 157.092 400.841 156.418 401.378 155.574C401.649 155.278 402.007 155.076 402.4 154.997C402.794 154.918 403.202 154.966 403.566 155.134C403.931 155.302 404.232 155.582 404.426 155.933C404.621 156.283 404.699 156.686 404.648 157.084C404.694 157.347 404.668 157.618 404.571 157.868C404.474 158.117 404.312 158.336 404.1 158.5C401.227 160.897 406.425 163.106 408.145 163.578C408.423 163.639 408.678 163.776 408.882 163.974C411.181 164.348 413.537 164.146 415.738 163.385C417.939 162.623 419.915 161.327 421.49 159.613C421.841 159.279 422.308 159.092 422.794 159.092C423.28 159.092 423.747 159.279 424.098 159.613C429.07 163.842 428.805 169.675 432.302 174.452C435.024 176.604 444.909 173.753 443.775 175.811C442.93 177.248 441.672 178.399 440.165 179.114C441.463 179.454 442.728 179.909 443.945 180.474C449.238 183.117 451.336 187.515 458.5 183.891C459.503 182.919 460.323 181.774 460.919 180.511C461.921 178.378 465.115 180.247 464.114 182.399C463.481 183.703 462.666 184.91 461.694 185.986C461.184 195.803 461.429 206.752 471.618 211.736C480.142 215.926 489.385 213.623 497.626 209.98C494.931 214.581 491.003 218.341 486.285 220.835C480.293 224.006 473.98 224.006 467.573 223.157C467.825 223.591 468.04 224.046 468.215 224.516C468.461 225.158 467.78 225.517 467.27 225.309C467.163 225.378 467.038 225.415 466.911 225.415C466.784 225.415 466.659 225.378 466.552 225.309C465.222 224.694 464.113 223.686 463.376 222.421L460.881 221.986C457.905 221.45 455.1 220.214 452.697 218.381C452.6 218.703 452.39 218.98 452.106 219.161C451.821 219.341 451.48 219.413 451.147 219.362C450.976 219.328 450.815 219.257 450.674 219.155C450.494 219.155 450.321 219.083 450.193 218.956C450.066 218.828 449.994 218.655 449.994 218.475C449.994 217.607 449.994 216.757 449.994 215.889C448.127 213.776 446.677 211.329 445.722 208.677C444.458 209.416 443.053 209.883 441.598 210.049C440.143 210.215 438.669 210.076 437.271 209.641C435.873 209.206 434.581 208.484 433.478 207.521C432.375 206.559 431.485 205.378 430.865 204.052C429.222 204.416 427.533 204.53 425.856 204.392C425.832 204.877 425.73 205.355 425.554 205.808C425.496 205.962 425.388 206.092 425.248 206.177C425.107 206.263 424.942 206.299 424.779 206.28C424.722 206.341 424.653 206.39 424.577 206.423C424.501 206.457 424.418 206.474 424.335 206.474C424.251 206.474 424.169 206.457 424.092 206.423C424.016 206.39 423.947 206.341 423.89 206.28C423.318 205.565 422.893 204.744 422.643 203.863C419.674 202.961 417.021 201.24 414.988 198.899C411.85 195.368 411.604 192.102 410.13 187.855C408.656 183.607 409.865 184.985 405.858 184.514C403.779 184.211 401.719 184.287 399.658 183.909C397.192 183.461 394.792 182.706 392.513 181.663C391.743 182.136 390.909 182.498 390.037 182.739C389.933 182.764 389.824 182.766 389.719 182.744C389.614 182.722 389.515 182.677 389.43 182.612C389.345 182.546 389.275 182.463 389.227 182.367C389.178 182.272 389.151 182.167 389.149 182.059C389.144 181.798 389.208 181.541 389.334 181.312C389.46 181.084 389.644 180.892 389.867 180.757L390.207 180.606L388.317 179.681C388.223 179.926 388.109 180.153 387.996 180.379C387.922 180.493 387.817 180.583 387.694 180.64C387.571 180.696 387.434 180.717 387.3 180.699C387.165 180.681 387.038 180.626 386.934 180.539C386.83 180.453 386.752 180.338 386.711 180.209C386.534 179.77 386.432 179.304 386.408 178.831L385.936 178.624C383.176 177.491 379.244 174.848 375.936 177.227C374.991 177.925 374.141 180.606 373.404 181.644C371.437 184.244 368.92 186.378 366.032 187.893C365.339 189.237 364.503 190.503 363.537 191.668C363.449 191.75 363.341 191.809 363.224 191.838C363.107 191.868 362.985 191.868 362.868 191.838C362.751 191.808 362.644 191.749 362.556 191.666C362.468 191.584 362.402 191.481 362.365 191.366C362.271 190.661 362.303 189.946 362.459 189.252C360.494 189.673 358.506 189.982 356.505 190.177C356.561 190.726 356.489 191.281 356.295 191.798C356.102 192.315 355.792 192.781 355.39 193.16C355.302 193.242 355.194 193.3 355.078 193.33C354.961 193.359 354.838 193.359 354.721 193.329C354.605 193.299 354.497 193.24 354.409 193.158C354.322 193.075 354.256 192.972 354.218 192.858C354.087 192.102 354.087 191.329 354.218 190.573C352.341 190.908 350.576 191.699 349.077 192.876C342.537 198.313 338.038 205.053 328.739 205.695C327.34 206.619 325.773 207.26 324.127 207.582C323.522 207.696 322.841 206.884 323.446 206.393C324.051 205.902 324.07 205.883 324.448 205.638Z" fill="#AAB6C2"/>
<path d="M384.045 126.822C384.048 126.715 384.075 126.61 384.123 126.514C384.172 126.419 384.242 126.335 384.327 126.27C384.412 126.205 384.511 126.16 384.616 126.138C384.721 126.116 384.83 126.117 384.934 126.143C386.214 126.416 387.405 127.007 388.396 127.862C389.388 128.716 390.147 129.807 390.604 131.032L390.812 131.278C390.868 131.365 390.897 131.467 390.897 131.57C390.897 131.674 390.868 131.775 390.812 131.863C390.788 131.979 390.736 132.088 390.66 132.18C390.585 132.272 390.488 132.344 390.378 132.39C390.269 132.437 390.15 132.456 390.031 132.446C389.912 132.436 389.798 132.398 389.697 132.335C388.961 132.355 388.227 132.227 387.541 131.959C386.855 131.691 386.23 131.288 385.703 130.774C385.176 130.259 384.757 129.645 384.473 128.966C384.188 128.287 384.043 127.558 384.045 126.822Z" fill="#AAB6C2"/>
<path d="M365.937 140.547C365.999 140.441 366.087 140.353 366.193 140.292C366.299 140.231 366.42 140.199 366.542 140.199C366.665 140.199 366.785 140.231 366.891 140.292C366.997 140.353 367.086 140.441 367.147 140.547C367.816 141.407 368.272 142.412 368.479 143.481C368.686 144.551 368.638 145.654 368.338 146.701C368.322 146.776 368.29 146.847 368.243 146.908C368.198 147.337 368.065 147.753 367.854 148.129C367.643 148.506 367.357 148.835 367.015 149.098C366.637 149.4 366.126 149.098 365.994 148.683C365.011 146.002 364.331 143.133 365.937 140.547Z" fill="#AAB6C2"/>
<path d="M346.374 127.653C348.022 127.603 349.665 127.839 351.232 128.351C351.747 128.538 352.217 128.831 352.612 129.212C353.006 129.592 353.315 130.052 353.519 130.56C353.75 130.748 353.928 130.994 354.034 131.272C354.14 131.55 354.171 131.852 354.124 132.146C353.689 135.166 348.302 131.995 347.092 131.353C346.614 131.163 346.182 130.869 345.83 130.494C345.477 130.119 345.211 129.671 345.051 129.182C344.9 128.106 345.429 127.653 346.374 127.653Z" fill="#AAB6C2"/>
<path d="M331.234 145.606C333.193 144.499 335.434 143.994 337.679 144.152C337.91 144.171 338.133 144.244 338.33 144.364C338.527 144.485 338.693 144.65 338.815 144.847C338.936 145.043 339.01 145.266 339.029 145.496C339.049 145.726 339.013 145.958 338.927 146.172C338.909 146.333 338.858 146.488 338.777 146.628C338.696 146.768 338.586 146.889 338.454 146.984C337.511 147.772 336.376 148.297 335.165 148.506C333.953 148.715 332.708 148.6 331.555 148.173C331.293 148.094 331.059 147.94 330.882 147.731C330.705 147.522 330.593 147.265 330.559 146.994C330.525 146.722 330.571 146.446 330.691 146.2C330.81 145.954 330.999 145.747 331.234 145.606Z" fill="#AAB6C2"/>
<path d="M325.053 164.503C326.395 163.71 327.321 165.107 327.718 166.183C328.134 167.315 328.357 168.508 328.379 169.713C328.374 169.993 328.284 170.265 328.122 170.494C327.959 170.722 327.732 170.896 327.469 170.994C327.206 171.092 326.92 171.108 326.647 171.041C326.375 170.975 326.129 170.827 325.941 170.619C325.757 170.567 325.593 170.462 325.469 170.317C324.775 169.544 324.322 168.587 324.164 167.561C324.013 166.523 324.032 165.107 325.053 164.503Z" fill="#AAB6C2"/>
<path d="M356.6 243.696C356.913 243.7 357.222 243.615 357.488 243.451C364.111 250.55 372.488 255.785 381.777 258.628C384.272 280.508 382.798 318.283 379.887 339.993C379.822 340.265 379.819 340.548 379.878 340.821C379.936 341.095 380.054 341.352 380.224 341.574C380.394 341.796 380.612 341.978 380.861 342.106C381.11 342.234 381.384 342.305 381.664 342.315C385.233 342.438 388.803 342.102 392.287 341.314C392.537 341.266 392.773 341.16 392.975 341.005C393.178 340.85 393.341 340.651 393.453 340.422C393.565 340.193 393.622 339.941 393.62 339.686C393.617 339.432 393.556 339.181 393.44 338.954C393.591 315.168 393.137 276.808 390.585 254.003C390.094 249.567 389.64 244.961 389.414 240.336C398.372 240.188 406.957 236.731 413.513 230.632C406.144 234.811 397.771 236.9 389.3 236.673C389.01 229.663 389.852 222.651 391.795 215.908C395.746 203.41 405.178 193.726 414.062 184.513C415.725 182.814 404.743 188.912 401.567 192.612C401.567 188.138 401.567 183.683 401.851 179.209C402.002 176.849 398.071 196.69 398.071 196.879C395.17 200.586 392.673 204.592 390.623 208.828C389.491 211.263 388.567 213.789 387.864 216.38C386.748 201.523 377.203 165.126 377.354 167.485C378.413 183.041 382.363 197.841 381.683 211.566C381.059 223.742 379.49 235.465 380.549 247.698C380.738 250.02 380.813 250.775 381.059 253.078C377.322 251.714 373.695 250.067 370.209 248.151C368.713 246.852 367.562 245.204 366.86 243.352C366.157 241.501 365.925 239.505 366.183 237.542C366.505 235.22 362.403 241.695 363.253 244.055C359.317 240.518 355.94 236.406 353.235 231.859C352.045 229.821 352.857 237.976 354.407 239.939C346.28 239.813 338.196 238.723 330.326 236.692C328.134 236.107 347.376 243.715 356.6 243.696Z" fill="#AAB6C2"/>
<path d="M275.625 192.65C263.754 188.365 251.846 183.211 243.869 174.867C235.893 166.523 232.15 156.367 229.939 146.191C227.86 136.601 226.158 126.332 226.707 116.534C221.998 127.813 220.054 140.052 221.036 152.232C223.172 176.962 239.635 205.355 272.789 211.547C275.305 211.758 277.834 211.758 280.35 211.547C290.299 208.75 299.895 204.823 308.948 199.843C297.545 199.108 286.314 196.684 275.625 192.65Z" fill="#AAB6C2"/>
<path d="M305.092 107.756C305.211 107.886 305.36 107.983 305.527 108.039C305.686 108.195 305.885 108.303 306.103 108.349C306.321 108.396 306.547 108.38 306.756 108.303C310.083 107.208 313.39 106.208 314.978 103.451C316.868 100.091 315.413 96.1457 314.524 92.7288C314.458 92.5728 314.359 92.4332 314.232 92.3201C314.106 92.207 313.956 92.1231 313.794 92.0744C313.631 92.0258 313.46 92.0135 313.292 92.0385C313.125 92.0635 312.964 92.1251 312.823 92.2191C307.739 95.9192 300.235 101.941 305.092 107.756Z" fill="#AAB6C2"/>
<path d="M230.846 166.749C230.686 166.731 230.524 166.759 230.38 166.828C230.235 166.898 230.113 167.008 230.027 167.144C229.942 167.28 229.898 167.438 229.899 167.599C229.9 167.76 229.946 167.917 230.033 168.052C232.302 171.035 234.57 174.735 238.879 176.188C242.414 177.359 245.703 176.339 249.086 175.358C249.285 175.33 249.466 175.225 249.589 175.067C249.713 174.908 249.77 174.708 249.748 174.508C249.83 174.372 249.863 174.213 249.842 174.055C248.463 167.202 237.764 166.768 230.846 166.749Z" fill="#AAB6C2"/>
<path d="M225.951 149.684C225.138 149.533 224.571 150.25 224.816 150.797C226.234 154.101 227.463 158.103 231.3 160.236C234.419 161.973 237.934 161.52 241.488 161.124C241.698 161.119 241.9 161.044 242.061 160.911C242.222 160.777 242.333 160.592 242.376 160.387C242.487 160.276 242.554 160.128 242.565 159.972C243.038 153.044 232.717 150.835 225.951 149.684Z" fill="#AAB6C2"/>
<path d="M319.458 134.034C319.543 134.179 319.668 134.296 319.817 134.373C319.924 134.561 320.088 134.709 320.285 134.797C320.482 134.885 320.702 134.909 320.913 134.864C324.467 134.411 327.983 134.034 330.364 131.636C333.218 128.691 332.897 124.595 333.029 121.102C333.007 120.936 332.946 120.778 332.851 120.64C332.756 120.502 332.629 120.389 332.481 120.31C332.334 120.231 332.169 120.188 332.002 120.184C331.834 120.181 331.668 120.217 331.517 120.29C325.45 122.915 316.415 127.445 319.458 134.034Z" fill="#AAB6C2"/>
<path d="M324.996 142.114C324.946 142.254 324.946 142.407 324.996 142.548C324.977 142.661 324.983 142.777 325.013 142.887C325.043 142.998 325.096 143.101 325.17 143.189C325.244 143.277 325.336 143.348 325.439 143.397C325.543 143.446 325.656 143.472 325.771 143.473C329.136 144.454 332.443 145.493 335.959 144.303C340.269 142.869 342.537 139.15 344.805 136.167C344.902 136.037 344.958 135.88 344.965 135.718C344.972 135.555 344.93 135.394 344.845 135.256C344.759 135.118 344.634 135.008 344.485 134.942C344.337 134.875 344.172 134.855 344.011 134.883C337.112 134.808 326.376 135.261 324.996 142.114Z" fill="#AAB6C2"/>
<path d="M289.385 206.657C289.331 206.797 289.331 206.952 289.385 207.092C289.349 207.183 289.333 207.281 289.337 207.379C289.341 207.477 289.365 207.573 289.407 207.662C289.45 207.75 289.51 207.829 289.584 207.893C289.658 207.958 289.745 208.006 289.839 208.035C292.901 209.508 295.887 211.037 299.63 210.414C304.223 209.659 307.361 206.374 310.309 203.788C310.431 203.685 310.519 203.548 310.561 203.395C310.604 203.242 310.599 203.08 310.548 202.929C310.498 202.778 310.402 202.647 310.276 202.551C310.149 202.455 309.996 202.399 309.837 202.391C303.089 201.353 292.409 200.107 289.385 206.657Z" fill="#AAB6C2"/>
<path d="M321.272 161.048C321.293 161.205 321.375 161.347 321.499 161.445C321.551 161.649 321.671 161.83 321.839 161.957C322.008 162.084 322.214 162.149 322.425 162.143C325.998 162.407 329.514 162.728 332.538 160.878C336.318 158.613 337.245 154.554 338.454 151.213C338.662 150.646 338.057 149.967 337.263 150.137C330.572 151.534 320.384 154.139 321.272 161.048Z" fill="#AAB6C2"/>
<path d="M288.742 141.585C288.67 141.504 288.581 141.439 288.482 141.395C288.382 141.351 288.275 141.328 288.166 141.328C288.057 141.328 287.95 141.351 287.85 141.395C287.751 141.439 287.662 141.504 287.589 141.585C286.285 143.473 284.49 145.7 284.905 148.003C285.227 149.891 287.003 150.967 288.78 152.1C288.9 152.173 289.037 152.212 289.177 152.212C289.317 152.212 289.455 152.173 289.574 152.1C289.68 152.125 289.79 152.125 289.895 152.1C294.148 149.306 290.973 144.586 288.742 141.585Z" fill="#AAB6C2"/>
<path d="M292.334 105.509C292.069 104.905 290.841 104.773 290.255 105.132C286.777 107.284 282.278 109.549 281.616 112.947C281.087 115.722 283.507 117.95 286.039 120.253C286.232 120.418 286.46 120.536 286.706 120.598C286.952 120.66 287.209 120.665 287.457 120.612C287.669 120.658 287.888 120.658 288.1 120.612C297.418 118.459 294.526 110.568 292.334 105.509Z" fill="#AAB6C2"/>
<path d="M256.798 234.653C252.148 237.221 247.347 239.6 242.603 239.864C238.36 240.02 234.166 238.924 230.544 236.711C227.137 234.949 224.019 232.676 221.301 229.972C223.042 234.341 225.911 238.171 229.617 241.072C234.196 244.518 239.798 246.333 245.53 246.227C251.262 246.121 256.793 244.1 261.24 240.487C262.019 239.772 262.745 239.002 263.414 238.184C265.509 234.39 267.195 230.384 268.442 226.234C264.953 229.546 261.038 232.377 256.798 234.653Z" fill="#AAB6C2"/>
<path d="M249.2 247.962C249.105 248.359 249.653 248.718 250.088 248.661C252.621 248.283 255.759 248.095 257.346 246.358C258.688 244.942 258.31 243.092 258.008 241.204C257.972 241.072 257.9 240.953 257.8 240.859C257.7 240.766 257.575 240.702 257.441 240.675C257.344 240.607 257.235 240.556 257.12 240.524C251.751 239.524 250.164 244.602 249.2 247.962Z" fill="#AAB6C2"/>
<path d="M232.264 246.131C231.98 246.452 232.264 247.019 232.736 247.151C235.194 247.925 238.048 249.039 240.297 248.246C242.187 247.547 242.603 245.735 243.151 243.904C243.18 243.77 243.168 243.63 243.118 243.502C243.067 243.375 242.98 243.265 242.868 243.186C242.826 243.069 242.746 242.969 242.641 242.903C238.237 239.751 234.513 243.526 232.264 246.131Z" fill="#AAB6C2"/>
<path d="M245.382 204.222C245.098 203.958 244.531 204.222 244.38 204.581C243.435 206.676 242.112 209.13 242.754 211.132C243.284 212.793 245.004 213.321 246.705 213.907C246.83 213.946 246.964 213.949 247.091 213.915C247.218 213.882 247.333 213.814 247.423 213.718C247.53 213.675 247.626 213.611 247.707 213.529C251.147 209.886 247.744 206.374 245.382 204.222Z" fill="#AAB6C2"/>
<path d="M258.991 212.34C258.764 212.038 258.14 212.189 257.932 212.51C256.628 214.397 254.889 216.568 255.154 218.664C255.381 220.382 257.044 221.212 258.556 222.1C258.668 222.164 258.795 222.198 258.925 222.198C259.054 222.198 259.181 222.164 259.293 222.1C259.408 222.077 259.517 222.032 259.615 221.967C263.641 218.985 260.938 214.869 258.991 212.34Z" fill="#AAB6C2"/>
<path d="M273.092 179.454C273.092 179.454 274.604 329.459 269.746 385.791H286.569C286.569 385.791 274.188 193.329 273.092 179.454Z" fill="#AAB6C2"/>
<path d="M275.284 215.511C275.284 215.511 288.931 197.294 292.296 189.875C292.296 189.875 278.554 217.116 276.021 226.574L275.284 215.511Z" fill="#AAB6C2"/>
<path d="M275.341 248.264C275.341 248.264 265.607 239.09 255.059 229.745C255.059 229.745 268.48 249.888 274.547 259.327L275.341 248.264Z" fill="#AAB6C2"/>
<path d="M274.736 207.658C274.736 207.658 266.778 196.954 264.737 192.555C264.737 192.555 272.751 208.677 274.188 214.341L274.736 207.658Z" fill="#AAB6C2"/>
</g>
<path opacity="0.31" d="M434.438 49.1582H237.292V303.086H434.438V49.1582Z" fill="white" fill-opacity="0.94"/>
<path opacity="0.6" d="M305.811 298.499H285.17L372.874 52.0654H393.515L305.811 298.499Z" fill="white" fill-opacity="0.94"/>
<path opacity="0.6" d="M269.368 298.499H259.048L346.752 52.0654H357.073L269.368 298.499Z" fill="white" fill-opacity="0.94"/>
<path opacity="0.6" d="M369.661 298.499H359.341L432.075 78.7212L434.268 93.0307L369.661 298.499Z" fill="white" fill-opacity="0.94"/>
<path d="M240.089 46.251H234.267V306.352H240.089V46.251Z" fill="white" fill-opacity="0.94"/>
<path d="M305.811 47.5725H299.989V305.049H305.811V47.5725Z" fill="white" fill-opacity="0.94"/>
<path d="M234.267 46.251V52.0654L437.235 52.0654V46.251L234.267 46.251Z" fill="white" fill-opacity="0.94"/>
<path d="M234.267 300.179V305.993H437.235V300.179H234.267Z" fill="white" fill-opacity="0.94"/>
<path d="M371.532 47.5725H365.711V305.049H371.532V47.5725Z" fill="white" fill-opacity="0.94"/>
<path d="M437.235 173.413H234.267V179.228H437.235V173.413Z" fill="white" fill-opacity="0.94"/>
<path d="M431.395 179.209H240.127V181.266H431.395V179.209Z" fill="#AAB6C2"/>
<path d="M431.395 298.499H240.127V300.557H431.395V298.499Z" fill="#AAB6C2"/>
<path d="M431.451 52.0654H240.07V54.1231H431.451V52.0654Z" fill="#AAB6C2"/>
<path d="M129.948 109.738H-20V200.031H129.948V109.738Z" fill="#AAB6C2"/>
<path d="M122.52 117.251H-12.5527V192.518H122.52V117.251Z" fill="#E6EBF0" fill-opacity="0.26"/>
<path d="M-0.550018 182.305L16.9531 156.933C17.1053 156.707 17.3107 156.522 17.5513 156.394C17.7919 156.266 18.0603 156.199 18.3329 156.199C18.6055 156.199 18.8739 156.266 19.1145 156.394C19.3551 156.522 19.5605 156.707 19.7127 156.933L29.3338 172.167L37.0646 163.993C37.2427 163.803 37.4634 163.658 37.7086 163.57C37.9538 163.482 38.2164 163.453 38.4748 163.487C38.7333 163.52 38.9801 163.614 39.195 163.761C39.4099 163.908 39.5867 164.104 39.7109 164.333L49.5776 182.248L-0.550018 182.305Z" fill="#AAB6C2"/>
<path d="M33.3598 140.358C33.3598 141.44 33.0384 142.499 32.436 143.399C31.8337 144.3 30.9776 145.001 29.976 145.416C28.9744 145.83 27.8722 145.938 26.8089 145.727C25.7456 145.516 24.7689 144.994 24.0023 144.229C23.2357 143.463 22.7136 142.488 22.5021 141.426C22.2906 140.364 22.3992 139.263 22.814 138.263C23.2289 137.262 23.9315 136.407 24.8329 135.806C25.7344 135.204 26.7942 134.883 27.8783 134.883C28.5982 134.883 29.311 135.025 29.976 135.3C30.6411 135.575 31.2453 135.978 31.7543 136.487C32.2634 136.995 32.6671 137.598 32.9426 138.263C33.2181 138.927 33.3598 139.639 33.3598 140.358Z" fill="white" fill-opacity="0.94"/>
<path d="M70.0672 139.433C68.8953 139.112 68.4038 137.96 67.3264 137.545C66.3705 137.101 65.2786 137.046 64.2832 137.394C63.8084 137.57 63.3576 137.805 62.9412 138.093C61.8827 138.772 62.0906 138.81 60.8998 138.98C60.046 139.09 59.2044 139.28 58.3859 139.546C56.6847 140.075 51.7513 139.546 50.8251 141.736C49.8989 143.926 52.7153 143.284 53.6604 143.36C55.2292 143.492 56.4768 144.417 58.0267 144.454C59.4455 144.392 60.833 144.018 62.0906 143.36C63.3759 143.36 64.6613 143.36 65.871 143.36C68.085 143.464 70.3038 143.388 72.5055 143.133C73.0726 143.02 73.6963 142.944 73.961 142.359C75.2652 139.848 71.0501 139.697 70.0672 139.433Z" fill="white" fill-opacity="0.94"/>
<path d="M89.2147 143.473C88.7309 143.35 88.2242 143.35 87.7404 143.473C87.2887 143.637 86.828 143.776 86.3606 143.888C85.8176 143.808 85.2851 143.669 84.7728 143.473C83.4754 143.329 82.164 143.558 80.9925 144.133C80.6725 144.021 80.3281 143.997 79.9955 144.063C79.663 144.13 79.3544 144.284 79.1023 144.511C78.9553 144.638 78.8358 144.794 78.7511 144.969C78.6663 145.144 78.618 145.335 78.6092 145.529C78.6004 145.723 78.6311 145.917 78.6996 146.099C78.7682 146.281 78.873 146.447 79.0078 146.587C80.0861 147.323 81.3694 147.699 82.6747 147.663C84.6599 147.859 86.6642 147.66 88.5721 147.078C90.1787 146.493 91.483 144.322 89.2147 143.473Z" fill="white" fill-opacity="0.94"/>
<path d="M62.5443 182.305L73.4695 162.785C73.5598 162.632 73.6883 162.506 73.8424 162.418C73.9966 162.33 74.171 162.284 74.3485 162.284C74.526 162.284 74.7004 162.33 74.8545 162.418C75.0086 162.506 75.1372 162.632 75.2274 162.785L83.5064 176.283L87.0032 170.827C87.1018 170.675 87.2392 170.552 87.4012 170.47C87.5631 170.389 87.7439 170.352 87.9248 170.364C88.1058 170.375 88.2804 170.435 88.4307 170.536C88.581 170.637 88.7016 170.777 88.78 170.94L94.1859 182.267L103.278 161.218C103.354 161.03 103.485 160.87 103.653 160.757C103.822 160.644 104.02 160.583 104.223 160.583C104.426 160.583 104.624 160.644 104.792 160.757C104.96 160.87 105.091 161.03 105.168 161.218L110.517 176.188V182.248L62.5443 182.305Z" fill="#AAB6C2"/>
<path d="M171.627 30.9409L214.742 66.6392H119.666L171.627 30.9409Z" fill="#AAB6C2"/>
<path opacity="0.22" d="M193.061 61.5989L238.596 208.205H106.17L149.209 61.5989H193.061Z" fill="url(#paint0_linear_4_1665)"/>
<path d="M178.526 50.8384H164.501V40.6065C164.501 39.2947 165.022 38.0367 165.951 37.1091C166.88 36.1816 168.14 35.6605 169.453 35.6605H173.574C174.887 35.6605 176.147 36.1816 177.075 37.1091C178.004 38.0367 178.526 39.2947 178.526 40.6065V50.8384Z" fill="#11A97D"/>
<path d="M171.589 72.9445C172.701 72.777 173.752 72.3307 174.645 71.6473C175.537 70.964 176.242 70.0658 176.692 69.0368C176.863 68.3005 177.997 68.6214 177.808 69.3388C177.326 70.573 176.527 71.6588 175.492 72.4872C174.457 73.3156 173.221 73.8574 171.91 74.0583C171.173 74.1905 170.776 73.0766 171.589 72.9445Z" fill="white" fill-opacity="0.94"/>
</g>
<path d="M150.297 46.3443L149.681 366.552L329.154 366.896L329.769 46.6884L150.297 46.3443Z" fill="white" fill-opacity="0.94"/>
<path d="M150.759 46.7986L329.287 47.1573L328.682 366.422L150.154 366.063L150.759 46.7986ZM149.833 45.8547L149.209 367.007L329.627 367.366L330.232 46.2134L149.833 45.8547Z" fill="black"/>
<path d="M324.013 33.9805L219.713 34.5846V48.1201L272.544 48.2145L310.196 48.4221C316.272 48.4471 322.091 50.874 326.381 55.1723C330.67 59.4705 333.081 65.2903 333.086 71.3589L332.595 332.97C332.59 335.984 331.99 338.967 330.83 341.749C329.67 344.531 327.973 347.058 325.835 349.185C323.697 351.311 321.16 352.996 318.369 354.143C315.579 355.29 312.59 355.877 309.572 355.869L219.089 356.058V384.375L323.408 385.357C326.424 385.362 329.412 384.773 332.2 383.625C334.988 382.477 337.523 380.792 339.659 378.665C341.795 376.539 343.491 374.013 344.649 371.232C345.808 368.451 346.407 365.47 346.412 362.458L346.998 56.8228C346.963 50.7558 344.526 44.9489 340.22 40.6694C335.914 36.3899 330.088 33.9854 324.013 33.9805Z" fill="black"/>
<path d="M316.188 33.8293C315.678 33.8293 315.129 33.8293 314.6 33.8293H154.218C150.268 33.8293 146.479 35.3966 143.686 38.1864C140.893 40.9761 139.323 44.7599 139.323 48.7052V370.5C139.323 372.451 139.708 374.382 140.456 376.185C141.203 377.988 142.299 379.625 143.68 381.005C145.062 382.385 146.702 383.479 148.507 384.226C150.311 384.972 152.246 385.357 154.199 385.357H314.6C315.11 385.357 315.64 385.357 316.15 385.357C321.954 384.95 327.387 382.361 331.354 378.112C335.322 373.862 337.528 368.268 337.528 362.457V56.8416C337.553 51.0191 335.363 45.4043 331.402 41.1325C327.44 36.8606 322.003 34.2503 316.188 33.8293ZM323.749 340.88C323.749 344.825 322.179 348.609 319.386 351.399C316.593 354.189 312.804 355.756 308.854 355.756H167.96C166.006 355.753 164.072 355.367 162.268 354.618C160.465 353.869 158.826 352.772 157.447 351.391C156.067 350.01 154.973 348.37 154.228 346.567C153.483 344.763 153.1 342.831 153.103 340.88V63.1091C153.103 59.1688 154.67 55.3899 157.46 52.6036C160.25 49.8174 164.033 48.2521 167.979 48.2521H308.835C310.79 48.2521 312.726 48.637 314.532 49.3849C316.338 50.1327 317.979 51.2287 319.36 52.6103C320.742 53.9919 321.837 55.632 322.584 57.4367C323.33 59.2414 323.713 61.1754 323.711 63.128L323.749 340.88Z" fill="#AAB6C2"/>
<path d="M257.214 377.428H218.976C218.065 377.425 217.163 377.244 216.323 376.893C215.482 376.543 214.719 376.03 214.076 375.385C213.434 374.74 212.925 373.975 212.579 373.133C212.232 372.292 212.055 371.391 212.058 370.481C212.058 368.643 212.789 366.881 214.09 365.582C215.39 364.282 217.155 363.552 218.995 363.552H257.252C259.09 363.562 260.85 364.299 262.146 365.601C263.442 366.902 264.17 368.664 264.17 370.5C264.17 371.411 263.99 372.313 263.64 373.155C263.29 373.997 262.778 374.762 262.132 375.405C261.485 376.049 260.718 376.559 259.875 376.906C259.031 377.253 258.127 377.43 257.214 377.428Z" fill="black"/>
<path d="M323.749 68.2816H153.103V53.84C153.103 52.2729 153.726 50.7699 154.836 49.6618C155.945 48.5537 157.45 47.9312 159.019 47.9312H317.795C319.364 47.9312 320.868 48.5537 321.978 49.6618C323.087 50.7699 323.711 52.2729 323.711 53.84L323.749 68.2816Z" fill="black"/>
<path d="M185.709 58.1064C185.709 57.4866 185.893 56.8807 186.237 56.3654C186.582 55.85 187.072 55.4484 187.646 55.2112C188.219 54.974 188.85 54.912 189.458 55.0329C190.067 55.1538 190.626 55.4523 191.065 55.8905C191.504 56.3288 191.803 56.8872 191.924 57.495C192.045 58.1029 191.983 58.733 191.745 59.3056C191.508 59.8783 191.105 60.3677 190.59 60.712C190.074 61.0564 189.467 61.2402 188.846 61.2402C188.014 61.2402 187.216 60.91 186.628 60.3223C186.039 59.7346 185.709 58.9375 185.709 58.1064Z" fill="white" fill-opacity="0.94"/>
<path d="M173.668 58.1066C173.668 57.486 173.853 56.8794 174.198 56.3636C174.544 55.8479 175.035 55.4462 175.609 55.2096C176.184 54.973 176.816 54.9121 177.425 55.0345C178.034 55.157 178.593 55.4573 179.031 55.8975C179.469 56.3376 179.767 56.8978 179.886 57.5069C180.004 58.116 179.94 58.7467 179.699 59.319C179.459 59.8912 179.054 60.3794 178.535 60.7214C178.017 61.0635 177.408 61.2441 176.787 61.2403C176.376 61.2403 175.969 61.1592 175.589 61.0014C175.209 60.8437 174.865 60.6126 174.575 60.3214C174.285 60.0301 174.056 59.6845 173.9 59.3044C173.744 58.9243 173.666 58.5172 173.668 58.1066Z" fill="#AAB6C2"/>
<path d="M161.609 58.1064C161.609 57.4866 161.793 56.8807 162.138 56.3654C162.482 55.85 162.972 55.4484 163.546 55.2112C164.119 54.974 164.75 54.912 165.359 55.0329C165.967 55.1538 166.526 55.4523 166.965 55.8905C167.404 56.3288 167.703 56.8872 167.824 57.495C167.945 58.1029 167.883 58.733 167.645 59.3056C167.408 59.8783 167.006 60.3677 166.49 60.712C165.974 61.0564 165.367 61.2402 164.746 61.2402C163.914 61.2402 163.116 60.91 162.528 60.3223C161.939 59.7346 161.609 58.9375 161.609 58.1064Z" fill="#11A97D"/>
<path d="M308.816 55.8222L310.366 54.2742L312.578 56.4829L314.808 54.2742L316.339 55.8222L314.128 58.0309L316.339 60.2396L314.808 61.7876L312.578 59.5789L310.366 61.7876L308.816 60.2396L311.028 58.0309L308.816 55.8222Z" fill="white" fill-opacity="0.94"/>
<path d="M229.504 260.441H180.454C175.923 260.441 172.25 264.109 172.25 268.634V319.888C172.25 324.413 175.923 328.081 180.454 328.081H229.504C234.035 328.081 237.708 324.413 237.708 319.888V268.634C237.708 264.109 234.035 260.441 229.504 260.441Z" fill="white" fill-opacity="0.94"/>
<path d="M229.504 328.609H180.473C179.326 328.609 178.19 328.384 177.131 327.945C176.071 327.507 175.109 326.865 174.298 326.055C173.487 325.245 172.844 324.283 172.405 323.225C171.966 322.167 171.74 321.033 171.74 319.888V268.634C171.745 266.324 172.667 264.111 174.305 262.479C175.942 260.847 178.16 259.931 180.473 259.931H229.504C231.817 259.931 234.035 260.847 235.672 262.479C237.309 264.111 238.232 266.324 238.237 268.634V319.888C238.237 322.201 237.317 324.419 235.679 326.055C234.041 327.69 231.82 328.609 229.504 328.609ZM180.473 260.969C178.436 260.969 176.482 261.776 175.04 263.213C173.597 264.65 172.785 266.599 172.78 268.634V319.888C172.78 321.925 173.59 323.88 175.033 325.321C176.476 326.762 178.432 327.571 180.473 327.571H229.504C231.544 327.571 233.501 326.762 234.944 325.321C236.387 323.88 237.197 321.925 237.197 319.888V268.634C237.192 266.599 236.379 264.65 234.937 263.213C233.495 261.776 231.541 260.969 229.504 260.969H180.473Z" fill="black"/>
<path d="M211.528 271.22C211.228 271.199 210.927 271.241 210.643 271.341C210.359 271.442 210.099 271.6 209.879 271.806C209.659 272.011 209.484 272.259 209.365 272.535C209.245 272.812 209.184 273.109 209.185 273.41V281.867V304.955C206.312 303.577 201.397 303.709 196.312 305.578C189.205 308.183 187.448 311.072 188.752 314.621C190.056 318.17 193.931 321.039 201.038 318.396C207.786 315.923 212.379 311.298 211.68 307.806V281.018C216.972 279.564 220.318 281.018 220.412 284.548C220.412 288.663 223.21 287.776 223.21 287.776C227.368 274.052 216.519 271.635 211.528 271.22Z" fill="black"/>
<path d="M171.362 85.9326V141.642C171.362 144.248 173.478 146.361 176.088 146.361H231.867C234.477 146.361 236.592 144.248 236.592 141.642V85.9326C236.592 83.3261 234.477 81.2131 231.867 81.2131H176.088C173.478 81.2131 171.362 83.3261 171.362 85.9326Z" fill="white" fill-opacity="0.94"/>
<path d="M232.755 147.588L176.957 147.248C175.567 147.238 174.237 146.678 173.259 145.691C172.281 144.704 171.735 143.37 171.74 141.981L172.024 86.2724C172.063 84.9101 172.631 83.6165 173.608 82.6652C174.586 81.714 175.895 81.1796 177.259 81.1753L233.039 81.4585C234.429 81.4684 235.759 82.0284 236.737 83.0156C237.714 84.0028 238.261 85.3368 238.256 86.7254L237.972 142.434C237.948 143.803 237.388 145.108 236.414 146.071C235.439 147.034 234.126 147.578 232.755 147.588ZM232.755 146.55C233.86 146.54 234.917 146.097 235.698 145.317C236.479 144.537 236.923 143.481 236.933 142.378L237.216 86.6688C237.217 85.5761 236.794 84.5255 236.037 83.7372C235.279 82.9488 234.245 82.484 233.152 82.4401L177.373 82.1569C176.262 82.1619 175.197 82.6051 174.411 83.3899C173.625 84.1748 173.182 85.2379 173.177 86.3479L172.893 142.057C172.891 142.607 172.997 143.153 173.205 143.662C173.414 144.171 173.721 144.635 174.109 145.026C174.497 145.417 174.958 145.727 175.466 145.94C175.974 146.153 176.519 146.264 177.07 146.267L232.755 146.55Z" fill="black"/>
<path d="M176.903 138.608L177.15 89.903C177.152 89.432 177.247 88.9661 177.43 88.5318C177.613 88.0976 177.879 87.7035 178.214 87.3721C178.549 87.0407 178.947 86.7785 179.383 86.6005C179.82 86.4224 180.287 86.332 180.759 86.3344L229.563 86.5811C230.034 86.5835 230.499 86.6788 230.933 86.8614C231.367 87.0441 231.76 87.3106 232.09 87.6456C232.421 87.9806 232.681 88.3775 232.858 88.8134C233.034 89.2494 233.122 89.7158 233.117 90.186L232.87 138.891C232.866 139.837 232.485 140.742 231.811 141.408C231.138 142.074 230.227 142.445 229.28 142.44L180.457 142.194C179.51 142.189 178.603 141.808 177.936 141.136C177.27 140.463 176.898 139.554 176.903 138.608Z" fill="#AAB6C2"/>
<path d="M179.471 139.074L197.087 104.603L208.429 128.54L216.481 115.949L229.996 139.055C230.193 139.393 230.299 139.776 230.303 140.167C230.306 140.558 230.208 140.943 230.017 141.284C229.826 141.626 229.549 141.911 229.214 142.113C228.879 142.315 228.497 142.425 228.105 142.435H181.607C181.198 142.469 180.787 142.39 180.419 142.208C180.052 142.025 179.741 141.746 179.521 141.4C179.301 141.054 179.18 140.654 179.171 140.244C179.162 139.834 179.266 139.43 179.471 139.074Z" fill="black"/>
<path d="M213.532 100.28C213.517 101.111 213.256 101.92 212.781 102.603C212.306 103.287 211.64 103.815 210.865 104.12C210.09 104.425 209.242 104.494 208.428 104.319C207.614 104.143 206.87 103.731 206.291 103.134C205.711 102.536 205.322 101.781 205.172 100.963C205.021 100.145 205.117 99.3006 205.447 98.5368C205.777 97.773 206.326 97.124 207.025 96.6715C207.724 96.219 208.541 95.9835 209.374 95.9945C209.929 96.0019 210.477 96.1187 210.987 96.3383C211.497 96.5579 211.958 96.8759 212.344 97.2741C212.731 97.6723 213.035 98.1428 213.239 98.6587C213.442 99.1745 213.542 99.7254 213.532 100.28Z" fill="white" fill-opacity="0.94"/>
<path d="M209.317 104.943C208.062 104.923 206.866 104.407 205.991 103.508C205.116 102.61 204.633 101.401 204.648 100.148C204.663 99.211 204.955 98.2998 205.488 97.5289C206.021 96.7581 206.771 96.1623 207.642 95.8169C208.514 95.4714 209.469 95.3918 210.386 95.5881C211.303 95.7843 212.141 96.2477 212.795 96.9195C213.231 97.3621 213.575 97.8873 213.806 98.4644C214.036 99.0414 214.149 99.6587 214.137 100.28C214.132 100.897 214.005 101.507 213.764 102.076C213.523 102.644 213.172 103.16 212.732 103.593C212.291 104.026 211.77 104.368 211.197 104.599C210.624 104.831 210.011 104.948 209.393 104.943H209.317ZM209.317 96.5231C208.472 96.7051 207.716 97.1707 207.173 97.8422C206.63 98.5137 206.334 99.3507 206.334 100.214C206.334 101.077 206.63 101.914 207.173 102.585C207.716 103.257 208.472 103.722 209.317 103.904C210.297 103.905 211.239 103.525 211.944 102.846C212.65 102.166 213.063 101.239 213.097 100.261C213.098 99.2823 212.719 98.3415 212.039 97.6369C211.703 97.2881 211.302 97.0098 210.857 96.8186C210.412 96.6273 209.933 96.5268 209.449 96.5231H209.317Z" fill="black"/>
<path d="M231.262 236.447L178.488 236.069C177.669 236.064 176.859 235.898 176.104 235.581C175.349 235.263 174.664 234.8 174.088 234.218C173.513 233.636 173.057 232.947 172.749 232.189C172.44 231.431 172.283 230.62 172.288 229.802L172.534 177.246C172.539 176.427 172.705 175.618 173.023 174.864C173.341 174.11 173.805 173.426 174.388 172.851C174.97 172.277 175.661 171.822 176.419 171.513C177.178 171.205 177.99 171.049 178.809 171.054L231.583 171.45C232.402 171.452 233.211 171.616 233.966 171.932C234.721 172.247 235.406 172.709 235.982 173.289C236.558 173.87 237.013 174.558 237.322 175.315C237.632 176.071 237.788 176.881 237.783 177.699L237.5 230.312C237.48 231.949 236.813 233.512 235.645 234.661C234.477 235.81 232.902 236.452 231.262 236.447Z" fill="white" fill-opacity="0.94"/>
<path d="M231.262 236.976L178.469 236.579C177.583 236.574 176.707 236.395 175.89 236.052C175.073 235.708 174.332 235.208 173.709 234.579C173.086 233.949 172.593 233.204 172.258 232.384C171.924 231.564 171.754 230.687 171.759 229.802L172.024 177.246C172.034 175.465 172.749 173.76 174.013 172.505C175.278 171.249 176.988 170.544 178.772 170.544L231.546 170.922C233.337 170.932 235.051 171.651 236.313 172.921C237.574 174.191 238.28 175.91 238.275 177.699L238.029 230.312C238.014 232.093 237.298 233.796 236.035 235.054C234.772 236.312 233.064 237.022 231.281 237.032L231.262 236.976ZM231.262 235.937C232.013 235.942 232.757 235.797 233.451 235.512C234.146 235.227 234.776 234.807 235.307 234.276C236.348 233.218 236.931 231.795 236.933 230.312L237.197 177.755C237.197 176.253 236.6 174.813 235.536 173.751C234.473 172.689 233.031 172.092 231.527 172.092L178.753 171.696C177.249 171.696 175.806 172.292 174.743 173.354C173.68 174.416 173.082 175.857 173.082 177.359L172.818 229.896C172.811 230.649 172.954 231.396 173.24 232.093C173.525 232.79 173.947 233.423 174.481 233.955C175.008 234.487 175.635 234.909 176.326 235.197C177.017 235.486 177.758 235.635 178.507 235.635L231.262 235.937Z" fill="black"/>
<path d="M225.289 179.511H184.726C181.677 179.511 179.206 181.979 179.206 185.023V222.477C179.206 225.521 181.677 227.989 184.726 227.989H225.289C228.337 227.989 230.808 225.521 230.808 222.477V185.023C230.808 181.979 228.337 179.511 225.289 179.511Z" fill="#11A97D"/>
<path d="M198.637 193.858L216.216 203.996L198.637 214.133V193.858Z" fill="white" fill-opacity="0.94"/>
<path d="M199.015 194.443L215.46 203.882L199.015 213.321V194.443ZM198.259 193.141V214.7L216.953 203.92L198.259 193.141Z" fill="black"/>
<path d="M263.49 77.8528V96.0134L251.77 103.527L263.49 77.8528Z" fill="#11A97D"/>
<path d="M263.225 79.0612V95.8626L252.394 102.829L263.225 79.0612ZM263.754 76.6448L251.184 104.226L263.754 96.1457V76.6448Z" fill="white" fill-opacity="0.94"/>
<path d="M251.978 106L263.49 111.399V121.914L251.978 106Z" fill="#11A97D"/>
<path d="M252.791 106.661L263.244 111.569V121.102L252.791 106.661ZM251.184 105.339L263.754 122.707V111.248L251.184 105.339Z" fill="white" fill-opacity="0.94"/>
<path d="M264 96.0136V77.8718L275.719 103.697L264 96.0136Z" fill="#11A97D"/>
<path d="M264.265 79.08L275.114 102.98L264.283 95.8626V79.08H264.265ZM263.754 76.6448V96.1457L276.343 104.414L263.754 76.6448Z" fill="white" fill-opacity="0.94"/>
<path d="M264.019 111.418L275.53 106.17L264.019 121.914V111.418Z" fill="#11A97D"/>
<path d="M274.736 106.812L264.283 121.121V111.569L274.736 106.812ZM276.343 105.509L263.754 111.172V122.707L276.343 105.509Z" fill="white" fill-opacity="0.94"/>
<path d="M251.752 104.811L263.773 97.0896L275.814 104.999L263.773 110.248L251.752 104.811Z" fill="#11A97D"/>
<path d="M263.773 97.3915L275.265 104.943L263.792 109.964L252.3 104.773L263.773 97.3915ZM263.773 96.7686L251.184 104.867L263.773 110.531L276.343 105.037L263.773 96.7686Z" fill="white" fill-opacity="0.94"/>
<path d="M286.266 84.97V88.6323H302.635L302.654 84.97H286.266Z" fill="black"/>
<path d="M286.266 96.0134V99.6758H315.848L315.867 96.0134H286.266Z" fill="black"/>
<path d="M286.266 107.057V110.738H313.731L313.75 107.057H286.266Z" fill="black"/>
<path d="M304.355 88.6323H309.402L309.421 84.97H304.374L304.355 88.6323Z" fill="black"/>
<path d="M286.266 117.383V121.065H302.635L302.654 117.383H286.266Z" fill="black"/>
<path d="M250.069 128.427V132.108H312.54L312.578 128.427H250.069Z" fill="black"/>
<path d="M250.069 139.471V143.152H307.663L307.701 139.471H250.069Z" fill="black"/>
<path d="M304.355 121.065H309.402L309.421 117.383H304.374L304.355 121.065Z" fill="black"/>
<path d="M263.49 168.826V186.968L251.77 194.5L263.49 168.826Z" fill="#11A97D"/>
<path d="M263.225 170.015V186.892L252.394 193.858L263.225 170.072V170.015ZM263.754 167.618L251.184 195.198L263.754 187.119V167.618Z" fill="white" fill-opacity="0.94"/>
<path d="M251.978 196.973L263.49 202.372V212.887L251.978 196.973Z" fill="#11A97D"/>
<path d="M252.791 197.634L263.244 202.542V211.981L252.791 197.539V197.634ZM251.184 196.293L263.754 213.68V202.202L251.184 196.331V196.293Z" fill="white" fill-opacity="0.94"/>
<path d="M264 186.968V168.826L275.719 194.67L264 186.968Z" fill="#11A97D"/>
<path d="M264.265 170.034L275.114 193.952L264.283 186.892V170.091L264.265 170.034ZM263.754 167.618V187.119L276.343 195.368L263.754 167.618Z" fill="white" fill-opacity="0.94"/>
<path d="M264.019 202.372L275.53 197.124L264.019 212.887V202.372Z" fill="#11A97D"/>
<path d="M274.736 197.785L264.283 212.075V202.636L274.736 197.879V197.785ZM276.343 196.482L263.754 202.146V213.623L276.343 196.426V196.482Z" fill="white" fill-opacity="0.94"/>
<path d="M251.752 195.784L263.773 188.044L275.814 195.954L263.773 201.202L251.752 195.784Z" fill="#11A97D"/>
<path d="M263.773 188.365L275.265 195.916L263.792 200.919L252.3 195.746L263.773 188.365ZM263.773 187.742L251.184 195.822L263.773 201.485L276.343 195.991L263.773 187.723V187.742Z" fill="white" fill-opacity="0.94"/>
<path d="M286.266 175.924V179.605H302.635L302.654 175.924H286.266Z" fill="black"/>
<path d="M286.266 186.987V190.649H315.848L315.867 186.987H286.266Z" fill="black"/>
<path d="M286.266 198.03V201.693H313.731L313.75 198.03H286.266Z" fill="black"/>
<path d="M304.355 179.605H309.402L309.421 175.924H304.374L304.355 179.605Z" fill="black"/>
<path d="M286.266 208.356V212.019H302.635L302.654 208.356H286.266Z" fill="black"/>
<path d="M250.069 219.4V223.062H312.54L312.578 219.4H250.069Z" fill="black"/>
<path d="M250.069 230.444V234.125H307.663L307.701 230.444H250.069Z" fill="black"/>
<path d="M304.355 212.019H309.402L309.421 208.356H304.374L304.355 212.019Z" fill="black"/>
<path d="M263.49 259.78V277.941L251.77 285.473L263.49 259.78Z" fill="#11A97D"/>
<path d="M263.225 260.988V277.79L252.394 284.775L263.225 260.988ZM263.754 258.591L251.184 286.172L263.754 278.073V258.629V258.591Z" fill="white" fill-opacity="0.94"/>
<path d="M251.978 287.927L263.49 293.345V303.841L251.978 287.927Z" fill="#11A97D"/>
<path d="M252.791 288.607L263.244 293.496V303.03L252.791 288.607ZM251.184 287.267L263.754 304.653V293.175L251.184 287.267Z" fill="white" fill-opacity="0.94"/>
<path d="M264 277.941V259.799L275.719 285.624L264 277.941Z" fill="#11A97D"/>
<path d="M264.265 261.007L275.114 284.926L264.283 277.79V261.007H264.265ZM263.754 258.591V278.073L276.343 286.341L263.754 258.629V258.591Z" fill="white" fill-opacity="0.94"/>
<path d="M264.019 293.345L275.53 288.097L264.019 303.841V293.345Z" fill="#11A97D"/>
<path d="M274.736 288.833L264.283 303.143V293.61L274.736 288.833ZM276.343 287.531L263.754 293.194V304.672L276.343 287.455V287.531Z" fill="white" fill-opacity="0.94"/>
<path d="M251.752 286.757L263.773 279.017L275.814 286.927L263.773 292.175L251.752 286.757Z" fill="#11A97D"/>
<path d="M263.773 279.394L275.265 286.946L263.792 291.967L252.3 286.795L263.773 279.394ZM263.773 278.771L251.184 286.851L263.773 292.515L276.343 287.021L263.773 278.771Z" fill="white" fill-opacity="0.94"/>
<path d="M286.266 266.897V270.578H302.635L302.654 266.897H286.266Z" fill="black"/>
<path d="M286.266 277.941V281.622H315.848L315.867 277.941H286.266Z" fill="black"/>
<path d="M286.266 289.003V292.666H313.731L313.75 289.003H286.266Z" fill="black"/>
<path d="M304.355 270.578H309.402L309.421 266.897H304.374L304.355 270.578Z" fill="black"/>
<path d="M286.266 299.311V302.992H302.635L302.654 299.311H286.266Z" fill="black"/>
<path d="M250.069 310.354V314.035H312.54L312.578 310.354H250.069Z" fill="black"/>
<path d="M250.069 321.417V325.079H307.663L307.701 321.417H250.069Z" fill="black"/>
<path d="M304.355 302.992H309.402L309.421 299.311H304.374L304.355 302.992Z" fill="black"/>
<path d="M307.984 383.506C307.985 383.944 307.812 384.364 307.504 384.675C307.196 384.986 306.778 385.163 306.34 385.168H294.526L239.711 385.338C239.275 385.338 238.857 385.165 238.548 384.857C238.24 384.549 238.067 384.131 238.067 383.695V377.749C238.064 377.531 238.105 377.316 238.186 377.114C238.268 376.913 238.389 376.73 238.542 376.575C238.695 376.421 238.877 376.298 239.077 376.214C239.278 376.131 239.494 376.087 239.711 376.087H245.382L294.375 375.936H306.302C306.509 375.934 306.715 375.972 306.907 376.05C307.214 376.171 307.477 376.382 307.663 376.654C307.848 376.927 307.947 377.249 307.947 377.579L307.984 383.506Z" fill="#11A97D"/>
<path d="M239.711 385.659C239.21 385.659 238.729 385.46 238.375 385.106C238.02 384.752 237.821 384.272 237.821 383.771V377.824C237.821 377.324 238.02 376.843 238.375 376.489C238.729 376.135 239.21 375.936 239.711 375.936L306.34 375.748C306.586 375.745 306.83 375.79 307.058 375.88C307.423 376.016 307.737 376.261 307.957 376.582C308.177 376.903 308.292 377.284 308.287 377.673V383.62C308.287 384.121 308.088 384.601 307.733 384.955C307.379 385.309 306.898 385.508 306.397 385.508L239.711 385.659ZM306.302 376.22L239.673 376.408C239.314 376.418 238.973 376.568 238.722 376.825C238.471 377.083 238.331 377.427 238.331 377.787V383.733C238.331 383.911 238.367 384.087 238.435 384.25C238.504 384.414 238.604 384.563 238.731 384.688C238.858 384.812 239.008 384.911 239.173 384.977C239.338 385.043 239.514 385.076 239.692 385.073L306.302 384.885C306.662 384.88 307.005 384.735 307.259 384.481C307.513 384.227 307.658 383.884 307.663 383.525V377.56C307.661 377.289 307.577 377.025 307.422 376.802C307.267 376.58 307.048 376.41 306.794 376.314C306.639 376.245 306.471 376.213 306.302 376.22Z" fill="black"/>
<path d="M314.279 374.37C314.279 374.805 314.105 375.223 313.797 375.531C313.489 375.839 313.07 376.012 312.634 376.012H306.964H294.64L246.062 376.163C245.848 376.16 245.636 376.115 245.438 376.031C245.136 375.91 244.878 375.702 244.696 375.432C244.514 375.163 244.417 374.846 244.418 374.521V368.555C244.415 368.339 244.456 368.124 244.538 367.924C244.619 367.723 244.74 367.541 244.894 367.388C245.047 367.235 245.229 367.114 245.43 367.033C245.63 366.951 245.845 366.91 246.062 366.913L290.311 366.762H312.672C312.889 366.759 313.104 366.8 313.304 366.882C313.505 366.963 313.687 367.084 313.841 367.237C313.994 367.39 314.115 367.572 314.197 367.773C314.278 367.973 314.319 368.188 314.317 368.404L314.279 374.37Z" fill="#11A97D"/>
<path d="M246.005 376.522C245.752 376.521 245.501 376.47 245.268 376.371C244.91 376.233 244.602 375.989 244.386 375.672C244.17 375.355 244.056 374.98 244.058 374.596V368.631C244.063 368.115 244.266 367.622 244.626 367.252C244.805 367.07 245.02 366.925 245.257 366.828C245.494 366.73 245.749 366.682 246.005 366.686L312.615 366.479C313.13 366.487 313.623 366.689 313.995 367.045C314.178 367.224 314.323 367.439 314.421 367.676C314.518 367.913 314.566 368.167 314.562 368.423V374.37C314.562 374.87 314.363 375.35 314.009 375.704C313.654 376.058 313.173 376.257 312.672 376.257L246.005 376.522ZM312.615 367.083L246.005 367.29C245.644 367.29 245.298 367.433 245.043 367.688C244.788 367.943 244.644 368.289 244.644 368.649V374.615C244.647 374.883 244.729 375.145 244.881 375.367C245.032 375.588 245.246 375.76 245.495 375.861C245.664 375.891 245.837 375.891 246.005 375.861L312.634 375.653C312.812 375.653 312.988 375.618 313.152 375.549C313.316 375.481 313.465 375.38 313.59 375.254C313.715 375.128 313.813 374.978 313.88 374.813C313.946 374.648 313.979 374.472 313.976 374.294V368.347C313.977 368.169 313.942 367.992 313.874 367.827C313.806 367.661 313.706 367.511 313.579 367.385C313.437 367.264 313.271 367.173 313.093 367.118C312.914 367.062 312.726 367.044 312.54 367.064L312.615 367.083Z" fill="black"/>
<path d="M309.856 365.119C309.856 365.557 309.683 365.976 309.375 366.287C309.067 366.598 308.649 366.776 308.211 366.781H290.217L241.601 366.932C241.163 366.932 240.743 366.759 240.432 366.452C240.12 366.144 239.943 365.727 239.938 365.289V359.324C239.941 358.98 240.05 358.645 240.249 358.365C240.448 358.085 240.729 357.873 241.053 357.757C241.228 357.728 241.407 357.728 241.582 357.757L280.955 357.625H303.883H308.211C308.647 357.625 309.066 357.798 309.374 358.106C309.682 358.414 309.856 358.832 309.856 359.267V365.119Z" fill="#11A97D"/>
<path d="M241.601 367.271C241.1 367.271 240.619 367.073 240.265 366.719C239.91 366.364 239.711 365.884 239.711 365.384V359.418C239.691 359.004 239.808 358.595 240.043 358.254C240.279 357.913 240.621 357.658 241.015 357.53C241.215 357.458 241.426 357.42 241.639 357.417L308.268 357.209C308.769 357.209 309.25 357.408 309.605 357.762C309.959 358.116 310.158 358.597 310.158 359.097V365.044C310.165 365.299 310.12 365.552 310.025 365.789C309.931 366.026 309.79 366.241 309.61 366.422C309.431 366.605 309.216 366.749 308.978 366.847C308.741 366.944 308.487 366.992 308.23 366.988L241.601 367.271ZM308.192 357.832L241.563 358.04C241.42 358.015 241.273 358.015 241.129 358.04C240.861 358.131 240.63 358.305 240.467 358.535C240.304 358.766 240.218 359.042 240.221 359.324V365.289C240.221 365.467 240.257 365.643 240.325 365.807C240.394 365.97 240.495 366.119 240.621 366.244C240.748 366.368 240.898 366.467 241.063 366.533C241.228 366.599 241.405 366.632 241.582 366.63L290.122 366.479H290.255H308.136C308.497 366.479 308.843 366.335 309.098 366.08C309.353 365.826 309.497 365.48 309.497 365.119V359.173C309.492 358.823 309.355 358.488 309.113 358.236C308.871 357.984 308.542 357.833 308.192 357.814V357.832Z" fill="black"/>
<path d="M307.984 328.326C307.985 328.763 307.812 329.183 307.504 329.494C307.196 329.805 306.778 329.982 306.34 329.987H294.526L239.711 330.157C239.275 330.157 238.857 329.984 238.548 329.676C238.24 329.368 238.067 328.95 238.067 328.515V322.549C238.067 322.334 238.109 322.12 238.192 321.921C238.274 321.722 238.396 321.541 238.548 321.388C238.701 321.236 238.882 321.115 239.082 321.032C239.281 320.949 239.495 320.907 239.711 320.907H245.382L294.375 320.756H306.302C306.509 320.753 306.715 320.792 306.907 320.869C307.214 320.99 307.477 321.201 307.663 321.474C307.848 321.747 307.947 322.069 307.947 322.398L307.984 328.326Z" fill="#11A97D"/>
<path d="M239.711 330.478C239.21 330.478 238.729 330.279 238.375 329.925C238.02 329.571 237.821 329.091 237.821 328.59V322.625C237.821 322.124 238.02 321.644 238.375 321.29C238.729 320.936 239.21 320.737 239.711 320.737L306.34 320.548C306.586 320.545 306.83 320.59 307.058 320.681C307.439 320.822 307.764 321.082 307.985 321.422C308.207 321.762 308.312 322.164 308.287 322.568V328.515C308.287 329.016 308.088 329.496 307.733 329.85C307.379 330.204 306.898 330.403 306.397 330.403L239.711 330.478ZM306.302 321.039L239.673 321.247C239.317 321.257 238.979 321.404 238.728 321.657C238.478 321.91 238.336 322.25 238.331 322.606V328.477C238.331 328.655 238.367 328.831 238.435 328.995C238.504 329.158 238.604 329.307 238.731 329.432C238.858 329.556 239.008 329.655 239.173 329.721C239.338 329.787 239.514 329.82 239.692 329.818L306.302 329.629C306.665 329.624 307.011 329.476 307.266 329.219C307.52 328.961 307.663 328.613 307.663 328.251V322.304C307.661 322.033 307.577 321.769 307.422 321.546C307.267 321.324 307.048 321.154 306.794 321.058C306.635 321.009 306.467 320.996 306.302 321.02V321.039Z" fill="black"/>
<path d="M314.279 319.189C314.279 319.405 314.236 319.618 314.154 319.818C314.071 320.017 313.95 320.198 313.797 320.351C313.644 320.503 313.463 320.624 313.264 320.707C313.064 320.789 312.85 320.832 312.634 320.832H306.964H294.64L246.062 320.983C245.849 320.985 245.637 320.947 245.438 320.869C245.136 320.749 244.878 320.54 244.696 320.271C244.514 320.002 244.417 319.684 244.418 319.359V313.375C244.415 313.158 244.456 312.942 244.537 312.74C244.619 312.539 244.74 312.356 244.892 312.201C245.045 312.047 245.228 311.924 245.428 311.84C245.629 311.757 245.844 311.714 246.062 311.714L290.311 311.581H312.672C312.889 311.579 313.104 311.62 313.304 311.701C313.505 311.783 313.687 311.904 313.841 312.057C313.994 312.21 314.115 312.392 314.197 312.592C314.278 312.793 314.319 313.007 314.317 313.224L314.279 319.189Z" fill="#11A97D"/>
<path d="M246.005 321.341C245.752 321.341 245.501 321.289 245.268 321.19C244.91 321.052 244.602 320.808 244.386 320.491C244.17 320.174 244.056 319.799 244.058 319.416V313.375C244.063 312.86 244.266 312.366 244.626 311.997C244.805 311.814 245.02 311.669 245.257 311.572C245.494 311.474 245.749 311.426 246.005 311.43L312.54 311.298C313.041 311.298 313.522 311.497 313.876 311.851C314.231 312.205 314.43 312.685 314.43 313.186V319.132C314.43 319.633 314.231 320.113 313.876 320.467C313.522 320.821 313.041 321.02 312.54 321.02L246.005 321.341ZM312.615 311.902L246.005 312.11C245.826 312.108 245.649 312.143 245.483 312.211C245.318 312.279 245.167 312.379 245.041 312.506C244.791 312.765 244.649 313.109 244.644 313.469V319.435C244.647 319.703 244.729 319.964 244.881 320.186C245.032 320.408 245.246 320.58 245.495 320.68C245.664 320.711 245.837 320.711 246.005 320.68L312.634 320.473C312.812 320.473 312.988 320.438 313.152 320.369C313.316 320.3 313.465 320.2 313.59 320.074C313.715 319.947 313.813 319.797 313.88 319.632C313.946 319.468 313.979 319.291 313.976 319.114V313.167C313.977 312.988 313.942 312.811 313.874 312.646C313.806 312.481 313.706 312.331 313.579 312.204C313.437 312.083 313.271 311.992 313.093 311.937C312.914 311.882 312.726 311.864 312.54 311.883L312.615 311.902Z" fill="black"/>
<path d="M304.979 355.982C304.976 356.326 304.867 356.661 304.668 356.941C304.469 357.221 304.188 357.433 303.864 357.549C303.689 357.578 303.51 357.578 303.335 357.549H281.068L241.034 357.663H236.706C236.489 357.665 236.274 357.624 236.073 357.543C235.873 357.461 235.69 357.34 235.537 357.187C235.384 357.034 235.263 356.852 235.181 356.652C235.1 356.451 235.059 356.237 235.061 356.02V350.074C235.061 349.636 235.234 349.217 235.542 348.906C235.85 348.595 236.268 348.417 236.706 348.412H245.665L286.039 348.28H303.316C303.435 348.262 303.556 348.262 303.675 348.28C304.037 348.361 304.361 348.562 304.594 348.85C304.827 349.137 304.956 349.496 304.96 349.866L304.979 355.982Z" fill="#11A97D"/>
<path d="M236.706 358.135C236.204 358.135 235.724 357.936 235.369 357.582C235.015 357.228 234.815 356.747 234.815 356.247V350.3C234.815 349.799 235.015 349.319 235.369 348.965C235.724 348.611 236.204 348.412 236.706 348.412L286.342 348.261H303.354C303.498 348.242 303.644 348.242 303.788 348.261C304.222 348.35 304.61 348.587 304.887 348.932C305.163 349.277 305.309 349.707 305.3 350.149V356.096C305.321 356.51 305.204 356.919 304.968 357.26C304.733 357.601 304.391 357.856 303.996 357.984C303.797 358.059 303.586 358.098 303.372 358.097L236.706 358.135ZM285.964 348.696L236.687 348.847C236.326 348.847 235.98 348.99 235.724 349.245C235.469 349.5 235.326 349.845 235.326 350.206V356.152C235.323 356.33 235.356 356.506 235.423 356.671C235.489 356.836 235.587 356.986 235.712 357.112C235.837 357.239 235.986 357.339 236.15 357.408C236.314 357.476 236.49 357.512 236.668 357.512L303.297 357.304C303.441 357.324 303.587 357.324 303.732 357.304C303.999 357.213 304.23 357.039 304.393 356.809C304.556 356.578 304.642 356.302 304.639 356.02V350.074C304.641 349.765 304.538 349.466 304.345 349.225C304.152 348.984 303.882 348.817 303.58 348.752H303.297H286.134L285.964 348.696Z" fill="black"/>
<path d="M314.279 346.751C314.279 347.187 314.105 347.604 313.797 347.912C313.489 348.22 313.07 348.393 312.634 348.393H303.675H286.115L246.005 348.507H245.646C245.281 348.425 244.955 348.222 244.721 347.93C244.488 347.638 244.36 347.276 244.361 346.902V340.956C244.358 340.587 244.48 340.228 244.706 339.937C244.933 339.646 245.25 339.44 245.608 339.351C245.74 339.331 245.874 339.331 246.005 339.351L283.998 339.238H312.615C312.753 339.218 312.893 339.218 313.031 339.238C313.386 339.33 313.699 339.538 313.922 339.829C314.144 340.12 314.263 340.476 314.26 340.842L314.279 346.751Z" fill="#11A97D"/>
<path d="M246.005 348.903C245.861 348.923 245.715 348.923 245.571 348.903C245.137 348.815 244.749 348.578 244.472 348.233C244.196 347.888 244.05 347.457 244.058 347.015V341.05C244.048 340.614 244.189 340.187 244.458 339.843C244.726 339.499 245.106 339.258 245.533 339.162C245.69 339.14 245.849 339.14 246.005 339.162L312.54 338.86C313.041 338.86 313.522 339.059 313.876 339.413C314.231 339.767 314.43 340.247 314.43 340.748V346.694C314.43 347.195 314.231 347.675 313.876 348.029C313.522 348.383 313.041 348.582 312.54 348.582L246.005 348.903ZM312.596 339.464L245.986 339.672H245.684C245.384 339.733 245.114 339.896 244.921 340.134C244.728 340.371 244.624 340.669 244.626 340.974V346.94C244.63 347.246 244.736 347.543 244.928 347.782C245.119 348.021 245.386 348.19 245.684 348.261H245.986L312.615 348.054C312.793 348.054 312.969 348.018 313.133 347.95C313.297 347.881 313.446 347.781 313.571 347.654C313.696 347.528 313.794 347.378 313.861 347.213C313.927 347.048 313.96 346.872 313.957 346.694V340.748C313.959 340.446 313.859 340.152 313.674 339.912C313.489 339.673 313.23 339.502 312.937 339.426L312.596 339.464Z" fill="black"/>
<path d="M314.279 337.614C314.279 337.983 314.154 338.341 313.924 338.629C313.694 338.917 313.372 339.118 313.012 339.2C312.887 339.22 312.76 339.22 312.634 339.2H284.168L246.005 339.313C245.867 339.333 245.727 339.333 245.59 339.313C245.238 339.221 244.927 339.016 244.705 338.729C244.483 338.442 244.362 338.09 244.361 337.727V331.762C244.358 331.546 244.399 331.331 244.481 331.131C244.563 330.93 244.684 330.748 244.837 330.595C244.99 330.442 245.172 330.321 245.373 330.239C245.574 330.158 245.789 330.117 246.005 330.12H253.112H275.795L312.521 330.006H312.786C313.169 330.073 313.518 330.272 313.77 330.568C314.022 330.865 314.162 331.241 314.165 331.63L314.279 337.614Z" fill="#11A97D"/>
<path d="M246.005 339.804C245.504 339.804 245.023 339.605 244.669 339.251C244.314 338.897 244.115 338.417 244.115 337.916V331.951C244.114 331.698 244.163 331.447 244.261 331.213C244.358 330.98 244.501 330.768 244.682 330.591C244.862 330.408 245.077 330.264 245.314 330.167C245.551 330.069 245.806 330.021 246.062 330.025L312.672 329.817H312.974C313.432 329.877 313.852 330.102 314.155 330.45C314.458 330.798 314.623 331.244 314.619 331.705V337.671C314.63 338.107 314.489 338.534 314.22 338.878C313.951 339.222 313.571 339.463 313.145 339.558C312.994 339.58 312.841 339.58 312.691 339.558L246.005 339.804ZM312.54 330.365L245.93 330.591C245.572 330.591 245.229 330.732 244.974 330.983C244.719 331.234 244.574 331.575 244.569 331.932V337.916C244.572 338.215 244.673 338.505 244.858 338.74C245.042 338.976 245.3 339.144 245.589 339.219C245.702 339.239 245.817 339.239 245.93 339.219L312.559 339.03H312.861C313.158 338.958 313.421 338.788 313.61 338.549C313.798 338.309 313.901 338.013 313.901 337.708V331.743C313.896 331.42 313.778 331.109 313.568 330.864C313.357 330.619 313.067 330.456 312.748 330.403L312.54 330.365Z" fill="black"/>
<path opacity="0.15" d="M359.133 375.993C359.261 375.931 359.381 375.855 359.492 375.767C359.672 375.586 359.813 375.37 359.907 375.134C360.001 374.897 360.047 374.643 360.04 374.388V368.442C360.044 368.186 359.996 367.932 359.898 367.695C359.801 367.458 359.656 367.243 359.473 367.064C359.292 366.884 359.076 366.743 358.839 366.649C358.602 366.555 358.348 366.51 358.093 366.516H355.334C355.514 366.339 355.658 366.128 355.755 365.894C355.853 365.661 355.902 365.41 355.901 365.157V359.192C355.901 358.691 355.701 358.211 355.347 357.857C354.992 357.503 354.512 357.304 354.01 357.304H346.166C346.341 357.127 346.48 356.918 346.574 356.688C346.668 356.458 346.716 356.212 346.714 355.964V349.998C346.713 349.744 346.661 349.492 346.56 349.259C346.46 349.025 346.313 348.814 346.128 348.639C345.951 348.458 345.739 348.315 345.505 348.218C345.272 348.12 345.021 348.071 344.767 348.073L278.138 348.28C277.637 348.28 277.156 348.479 276.802 348.833C276.447 349.187 276.248 349.667 276.248 350.168V356.115C276.248 356.615 276.447 357.095 276.802 357.449C277.156 357.803 277.637 358.002 278.138 358.002H286.002C285.826 358.179 285.688 358.388 285.594 358.618C285.5 358.848 285.452 359.094 285.453 359.343V365.308C285.453 365.809 285.653 366.289 286.007 366.643C286.362 366.997 286.842 367.196 287.344 367.196H290.103C289.926 367.375 289.786 367.587 289.692 367.82C289.598 368.054 289.551 368.304 289.555 368.555V374.521C289.558 374.838 289.64 375.15 289.796 375.427C289.951 375.704 290.174 375.938 290.444 376.106C290.32 376.175 290.2 376.251 290.084 376.333C289.905 376.514 289.763 376.729 289.669 376.966C289.575 377.203 289.53 377.456 289.536 377.711V383.658C289.532 383.914 289.58 384.168 289.678 384.405C289.775 384.642 289.92 384.856 290.103 385.036C290.281 385.216 290.492 385.36 290.726 385.457C290.96 385.554 291.211 385.603 291.464 385.602L358.093 385.394C358.595 385.394 359.075 385.195 359.43 384.841C359.784 384.487 359.983 384.007 359.983 383.507V377.56C359.982 377.249 359.903 376.943 359.755 376.67C359.607 376.397 359.393 376.164 359.133 375.993Z" fill="#191E3F"/>
<path d="M366.486 385.111L299.857 385.319C299.421 385.319 299.002 385.146 298.694 384.838C298.385 384.53 298.212 384.112 298.212 383.676V377.73C298.212 377.293 298.385 376.873 298.693 376.562C299.001 376.251 299.419 376.074 299.857 376.069L366.467 375.861C366.684 375.858 366.9 375.899 367.102 375.98C367.304 376.062 367.487 376.183 367.642 376.335C367.796 376.488 367.919 376.67 368.003 376.87C368.087 377.071 368.13 377.286 368.13 377.503V383.469C368.13 383.684 368.088 383.898 368.005 384.097C367.922 384.297 367.801 384.478 367.648 384.63C367.496 384.783 367.314 384.904 367.115 384.986C366.915 385.069 366.702 385.111 366.486 385.111Z" fill="#11A97D"/>
<path d="M299.857 385.696C299.603 385.698 299.352 385.649 299.119 385.551C298.885 385.454 298.673 385.311 298.496 385.13C298.313 384.951 298.168 384.736 298.07 384.499C297.973 384.262 297.925 384.008 297.929 383.752V377.805C297.922 377.551 297.967 377.297 298.062 377.06C298.156 376.824 298.297 376.608 298.477 376.427C298.656 376.244 298.871 376.1 299.108 376.002C299.346 375.905 299.6 375.857 299.857 375.861L366.467 375.653C366.968 375.653 367.449 375.852 367.803 376.206C368.158 376.56 368.357 377.04 368.357 377.541V383.507C368.357 384.007 368.158 384.487 367.803 384.841C367.449 385.195 366.968 385.394 366.467 385.394L299.838 385.602L299.857 385.696ZM366.467 376.257L299.857 376.465C299.496 376.465 299.15 376.608 298.894 376.863C298.639 377.118 298.496 377.464 298.496 377.824V383.771C298.496 384.128 298.636 384.471 298.888 384.725C299.139 384.98 299.48 385.125 299.838 385.13L366.467 384.922C366.824 384.917 367.166 384.772 367.417 384.518C367.668 384.263 367.809 383.92 367.809 383.563V377.56C367.804 377.208 367.66 376.872 367.409 376.624C367.158 376.377 366.819 376.238 366.467 376.239V376.257Z" fill="black"/>
<path d="M353.046 357.587L286.436 357.795C286.219 357.797 286.003 357.757 285.801 357.675C285.6 357.594 285.416 357.473 285.261 357.32C285.107 357.168 284.984 356.986 284.9 356.785C284.816 356.585 284.773 356.37 284.773 356.152V350.187C284.773 349.751 284.946 349.334 285.255 349.026C285.563 348.718 285.981 348.545 286.417 348.545L353.046 348.337C353.483 348.337 353.901 348.51 354.209 348.818C354.518 349.126 354.691 349.544 354.691 349.979V355.945C354.691 356.38 354.518 356.798 354.209 357.106C353.901 357.414 353.483 357.587 353.046 357.587Z" fill="#11A97D"/>
<path d="M286.417 358.078C285.916 358.078 285.435 357.879 285.081 357.525C284.726 357.171 284.527 356.691 284.527 356.19V350.243C284.527 349.743 284.726 349.263 285.081 348.909C285.435 348.555 285.916 348.356 286.417 348.356L353.046 348.148C353.3 348.147 353.551 348.196 353.784 348.293C354.018 348.39 354.23 348.534 354.407 348.714C354.592 348.89 354.739 349.101 354.839 349.334C354.94 349.568 354.992 349.819 354.993 350.074V356.039C354.993 356.54 354.794 357.02 354.44 357.374C354.085 357.728 353.604 357.927 353.103 357.927L286.493 358.116L286.417 358.078ZM353.028 348.639L286.399 348.846C286.044 348.851 285.706 348.994 285.455 349.244C285.204 349.495 285.061 349.833 285.057 350.187V356.152C285.057 356.51 285.197 356.852 285.448 357.107C285.7 357.361 286.041 357.507 286.399 357.511L353.009 357.304C353.189 357.302 353.367 357.264 353.532 357.193C353.698 357.121 353.847 357.018 353.973 356.889C354.225 356.639 354.368 356.299 354.37 355.945V349.979C354.36 349.622 354.211 349.283 353.954 349.035C353.835 348.909 353.691 348.809 353.532 348.741C353.372 348.673 353.201 348.638 353.028 348.639Z" fill="black"/>
<path d="M366.486 376.05L299.857 376.257C299.421 376.257 299.002 376.084 298.694 375.776C298.385 375.468 298.212 375.051 298.212 374.615V368.649C298.212 368.434 298.255 368.22 298.337 368.021C298.42 367.822 298.541 367.641 298.694 367.488C298.847 367.336 299.028 367.215 299.227 367.132C299.427 367.05 299.641 367.007 299.857 367.007L366.467 366.799C366.684 366.797 366.9 366.838 367.102 366.919C367.304 367 367.487 367.121 367.642 367.274C367.796 367.426 367.919 367.608 368.003 367.809C368.087 368.009 368.13 368.225 368.13 368.442V374.407C368.13 374.843 367.957 375.261 367.648 375.569C367.34 375.877 366.922 376.05 366.486 376.05Z" fill="#11A97D"/>
<path d="M299.857 376.541C299.355 376.541 298.875 376.342 298.52 375.988C298.166 375.634 297.966 375.153 297.966 374.653V368.687C297.963 368.436 298.009 368.186 298.103 367.952C298.197 367.719 298.337 367.507 298.515 367.328C298.693 367.142 298.907 366.994 299.144 366.893C299.381 366.792 299.637 366.741 299.894 366.743L366.505 366.554C366.76 366.548 367.013 366.593 367.251 366.687C367.488 366.781 367.703 366.922 367.884 367.102C368.068 367.281 368.212 367.495 368.31 367.732C368.407 367.969 368.455 368.224 368.451 368.48V374.426C368.451 374.927 368.252 375.407 367.898 375.761C367.543 376.115 367.063 376.314 366.561 376.314L299.932 376.522L299.857 376.541ZM366.467 367.102L299.857 367.29C299.496 367.29 299.15 367.434 298.894 367.688C298.639 367.943 298.496 368.289 298.496 368.65V374.615C298.501 374.969 298.644 375.307 298.894 375.557C299.145 375.808 299.483 375.95 299.838 375.955L366.467 375.748C366.821 375.743 367.16 375.6 367.41 375.35C367.661 375.099 367.804 374.761 367.809 374.407V368.442C367.81 368.263 367.776 368.086 367.708 367.92C367.64 367.755 367.539 367.605 367.412 367.479C367.287 367.357 367.139 367.261 366.977 367.196C366.815 367.131 366.641 367.099 366.467 367.102Z" fill="black"/>
<path d="M362.327 366.8L295.698 367.007C295.482 367.007 295.268 366.965 295.069 366.882C294.869 366.8 294.688 366.679 294.535 366.526C294.383 366.374 294.262 366.193 294.179 365.993C294.096 365.794 294.054 365.58 294.054 365.365V359.399C294.051 359.183 294.092 358.968 294.174 358.768C294.256 358.567 294.377 358.385 294.53 358.232C294.683 358.079 294.865 357.958 295.066 357.877C295.267 357.795 295.482 357.754 295.698 357.757L362.308 357.549C362.744 357.549 363.163 357.722 363.471 358.03C363.78 358.338 363.953 358.756 363.953 359.192V365.157C363.955 365.372 363.915 365.585 363.835 365.784C363.754 365.983 363.635 366.165 363.483 366.317C363.332 366.47 363.152 366.591 362.954 366.674C362.755 366.757 362.542 366.8 362.327 366.8Z" fill="#11A97D"/>
<path d="M295.698 367.29C295.197 367.29 294.716 367.092 294.362 366.737C294.007 366.383 293.808 365.903 293.808 365.403V359.437C293.807 359.184 293.856 358.934 293.953 358.7C294.051 358.467 294.194 358.255 294.375 358.078C294.555 357.895 294.77 357.75 295.007 357.653C295.244 357.556 295.499 357.508 295.755 357.512L362.365 357.304C362.866 357.304 363.347 357.503 363.702 357.857C364.056 358.211 364.255 358.691 364.255 359.192V365.157C364.255 365.658 364.056 366.138 363.702 366.492C363.347 366.846 362.866 367.045 362.365 367.045L295.736 367.234L295.698 367.29ZM362.289 357.851L295.679 358.059C295.502 358.057 295.325 358.089 295.16 358.156C294.995 358.222 294.845 358.32 294.718 358.445C294.592 358.57 294.491 358.718 294.422 358.882C294.354 359.046 294.318 359.222 294.318 359.399V365.365C294.318 365.542 294.354 365.718 294.422 365.882C294.491 366.046 294.592 366.195 294.718 366.319C294.845 366.444 294.995 366.542 295.16 366.609C295.325 366.675 295.502 366.708 295.679 366.705L362.308 366.516C362.664 366.507 363.003 366.36 363.253 366.106C363.503 365.853 363.646 365.513 363.65 365.157V359.192C363.65 359.014 363.615 358.838 363.546 358.674C363.478 358.511 363.377 358.362 363.251 358.237C363.124 358.113 362.974 358.014 362.809 357.948C362.644 357.882 362.467 357.849 362.289 357.851Z" fill="black"/>
<path d="M230.014 379.448C221.036 371.104 218.862 355.605 225.591 341.692C232.32 327.779 245.608 319.774 257.724 321.398L258.197 320.416L264.397 323.399C277.836 329.836 282.297 348.469 274.358 364.931C266.419 381.392 249.049 389.661 235.609 383.223L229.561 380.524L230.014 379.448Z" fill="black"/>
<path d="M219.392 338.69C211.453 355.246 216.046 374.143 229.504 380.599C242.962 387.056 260.144 378.579 268.102 362.042C276.059 345.505 271.58 326.854 258.14 320.397C244.701 313.941 227.349 322.153 219.392 338.69Z" fill="#11A97D"/>
<path d="M223.701 340.804C217.18 354.397 220.96 369.914 231.999 375.2C243.038 380.486 257.176 373.558 263.698 359.966C270.219 346.373 266.571 331.063 255.532 325.778C244.493 320.492 230.26 327.212 223.701 340.804Z" fill="#11A97D"/>
<path d="M248.916 330.78L244.04 346.996L231.564 350.602L248.916 330.78Z" fill="black"/>
<path d="M248.274 331.781L243.794 346.883L232.226 350.225L248.274 331.856V331.781ZM249.389 329.78L230.846 351.131L244.248 347.261L249.464 329.836L249.389 329.78Z" fill="#11A97D"/>
<path d="M231.092 352.867L239.919 360.777L237.122 370.16L231.092 352.867Z" fill="black"/>
<path d="M231.64 353.679L239.654 360.853L237.103 369.367L231.64 353.679ZM230.544 352.056L237.14 370.934L240.203 360.683L230.544 352.037V352.056Z" fill="#11A97D"/>
<path d="M244.512 347.147L249.37 330.931L252.923 357.153L244.512 347.147Z" fill="black"/>
<path d="M249.294 332.083L252.564 356.341L244.796 347.091L249.294 331.989V332.083ZM249.464 329.78L244.247 347.204L253.283 357.946L249.502 329.78H249.464Z" fill="#11A97D"/>
<path d="M240.392 360.91L252.092 359.305L237.575 370.311L240.392 360.91Z" fill="black"/>
<path d="M251.203 359.663L237.972 369.669L240.524 361.136L251.147 359.663H251.203ZM252.98 358.927L240.203 360.702L237.14 370.953L252.98 358.927Z" fill="#11A97D"/>
<path d="M231.205 351.754L244.021 348.054L252.659 358.323L240.505 359.815L231.205 351.754Z" fill="black"/>
<path d="M243.945 348.318L252.186 358.135L240.581 359.55L231.697 351.848L243.945 348.318ZM244.115 347.771L230.695 351.641L240.429 360.06L253.131 358.512L244.115 347.771Z" fill="#11A97D"/>
<path d="M235.42 376.711C234.213 376.414 233.041 375.99 231.924 375.446C229.148 374.042 226.726 372.029 224.84 369.557C222.955 367.086 221.654 364.219 221.036 361.174C219.572 354.274 220.425 347.085 223.462 340.717C226.499 334.35 231.552 329.159 237.84 325.948C240.589 324.537 243.622 323.765 246.712 323.69C249.802 323.615 252.868 324.238 255.683 325.513C266.854 330.875 270.578 346.279 263.981 360.079C261.033 366.489 256.004 371.717 249.71 374.917C245.308 377.182 240.246 377.817 235.42 376.711ZM224.079 340.842C220.988 347.075 220.134 354.18 221.66 360.966C222.265 363.93 223.531 366.72 225.363 369.129C227.196 371.537 229.548 373.503 232.245 374.879C234.981 376.116 237.964 376.71 240.966 376.615C243.967 376.52 246.907 375.739 249.559 374.332C255.74 371.194 260.681 366.066 263.584 359.777C270.03 346.336 266.419 331.158 255.532 325.948C252.793 324.701 249.806 324.092 246.797 324.167C243.787 324.243 240.834 325 238.161 326.382C231.958 329.463 226.991 334.563 224.079 340.842Z" fill="black"/>
<path d="M108.211 365.063C107.285 363.892 97.2669 364.874 97.1535 365.478C96.8511 367.366 96.3785 374.369 97.3425 375.313C98.3065 376.257 106.926 378.183 107.115 376.389C107.304 374.596 109.118 366.233 108.211 365.063Z" fill="white" fill-opacity="0.94"/>
<path d="M105.149 377.56C102.346 377.538 99.5821 376.893 97.059 375.672C95.8304 374.445 96.5487 366.629 96.7566 365.402C96.7566 365.025 97.248 364.874 97.6828 364.761C99.573 364.289 107.568 363.439 108.646 364.761C109.326 365.629 108.929 368.838 107.965 374.464C107.795 375.389 107.682 376.106 107.644 376.352C107.612 376.578 107.511 376.79 107.356 376.958C107.201 377.127 106.998 377.244 106.775 377.296C106.251 377.472 105.702 377.561 105.149 377.56ZM97.5883 365.704C97.1913 368.291 96.9834 374.313 97.5883 374.955C98.1931 375.596 104.525 377.126 106.321 376.484C106.491 376.484 106.567 376.352 106.567 376.333C106.567 375.974 106.737 375.219 106.907 374.294C107.285 372.047 108.325 366.063 107.776 365.346C107.228 364.628 98.9492 365.138 97.6072 365.723L97.5883 365.704Z" fill="black"/>
<path d="M96.6243 373.161C96.6243 373.161 91.9933 379.769 95.3011 384.96C95.3011 384.96 119.439 386.112 126.735 384.96C126.735 384.96 126.924 376.087 120.667 375.332C116.273 374.861 111.856 374.64 107.436 374.672C107.436 374.672 101.161 378.07 96.6243 373.161Z" fill="black"/>
<path d="M53.3958 365.1C52.4696 363.93 43.9449 364.874 43.7748 365.478C43.4723 367.366 42.9998 374.37 43.9449 375.313C44.89 376.257 52.4129 379.089 52.6208 377.371C52.8287 375.653 54.2842 366.233 53.3958 365.1Z" fill="white" fill-opacity="0.94"/>
<path d="M51.5623 378.391C48.744 378.084 46.0308 377.149 43.6235 375.653C42.376 374.426 43.1132 366.611 43.3022 365.384C43.3022 365.025 43.7369 364.855 44.3229 364.704C45.9296 364.289 52.7153 363.477 53.7738 364.798C54.3976 365.591 54.2653 368.574 53.2635 376.125C53.2635 376.729 53.1123 377.182 53.0744 377.428C53.0559 377.628 52.9774 377.818 52.8493 377.973C52.7212 378.127 52.5494 378.24 52.3562 378.296C52.0986 378.371 51.8303 378.403 51.5623 378.391ZM44.1339 365.705C43.7559 368.234 43.5668 374.332 44.1339 374.974C44.7009 375.616 50.5227 377.862 51.8836 377.39C51.997 377.39 51.997 377.39 51.997 377.39C51.997 377.39 52.0916 376.654 52.1672 376.05C53.0366 369.575 53.2824 366.025 52.8854 365.459C52.4885 364.893 45.4759 365.1 44.1339 365.705Z" fill="black"/>
<path d="M96.8889 279.394C98.023 293.572 96.9834 322.172 95.8493 336.349C95.8493 337.293 95.8493 370.235 95.8493 370.235L109.194 371.519C116.471 349.866 130.345 301.312 130.345 279.753C130.345 258.194 128.455 222.288 120.554 205.261C112.993 189.044 83.2607 211.434 79.7638 215.398C78.1572 217.286 81.2004 233.634 85.4344 244.508C90.2544 257.062 96.284 271.73 96.8889 279.394Z" fill="black"/>
<path d="M95.7737 370.197L104.015 370.99C103.259 365.818 104.015 354.283 104.298 349.016C105.154 339.878 106.812 330.832 109.251 321.983C112.615 307.881 115.81 292.93 111.821 278.564C109.742 271.201 105.225 266.066 101.558 259.554C99.0656 255.186 97.9091 250.185 98.2309 245.168C98.4389 242.431 100.121 238.958 99.2138 236.201C98.0608 232.728 87.6648 221.099 84.9997 222.779C81.8053 224.931 83.4119 233.275 82.1266 237.145C87.0222 249.737 96.2841 271.711 96.8889 279.338C98.023 293.515 95.6792 322.002 94.9987 336.198C94.6272 347.537 94.8859 358.887 95.7737 370.197Z" fill="black"/>
<path d="M42.7541 370.197L54.6055 371.481C60.7864 351.055 77.2877 316.169 79.7449 294.761C83.5253 261.498 88.0617 225.875 88.2697 217.116C88.2697 215.7 88.2697 214.964 88.2697 214.964C80.123 205.053 66.3057 201.013 60.1437 200.277C57.7054 199.975 55.9286 200.465 55.1726 201.73C52.9154 205.448 50.9257 209.322 49.2185 213.321C39.295 236.862 47.6496 251.077 47.4795 281.716C47.4795 283.491 47.4795 285.303 47.4795 287.097C47.1582 299.764 50.5794 315.414 46.9503 328.628C39.7109 354.585 42.7541 370.197 42.7541 370.197Z" fill="black"/>
<path d="M182.117 153.912C181.569 170.091 177.278 182.607 167.166 181.946C159.047 181.596 151.189 178.98 144.484 174.395C143.917 174.017 143.35 173.602 142.82 173.187C141.932 172.488 141.119 171.809 140.325 171.11C139.267 170.11 138.284 169.222 137.396 168.146C137.263 167.976 137.093 167.825 136.961 167.655C133.18 163.276 131.385 160.463 130.477 156.329C129.917 153.972 129.632 151.558 129.627 149.136C129.627 149.136 120.006 117.251 127.737 120.121C135.468 122.99 145.712 134.185 153.519 145.53C153.525 145.581 153.525 145.631 153.519 145.681C153.972 146.286 154.369 146.871 154.766 147.569C155.163 148.268 155.296 148.287 155.522 148.626C159.303 154.29 162.365 158.613 163.48 159.123C165.37 159.972 167.26 152.232 169.151 144.832L169.831 142.151C171.173 136.941 172.515 132.448 173.8 132.089C173.8 132.089 179.981 126.709 180.397 129.446C181.652 137.54 182.228 145.723 182.117 153.912Z" fill="white" fill-opacity="0.94"/>
<path d="M167.884 182.437H167.09C158.929 182.016 151.045 179.343 144.314 174.716C143.728 174.338 143.161 173.923 142.631 173.508C141.686 172.771 140.873 172.073 140.098 171.393C138.964 170.336 138 169.373 137.15 168.41L136.753 168.014L136.602 167.825C132.557 163.257 130.931 160.274 130.005 156.347C129.478 154.024 129.205 151.65 129.192 149.268C128.266 146.342 121.631 123.689 125.412 120.064C125.742 119.771 126.153 119.585 126.591 119.527C127.029 119.47 127.474 119.545 127.869 119.743C135.014 122.367 144.729 131.938 153.954 145.36L154.086 145.568C154.369 145.927 154.653 146.361 154.955 146.795L155.617 147.739L156.052 148.362C159.359 153.214 162.762 158.216 163.801 158.707C163.874 158.735 163.955 158.735 164.028 158.707C165.427 158.028 167.147 151.156 168.527 145.795L168.81 144.737C169.025 143.894 169.232 143.064 169.434 142.246V142.038C171.324 134.921 172.364 132.146 173.611 131.674C174.557 130.862 178.431 127.653 180.114 128.276C180.336 128.37 180.528 128.524 180.669 128.72C180.809 128.917 180.892 129.149 180.908 129.39C182.13 137.511 182.661 145.72 182.495 153.931C182.193 162.804 180.605 174.489 174.821 179.737C172.933 181.479 170.455 182.443 167.884 182.437ZM126.867 120.46C126.73 120.455 126.593 120.48 126.466 120.532C126.339 120.584 126.224 120.663 126.13 120.762C123.2 123.5 128.02 142.113 130.062 149.079C130.091 151.439 130.383 153.788 130.931 156.083C131.782 159.859 133.351 162.653 137.32 167.165L137.452 167.316C137.569 167.426 137.677 167.546 137.774 167.674C138.586 168.58 139.55 169.562 140.647 170.563C141.384 171.223 142.197 171.903 143.123 172.639C143.633 173.036 144.2 173.432 144.748 173.81C151.361 178.355 159.111 180.97 167.128 181.361C168.413 181.467 169.705 181.303 170.923 180.88C172.14 180.458 173.255 179.785 174.197 178.907C178.601 174.942 181.134 166.24 181.569 153.78C181.734 145.608 181.209 137.436 180 129.352C180 129.05 179.849 129.012 179.792 128.993C178.998 128.71 176.258 130.466 174.122 132.259L173.933 132.372C172.704 132.712 170.946 139.527 170.285 142.095V142.321L169.661 144.775L169.396 145.851C167.393 153.723 166.051 158.575 164.387 159.387C164.229 159.466 164.054 159.508 163.877 159.508C163.7 159.508 163.525 159.466 163.367 159.387C162.195 158.839 159.87 155.611 155.201 148.721L154.785 148.117L154.18 147.248C153.878 146.833 153.594 146.399 153.273 145.965C153.273 145.965 153.16 145.832 153.141 145.757C146.204 135.638 135.713 123.651 127.623 120.63C127.383 120.53 127.127 120.472 126.867 120.46Z" fill="black"/>
<path d="M139.456 172.809C136.961 170.374 133.294 167.75 130.005 165.145C128.757 164.144 127.548 163.144 126.489 162.181C125.139 161.036 123.956 159.708 122.973 158.235C122.625 157.701 122.364 157.115 122.198 156.499C121.762 153.243 121.516 149.966 121.461 146.682C121.027 134.09 122.444 116.968 128.266 118.554C138.246 121.234 148.113 134.09 156.619 144.171C157.148 154.667 152.177 166.126 139.456 172.809Z" fill="#11A97D"/>
<path d="M42.7541 370.197L45.457 370.462C45.3272 362.568 45.6048 354.673 46.2887 346.808C47.6573 336.066 50.3492 325.534 54.3031 315.451C60.3328 298.933 64.3966 282.622 63.2436 264.858C62.601 255.193 59.4633 246.226 58.1968 236.73C57.3463 230.614 58.6127 224.742 59.5767 218.796C60.1866 215.401 60.484 211.957 60.4651 208.507C60.4651 205.657 49.2374 207.941 49.2374 212.661C39.3139 236.201 47.6496 251.172 47.4795 281.792C47.4795 283.566 47.4795 285.379 47.4795 287.172C47.3955 300.759 46.4548 314.328 44.6631 327.797C39.6353 360.419 42.7541 370.197 42.7541 370.197Z" fill="black"/>
<path d="M137.206 124.935C137.206 124.935 139.475 133.014 135.638 144.775C134.636 147.852 130.496 156.31 128.077 163.653C126.196 162.021 124.469 160.22 122.917 158.273L129.854 142.869L137.206 124.935Z" fill="black"/>
<path d="M126.867 157.499C124.415 162.129 122.244 166.901 120.365 171.79C116.944 182.645 126.414 200.352 124.75 208.432C123.219 210.32 101.35 219.476 84.8862 220.061C63.4516 220.835 46.7612 212.699 46.5533 209.565C46.3454 206.431 55.6451 169.789 61.2589 154.007C67.4776 136.469 76.1158 119.498 81.0303 114.476C81.3642 114.134 81.7244 113.818 82.1077 113.532C84.0906 112.266 86.3439 111.484 88.6855 111.248C104.242 108.718 128.379 115.684 137.83 124.029C139.928 131.92 132.972 145.361 126.867 157.499Z" fill="#11A97D"/>
<path d="M123.144 108.964V115.684C123.144 115.684 124.901 119.46 123.144 119.743C117.227 120.517 113.901 112.928 113.901 112.928V105.132L123.144 108.964Z" fill="white" fill-opacity="0.94"/>
<path d="M122.293 120.272C116.622 120.272 113.598 113.419 113.466 113.117V112.928V104.433L123.654 108.643V115.571C123.937 116.213 124.845 118.459 124.221 119.573C124.122 119.748 123.983 119.897 123.815 120.009C123.648 120.12 123.457 120.191 123.257 120.215L122.293 120.272ZM114.373 112.721C114.77 113.551 117.946 119.856 123.087 119.177C123.14 119.175 123.192 119.161 123.238 119.135C123.284 119.108 123.323 119.071 123.351 119.026C123.673 118.459 123.181 116.779 122.728 115.779V115.59V109.285L114.43 105.849L114.373 112.721Z" fill="black"/>
<path d="M94.6585 126.879C94.6585 126.879 95.5469 138.527 88.2319 145.417C84.4818 149.19 80.0414 152.208 75.1518 154.309L73.7909 165.352C73.7909 165.352 82.618 162.426 90.4812 150.42C94.5282 143.281 96.0025 134.972 94.6585 126.879Z" fill="black"/>
<path d="M125.412 90.2935C127.232 94.2035 128.504 98.3452 129.192 102.602C129.778 107.17 121.991 114.212 115.186 107.793C108.381 101.375 110.252 91.5205 110.252 91.5205L125.412 90.2935Z" fill="white" fill-opacity="0.94"/>
<path d="M121.027 110.833C118.675 110.778 116.437 109.81 114.789 108.133C107.852 101.601 109.704 91.5395 109.723 91.4451V91.0864L125.657 89.8027L125.79 90.0859C127.624 94.0431 128.897 98.2368 129.57 102.545C129.91 105.132 127.812 108.36 124.788 109.908C123.626 110.51 122.336 110.827 121.027 110.833ZM110.593 91.9548C110.347 93.7294 109.591 101.922 115.432 107.416C116.53 108.64 118.005 109.463 119.623 109.757C121.242 110.051 122.913 109.799 124.372 109.039C125.615 108.482 126.675 107.586 127.431 106.454C128.186 105.322 128.607 104 128.644 102.64C128.004 98.5435 126.822 94.5504 125.128 90.7655L110.593 91.9548Z" fill="black"/>
<path d="M108.4 98.8451C108.4 98.8451 108.4 98.5242 108.192 98.241C107.906 97.4247 107.846 96.5462 108.019 95.6988C108.192 94.8513 108.592 94.0664 109.175 93.4271C109.388 93.1987 109.679 93.0583 109.99 93.0339C110.302 93.0094 110.611 93.1026 110.857 93.295C112.748 93.1439 112.748 95.5037 113.069 96.7874C113.504 98.9584 114.846 101.564 114.184 103.81C113.977 104.499 113.512 105.083 112.885 105.438C112.258 105.793 111.518 105.893 110.82 105.717C108.929 105.169 109.137 103.432 108.514 101.941C108.061 101.222 107.906 100.356 108.079 99.5247C108.163 99.2881 108.271 99.0604 108.4 98.8451Z" fill="black"/>
<path d="M109.667 95.6737C111.727 100.167 115.243 96.6553 118.097 95.2584C119.987 94.3145 123.03 93.9558 125.128 92.8231C125.196 92.9787 125.3 93.1162 125.431 93.2242C125.562 93.3322 125.717 93.4076 125.883 93.4445C126.048 93.4813 126.221 93.4784 126.385 93.436C126.55 93.3936 126.702 93.313 126.829 93.2007C128.493 91.747 130.44 89.274 128.587 87.1219C127.151 85.4607 125.128 86.1592 123.522 87.1219C118.078 83.0632 106.17 88.0658 109.667 95.6737Z" fill="black"/>
<path d="M107.833 174.471L105.716 183.362C105.716 183.362 104.204 184.023 101.633 184.967C94.0725 187.666 77.4767 192.744 65.3796 189.951C54.4543 187.44 48.3679 174.32 48.6703 161.048C48.7362 155.458 50.0606 149.955 52.5452 144.945C53.3215 143.414 54.2324 141.955 55.2671 140.585L56.3067 139.301L56.4579 139.131C63.3207 130.502 71.1818 122.714 79.8772 115.93C84.2814 112.362 89.3282 116.194 91.2183 121.593C92.6171 125.369 95.1877 128.182 94.167 133.996C93.0273 140.036 89.8442 145.501 85.1509 149.476C83.4497 150.949 81.5028 152.685 79.6504 154.46L78.9511 155.102C74.2634 159.595 73.772 170.355 73.772 172.092C73.772 174.206 75.7945 175.433 78.8755 176.056C88.402 178.02 107.833 174.471 107.833 174.471Z" fill="white" fill-opacity="0.94"/>
<path d="M73.2616 191.234C70.5735 191.261 67.8911 190.983 65.2661 190.403C53.1501 187.61 47.9332 173.224 48.2545 161.029C48.3104 155.359 49.6547 149.776 52.1861 144.7C52.9591 143.135 53.8834 141.649 54.9457 140.264L56.0042 138.961L56.1176 138.829C62.9898 130.178 70.8637 122.371 79.5748 115.571C80.3136 114.919 81.2029 114.46 82.1629 114.236C83.1229 114.012 84.1237 114.03 85.0752 114.287C86.6484 114.88 88.0635 115.828 89.2108 117.055C90.3582 118.283 91.2068 119.758 91.6909 121.367C92.0419 122.286 92.4394 123.187 92.8817 124.066C94.6665 127.056 95.3359 130.58 94.7719 134.015C93.6012 140.162 90.3595 145.725 85.5856 149.778C83.6954 151.458 81.8052 153.176 80.1041 154.743L79.8583 154.8L79.3102 155.309C74.3768 160.104 74.3768 171.96 74.3768 172.073C74.3768 173.753 75.9646 174.924 79.1023 175.584C88.402 177.472 107.644 174.055 107.852 174.017L108.551 173.885L106.226 183.702H106C106 183.702 104.431 184.381 101.879 185.306C95.0554 187.798 83.6198 191.234 73.2616 191.234ZM83.5064 115.005C82.2717 115.028 81.0856 115.49 80.1608 116.307C71.5069 123.057 63.6781 130.8 56.8359 139.376L56.6469 139.603C56.3067 139.999 55.9664 140.415 55.6451 140.849C54.6151 142.181 53.7162 143.61 52.961 145.115C50.5201 150.069 49.228 155.508 49.1807 161.029C48.9161 173.243 54.4354 186.93 65.5119 189.497C77.1554 192.178 93.0707 187.61 101.52 184.514C103.41 183.796 104.847 183.23 105.3 183.022L107.19 175.056C103.561 175.698 87.3624 178.284 78.8376 176.509C75.1896 175.754 73.3561 174.263 73.3561 172.073C73.3561 171.941 73.3561 159.764 78.6675 154.705L79.2346 154.177L79.3858 154.044C81.0303 152.478 82.9393 150.76 84.8862 149.08C89.4991 145.164 92.6281 139.786 93.7512 133.845C94.3352 130.594 93.7244 127.243 92.0311 124.406C91.6153 123.519 91.1805 122.518 90.8214 121.631C90.3708 120.17 89.5965 118.829 88.5559 117.708C87.5153 116.587 86.2352 115.715 84.8106 115.156C84.3838 115.052 83.9457 115.001 83.5064 115.005Z" fill="black"/>
<path d="M79.0078 158.764C80.898 156.876 93.0707 145.04 94.9231 133.241C95.7737 127.861 94.1103 114.891 87.3624 113.343C76.6828 110.87 62.3553 126.483 52.4696 138.149C57.006 148.381 66.9484 155.536 79.0078 158.764Z" fill="#11A97D"/>
<path d="M43.2455 373.161C43.2455 373.161 38.6146 379.769 41.9224 384.96C41.9224 384.96 66.06 386.112 73.3561 384.96C73.3561 384.96 73.5262 376.087 67.2886 375.332C61.051 374.577 53.0367 374.237 53.0367 374.237C51.5605 375.3 49.7425 375.778 47.934 375.579C46.1255 375.38 44.455 374.519 43.2455 373.161Z" fill="black"/>
<path d="M186.351 113.268C184.858 113.079 181.739 115.156 180.435 116.081C177.41 118.024 175.121 120.921 173.933 124.312C173.559 123.946 173.139 123.628 172.685 123.368C172.88 122.902 173.114 122.454 173.385 122.027C174.046 120.97 172.647 119.592 171.702 120.536C171.207 120.919 170.807 121.411 170.535 121.975C170.263 122.538 170.125 123.157 170.134 123.783C170.718 127.043 171.565 130.25 172.666 133.373C173.044 133.92 175.086 131.636 175.539 131.315C175.638 131.242 175.706 131.134 175.728 131.013C176.644 131.734 177.8 132.078 178.961 131.976C180.541 131.762 181.987 130.976 183.025 129.767C185.803 127.596 184.782 125.029 183.989 125.52C185.312 124.047 184.858 122.122 183.989 122.329C184.839 120.857 183.459 117.874 181.418 119.535C182.824 117.864 184.562 116.501 186.521 115.533C187.674 114.91 187.618 113.457 186.351 113.268Z" fill="white" fill-opacity="0.94"/>
<path d="M172.666 134.034C172.57 134.027 172.477 134 172.392 133.954C172.308 133.909 172.233 133.846 172.175 133.77C171.286 132.505 169.661 124.028 169.661 123.953C169.642 123.258 169.786 122.568 170.081 121.939C170.376 121.31 170.815 120.758 171.362 120.328C171.63 120.068 171.99 119.922 172.364 119.922C172.738 119.922 173.098 120.068 173.366 120.328C173.69 120.576 173.911 120.934 173.988 121.335C174.064 121.735 173.991 122.15 173.782 122.499C173.602 122.793 173.438 123.095 173.29 123.405L173.706 123.708C175.024 120.445 177.296 117.655 180.227 115.703C183.251 113.608 185.293 112.664 186.484 112.815C186.816 112.836 187.131 112.969 187.378 113.191C187.625 113.414 187.79 113.714 187.844 114.042C187.87 114.447 187.764 114.849 187.543 115.189C187.322 115.529 186.997 115.789 186.616 115.93C185.25 116.641 183.979 117.523 182.836 118.554C183.154 118.622 183.452 118.764 183.705 118.969C184.092 119.347 184.376 119.818 184.528 120.337C184.68 120.857 184.696 121.406 184.574 121.933C184.771 122.045 184.935 122.208 185.047 122.405C185.248 122.849 185.333 123.336 185.293 123.822C185.254 124.307 185.091 124.775 184.82 125.18C184.881 125.252 184.938 125.328 184.99 125.407C185.633 126.313 185.538 128.37 183.327 130.107C182.228 131.375 180.701 132.194 179.036 132.41C177.926 132.525 176.81 132.252 175.88 131.636C175.668 131.801 175.466 131.978 175.275 132.165C173.933 133.392 173.271 134.034 172.666 134.034ZM172.326 120.819C172.189 120.827 172.06 120.888 171.967 120.989C171.521 121.327 171.159 121.764 170.909 122.265C170.66 122.766 170.53 123.318 170.53 123.877C171.082 126.981 171.833 130.045 172.78 133.052C173.362 132.642 173.906 132.181 174.405 131.674C174.624 131.45 174.857 131.242 175.105 131.051L175.313 130.428L175.842 130.749C176.656 131.402 177.694 131.714 178.734 131.617C180.133 131.448 180.737 131.127 182.514 129.522C183.048 129.214 183.492 128.771 183.801 128.237C184.109 127.704 184.272 127.099 184.272 126.483C184.251 126.269 184.157 126.07 184.007 125.916L181.21 127.653L183.497 125.199C183.796 124.909 184.007 124.541 184.107 124.138C184.208 123.734 184.193 123.31 184.064 122.915C184.007 122.707 184.007 122.707 184.007 122.707L182.968 122.934L183.497 122.009C183.673 121.618 183.725 121.182 183.647 120.761C183.57 120.34 183.366 119.952 183.062 119.649C182.665 119.328 182.193 119.366 181.626 119.819L179.32 121.706L180.945 119.215C182.391 117.53 184.158 116.151 186.143 115.156C186.691 114.91 186.88 114.514 186.843 114.231C186.805 113.948 186.597 113.853 186.276 113.815C185.746 113.815 184.385 114.004 180.605 116.534C177.687 118.439 175.471 121.243 174.292 124.519L174.065 125.312L173.498 124.727C173.164 124.385 172.782 124.092 172.364 123.859L172.024 123.651L172.156 123.292C172.344 122.786 172.591 122.305 172.893 121.857C172.974 121.701 172.998 121.52 172.96 121.348C172.922 121.176 172.825 121.022 172.685 120.914C172.613 120.819 172.514 120.747 172.402 120.706L172.326 120.819Z" fill="black"/>
<path d="M118.248 178.038C112.577 176.32 115.602 176.151 119.269 177.51C121.159 178.227 122.142 177.17 120.573 175.622C118.116 173.206 114.033 172.885 110.498 173.489C111.217 173.054 111.82 172.451 112.256 171.733C112.804 170.563 111.595 170.393 110.725 170.676C109.137 171.167 106.661 174.187 105.678 175.452C103.58 177.34 100.764 181.229 102.37 183.551C103.278 184.891 104.374 184.079 105.754 184.306C107.455 184.551 111.784 187.987 113.636 187.194C116.093 186.118 110.649 184.589 111.897 183.419C112.351 183.022 119.874 186.477 117.851 182.947C117.416 182.173 113.428 180.228 115.035 179.926C116.811 180.455 120.705 182.21 121.216 180.436C121.518 179.643 119.363 178.378 118.248 178.038Z" fill="white" fill-opacity="0.94"/>
<path d="M113.012 187.76C111.333 187.472 109.735 186.828 108.325 185.873C107.517 185.361 106.646 184.955 105.735 184.664C105.346 184.617 104.952 184.617 104.563 184.664C104.092 184.789 103.594 184.765 103.137 184.596C102.681 184.427 102.287 184.121 102.011 183.721C100.272 181.172 103.032 177.151 105.338 175.037C107.701 172.092 109.421 170.487 110.631 170.11C110.962 169.971 111.325 169.925 111.681 169.974C112.036 170.024 112.372 170.169 112.653 170.393C112.799 170.604 112.876 170.854 112.876 171.11C112.876 171.366 112.799 171.616 112.653 171.827C112.491 172.158 112.274 172.458 112.01 172.715C113.573 172.491 115.165 172.595 116.685 173.021C118.205 173.447 119.62 174.185 120.838 175.188C122.085 176.415 121.783 177.227 121.594 177.529C121.405 177.831 120.497 178.246 119.552 178.019C120.355 178.387 121.046 178.96 121.556 179.681C121.628 179.809 121.673 179.95 121.689 180.096C121.706 180.242 121.692 180.39 121.65 180.53C121.596 180.723 121.502 180.904 121.375 181.059C121.249 181.215 121.091 181.343 120.913 181.436C119.741 182.022 117.624 181.285 115.942 180.7L115.564 180.568C115.904 180.832 116.339 181.134 116.66 181.342C117.263 181.694 117.8 182.147 118.248 182.682C118.418 182.984 118.947 183.89 118.437 184.57C117.927 185.25 116.018 184.967 113.598 184.249C113.126 184.117 112.577 183.947 112.237 183.89C112.538 184.205 112.874 184.484 113.239 184.721C114.052 185.306 114.808 185.854 114.732 186.609C114.657 187.364 114.014 187.515 113.787 187.609C113.542 187.714 113.278 187.765 113.012 187.76ZM105.281 183.777C105.476 183.759 105.672 183.759 105.867 183.777C106.895 184.071 107.875 184.509 108.778 185.08C110.366 185.929 112.559 187.1 113.485 186.703C113.622 186.651 113.745 186.567 113.844 186.458C113.844 186.269 113.126 185.778 112.748 185.514C112.01 184.985 111.311 184.476 111.273 183.853C111.274 183.705 111.306 183.56 111.368 183.426C111.43 183.293 111.52 183.174 111.632 183.079C111.954 182.814 112.407 182.928 113.919 183.362C114.789 183.626 117.435 184.4 117.7 184.004C117.7 184.004 117.7 183.815 117.435 183.211C117.032 182.819 116.588 182.471 116.112 182.173C114.789 181.266 114.033 180.7 114.222 180.077C114.222 179.851 114.43 179.586 114.959 179.473H115.072H115.186L116.282 179.832C117.643 180.323 119.703 181.04 120.516 180.625C120.586 180.593 120.648 180.546 120.697 180.487C120.746 180.428 120.781 180.359 120.8 180.285C120.809 180.241 120.809 180.196 120.8 180.153C120.093 179.338 119.168 178.743 118.135 178.435C114.846 177.415 114.77 177.038 114.713 176.755V176.49L114.94 176.245C115.696 175.603 119.477 177 119.514 177.019C120.327 177.321 120.838 177.227 120.951 177.019C121.064 176.811 120.951 176.453 120.327 175.867C117.473 173.055 112.634 173.526 110.687 173.866L108.117 174.3L110.366 172.979C111.008 172.585 111.552 172.049 111.954 171.412C112.067 171.186 112.067 171.053 111.954 171.016C111.792 170.948 111.619 170.913 111.443 170.913C111.268 170.913 111.095 170.948 110.933 171.016C110.252 171.242 108.873 172.186 106.208 175.509L106.056 175.641C103.901 177.529 101.482 181.191 102.824 183.192C103.278 183.872 103.712 183.815 104.487 183.739L105.281 183.777Z" fill="black"/>
<path d="M104.752 175.452C105.196 175.493 105.643 175.425 106.055 175.254C106.467 175.082 106.831 174.814 107.115 174.47C108.022 173.281 109.005 178.246 108.495 179.888C107.984 181.531 104.714 183.664 104.714 183.664C103.479 183.831 102.267 184.142 101.104 184.589C99.4028 185.401 98.9492 177.68 104.752 175.452Z" fill="white" fill-opacity="0.94"/>
<path d="M180.775 130.9C180.585 131.196 180.46 131.53 180.411 131.879C180.363 132.228 180.39 132.583 180.492 132.92C180.775 134.298 172.818 134.26 172.818 134.26C172.979 133.546 172.886 132.798 172.553 132.146C171.986 130.673 174.594 128.37 176.655 128.653C178.216 128.99 179.647 129.77 180.775 130.9Z" fill="white" fill-opacity="0.94"/>
<path d="M82.5802 65.7708L11.2258 61.1269L13.7776 0.547363L99.7998 12.4405L92.7494 49.6868L103.051 81.4207L82.5802 65.7708Z" fill="white" fill-opacity="0.94"/>
<path d="M14.2312 1.07605L99.2894 12.837L92.2958 49.4792V49.7246V49.9512L102.087 80.156L82.9961 65.4878L82.7692 65.3179H82.4857L11.7173 60.6739L14.2312 1.07605ZM13.3428 0L10.7344 61.5611L82.429 66.2429L103.958 82.7045L93.2786 49.6491L100.348 12.0442L13.3428 0Z" fill="black"/>
<defs>
<linearGradient id="paint0_linear_4_1665" x1="172.383" y1="208.205" x2="172.383" y2="61.5989" gradientUnits="userSpaceOnUse">
<stop stop-color="white" stop-opacity="0"/>
<stop offset="1" stop-color="white"/>
</linearGradient>
</defs>
</svg>
