<svg width="282" height="282" viewBox="0 0 282 282" fill="none" xmlns="http://www.w3.org/2000/svg">
<path d="M266.116 279.312H11.1155V281.249H266.116V279.312Z" fill="black"/>
<path d="M3.0275 123.417C-6.37715 172.592 28.5544 214.539 103.362 214.23C178.169 213.92 130.689 275.207 193.163 279.029C255.636 282.851 286.081 244.564 278.342 159.524C270.603 74.4848 269.219 -25.237 140.443 6.30789C59.2807 26.2253 11.8276 77.3513 3.0275 123.417Z" fill="#E6EBF0" fill-opacity="0.26"/>
<path d="M55.0217 227.243C78.2109 221.591 123.797 216.841 138.401 238.535C153.005 260.228 138.481 268.142 112.202 257.698C85.9227 247.255 22.9922 235.036 55.0217 227.243Z" fill="#E6EBF0" fill-opacity="0.26"/>
<mask id="mask0_4_2783" style="mask-type:luminance" maskUnits="userSpaceOnUse" x="1" y="0" width="279" height="280">
<path d="M3.0275 123.417C-6.37715 172.592 28.5544 214.539 103.362 214.23C178.169 213.92 130.689 275.207 193.163 279.029C255.636 282.851 286.081 244.564 278.342 159.524C270.603 74.4848 269.219 -25.237 140.443 6.30789C59.2807 26.2253 11.8276 77.3513 3.0275 123.417Z" fill="white"/>
</mask>
<g mask="url(#mask0_4_2783)">
<path d="M64.9773 76.9072H55.0084V264.993H64.9773V76.9072Z" fill="#AAB6C2"/>
<path d="M100.916 126.714H90.9476V286H100.916V126.714Z" fill="#AAB6C2"/>
<path d="M152.817 133.497H142.498V137.79H152.817V133.497Z" fill="#AAB6C2"/>
<path d="M135.445 133.497H125.127V137.79H135.445V133.497Z" fill="#AAB6C2"/>
<path d="M152.817 149.108H142.498V153.401H152.817V149.108Z" fill="#AAB6C2"/>
<path d="M135.445 149.108H125.127V153.401H135.445V149.108Z" fill="#AAB6C2"/>
<path d="M118.073 149.108H107.755V153.401H118.073V149.108Z" fill="#AAB6C2"/>
<path d="M152.817 164.732H142.498V169.025H152.817V164.732Z" fill="#AAB6C2"/>
<path d="M118.073 164.732H107.755V169.025H118.073V164.732Z" fill="#AAB6C2"/>
<path d="M135.445 172.538H125.127V176.831H135.445V172.538Z" fill="#AAB6C2"/>
<path d="M152.817 180.343H142.498V184.636H152.817V180.343Z" fill="#AAB6C2"/>
<path d="M135.445 188.149H125.127V192.442H135.445V188.149Z" fill="#AAB6C2"/>
<path d="M152.817 195.954H142.498V200.247H152.817V195.954Z" fill="#AAB6C2"/>
<path d="M118.073 195.954H107.755V200.247H118.073V195.954Z" fill="#AAB6C2"/>
<path d="M152.817 210.381H142.498V214.674H152.817V210.381Z" fill="#AAB6C2"/>
<path d="M135.445 210.381H125.127V214.674H135.445V210.381Z" fill="#AAB6C2"/>
<path d="M152.817 226.005H142.498V230.298H152.817V226.005Z" fill="#AAB6C2"/>
<path d="M135.445 226.005H125.127V230.298H135.445V226.005Z" fill="#AAB6C2"/>
<path d="M118.073 226.005H107.755V230.298H118.073V226.005Z" fill="#AAB6C2"/>
<path d="M152.817 241.616H142.498V245.909H152.817V241.616Z" fill="#AAB6C2"/>
<path d="M118.073 241.616H107.755V245.909H118.073V241.616Z" fill="#AAB6C2"/>
<path d="M135.445 249.422H125.127V253.715H135.445V249.422Z" fill="#AAB6C2"/>
<path d="M118.073 249.422H107.755V253.715H118.073V249.422Z" fill="#AAB6C2"/>
<path d="M152.817 257.227H142.498V261.52H152.817V257.227Z" fill="#AAB6C2"/>
<path d="M135.445 265.046H125.127V269.339H135.445V265.046Z" fill="#AAB6C2"/>
<path d="M152.817 272.852H142.498V277.145H152.817V272.852Z" fill="#AAB6C2"/>
<path d="M118.073 272.852H107.755V277.145H118.073V272.852Z" fill="#AAB6C2"/>
<path d="M272.928 126.714H262.959V286H272.928V126.714Z" fill="#AAB6C2"/>
<path d="M170.806 50.9471H160.838V286H170.806V50.9471Z" fill="#AAB6C2"/>
<path d="M247.132 62.2113H232.071V68.4692H247.132V62.2113Z" fill="#AAB6C2"/>
<path d="M221.766 62.2113H206.705V68.4692H221.766V62.2113Z" fill="#AAB6C2"/>
<path d="M247.132 85.0088H232.071V91.2666H247.132V85.0088Z" fill="#AAB6C2"/>
<path d="M221.766 85.0088H206.705V91.2666H221.766V85.0088Z" fill="#AAB6C2"/>
<path d="M196.401 85.0088H181.34V91.2666H196.401V85.0088Z" fill="#AAB6C2"/>
<path d="M247.132 107.806H232.071V114.064H247.132V107.806Z" fill="#AAB6C2"/>
<path d="M196.401 107.806H181.34V114.064H196.401V107.806Z" fill="#AAB6C2"/>
<path d="M221.766 119.218H206.705V125.476H221.766V119.218Z" fill="#AAB6C2"/>
<path d="M247.132 130.617H232.071V136.875H247.132V130.617Z" fill="#AAB6C2"/>
<path d="M221.766 142.016H206.705V148.273H221.766V142.016Z" fill="#AAB6C2"/>
<path d="M247.132 153.414H232.071V159.672H247.132V153.414Z" fill="#AAB6C2"/>
<path d="M196.401 153.414H181.34V159.672H196.401V153.414Z" fill="#AAB6C2"/>
<path d="M247.132 174.489H232.071V180.747H247.132V174.489Z" fill="#AAB6C2"/>
<path d="M221.766 174.489H206.705V180.747H221.766V174.489Z" fill="#AAB6C2"/>
<path d="M247.132 197.287H232.071V203.544H247.132V197.287Z" fill="#AAB6C2"/>
<path d="M221.766 197.287H206.705V203.544H221.766V197.287Z" fill="#AAB6C2"/>
<path d="M196.401 197.287H181.34V203.544H196.401V197.287Z" fill="#AAB6C2"/>
<path d="M247.132 220.097H232.071V226.355H247.132V220.097Z" fill="#AAB6C2"/>
<path d="M196.401 220.097H181.34V226.355H196.401V220.097Z" fill="#AAB6C2"/>
<path d="M221.766 231.496H206.705V237.754H221.766V231.496Z" fill="#AAB6C2"/>
<path d="M196.401 231.496H181.34V237.754H196.401V231.496Z" fill="#AAB6C2"/>
<path d="M247.132 242.895H232.071V249.153H247.132V242.895Z" fill="#AAB6C2"/>
<path d="M221.766 254.294H206.705V260.551H221.766V254.294Z" fill="#AAB6C2"/>
<path d="M247.132 265.692H232.071V271.95H247.132V265.692Z" fill="#AAB6C2"/>
<path d="M196.401 265.692H181.34V271.95H196.401V265.692Z" fill="#AAB6C2"/>
<path d="M13.2652 137.628H6.97748V286H13.2652V137.628Z" fill="#AAB6C2"/>
<path d="M61.4438 144.734H51.9317V148.691H61.4438V144.734Z" fill="#AAB6C2"/>
<path d="M45.4425 144.734H35.9304V148.691H45.4425V144.734Z" fill="#AAB6C2"/>
<path d="M61.4438 159.134H51.9317V163.09H61.4438V159.134Z" fill="#AAB6C2"/>
<path d="M45.4425 159.134H35.9304V163.09H45.4425V159.134Z" fill="#AAB6C2"/>
<path d="M29.4277 159.134H19.9156V163.09H29.4277V159.134Z" fill="#AAB6C2"/>
<path d="M61.4438 173.52H51.9317V177.477H61.4438V173.52Z" fill="#AAB6C2"/>
<path d="M29.4277 173.52H19.9156V177.477H29.4277V173.52Z" fill="#AAB6C2"/>
<path d="M45.4425 180.72H35.9304V184.677H45.4425V180.72Z" fill="#AAB6C2"/>
<path d="M61.4438 187.92H51.9317V191.877H61.4438V187.92Z" fill="#AAB6C2"/>
<path d="M45.4425 195.106H35.9304V199.063H45.4425V195.106Z" fill="#AAB6C2"/>
<path d="M61.4438 202.306H51.9317V206.263H61.4438V202.306Z" fill="#AAB6C2"/>
<path d="M29.4277 202.306H19.9156V206.263H29.4277V202.306Z" fill="#AAB6C2"/>
<path d="M61.4438 215.603H51.9317V219.559H61.4438V215.603Z" fill="#AAB6C2"/>
<path d="M45.4425 215.603H35.9304V219.559H45.4425V215.603Z" fill="#AAB6C2"/>
<path d="M61.4438 230.002H51.9317V233.959H61.4438V230.002Z" fill="#AAB6C2"/>
<path d="M45.4425 230.002H35.9304V233.959H45.4425V230.002Z" fill="#AAB6C2"/>
<path d="M29.4277 230.002H19.9156V233.959H29.4277V230.002Z" fill="#AAB6C2"/>
<path d="M61.4438 244.402H51.9317V248.359H61.4438V244.402Z" fill="#AAB6C2"/>
<path d="M29.4277 244.402H19.9156V248.359H29.4277V244.402Z" fill="#AAB6C2"/>
<path d="M45.4425 251.589H35.9304V255.545H45.4425V251.589Z" fill="#AAB6C2"/>
<path d="M29.4277 251.589H19.9156V255.545H29.4277V251.589Z" fill="#AAB6C2"/>
<path d="M61.4438 258.788H51.9317V262.745H61.4438V258.788Z" fill="#AAB6C2"/>
<path d="M45.4425 265.988H35.9304V269.945H45.4425V265.988Z" fill="#AAB6C2"/>
<path d="M61.4438 273.188H51.9317V277.145H61.4438V273.188Z" fill="#AAB6C2"/>
<path d="M29.4277 273.188H19.9156V277.145H29.4277V273.188Z" fill="#AAB6C2"/>
<path opacity="0.35" d="M226.845 -21.1729H-31.1785V273.511H226.845V-21.1729Z" fill="white" fill-opacity="0.94"/>
<path opacity="0.5" d="M57.6551 268.195H37.6232L144.984 -17.7949H165.002L57.6551 268.195Z" fill="white" fill-opacity="0.94"/>
<path opacity="0.5" d="M22.2936 268.195H12.2844L119.632 -17.7949H129.641L22.2936 268.195Z" fill="white" fill-opacity="0.94"/>
<path opacity="0.5" d="M141.854 268.195H131.844L223.876 12.9156V33.4791L141.854 268.195Z" fill="white" fill-opacity="0.94"/>
<path opacity="0.35" d="M486.225 -27H228.202V267.684H486.225V-27Z" fill="white" fill-opacity="0.94"/>
<path opacity="0.5" d="M270.885 268.195H250.853L358.201 -17.7949H378.233L270.885 268.195Z" fill="white" fill-opacity="0.94"/>
<path opacity="0.5" d="M235.524 268.195H225.501L332.862 -17.7949H342.871L235.524 268.195Z" fill="white" fill-opacity="0.94"/>
<path d="M496.987 31.9852V28.5938H487.716V-24.5642H-33.9999V-17.8353H-28.384V-15.4533H138.011V28.5938H-33.9596V31.9583H138.011V118.532H-33.9596V121.896H138.011V208.443H-33.9596V211.807H138.011V268.142H-28.3303V270.093H-33.9999V277.898H487.716V277.266V211.807H496.987V208.443H487.716V121.896H496.987V118.532H487.716V31.9852H496.987ZM229.693 121.896H310.062V208.443H229.693V121.896ZM229.693 118.532V31.9852H310.062V118.532H229.693ZM229.693 28.6208V-15.4129H310.062V28.5938L229.693 28.6208ZM229.693 211.807H310.062V268.142H229.72V270.093L229.693 211.807ZM315.678 268.195V211.807H396.034V268.142L315.678 268.195ZM315.678 208.443V121.896H396.034V208.443H315.678ZM315.678 118.532V31.9852H396.034V118.532H315.678ZM315.678 28.6208V-15.4129H396.034V28.5938L315.678 28.6208ZM401.664 -15.4129H482.02V28.5938H401.717L401.664 -15.4129ZM143.6 -15.4129H223.97V28.5938H143.654L143.6 -15.4129ZM143.6 31.9852H223.97V118.532H143.654L143.6 31.9852ZM143.6 121.896H223.97V208.443H143.654L143.6 121.896ZM143.6 211.807H223.97V270.147V268.142H143.627L143.6 211.807ZM482.02 270.147V268.142H401.717V211.754H482.074L482.02 270.147ZM482.02 208.443H401.717V121.896H482.074L482.02 208.443ZM482.02 118.532H401.717V31.9852H482.074L482.02 118.532Z" fill="white" fill-opacity="0.94"/>
</g>
<path d="M55.2367 73.933C47.9672 76.6462 39.9544 76.581 32.7298 73.75C25.5051 70.919 19.5752 65.5206 16.0734 58.5865C12.5715 51.6525 11.7432 43.669 13.7468 36.1619C15.7504 28.6547 20.4454 22.1503 26.9345 17.8917C33.4236 13.6331 41.2517 11.919 48.9229 13.0768C56.5941 14.2347 63.5704 18.1834 68.5185 24.1684C73.4666 30.1533 76.0396 37.7547 75.7457 45.5199C75.4518 53.2851 72.3116 60.6696 66.9254 66.2621L71.5739 83.9455L55.2367 73.933Z" fill="white" fill-opacity="0.94"/>
<path d="M44.2467 13.0772C50.383 13.085 56.3807 14.9046 61.4902 18.3083C66.5996 21.7121 70.594 26.5491 72.9739 32.2144C75.3539 37.8798 76.0137 44.1223 74.871 50.1613C73.7283 56.2003 70.8337 61.7678 66.5492 66.1679L71.05 83.2996L55.2636 73.5966C50.9886 75.1909 46.4167 75.827 41.8697 75.4604C37.3227 75.0937 32.9113 73.733 28.946 71.4742C24.9807 69.2154 21.5579 66.1134 18.9186 62.3865C16.2793 58.6596 14.4877 54.3986 13.6699 49.9033C12.8522 45.408 13.0281 40.7878 14.1853 36.3679C15.3426 31.9481 17.453 27.8361 20.3681 24.3214C23.2831 20.8068 26.9318 17.9749 31.0574 16.0252C35.183 14.0756 39.6851 13.0555 44.2467 13.0368V13.0772ZM44.2467 12.485C39.5969 12.4833 35.0032 13.5025 30.7891 15.4709C26.5749 17.4393 22.8428 20.309 19.8553 23.8781C16.8678 27.4472 14.6977 31.6289 13.4977 36.1287C12.2978 40.6286 12.0971 45.3372 12.9098 49.9231C13.7225 54.509 15.5289 58.8607 18.2018 62.6719C20.8747 66.4831 24.3491 69.661 28.3805 71.982C32.4118 74.3031 36.902 75.7107 41.5351 76.1059C46.1681 76.5011 50.8313 75.8743 55.1964 74.2695L70.7813 83.7707L72.1248 84.5647L71.7486 83.1112L67.315 66.3025C71.6211 61.7872 74.5074 56.1038 75.615 49.9587C76.7226 43.8137 76.0027 37.478 73.5448 31.7395C71.0868 26.0009 66.9993 21.1125 61.7903 17.6821C56.5814 14.2516 50.4807 12.4303 44.2467 12.4447V12.485Z" fill="black"/>
<path d="M13.9772 44.3529L11.0349 48.3902L14.8505 51.6066L12.9561 56.2361L17.4434 58.4432L16.7179 63.3956L21.5949 64.4588L22.0652 69.4381L27.0631 69.3036L28.7022 74.0272L33.512 72.7084L36.2393 76.8937L40.6058 74.4579L44.2467 77.8627L47.9011 74.4579L52.2675 76.8937L54.9949 72.7084L59.8047 74.0272L61.4572 69.3036L66.4417 69.4381L66.9119 64.4588L71.7889 63.3822L71.0634 58.4432L75.5508 56.2361L73.6564 51.6066L77.472 48.3902L74.5297 44.3529L77.472 40.3021L73.6564 37.0858L75.5508 32.4563L71.0634 30.2492L71.7889 25.3102L66.9119 24.2336L66.4417 19.2543L61.4438 19.3888L59.8047 14.6652L54.9949 15.984L52.2675 11.7987L47.9011 14.2345L44.2467 10.8297L40.5923 14.2345L36.2393 11.7987L33.512 15.984L28.7022 14.6652L27.0496 19.3888L22.0652 19.2677L21.5949 24.2471L16.7179 25.3102L17.4434 30.2492L12.9561 32.4563L14.8505 37.0858L11.0349 40.3021L13.9772 44.3529Z" fill="white" fill-opacity="0.94"/>
<path d="M44.2467 80.6214L40.2968 76.934L35.581 79.6256L32.6252 75.0903L27.4124 76.5168L25.6389 71.4029L20.2648 71.5375L19.7543 66.1544L14.4474 64.9297L15.2266 59.5466L10.3765 57.2184L12.4321 52.2122L8.29407 48.7804L11.4648 44.3529L8.29407 39.9791L12.4321 36.4935L10.3765 31.4873L15.2266 29.0918L14.4474 23.7087L19.714 22.5513L20.2245 17.1682L25.5986 17.3028L27.3855 12.2023L32.6252 13.6558L35.6482 9.1205L40.3639 11.8121L44.2467 8.0708L48.1967 11.7582L52.9124 9.06667L55.8682 13.6019L61.081 12.162L62.8679 17.2759L68.242 17.1413L68.7525 22.5244L74.0326 23.6818L73.2399 29.0649L78.09 31.4469L76.0479 36.4666L80.1725 39.9522L76.9883 44.3259L80.1993 48.7804L76.0747 52.266L78.1169 57.2857L73.2668 59.5466L74.0594 64.9297L68.7794 66.0871L68.2689 71.4702L62.8948 71.3356L61.1213 76.4496L55.895 75.023L52.9393 79.5583L48.2235 76.8667L44.2467 80.6214ZM40.9013 71.9681L44.2467 75.1038L47.6055 71.9681L51.6361 74.2156L54.1485 70.3801L58.488 71.6586L60.0062 67.3117L64.5876 67.4329L65.0176 62.8707L69.4915 61.8883L68.8197 57.3396L72.9309 55.3209L71.1977 51.0817L74.7043 48.121L72.0173 44.4201L74.7043 40.7058L71.1977 37.7451L72.9309 33.5059L68.8197 31.4873L69.4915 26.9385L65.0444 25.9023L64.6011 21.3267L60.0196 21.4478L58.488 17.1144L54.0678 18.3256L51.5689 14.4767L47.5383 16.7241L44.2467 13.5885L40.8879 16.7241L36.8573 14.4767L34.3584 18.3256L29.9382 17.1144L28.4335 21.4478L23.852 21.3267L23.449 25.9023L18.9751 26.8713L19.6468 31.42L15.4953 33.4386L17.2285 37.6778L13.7622 40.7058L16.4492 44.4201L13.7622 48.121L17.2688 51.0817L15.4953 55.2536L19.6065 57.2857L18.9348 61.821L23.4221 62.8034L23.852 67.3656L28.4335 67.2579L29.9785 71.6586L34.3987 70.4474L36.8976 74.2829L40.9013 71.9681Z" fill="#11A97D"/>
<path d="M22.9653 52.3602V35.3228H26.2435L33.1895 46.6676V35.3228H36.3737V52.3602H32.9611L26.1226 41.2711V52.3602H22.9653Z" fill="white" fill-opacity="0.94"/>
<path d="M40.0684 52.3602V35.3228H51.7704V38.2027H43.5749V42.24H50.6553V45.1065H43.5078V52.3333L40.0684 52.3602Z" fill="white" fill-opacity="0.94"/>
<path d="M58.3537 52.3602V38.2431H53.3155V35.3228H66.7507V38.2027H61.7796V52.3602H58.3537Z" fill="white" fill-opacity="0.94"/>
<path d="M248.704 84.4569C242.739 78.8988 241.301 68.5768 245.775 59.2506C250.249 49.9243 259.062 44.6489 267.07 45.7928L267.379 45.1469L271.49 47.1251C280.424 51.4047 283.38 63.8262 278.1 74.8481C272.82 85.87 261.306 91.3203 252.385 86.96L248.354 85.1567L248.704 84.4569Z" fill="black"/>
<path d="M241.65 57.2723C236.37 68.2942 239.434 80.8772 248.368 85.1702C257.302 89.4632 268.709 83.8244 273.989 72.816C279.269 61.8076 276.313 49.3726 267.379 45.0931C258.444 40.8135 246.93 46.2504 241.65 57.2723Z" fill="#11A97D"/>
<path d="M244.539 58.6719C240.199 67.7155 242.712 78.051 250.047 81.55C257.383 85.049 266.761 80.46 271.1 71.4029C275.44 62.3458 272.995 52.1583 265.726 48.6324C258.458 45.1065 248.878 49.6148 244.539 58.6719Z" fill="#11A97D"/>
<path d="M252.291 82.5863C251.49 82.3822 250.711 82.0981 249.967 81.7385C248.125 80.8034 246.517 79.463 245.266 77.8177C244.014 76.1723 243.15 74.2645 242.739 72.2373C241.777 67.6422 242.348 62.8578 244.365 58.6198C246.382 54.3818 249.734 50.9248 253.903 48.7805C255.728 47.8384 257.743 47.3236 259.796 47.2746C261.848 47.2256 263.885 47.6439 265.753 48.4979C273.156 52.0642 275.628 62.3862 271.262 71.5106C269.3 75.7788 265.958 79.2592 261.776 81.3886C258.855 82.8982 255.495 83.3225 252.291 82.5863ZM244.7 58.7527C242.635 62.92 242.07 67.674 243.101 72.2104C243.501 74.184 244.341 76.0416 245.558 77.6448C246.774 79.248 248.337 80.5553 250.128 81.4693C251.943 82.2923 253.922 82.6875 255.914 82.6245C257.905 82.5615 259.855 82.042 261.615 81.1059C265.723 79.017 269.004 75.5972 270.926 71.4029C275.212 62.467 272.82 52.3602 265.552 48.8881C263.734 48.0581 261.752 47.6523 259.755 47.7012C257.759 47.7502 255.799 48.2526 254.024 49.1707C249.88 51.2088 246.56 54.6103 244.62 58.8065L244.7 58.7527Z" fill="black"/>
<path d="M244.687 69.8957L247.468 58.8065H249.268L251.082 66.2083L252.936 58.8065H254.642L251.874 69.8957H250.061L248.247 62.6689L246.447 69.8957H244.687Z" fill="#11A97D"/>
<path d="M253.729 69.8957L256.51 58.8065H262.703L262.233 60.6771H257.893L257.249 63.3014H260.984L260.513 65.1855H256.778L255.596 69.8957H253.729Z" fill="#11A97D"/>
<path d="M263.388 69.8957L265.699 60.6771H263.012L263.483 58.8065H270.617L270.146 60.6771H267.459L265.162 69.8957H263.388Z" fill="#11A97D"/>
<path d="M182.784 19.85L125.391 27.6535C122.847 27.9994 121.065 30.3456 121.41 32.8938L126.687 71.8333C127.032 74.3816 129.374 76.167 131.918 75.8211L189.311 68.0176C191.855 67.6717 193.637 65.3255 193.292 62.7772L188.015 23.8378C187.67 21.2895 185.328 19.5041 182.784 19.85Z" fill="white" fill-opacity="0.94"/>
<path d="M131.293 76.342C130.06 76.3373 128.87 75.8868 127.942 75.0734C127.014 74.2599 126.41 73.1381 126.242 71.9144L120.962 32.9677C120.793 31.6309 121.157 30.2814 121.974 29.2111C122.791 28.1407 123.996 27.4356 125.328 27.2482L182.737 19.4561C184.076 19.2798 185.43 19.6405 186.504 20.4597C187.579 21.279 188.287 22.4903 188.474 23.8299L193.754 62.7766C193.933 64.1218 193.573 65.4836 192.752 66.5633C191.931 67.643 190.716 68.3525 189.374 68.5365L131.979 76.2881C131.751 76.3194 131.523 76.3374 131.293 76.342ZM183.436 20.2771H182.871L125.476 28.0825C124.93 28.1553 124.404 28.3355 123.928 28.6126C123.452 28.8897 123.035 29.2584 122.702 29.6973C122.369 30.1363 122.125 30.6369 121.986 31.1705C121.846 31.704 121.813 32.2599 121.889 32.8062L127.142 71.7933C127.292 72.8959 127.873 73.8937 128.757 74.5675C129.642 75.2412 130.757 75.5358 131.858 75.3865L189.253 67.6214C189.802 67.5471 190.331 67.3646 190.809 67.0843C191.287 66.8041 191.705 66.4317 192.038 65.9887C192.372 65.5457 192.615 65.0409 192.752 64.5034C192.89 63.9659 192.92 63.4064 192.84 62.8573L187.574 23.9106C187.432 22.9092 186.937 21.9917 186.177 21.325C185.418 20.6582 184.445 20.2864 183.436 20.2771Z" fill="black"/>
<path d="M179.271 59.7889L139.583 65.3873C139.143 65.4518 138.695 65.4283 138.265 65.3181C137.834 65.2079 137.43 65.0133 137.075 64.7454C136.72 64.4775 136.422 64.1418 136.197 63.7576C135.973 63.3734 135.827 62.9485 135.767 62.5073L132.57 39.7234C132.507 39.284 132.532 38.8366 132.643 38.4069C132.754 37.9772 132.949 37.5737 133.216 37.2197C133.483 36.8657 133.818 36.5681 134.2 36.3442C134.583 36.1202 135.006 35.9743 135.445 35.9149L175.133 30.3164C175.572 30.2538 176.019 30.2786 176.449 30.3895C176.879 30.5005 177.283 30.6953 177.637 30.9629C177.992 31.2304 178.29 31.5655 178.515 31.9487C178.74 32.332 178.887 32.756 178.948 33.1964L182.092 55.9669C182.219 56.8478 181.994 57.7434 181.466 58.4591C180.938 59.1748 180.149 59.6527 179.271 59.7889Z" fill="#11A97D"/>
<path d="M153.193 40.9615L167.233 46.6407L155.302 55.9804L153.193 40.9615Z" fill="white" fill-opacity="0.94"/>
<path d="M153.529 41.4056L166.668 46.7214L155.504 55.5093L153.529 41.4595V41.4056ZM152.844 40.5309L155.087 56.4918L167.77 46.5599L152.844 40.5309Z" fill="black"/>
<path d="M202.339 182.295L205.631 174.772C205.783 174.427 206.034 174.135 206.352 173.934C206.67 173.732 207.041 173.631 207.417 173.641H244.512C244.92 173.652 245.319 173.76 245.677 173.956C246.035 174.153 246.34 174.433 246.568 174.772L251.686 182.268C252.28 183.136 252.662 184.132 252.802 185.175L264.047 276.458C264.116 276.855 264.095 277.262 263.985 277.65C263.876 278.037 263.682 278.395 263.416 278.697C263.151 278.999 262.821 279.238 262.451 279.396C262.081 279.553 261.681 279.626 261.279 279.608H148.289C147.422 279.59 146.59 279.263 145.942 278.686C145.295 278.109 144.874 277.319 144.756 276.458L133.725 186.776C133.657 186.379 133.677 185.972 133.787 185.585C133.896 185.198 134.09 184.84 134.356 184.537C134.621 184.235 134.951 183.997 135.321 183.839C135.691 183.681 136.091 183.609 136.493 183.627H200.23C200.673 183.637 201.109 183.516 201.485 183.279C201.86 183.042 202.157 182.7 202.339 182.295Z" fill="black"/>
<path d="M247.441 204.11L202.245 184.313C200.243 183.431 198.671 181.79 197.875 179.749C197.08 177.708 197.124 175.434 197.999 173.426L218.676 126.082C219.109 125.088 219.734 124.189 220.514 123.438C221.295 122.686 222.215 122.096 223.224 121.701C224.232 121.306 225.308 121.114 226.39 121.136C227.473 121.158 228.54 121.393 229.532 121.829L274.795 141.639C276.797 142.521 278.369 144.163 279.164 146.203C279.96 148.244 279.916 150.518 279.041 152.526L258.364 199.87C257.928 200.87 257.299 201.774 256.513 202.529C255.727 203.284 254.799 203.875 253.784 204.269C252.768 204.663 251.685 204.852 250.596 204.825C249.508 204.797 248.435 204.554 247.441 204.11Z" fill="white" fill-opacity="0.94"/>
<path d="M250.733 205.348C249.525 205.346 248.331 205.094 247.226 204.608L202.043 184.811C200.985 184.348 200.028 183.68 199.228 182.846C198.428 182.012 197.799 181.029 197.379 179.951C196.958 178.874 196.754 177.724 196.777 176.567C196.801 175.411 197.052 174.27 197.516 173.211L218.179 125.866C218.642 124.805 219.309 123.845 220.142 123.041C220.975 122.238 221.958 121.607 223.035 121.185C224.112 120.762 225.261 120.557 226.418 120.579C227.574 120.602 228.714 120.853 229.774 121.318L274.943 141.114C276.001 141.577 276.958 142.245 277.758 143.079C278.559 143.913 279.187 144.897 279.607 145.974C280.028 147.052 280.232 148.201 280.209 149.358C280.185 150.515 279.934 151.655 279.47 152.715L258.807 200.059C258.119 201.63 256.989 202.967 255.555 203.906C254.121 204.845 252.446 205.346 250.733 205.348ZM247.656 203.544C249.527 204.362 251.645 204.404 253.547 203.659C255.448 202.915 256.978 201.446 257.799 199.574L278.476 152.217C279.285 150.334 279.315 148.206 278.559 146.301C277.803 144.396 276.324 142.87 274.446 142.056L229.276 122.273C228.35 121.866 227.353 121.646 226.342 121.626C225.331 121.605 224.326 121.784 223.384 122.153C222.442 122.522 221.581 123.073 220.852 123.775C220.123 124.476 219.538 125.315 219.133 126.243L198.456 173.601C197.647 175.484 197.618 177.611 198.373 179.516C199.129 181.421 200.608 182.948 202.487 183.762L247.656 203.544Z" fill="black"/>
<path d="M253.809 144.33C253.542 144.189 253.248 144.104 252.946 144.082C252.644 144.06 252.341 144.101 252.055 144.202C251.77 144.303 251.509 144.463 251.288 144.67C251.067 144.877 250.892 145.128 250.773 145.407L247.36 153.226L238.05 174.557C235.954 172.134 231.332 170.264 225.958 169.941C218.367 169.483 215.586 171.448 215.344 175.324C215.102 179.199 217.534 183.331 225.125 183.789C232.34 184.219 238.412 181.797 239.205 178.298L249.953 153.522C255.408 154.316 257.934 156.954 256.563 160.251C255.005 164.1 257.84 164.369 257.84 164.369C267.271 153.32 258.243 146.699 253.809 144.33Z" fill="black"/>
<path d="M124.455 170.331C133.766 170.519 146.475 149.189 145.951 137.709L141.921 134.896C141.921 134.896 133.416 151.894 125.798 151.88C123.326 151.88 102.959 135.731 94.8975 134.533C70.835 130.873 108.48 170.008 124.455 170.331Z" fill="white" fill-opacity="0.94"/>
<path d="M124.576 170.667H124.455C113.962 170.465 93.4196 153.28 88.0455 142.231C86.5945 139.27 86.3795 137.05 87.4275 135.623C88.4754 134.197 91.0953 133.605 94.9781 134.197C100.03 134.977 109.757 141.45 116.891 146.174C121.042 148.866 124.952 151.557 125.825 151.557C133.107 151.557 141.504 134.923 141.585 134.762L141.759 134.412L146.314 137.534V137.709C146.677 145.461 140.94 158.205 133.819 165.54C130.514 168.891 127.33 170.667 124.576 170.667ZM91.9686 134.614C89.9533 134.614 88.5963 135.085 87.938 135.96C87.0647 137.157 87.3066 139.203 88.6232 141.881C93.9973 152.782 114.15 169.739 124.495 169.94C127.088 170.021 130.138 168.285 133.336 165.001C140.308 157.842 145.911 145.447 145.642 137.83L142.001 135.341C140.658 137.817 132.986 152.163 125.879 152.163C124.871 152.163 121.996 150.279 116.568 146.685C109.394 142.043 99.7207 135.61 94.7631 134.91C93.8401 134.743 92.9061 134.644 91.9686 134.614Z" fill="black"/>
<path d="M80.8442 131.411C80.8442 131.411 75.6045 158.219 90.4235 160.251L107.715 166.684C107.715 166.684 114.217 149.189 112.054 141.195C100.943 133.564 90.9341 127.226 80.8442 131.411Z" fill="#AAB6C2"/>
<path d="M103.2 165.015C94.2123 163.171 86.3392 140.293 86.3392 140.293C86.3392 140.293 92.6269 132.784 96.7247 133.214C107.097 134.318 107.016 157.613 103.2 165.015Z" fill="black"/>
<path d="M125.463 263.203L124.24 274.09H120.908L119.323 262.449L125.463 263.203Z" fill="white" fill-opacity="0.94"/>
<path d="M124.536 274.426H120.612L118.947 262.072L125.852 262.907L124.536 274.426ZM121.204 273.753H123.891L125.046 263.499L119.672 262.839L121.204 273.753Z" fill="black"/>
<path d="M124.63 271.816C124.63 271.816 139.086 271.816 141.907 279.19H118.328C118.328 279.19 116.407 274.009 120.505 272.031C121.12 272.456 121.858 272.665 122.604 272.626C123.35 272.587 124.062 272.302 124.63 271.816Z" fill="black"/>
<path d="M126.672 274.965C126.672 275.113 126.927 275.113 126.914 274.965C126.879 274.414 126.984 273.864 127.219 273.365C127.454 272.866 127.811 272.435 128.257 272.112C128.669 272.199 129.086 272.253 129.507 272.273C129.124 272.605 128.822 273.02 128.624 273.486C128.426 273.953 128.337 274.458 128.365 274.965C128.365 275.126 128.62 275.126 128.606 274.965C128.578 274.47 128.667 273.976 128.866 273.522C129.064 273.069 129.367 272.668 129.748 272.354C129.762 272.339 129.769 272.32 129.769 272.3C129.769 272.28 129.762 272.261 129.748 272.246C130.234 272.233 130.704 272.068 131.092 271.775C131.401 271.556 131.637 271.249 131.768 270.894C131.9 270.538 131.922 270.151 131.831 269.783C132.016 269.395 132.08 268.959 132.013 268.534C131.945 268.108 131.751 267.714 131.455 267.401C129.439 265.908 127.424 270.51 127.76 271.964C127.76 271.964 127.76 271.964 127.854 272.044C127.439 272.402 127.116 272.853 126.91 273.361C126.704 273.869 126.623 274.419 126.672 274.965ZM131.831 269.487C131.267 268.841 130.125 269.111 129.533 269.555C128.848 270.032 128.345 270.73 128.109 271.533C128.149 270.593 128.451 269.684 128.983 268.909C129.493 267.98 131.199 266.217 131.831 268.182C131.986 268.603 131.986 269.066 131.831 269.487ZM129.318 270.066C129.669 269.678 130.145 269.426 130.662 269.353C130.845 269.325 131.033 269.347 131.205 269.415C131.377 269.484 131.528 269.597 131.643 269.743C130.784 270.747 129.633 271.458 128.351 271.775C128.47 271.115 128.811 270.517 129.318 270.079V270.066ZM128.795 271.869C129.969 271.615 131.029 270.987 131.817 270.079C131.817 270.079 131.817 270.079 131.817 270.16C131.787 270.566 131.627 270.952 131.36 271.259C131.094 271.567 130.736 271.781 130.34 271.869C129.831 271.98 129.305 271.984 128.795 271.883V271.869Z" fill="#11A97D"/>
<path d="M118.248 277.818H141.262C141.362 277.835 141.452 277.888 141.516 277.965C141.581 278.043 141.617 278.14 141.617 278.242C141.617 278.343 141.581 278.44 141.516 278.518C141.452 278.595 141.362 278.648 141.262 278.665H118.248C118.149 278.648 118.059 278.595 117.994 278.518C117.929 278.44 117.894 278.343 117.894 278.242C117.894 278.14 117.929 278.043 117.994 277.965C118.059 277.888 118.149 277.835 118.248 277.818Z" fill="#11A97D"/>
<path d="M16.9195 267.051L6.01007 266.177L5.90259 262.853L17.4569 260.874L16.9195 267.051Z" fill="white" fill-opacity="0.94"/>
<path d="M17.2151 267.401L5.68764 266.486L5.55328 262.57L17.8196 260.471L17.2151 267.401ZM6.33253 265.867L16.6105 266.688L17.0807 261.305L6.25191 263.162L6.33253 265.867Z" fill="black"/>
<path d="M1.33466 279.19H12.0828C11.7044 277.947 11.0102 276.823 10.0682 275.929C9.12617 275.035 7.96861 274.401 6.70874 274.09C2.51695 273.242 1.33466 279.19 1.33466 279.19Z" fill="black"/>
<path d="M8.29407 266.5C8.29407 266.5 8.53591 273.861 6.03696 279.19H1.33463L0.716614 260.444C0.716614 260.444 5.83543 258.344 7.93132 262.368C7.53131 263.002 7.35013 263.749 7.41568 264.495C7.48122 265.242 7.78985 265.946 8.29407 266.5Z" fill="black"/>
<path d="M5.21741 268.64C5.18534 268.64 5.15459 268.652 5.13191 268.675C5.10924 268.698 5.0965 268.729 5.0965 268.761C5.0965 268.793 5.10924 268.824 5.13191 268.846C5.15459 268.869 5.18534 268.882 5.21741 268.882C5.76194 268.829 6.31091 268.915 6.81348 269.132C7.31606 269.348 7.75599 269.688 8.09255 270.12C8.01902 270.529 7.97858 270.943 7.97163 271.358C7.62741 270.997 7.20847 270.716 6.74426 270.535C6.28005 270.353 5.78182 270.276 5.28459 270.308C5.12337 270.308 5.1368 270.577 5.28459 270.564C5.78393 270.507 6.28964 270.573 6.75787 270.756C7.22611 270.938 7.64273 271.233 7.97163 271.614C7.9874 271.625 8.00616 271.631 8.02537 271.631C8.04459 271.631 8.06334 271.625 8.07911 271.614C8.11716 272.104 8.2995 272.573 8.60309 272.959C8.83357 273.257 9.14649 273.479 9.5026 273.599C9.85872 273.718 10.2422 273.73 10.6049 273.632C11.0023 273.804 11.4424 273.852 11.8671 273.767C12.2918 273.683 12.6809 273.472 12.983 273.161C14.3265 271.102 9.74508 269.205 8.30751 269.622C8.30751 269.622 8.24034 269.622 8.2269 269.716C7.8483 269.308 7.37721 268.997 6.85341 268.81C6.32961 268.622 5.76848 268.564 5.21741 268.64ZM10.8468 273.632C11.4648 273.04 11.1558 271.91 10.6855 271.331C10.1899 270.662 9.47747 270.186 8.67026 269.985C9.62165 269.985 10.5535 270.256 11.3573 270.766C12.3112 271.25 14.0443 272.906 12.1769 273.605C11.7518 273.778 11.2784 273.787 10.8468 273.632ZM10.1213 271.143C10.5284 271.484 10.7961 271.963 10.8736 272.488C10.9081 272.673 10.894 272.863 10.8328 273.04C10.7715 273.217 10.6652 273.375 10.5243 273.498C9.43607 272.919 8.83149 271.277 8.38812 270.174C9.06007 270.287 9.67232 270.629 10.1213 271.143ZM8.30751 270.672C8.59027 271.843 9.25734 272.886 10.2019 273.632H10.1078C9.70806 273.597 9.32907 273.439 9.02336 273.178C8.71766 272.918 8.50035 272.569 8.40156 272.179C8.29375 271.683 8.28008 271.172 8.36125 270.672H8.30751Z" fill="#11A97D"/>
<path d="M2.06011 260.309L2.63782 277.804C2.63782 277.918 2.59253 278.028 2.5119 278.109C2.43127 278.19 2.32192 278.235 2.2079 278.235C2.09387 278.235 1.98452 278.19 1.90389 278.109C1.82327 278.028 1.77797 277.918 1.77797 277.804L1.20026 260.309C1.20026 260.195 1.24555 260.085 1.32618 260.005C1.40681 259.924 1.51616 259.879 1.63018 259.879C1.74421 259.879 1.85356 259.924 1.93419 260.005C2.01481 260.085 2.06011 260.195 2.06011 260.309Z" fill="#11A97D"/>
<path d="M11.0483 278.396H2.34226C2.19851 278.393 2.06183 278.333 1.96142 278.23C1.861 278.127 1.80481 277.989 1.80486 277.845C1.80306 277.773 1.81564 277.701 1.84184 277.634C1.86805 277.568 1.90735 277.507 1.95743 277.455C2.00751 277.404 2.06736 277.363 2.13346 277.335C2.19955 277.307 2.27055 277.293 2.34226 277.293H11.0483C11.1944 277.293 11.3345 277.351 11.4378 277.454C11.5411 277.558 11.5991 277.698 11.5991 277.845C11.5991 277.991 11.5411 278.131 11.4378 278.235C11.3345 278.338 11.1944 278.396 11.0483 278.396Z" fill="#11A97D"/>
<path d="M125.463 267.051L118.745 266.836C118.745 266.836 118.369 224.875 109.072 218.536C103.268 214.62 69.8811 227.768 65.6893 225.077C60.0465 221.551 63.5262 187.489 76.9212 189.037C86.5945 190.154 104.665 185 127.008 199.373C140.725 208.174 131.965 257.375 125.463 267.051Z" fill="black"/>
<path d="M85.0226 221.78C85.0226 221.78 106.398 215.428 109.031 218.536C111.665 221.645 117.67 230.796 118.127 253.715C118.127 253.715 129.52 224.108 110.805 211.74C92.0895 199.372 75.7791 206.236 75.7791 206.236L85.0226 221.78Z" fill="black"/>
<path d="M73.7505 263.445C59.1195 270.631 27.6945 271.385 13.7219 267.98C13.2748 265.157 13.0234 262.306 12.9695 259.448C20.1036 259.865 51.9317 254.065 58.0581 245.183C60.9736 240.997 39.0204 209.156 46.4367 188.849C47.3503 186.359 78.9096 186.386 76.4778 193.936C76.4778 193.936 96.4157 252.288 73.7505 263.445Z" fill="black"/>
<path d="M104.047 188.835C104.047 188.835 83.894 208.093 43.4272 200.853C43.4272 200.853 52.281 123.861 89.7115 129.002C117.079 132.77 91.1222 163.171 104.047 188.835Z" fill="#AAB6C2"/>
<path d="M62.7336 147.345C61.4673 155.677 61.4673 164.152 62.7336 172.484C62.7336 172.484 82.1474 177.235 79.9441 170.506C79.7157 169.792 75.6851 154.747 75.6851 154.747L62.7336 147.345Z" fill="black"/>
<path d="M95.7976 130.94C95.7976 130.94 97.6651 134.493 94.0511 134.654C89.7652 134.856 87.3335 131.963 85.4391 128.773C86.0387 127.718 86.4054 126.546 86.5143 125.336C86.6233 124.127 86.4719 122.908 86.0705 121.762L94.0376 123.7C93.757 124.961 93.7698 126.27 94.075 127.525C94.3802 128.781 94.9696 129.949 95.7976 130.94Z" fill="white" fill-opacity="0.94"/>
<path d="M93.6346 135.004C89.389 135.004 86.9169 131.949 85.1569 128.948L85.036 128.76L85.1704 128.571C85.7327 127.553 86.0748 126.428 86.1743 125.269C86.2739 124.109 86.1286 122.942 85.7481 121.843L85.5869 121.291L94.4675 123.444L94.3466 123.794C94.1009 125.009 94.1315 126.265 94.4362 127.467C94.7409 128.669 95.3118 129.787 96.1066 130.738C96.37 131.207 96.5291 131.728 96.5731 132.265C96.6172 132.801 96.5451 133.341 96.3619 133.847C96.1102 134.214 95.767 134.509 95.3664 134.703C94.9658 134.896 94.5216 134.982 94.0779 134.95L93.6346 135.004ZM85.8421 128.773C87.6693 131.788 89.8727 134.479 94.0376 134.318C94.3647 134.35 94.6945 134.298 94.9956 134.166C95.2967 134.034 95.5589 133.827 95.7573 133.564C95.8898 133.163 95.9356 132.739 95.8916 132.319C95.8476 131.899 95.7148 131.493 95.5021 131.128C94.6998 130.137 94.1172 128.986 93.7929 127.751C93.4686 126.517 93.4101 125.228 93.6211 123.969L86.5408 122.233C87.1466 124.423 86.8967 126.761 85.8421 128.773Z" fill="black"/>
<path d="M193.23 179.32L142.767 196.143C141.634 196.514 140.4 196.423 139.333 195.889C138.267 195.355 137.454 194.421 137.071 193.29L120.29 142.702C120.101 142.14 120.024 141.546 120.065 140.955C120.106 140.363 120.264 139.785 120.528 139.255C120.793 138.725 121.16 138.252 121.608 137.864C122.056 137.477 122.576 137.181 123.138 136.996L173.601 120.174C174.736 119.799 175.973 119.89 177.041 120.428C178.109 120.965 178.92 121.904 179.297 123.04L196.078 173.574C196.273 174.138 196.355 174.736 196.317 175.332C196.279 175.928 196.123 176.511 195.858 177.046C195.593 177.581 195.224 178.058 194.772 178.448C194.321 178.839 193.797 179.135 193.23 179.32Z" fill="white" fill-opacity="0.94"/>
<path d="M141.343 196.667C140.592 196.665 139.853 196.49 139.18 196.156C138.032 195.582 137.157 194.575 136.748 193.357L119.968 142.81C119.561 141.596 119.649 140.27 120.212 139.121C120.776 137.972 121.769 137.092 122.977 136.673L173.44 119.851C174.66 119.45 175.989 119.549 177.137 120.127C178.285 120.704 179.158 121.713 179.566 122.933L196.347 173.48C196.751 174.699 196.655 176.028 196.081 177.177C195.506 178.325 194.5 179.198 193.284 179.603L142.821 196.425C142.343 196.58 141.845 196.662 141.343 196.667ZM175.012 120.281C174.555 120.276 174.101 120.349 173.668 120.497L123.246 137.319C122.723 137.488 122.239 137.759 121.822 138.116C121.404 138.473 121.06 138.909 120.811 139.399C120.561 139.889 120.41 140.423 120.367 140.971C120.324 141.52 120.389 142.071 120.559 142.594L137.353 193.142C137.52 193.666 137.79 194.152 138.146 194.571C138.502 194.991 138.937 195.336 139.427 195.586C139.916 195.836 140.45 195.987 140.998 196.029C141.546 196.072 142.097 196.005 142.619 195.833L193.082 179.024C193.606 178.855 194.091 178.584 194.51 178.226C194.929 177.868 195.273 177.431 195.523 176.939C195.773 176.448 195.923 175.912 195.965 175.362C196.007 174.812 195.941 174.259 195.769 173.736L178.975 123.188C178.705 122.347 178.177 121.612 177.465 121.09C176.753 120.568 175.894 120.285 175.012 120.281Z" fill="black"/>
<path d="M188.689 176.145L144.473 190.867C143.615 191.153 142.678 191.085 141.869 190.678C141.061 190.272 140.446 189.561 140.161 188.701L125.516 144.465C125.231 143.603 125.299 142.663 125.704 141.851C126.109 141.038 126.82 140.42 127.679 140.132L171.841 125.49C172.266 125.347 172.715 125.289 173.163 125.321C173.61 125.352 174.047 125.472 174.448 125.674C174.848 125.875 175.206 126.154 175.498 126.494C175.791 126.834 176.014 127.229 176.154 127.656L190.852 171.892C191.116 172.743 191.038 173.664 190.634 174.459C190.23 175.253 189.532 175.858 188.689 176.145Z" fill="#11A97D"/>
<path d="M142.673 188.351L148.047 151.732L165.513 169.967L168.939 156.092L188.205 172.901C188.486 173.151 188.697 173.47 188.817 173.826C188.936 174.183 188.961 174.564 188.887 174.933C188.814 175.302 188.645 175.645 188.398 175.929C188.151 176.212 187.835 176.426 187.48 176.548L145.454 190.692C145.108 190.806 144.739 190.83 144.382 190.761C144.025 190.692 143.691 190.532 143.412 190.298C143.134 190.063 142.92 189.761 142.79 189.42C142.661 189.08 142.621 188.711 142.673 188.351Z" fill="black"/>
<path d="M161.576 142.769C161.823 143.529 161.838 144.346 161.621 145.114C161.404 145.883 160.964 146.571 160.357 147.089C159.75 147.607 159.003 147.933 158.211 148.026C157.418 148.119 156.616 147.974 155.906 147.61C155.196 147.246 154.61 146.679 154.222 145.981C153.833 145.283 153.661 144.485 153.726 143.688C153.79 142.892 154.09 142.133 154.586 141.507C155.082 140.881 155.752 140.416 156.511 140.172C157.527 139.846 158.63 139.936 159.58 140.422C160.529 140.909 161.247 141.753 161.576 142.769Z" fill="white" fill-opacity="0.94"/>
<path d="M157.747 148.368C156.645 148.371 155.582 147.957 154.77 147.209C153.959 146.462 153.459 145.435 153.37 144.334C153.281 143.233 153.61 142.139 154.291 141.271C154.972 140.402 155.955 139.823 157.044 139.648C158.132 139.474 159.247 139.717 160.164 140.329C161.082 140.942 161.735 141.878 161.993 142.952C162.252 144.026 162.097 145.157 161.559 146.121C161.021 147.085 160.139 147.811 159.091 148.152C158.658 148.297 158.204 148.37 157.747 148.368ZM157.747 140.293C156.967 140.294 156.208 140.543 155.578 141.003C154.947 141.463 154.478 142.111 154.238 142.855C153.998 143.598 153.999 144.399 154.241 145.141C154.483 145.884 154.953 146.531 155.585 146.99C156.216 147.449 156.976 147.695 157.756 147.695C158.536 147.694 159.296 147.446 159.927 146.987C160.558 146.527 161.027 145.88 161.268 145.137C161.509 144.393 161.509 143.593 161.267 142.85C161.022 142.106 160.548 141.458 159.914 140.999C159.279 140.54 158.517 140.293 157.734 140.293H157.747Z" fill="black"/>
<path d="M85.8421 195.147C97.7995 201.162 109.125 193.249 132.032 182.604L133.725 176.064C133.725 176.064 97.1143 182.954 93.3121 179.792C87.011 174.556 88.6635 148.179 80.8577 145.636C57.7357 138.073 68.3495 186.372 85.8421 195.147Z" fill="white" fill-opacity="0.94"/>
<path d="M94.4407 197.556C91.401 197.568 88.4022 196.853 85.6943 195.47C72.595 188.876 63.8621 161.597 68.5644 149.983C70.002 146.47 73.3205 142.81 80.9651 145.313C85.3585 146.753 86.8498 155.218 88.2873 163.414C89.4831 170.142 90.7057 177.194 93.5271 179.563C96.3485 181.931 123.528 177.665 133.671 175.754L134.195 175.66L132.382 182.846H132.247C128.378 184.636 124.764 186.399 121.58 187.947C110.079 193.572 101.87 197.556 94.4407 197.556ZM85.9899 194.864C95.7708 199.776 105.35 195.133 121.217 187.422C124.374 185.888 127.935 184.152 131.75 182.375L133.268 176.494C128.606 177.369 96.765 183.116 93.0971 180.061C90.0877 177.571 88.8919 170.761 87.629 163.548C86.2855 155.473 84.7673 147.278 80.7636 145.959C75.094 144.115 71.0903 145.595 69.1825 150.252C64.6145 161.368 73.4146 188.539 85.9899 194.851V194.864Z" fill="black"/>
<path d="M72.192 134.479C55.6935 138.867 65.3131 168.124 65.3131 168.124C65.3131 168.124 82.0265 166.778 88.8516 161.072C88.8516 161.058 89.5906 129.863 72.192 134.479Z" fill="#AAB6C2"/>
<path d="M136.708 181.676C137.071 181.312 143.627 183.614 142.969 181.581C142.673 180.693 137.729 178.984 139.153 178.527C140.846 178.715 145.28 180.518 145.575 179.051C145.723 178.352 142.888 176.817 141.813 176.589C138.199 175.754 139.126 174.718 142.579 175.243C144.393 175.539 145.172 174.597 143.546 173.588C140.859 171.892 136.587 172.915 133.322 174.26C133.768 173.458 134.405 172.778 135.176 172.282C135.62 171.932 135.794 171.057 135.176 170.788C132.489 169.752 130.501 174.22 129.641 176.777C128.082 178.634 126.524 181.541 128.069 182.994C129.063 183.91 129.963 183.129 131.253 183.116C132.812 183.116 138.696 185.605 139.946 184.34C141.585 182.645 135.687 182.712 136.708 181.676Z" fill="white" fill-opacity="0.94"/>
<path d="M138.669 185.067C137.069 184.934 135.49 184.609 133.967 184.098C133.093 183.807 132.193 183.599 131.28 183.479C130.912 183.49 130.547 183.544 130.192 183.64C129.808 183.804 129.387 183.856 128.975 183.789C128.564 183.722 128.18 183.54 127.867 183.264C126.202 181.703 127.626 178.742 129.372 176.642C129.896 175.095 131.293 171.542 133.403 170.573C133.712 170.437 134.046 170.366 134.384 170.366C134.721 170.366 135.055 170.437 135.364 170.573C135.536 170.637 135.687 170.746 135.802 170.888C135.918 171.03 135.994 171.2 136.023 171.38C136.045 171.618 136.008 171.858 135.917 172.078C135.826 172.298 135.682 172.493 135.499 172.645L135.297 172.807C134.941 173.074 134.604 173.366 134.29 173.682C137.339 172.565 141.182 171.771 143.842 173.426C144.971 174.126 144.957 174.772 144.836 175.041C144.621 175.633 143.775 175.889 142.646 175.7C141.787 175.517 140.899 175.517 140.04 175.7C140.654 176.042 141.322 176.274 142.015 176.387C142.928 176.602 146.247 178.177 146.045 179.253C146.021 179.379 145.97 179.498 145.896 179.602C145.821 179.707 145.726 179.794 145.615 179.859C144.782 180.384 142.928 179.859 141.222 179.442C140.604 179.28 140.013 179.132 139.57 179.051C140.071 179.382 140.592 179.683 141.128 179.953C142.472 180.666 143.264 181.124 143.412 181.608C143.48 181.758 143.504 181.923 143.48 182.086C143.457 182.248 143.386 182.4 143.278 182.523C142.687 183.183 140.9 182.873 138.643 182.389C138.186 182.295 137.675 182.187 137.299 182.133C137.633 182.259 137.974 182.367 138.32 182.456C139.355 182.739 140.429 183.035 140.617 183.802C140.65 183.99 140.631 184.183 140.563 184.361C140.494 184.539 140.378 184.694 140.228 184.811C140 184.961 139.744 185.06 139.476 185.104C139.207 185.148 138.933 185.136 138.669 185.067ZM131.226 182.806C132.218 182.918 133.195 183.134 134.142 183.452C136.076 183.99 138.978 184.798 139.65 184.138C139.798 183.977 139.879 183.842 139.852 183.762C139.771 183.452 138.683 183.143 138.024 182.968C137.084 182.712 136.399 182.51 136.264 182.052C136.24 181.943 136.246 181.828 136.281 181.722C136.317 181.615 136.381 181.52 136.466 181.447C136.708 181.205 137.138 181.285 138.643 181.608C139.811 181.851 142.257 182.362 142.673 181.931C142.673 181.931 142.673 181.851 142.673 181.689C142.093 181.162 141.43 180.735 140.712 180.424C139.247 179.63 138.535 179.24 138.589 178.715C138.589 178.553 138.696 178.338 139.072 178.204H139.207C139.911 178.313 140.606 178.471 141.289 178.675C142.633 179.038 144.567 179.536 145.145 179.172C145.179 179.155 145.209 179.131 145.232 179.1C145.255 179.07 145.272 179.035 145.28 178.998C144.307 178.018 143.1 177.304 141.773 176.925C139.086 176.293 139.086 175.579 139.193 175.431C139.368 174.543 141.679 174.812 142.66 174.974C143.64 175.135 144.003 174.974 144.111 174.758C144.218 174.543 144.003 174.314 143.399 173.937C140.712 172.255 136.493 173.399 133.47 174.637L132.718 174.947L133.04 174.193C133.444 173.399 134.046 172.722 134.787 172.228L134.988 172.067C135.081 171.988 135.154 171.889 135.2 171.776C135.247 171.664 135.266 171.542 135.257 171.421C135.248 171.357 135.222 171.297 135.182 171.247C135.142 171.198 135.089 171.16 135.028 171.138C134.802 171.039 134.557 170.987 134.31 170.987C134.062 170.987 133.817 171.039 133.591 171.138C132.073 171.851 130.702 174.57 129.936 176.871V176.979C128.674 178.486 126.914 181.393 128.338 182.725C128.875 183.223 129.345 183.116 130.044 182.954C130.446 182.838 130.862 182.775 131.28 182.766L131.226 182.806Z" fill="black"/>
<path d="M128.042 177.45C128.828 177.347 129.562 176.999 130.138 176.454C130.89 175.62 131.065 177.948 131.079 178.136C131.186 178.826 131.24 179.524 131.24 180.222C131.157 180.485 131.157 180.767 131.24 181.03C131.412 181.565 131.623 182.086 131.871 182.591L131.132 182.806L128.002 184.152L126.255 182.429L125.772 180.545C125.772 180.545 125.772 179.63 126.228 179.307C126.88 178.736 127.486 178.115 128.042 177.45Z" fill="white" fill-opacity="0.94"/>
<path d="M47.2562 123.996C47.3771 131.788 57.4267 139.513 64.9907 136.296C69.7199 134.291 77.4183 131.25 77.2033 121.493C77.0421 114.629 84.9285 108.398 84.4314 108.183C70.4051 102.383 60.0734 121.17 58.9045 122.583C55.9085 126.337 51.1658 123.929 49.0296 123.242C48.8761 123.116 48.6912 123.035 48.4949 123.007C48.2985 122.979 48.0983 123.005 47.9157 123.082C47.7331 123.16 47.5752 123.286 47.459 123.447C47.3427 123.608 47.2726 123.798 47.2562 123.996Z" fill="black"/>
<path d="M100.796 110.094C101.256 114.49 101.107 118.928 100.352 123.283C99.452 127.535 90.1414 130.24 86.1377 122.367C82.134 114.495 86.9035 106.38 86.9035 106.38L100.796 110.094Z" fill="white" fill-opacity="0.94"/>
<path d="M93.7286 127.737C92.0542 127.709 90.4224 127.204 89.0235 126.282C87.6247 125.36 86.5166 124.058 85.8287 122.529C81.7981 114.589 86.5676 106.285 86.6214 106.205L86.702 105.976L101.064 109.825V110.054C101.524 114.485 101.375 118.959 100.621 123.35C100.164 125.503 97.786 127.266 94.8437 127.656C94.4741 127.707 94.1016 127.734 93.7286 127.737ZM87.011 106.77C86.2989 108.116 82.8461 115.329 86.3661 122.219C87.0653 123.815 88.2609 125.14 89.7743 125.999C91.2877 126.858 93.0377 127.203 94.7631 126.983C97.4501 126.647 99.5729 125.059 99.9625 123.215C100.699 118.972 100.853 114.648 100.419 110.363L87.011 106.77Z" fill="black"/>
<path d="M103.778 110.915C103.456 110.511 102.932 110.309 102.623 109.919C101.682 108.681 102.314 108.492 101.884 107.456C101.56 106.622 101.033 105.882 100.352 105.303C98.313 103.662 95.8554 102.627 93.2584 102.315C92.4926 102.235 86.2183 102.315 84.0015 105.37C82.8722 106.945 82.0712 108.731 81.6465 110.622C81.2217 112.514 81.1819 114.472 81.5294 116.379C82.2146 119.178 84.3374 122.031 86.9035 119.555C88.8651 117.657 89.4428 115.517 90.1414 112.933C90.334 112.116 90.6132 111.322 90.9744 110.565C91.758 109.952 92.6743 109.531 93.6496 109.337C94.625 109.143 95.6323 109.181 96.5903 109.448C96.8859 110.067 97.0202 110.888 97.2889 111.507C97.6876 112.422 98.2735 113.242 99.0087 113.916C100.151 114.952 101.978 115.733 103.389 114.71C103.678 114.497 103.92 114.227 104.099 113.915C104.277 113.603 104.388 113.257 104.425 112.899C104.462 112.541 104.423 112.18 104.312 111.838C104.2 111.496 104.019 111.182 103.778 110.915Z" fill="black"/>
<path d="M90.5042 113.741C90.5042 113.741 88.4754 111.736 87.2931 113.512C87.0584 113.807 86.9024 114.156 86.8396 114.527C86.7769 114.899 86.8096 115.28 86.9345 115.636C87.0595 115.991 87.2727 116.309 87.554 116.559C87.8353 116.809 88.1755 116.983 88.5426 117.065C89.604 117.038 90.7326 114.723 90.5042 113.741Z" fill="white" fill-opacity="0.94"/>
<path d="M142.875 131.653C142.61 131.64 142.358 131.536 142.163 131.357C141.745 130.883 141.457 130.308 141.33 129.688V129.487C140.995 128.538 140.884 127.524 141.007 126.526C141.104 126.167 141.307 125.846 141.59 125.605C141.873 125.365 142.223 125.216 142.592 125.18C142.785 125.189 142.974 125.239 143.145 125.327C143.317 125.416 143.467 125.54 143.587 125.691L143.708 125.839C143.789 125.586 143.943 125.363 144.152 125.198C144.36 125.032 144.612 124.933 144.876 124.911C145.244 124.92 145.6 125.037 145.901 125.247C146.202 125.458 146.435 125.753 146.569 126.095C146.678 125.964 146.814 125.857 146.966 125.78C147.119 125.704 147.286 125.66 147.456 125.651H147.617C147.779 125.686 147.933 125.752 148.069 125.847C148.205 125.942 148.321 126.063 148.41 126.203C148.642 126.097 148.894 126.042 149.149 126.041C149.429 126.043 149.705 126.113 149.953 126.244C150.201 126.375 150.413 126.564 150.573 126.795C150.746 127.048 150.856 127.338 150.896 127.642C150.936 127.946 150.903 128.255 150.801 128.544C150.627 129.002 150.156 129.702 149.458 129.702H149.35C149.313 129.9 149.254 130.094 149.176 130.281C148.934 130.886 148.396 131.546 147.832 131.546C147.698 131.543 147.566 131.513 147.443 131.457C147.321 131.402 147.211 131.322 147.12 131.223C146.966 131.072 146.835 130.9 146.731 130.711C146.448 131.107 146.033 131.388 145.562 131.505C145.41 131.524 145.257 131.524 145.105 131.505C144.862 131.509 144.625 131.436 144.427 131.295C144.229 131.155 144.08 130.955 144.003 130.725C143.924 130.972 143.776 131.191 143.576 131.356C143.376 131.521 143.132 131.624 142.875 131.653Z" fill="white" fill-opacity="0.94"/>
<path d="M144.944 125.261C145.656 125.261 146.139 125.934 146.448 126.687C146.69 126.405 146.986 126.041 147.389 126.041H147.496C147.675 126.098 147.839 126.194 147.976 126.322C148.113 126.45 148.22 126.607 148.289 126.782C148.298 126.737 148.317 126.696 148.345 126.661C148.373 126.626 148.409 126.598 148.45 126.58C148.649 126.492 148.864 126.446 149.082 126.445C149.324 126.456 149.561 126.524 149.771 126.645C149.982 126.766 150.16 126.936 150.292 127.14C150.424 127.344 150.504 127.577 150.528 127.819C150.551 128.061 150.516 128.305 150.425 128.531C150.304 128.908 149.901 129.5 149.444 129.5C149.378 129.513 149.309 129.513 149.243 129.5C149.182 129.475 149.128 129.439 149.082 129.392C149.074 129.708 149.006 130.018 148.88 130.307C148.705 130.778 148.249 131.384 147.752 131.384C147.56 131.372 147.382 131.285 147.254 131.142C146.988 130.867 146.794 130.529 146.69 130.159C146.583 130.455 146.404 130.719 146.169 130.928C145.935 131.137 145.652 131.285 145.347 131.357H144.971C144.285 131.357 144.043 130.725 143.949 130.011C143.721 130.59 143.318 131.357 142.781 131.357C142.587 131.349 142.405 131.268 142.27 131.128C141.861 130.626 141.584 130.029 141.464 129.392C141.15 128.509 141.039 127.566 141.141 126.633C141.231 126.338 141.407 126.077 141.647 125.883C141.886 125.688 142.178 125.57 142.485 125.543C142.634 125.547 142.78 125.584 142.912 125.651C143.045 125.719 143.16 125.815 143.251 125.934C143.433 126.175 143.595 126.432 143.734 126.701C143.802 125.947 144.07 125.355 144.796 125.261H144.944ZM144.944 124.655H144.796C144.553 124.667 144.317 124.737 144.107 124.859C143.897 124.981 143.718 125.151 143.587 125.355C143.306 125.081 142.93 124.927 142.539 124.924C142.114 124.959 141.71 125.119 141.377 125.385C141.044 125.651 140.798 126.011 140.671 126.418C140.54 127.465 140.646 128.527 140.98 129.527V129.729C141.119 130.397 141.434 131.015 141.894 131.519C142.14 131.756 142.466 131.891 142.807 131.895C143.012 131.885 143.212 131.832 143.395 131.739C143.578 131.646 143.739 131.516 143.869 131.357C144.001 131.529 144.172 131.667 144.369 131.758C144.565 131.85 144.781 131.892 144.997 131.882C145.174 131.879 145.35 131.857 145.521 131.815C145.924 131.713 146.295 131.509 146.596 131.223L146.798 131.451C147.042 131.702 147.375 131.847 147.725 131.855C148.611 131.855 149.203 130.953 149.418 130.415C149.418 130.281 149.512 130.146 149.552 130.011C150.318 129.931 150.815 129.096 150.976 128.666C151.098 128.332 151.137 127.975 151.09 127.623C151.043 127.272 150.912 126.937 150.707 126.647C150.52 126.378 150.271 126.158 149.981 126.006C149.691 125.854 149.369 125.774 149.041 125.772C148.823 125.77 148.605 125.802 148.396 125.866C148.184 125.612 147.889 125.441 147.564 125.382H147.349C147.058 125.382 146.775 125.476 146.542 125.651C146.376 125.351 146.135 125.1 145.844 124.921C145.552 124.741 145.219 124.641 144.876 124.628L144.944 124.655Z" fill="black"/>
<path d="M233.63 184.946L239.151 177.625C239.393 177.297 239.707 177.029 240.067 176.84C240.428 176.651 240.827 176.547 241.234 176.535H277.321C277.675 176.522 278.025 176.62 278.321 176.815C278.617 177.011 278.845 177.294 278.973 177.625L281.66 184.919C281.974 185.827 282.039 186.803 281.848 187.745L264.611 276.566C264.429 277.412 263.971 278.173 263.31 278.728C262.648 279.284 261.82 279.603 260.957 279.635H151.084C150.701 279.651 150.32 279.578 149.971 279.42C149.622 279.262 149.314 279.024 149.074 278.726C148.833 278.427 148.666 278.076 148.586 277.701C148.506 277.326 148.514 276.937 148.611 276.566L165.54 189.333C165.722 188.487 166.18 187.727 166.841 187.171C167.503 186.615 168.331 186.296 169.194 186.265H231.171C231.654 186.248 232.127 186.121 232.553 185.892C232.98 185.663 233.348 185.34 233.63 184.946Z" fill="#11A97D"/>
<path d="M174.447 258.344L181.071 227.176H187.184L195.527 247.955L199.934 227.149H205.778L199.155 258.317H192.84L184.618 237.996L180.305 258.317L174.447 258.344Z" fill="#11A97D"/>
<path d="M205.819 258.344L212.429 227.176H233.764L232.635 232.452H217.588L216.029 239.88H229.021L227.906 245.156H214.914L212.106 258.398L205.819 258.344Z" fill="#11A97D"/>
<path d="M239.326 258.344L244.821 232.452H235.591L236.706 227.176H261.44L260.312 232.452H251.109L245.614 258.344H239.326Z" fill="#11A97D"/>
</svg>
