<svg width="1155" height="1137" viewBox="0 0 1155 1137" fill="none" xmlns="http://www.w3.org/2000/svg">
<circle cx="565" cy="523" r="519" fill="#0F1116" stroke="url(#paint0_linear_3_272)" stroke-width="8"/>
<circle cx="565.5" cy="522.5" r="296.5" stroke="url(#paint1_linear_3_272)" stroke-width="8"/>
<path d="M186.99 481.745L117.833 491.325L116.305 465.188C115.993 459.834 116.721 455.204 118.49 451.299C120.257 447.372 122.82 444.238 126.178 441.897C129.513 439.537 133.375 438.053 137.765 437.445C142.2 436.831 146.194 437.226 149.749 438.632C153.303 440.038 156.178 442.442 158.374 445.843C160.547 449.247 161.791 453.638 162.105 459.015L163.118 476.338L152.818 477.765L151.905 462.144C151.722 459.013 151.032 456.524 149.835 454.677C148.638 452.83 147.066 451.561 145.119 450.87C143.171 450.156 140.97 449.969 138.516 450.309C136.062 450.649 133.93 451.436 132.118 452.671C130.305 453.883 128.94 455.57 128.023 457.733C127.081 459.876 126.703 462.524 126.887 465.678L127.563 477.249L186.253 469.119L186.99 481.745Z" fill="white"/>
<path d="M188.022 414.226L135.695 412.284L137.627 400.476L146.348 400.799L146.436 400.261C143.57 399.207 141.506 397.506 140.245 395.157C138.965 392.785 138.568 390.119 139.052 387.159C139.162 386.486 139.319 385.736 139.523 384.908C139.708 384.058 139.903 383.354 140.109 382.798L151.453 383.219C151.187 383.728 150.894 384.541 150.574 385.657C150.235 386.75 149.982 387.812 149.813 388.844C149.449 391.065 149.611 393.079 150.298 394.887C150.965 396.672 152.068 398.101 153.606 399.173C155.145 400.246 157.027 400.823 159.252 400.906L190.015 402.047L188.022 414.226Z" fill="white"/>
<path d="M207.53 348.818C205.7 353.594 203.015 357.492 199.475 360.515C195.935 363.537 191.819 365.583 187.127 366.652C182.442 367.701 177.458 367.648 172.173 366.496C166.888 365.343 162.624 363.379 159.381 360.602C156.146 357.804 154.1 354.414 153.244 350.433C152.387 346.452 152.873 342.074 154.703 337.298C156.532 332.523 159.217 328.624 162.757 325.602C166.297 322.58 170.42 320.547 175.127 319.503C179.841 318.439 184.841 318.483 190.126 319.635C195.411 320.788 199.66 322.761 202.872 325.554C206.093 328.326 208.132 331.703 208.989 335.684C209.845 339.665 209.359 344.043 207.53 348.818ZM197.895 346.648C198.887 344.059 198.972 341.732 198.151 339.667C197.308 337.598 195.783 335.863 193.577 334.462C191.379 333.039 188.725 331.989 185.617 331.311C182.486 330.629 179.488 330.446 176.623 330.764C173.744 331.057 171.216 331.908 169.04 333.319C166.863 334.73 165.279 336.73 164.287 339.319C163.27 341.972 163.18 344.344 164.015 346.435C164.858 348.504 166.39 350.253 168.61 351.68C170.816 353.081 173.485 354.123 176.616 354.805C179.724 355.483 182.707 355.674 185.564 355.377C188.429 355.059 190.949 354.194 193.126 352.783C195.289 351.346 196.878 349.301 197.895 346.648Z" fill="white"/>
<path d="M241.039 290.208C238.185 294.451 234.693 297.651 230.563 299.808C226.433 301.964 221.959 303.042 217.142 303.041C212.337 303.021 207.486 301.863 202.589 299.567C197.691 297.271 193.971 294.411 191.429 290.987C188.9 287.544 187.663 283.79 187.719 279.723C187.774 275.656 189.229 271.501 192.083 267.258C194.937 263.015 198.429 259.815 202.559 257.658C206.689 255.502 211.166 254.438 215.991 254.468C220.829 254.478 225.697 255.631 230.594 257.927C235.492 260.223 239.195 263.088 241.704 266.521C244.225 269.936 245.458 273.676 245.403 277.743C245.347 281.81 243.892 285.965 241.039 290.208ZM232.125 285.955C233.672 283.654 234.277 281.407 233.938 279.215C233.579 277.012 232.48 274.984 230.641 273.13C228.816 271.257 226.462 269.645 223.581 268.295C220.68 266.934 217.796 266.091 214.93 265.765C212.056 265.41 209.399 265.677 206.96 266.568C204.521 267.458 202.527 269.054 200.98 271.354C199.394 273.712 198.775 276.001 199.121 278.222C199.481 280.425 200.583 282.467 202.43 284.35C204.269 286.204 206.639 287.811 209.54 289.171C212.421 290.522 215.288 291.37 218.142 291.715C221.007 292.042 223.66 291.76 226.1 290.869C228.531 289.95 230.54 288.312 232.125 285.955Z" fill="white"/>
<path d="M246.847 203.752L254.527 209.421L233.018 231.682L225.338 226.013L246.847 203.752ZM272.843 251.548L226.739 217.512C223.905 215.419 222.051 213.155 221.179 210.719C220.322 208.266 220.288 205.804 221.077 203.334C221.866 200.864 223.31 198.543 225.41 196.369C226.895 194.832 228.351 193.569 229.778 192.578C231.205 191.587 232.304 190.887 233.077 190.477L239.05 197.912C238.559 198.193 237.973 198.573 237.293 199.05C236.594 199.514 235.905 200.098 235.226 200.8C233.631 202.451 232.949 203.951 233.182 205.298C233.412 206.617 234.35 207.883 235.996 209.098L281.441 242.649L272.843 251.548Z" fill="white"/>
<path d="M350.112 192.534C345.738 195.183 341.304 196.556 336.81 196.652C332.315 196.749 328.027 195.674 323.945 193.426C319.882 191.167 316.304 187.818 313.211 183.381C310.118 178.943 308.283 174.526 307.707 170.129C307.149 165.72 307.831 161.622 309.753 157.833C311.674 154.045 314.821 150.826 319.195 148.177C323.57 145.529 328.004 144.156 332.498 144.059C336.992 143.963 341.277 145.053 345.353 147.331C349.449 149.598 353.043 152.949 356.136 157.387C359.229 161.824 361.047 166.238 361.591 170.628C362.155 175.007 361.476 179.09 359.555 182.879C357.634 186.667 354.486 189.885 350.112 192.534ZM344.517 184.388C346.889 182.952 348.437 181.127 349.16 178.912C349.871 176.679 349.874 174.264 349.17 171.668C348.486 169.059 347.234 166.45 345.414 163.84C343.582 161.211 341.526 159.075 339.248 157.432C336.976 155.759 334.601 154.771 332.123 154.468C329.645 154.166 327.22 154.733 324.848 156.169C322.418 157.64 320.838 159.499 320.109 161.744C319.398 163.977 319.392 166.407 320.089 169.034C320.793 171.63 322.061 174.243 323.894 176.872C325.713 179.482 327.752 181.615 330.011 183.269C332.29 184.912 334.668 185.885 337.146 186.187C339.63 186.46 342.087 185.86 344.517 184.388Z" fill="white"/>
<path d="M397.844 110.535L401.468 119.365L372.753 130.925L369.129 122.094L397.844 110.535ZM396.189 167.647L374.431 114.631C373.093 111.372 372.655 108.389 373.115 105.68C373.597 102.962 374.767 100.605 376.625 98.6077C378.483 96.6103 380.814 95.0472 383.618 93.9184C385.6 93.1206 387.425 92.5696 389.093 92.2654C390.762 91.9612 392.017 91.7867 392.858 91.742L394.205 101.489C393.66 101.537 392.988 101.636 392.19 101.786C391.383 101.915 390.526 102.162 389.62 102.527C387.49 103.384 386.194 104.506 385.732 105.893C385.281 107.25 385.445 108.875 386.221 110.767L407.669 163.026L396.189 167.647Z" fill="white"/>
<path d="M475.608 70.7045L495.235 123.553L495.946 123.471L512.386 66.4595L526.204 64.8647L503.755 137.476L488.244 139.267L461.824 72.2954L475.608 70.7045Z" fill="white"/>
<path d="M574.855 135.058C569.632 134.518 565.382 132.993 562.103 130.481C558.852 127.95 556.688 124.626 555.611 120.509C554.539 116.369 554.654 111.639 555.958 106.319C557.239 101.088 559.381 96.6014 562.384 92.8602C565.415 89.0993 569.043 86.3054 573.269 84.4786C577.5 82.6296 582.102 81.9621 587.076 82.4758C590.286 82.8074 593.191 83.628 595.791 84.9376C598.418 86.2275 600.572 88.0343 602.251 90.3579C603.953 92.6838 605.039 95.5346 605.51 98.9103C605.986 102.264 605.679 106.17 604.586 110.629L603.686 114.305L560.992 109.895L562.972 101.816L593.898 105.01C594.438 102.712 594.429 100.618 593.873 98.7268C593.321 96.8139 592.28 95.2465 590.748 94.0245C589.239 92.8049 587.309 92.0737 584.958 91.8308C582.448 91.5716 580.098 91.94 577.907 92.9358C575.722 93.9096 573.862 95.3019 572.329 97.1126C570.824 98.9036 569.782 100.935 569.202 103.206L567.474 110.259C566.75 113.217 566.682 115.813 567.27 118.046C567.864 120.258 569.018 122.029 570.732 123.36C572.451 124.67 574.644 125.462 577.312 125.738C579.098 125.922 580.774 125.846 582.339 125.51C583.911 125.152 585.347 124.542 586.647 123.68C587.947 122.819 589.045 121.699 589.939 120.32L601.092 122.762C599.644 125.645 597.633 128.085 595.057 130.083C592.51 132.06 589.516 133.494 586.076 134.383C582.642 135.251 578.901 135.476 574.855 135.058Z" fill="white"/>
<path d="M646.787 113.863L632.85 141.197L621.117 137.371L644.904 90.7213L656.118 94.3786L652.076 102.305L652.659 102.496C655.136 100.257 658.02 98.7774 661.311 98.056C664.624 97.3417 668.138 97.5906 671.855 98.8026C675.29 99.9231 677.932 101.587 679.78 103.796C681.649 106.011 682.62 108.654 682.693 111.724C682.787 114.801 681.873 118.198 679.952 121.917L664.807 151.619L653.074 147.793L667.352 119.791C668.942 116.673 669.322 113.951 668.491 111.626C667.683 109.308 665.766 107.656 662.741 106.669C660.688 106 658.646 105.829 656.613 106.158C654.612 106.474 652.756 107.273 651.043 108.557C649.352 109.847 647.933 111.616 646.787 113.863Z" fill="white"/>
<path d="M706.821 170.76C702.452 168.103 699.382 164.933 697.611 161.251C695.84 157.568 695.359 153.63 696.169 149.438C696.999 145.257 699.136 141.081 702.582 136.912C706.028 132.742 709.921 129.621 714.26 127.548C718.619 125.487 723.117 124.563 727.755 124.777C732.392 124.99 736.896 126.426 741.265 129.082C745.634 131.739 748.704 134.909 750.475 138.591C752.246 142.274 752.71 146.214 751.866 150.413C751.041 154.623 748.906 158.813 745.46 162.983C742.015 167.152 738.119 170.259 733.775 172.303C729.45 174.358 724.969 175.279 720.331 175.065C715.694 174.851 711.19 173.416 706.821 170.76ZM713.177 163.174C715.547 164.615 718.012 165.232 720.575 165.027C723.152 164.804 725.654 163.93 728.081 162.405C730.528 160.892 732.765 158.909 734.792 156.456C736.833 153.986 738.281 151.51 739.135 149.029C740.024 146.542 740.164 144.219 739.556 142.06C738.948 139.9 737.459 138.1 735.09 136.66C732.663 135.184 730.151 134.551 727.555 134.763C724.978 134.986 722.459 135.863 719.997 137.393C717.57 138.918 715.336 140.915 713.294 143.386C711.267 145.838 709.817 148.299 708.943 150.769C708.089 153.25 707.966 155.57 708.574 157.73C709.215 159.884 710.75 161.698 713.177 163.174Z" fill="white"/>
<path d="M747.778 191.992L790.085 161.136L797.872 169.995L790.684 175.238L791.089 175.699C794.233 174.751 797.317 174.729 800.341 175.632C803.384 176.523 806.061 178.282 808.372 180.911C810.713 183.574 811.988 186.327 812.198 189.172C812.441 192.019 811.7 194.689 809.973 197.181L810.333 197.591C813.448 196.748 816.612 196.85 819.823 197.897C823.068 198.948 825.943 200.899 828.449 203.75C831.63 207.369 832.995 211.219 832.545 215.301C832.096 219.383 829.511 223.145 824.792 226.587L796.394 247.297L788.224 238.003L815.079 218.417C817.705 216.502 819.054 214.454 819.125 212.273C819.215 210.078 818.435 208.042 816.784 206.164C814.819 203.928 812.528 202.728 809.912 202.563C807.329 202.401 804.844 203.191 802.457 204.932L776.07 224.177L768.08 215.087L795.348 195.2C797.533 193.606 798.737 191.719 798.961 189.539C799.199 187.377 798.455 185.314 796.73 183.351C795.559 182.019 794.127 181.075 792.432 180.518C790.756 179.948 788.971 179.821 787.079 180.136C785.205 180.439 783.396 181.226 781.651 182.498L755.925 201.26L747.778 191.992Z" fill="white"/>
<path d="M945.278 546.168L947.743 532.895L1008.29 582.458L1005.44 597.809L935.911 596.613L938.376 583.34L993.478 585.193L993.578 584.657L945.278 546.168ZM970.697 556.562L963.975 592.761L954.512 589.066L961.234 552.866L970.697 556.562Z" fill="white"/>
<path d="M973.958 653.273L965.489 648.868L973.976 619.987L982.444 624.391L973.958 653.273ZM991.479 637.31L988 649.151L944.387 626.468C942.915 625.702 941.716 625.355 940.788 625.425C939.875 625.528 939.158 625.91 938.639 626.57C938.12 627.23 937.716 628.051 937.427 629.032C937.21 629.773 937.061 630.475 936.983 631.138C936.898 631.823 936.848 632.35 936.832 632.719L927.687 630.263C927.671 629.525 927.715 628.505 927.819 627.202C927.917 625.92 928.192 624.429 928.645 622.729C929.436 619.722 930.634 617.266 932.239 615.361C933.865 613.466 935.851 612.325 938.197 611.936C940.536 611.569 943.154 612.152 946.051 613.683L991.479 637.31Z" fill="white"/>
<path d="M960.289 692.134L952.171 687.112L962.824 658.958L970.942 663.98L960.289 692.134ZM978.981 677.53L974.614 689.072L932.806 663.212C931.395 662.339 930.225 661.903 929.294 661.905C928.374 661.939 927.631 662.266 927.062 662.885C926.494 663.504 926.029 664.292 925.667 665.249C925.394 665.971 925.193 666.66 925.064 667.315C924.927 667.991 924.837 668.513 924.794 668.88L915.853 665.749C915.893 665.013 916.014 664 916.217 662.708C916.411 661.438 916.799 659.973 917.379 658.312C918.396 655.374 919.777 653.015 921.524 651.236C923.29 649.469 925.358 648.479 927.728 648.266C930.09 648.075 932.659 648.851 935.434 650.594L978.981 677.53Z" fill="white"/>
<path d="M902.013 695.193C904.339 690.487 907.221 687.076 910.658 684.962C914.104 682.881 917.889 682.13 922.015 682.709C926.158 683.301 930.421 685.24 934.804 688.525C939.115 691.755 942.444 695.507 944.794 699.78C947.151 704.088 948.418 708.584 948.596 713.268C948.791 717.965 947.781 722.556 945.566 727.038C944.136 729.931 942.368 732.348 940.263 734.288C938.166 736.263 935.765 737.59 933.061 738.272C930.346 738.974 927.37 738.894 924.133 738.031C920.914 737.182 917.467 735.381 913.793 732.628L910.765 730.358L929.782 691.88L936.438 696.869L922.663 724.742C924.564 726.139 926.473 726.941 928.389 727.149C930.324 727.37 932.116 726.996 933.766 726.027C935.406 725.078 936.75 723.544 937.797 721.425C938.915 719.164 939.406 716.809 939.27 714.362C939.152 711.928 938.538 709.639 937.429 707.496C936.328 705.386 934.846 703.62 932.983 702.195L927.172 697.841C924.735 696.014 922.397 694.946 920.158 694.636C917.937 694.339 915.919 694.74 914.106 695.838C912.31 696.95 910.818 698.707 909.63 701.112C908.835 702.721 908.315 704.328 908.07 705.932C907.844 707.549 907.895 709.137 908.222 710.694C908.549 712.251 909.182 713.717 910.123 715.092L903.981 724.646C901.866 722.167 900.353 719.33 899.44 716.133C898.536 712.97 898.283 709.598 898.683 706.016C899.1 702.448 900.21 698.84 902.013 695.193Z" fill="white"/>
<path d="M905.722 754.697L883.218 733.842L889.999 723.531L928.406 759.124L921.925 768.979L915.399 762.931L915.061 763.444C916.55 766.443 917.203 769.631 917.022 773.008C916.827 776.404 915.656 779.735 913.509 783.001C911.523 786.02 909.227 788.125 906.62 789.315C904 790.524 901.209 790.75 898.247 789.991C895.273 789.251 892.258 787.451 889.203 784.589L864.749 761.926L871.53 751.615L894.584 772.981C897.151 775.36 899.659 776.462 902.108 776.287C904.545 776.13 906.638 774.723 908.386 772.065C909.572 770.261 910.277 768.332 910.501 766.278C910.73 764.258 910.456 762.247 909.68 760.245C908.892 758.261 907.573 756.412 905.722 754.697Z" fill="white"/>
<path d="M847.215 783.195C849.908 780.086 853.015 778.098 856.536 777.231C860.057 776.364 863.76 776.73 867.646 778.33C871.532 779.93 875.37 782.892 879.159 787.217C882.993 791.593 885.603 796.007 886.989 800.459C888.376 804.944 888.671 809.193 887.877 813.206C887.097 817.235 885.39 820.77 882.756 823.811C880.748 826.13 878.752 827.644 876.768 828.352C874.8 829.077 872.957 829.331 871.239 829.113C869.537 828.912 868.058 828.574 866.802 828.098L866.468 828.484L883.677 848.125L875.575 857.479L829.564 804.966L837.51 795.793L842.947 801.998L843.438 801.431C843.016 799.993 842.727 798.28 842.572 796.292C842.432 794.322 842.68 792.213 843.316 789.967C843.951 787.72 845.251 785.463 847.215 783.195ZM851.633 793.413C849.922 795.389 848.928 797.602 848.651 800.054C848.39 802.522 848.785 805.074 849.838 807.71C850.89 810.346 852.532 812.938 854.764 815.485C856.995 818.032 859.248 819.885 861.52 821.044C863.778 822.22 865.966 822.633 868.085 822.285C870.189 821.953 872.111 820.782 873.852 818.772C875.653 816.694 876.684 814.42 876.945 811.952C877.207 809.483 876.812 806.948 875.759 804.346C874.707 801.744 873.11 799.221 870.968 796.777C868.811 794.315 866.582 792.471 864.279 791.244C861.977 790.051 859.736 789.594 857.557 789.875C855.379 790.189 853.404 791.369 851.633 793.413Z" fill="white"/>
<path d="M812.575 819.803C815.063 817.607 817.647 816.11 820.328 815.311C823.005 814.547 825.604 814.605 828.124 815.486C830.628 816.383 832.877 818.227 834.874 821.018C836.592 823.422 837.604 825.77 837.91 828.063C838.216 830.356 837.999 832.599 837.259 834.79C836.519 836.981 835.435 839.099 834.006 841.144C832.574 843.222 830.983 845.214 829.233 847.121C827.118 849.41 825.418 851.288 824.132 852.755C822.859 854.24 822.058 855.49 821.728 856.505C821.394 857.554 821.57 858.559 822.258 859.52L822.377 859.687C823.871 861.776 825.598 862.889 827.559 863.028C829.521 863.166 831.575 862.288 833.722 860.393C835.988 858.393 837.402 856.27 837.964 854.025C838.51 851.794 838.49 849.746 837.906 847.879L847.496 841.585C848.666 844.775 849.088 847.931 848.763 851.052C848.451 854.192 847.473 857.196 845.828 860.066C844.196 862.953 842.009 865.608 839.266 868.029C837.374 869.699 835.32 871.12 833.102 872.294C830.884 873.468 828.603 874.184 826.259 874.444C823.928 874.722 821.62 874.331 819.335 873.273C817.032 872.229 814.869 870.293 812.847 867.465L792.462 838.958L801.356 831.107L805.54 836.959L805.847 836.688C805.563 835.008 805.562 833.2 805.844 831.262C806.122 829.358 806.804 827.415 807.888 825.433C808.968 823.484 810.53 821.607 812.575 819.803ZM815.447 829.3C813.59 830.939 812.264 832.758 811.469 834.756C810.688 836.772 810.407 838.77 810.626 840.747C810.828 842.74 811.491 844.522 812.615 846.094L816.204 851.113C816.308 850.598 816.631 849.922 817.171 849.083C817.694 848.26 818.322 847.389 819.055 846.471C819.787 845.552 820.525 844.66 821.268 843.793C822.01 842.927 822.655 842.177 823.202 841.543C824.437 840.122 825.434 838.698 826.194 837.274C826.954 835.849 827.352 834.442 827.388 833.054C827.436 831.684 826.998 830.352 826.073 829.058C824.751 827.209 823.131 826.363 821.213 826.518C819.294 826.673 817.373 827.6 815.447 829.3Z" fill="white"/>
<path d="M791.99 876.946L776.597 850.405L786.867 843.562L813.137 888.86L803.321 895.4L798.857 887.703L798.347 888.043C798.815 891.247 798.386 894.327 797.058 897.283C795.712 900.252 793.412 902.82 790.159 904.987C787.152 906.991 784.145 908.068 781.137 908.218C778.111 908.381 775.248 907.604 772.548 905.887C769.829 904.182 767.43 901.515 765.351 897.885L748.624 869.043L758.894 862.201L774.663 889.391C776.419 892.418 778.549 894.283 781.054 894.985C783.541 895.7 786.108 895.176 788.755 893.411C790.552 892.214 791.911 890.737 792.832 888.978C793.745 887.252 794.154 885.358 794.059 883.295C793.945 881.245 793.255 879.129 791.99 876.946Z" fill="white"/>
<path d="M722.275 880.643C726.981 878.369 731.503 877.459 735.84 877.913C740.156 878.377 744.07 880.006 747.583 882.801C751.085 885.627 753.944 889.444 756.158 894.255C758.382 899.086 759.423 903.794 759.283 908.379C759.152 912.984 757.883 917.13 755.477 920.816C753.061 924.532 749.55 927.503 744.945 929.727C741.119 931.576 737.404 932.499 733.801 932.498C730.188 932.528 726.907 931.678 723.959 929.947C721.02 928.237 718.64 925.728 716.816 922.42L727.438 917.289C728.922 919.373 730.825 920.789 733.145 921.535C735.454 922.313 737.948 922.054 740.629 920.759C742.901 919.661 744.611 918.078 745.76 916.009C746.918 913.961 747.451 911.558 747.358 908.802C747.244 906.056 746.451 903.083 744.978 899.883C743.486 896.641 741.732 894.082 739.717 892.204C737.711 890.346 735.569 889.198 733.29 888.759C731.001 888.351 728.7 888.705 726.388 889.822C724.751 890.613 723.43 891.63 722.426 892.872C721.411 894.145 720.739 895.592 720.41 897.215C720.081 898.837 720.148 900.584 720.609 902.456L709.988 907.587C708.705 904.093 708.314 900.635 708.815 897.214C709.325 893.813 710.707 890.672 712.958 887.793C715.219 884.934 718.325 882.551 722.275 880.643Z" fill="white"/>
<path d="M676.2 898.221C681.194 896.601 685.869 896.23 690.227 897.109C694.57 898.016 698.384 900.051 701.668 903.213C704.959 906.397 707.516 910.571 709.338 915.737C711.13 920.816 711.73 925.59 711.138 930.058C710.531 934.554 708.844 938.446 706.077 941.732C703.317 945.041 699.559 947.466 694.803 949.01C691.733 950.006 688.663 950.453 685.591 950.351C682.505 950.278 679.555 949.563 676.74 948.207C673.903 946.859 671.324 944.805 669.002 942.048C666.687 939.311 664.766 935.778 663.239 931.449L661.98 927.88L702.805 914.632L705.572 922.477L675.999 932.073C676.807 934.295 677.993 936.12 679.557 937.548C681.128 938.996 682.945 939.947 685.008 940.4C687.05 940.861 689.194 940.726 691.443 939.996C693.842 939.218 695.746 937.955 697.153 936.208C698.569 934.483 699.455 932.523 699.814 930.329C700.158 928.163 699.951 925.973 699.194 923.758L696.778 916.91C695.765 914.038 694.366 911.745 692.581 910.032C690.804 908.339 688.771 907.255 686.483 906.78C684.203 906.325 681.787 906.512 679.236 907.34C677.528 907.894 676.066 908.631 674.849 909.552C673.639 910.494 672.693 911.601 672.009 912.874C671.326 914.147 670.97 915.564 670.943 917.125L659.552 919.46C659.231 916.364 659.665 913.428 660.854 910.654C662.03 907.907 663.912 905.457 666.501 903.303C669.097 901.171 672.331 899.477 676.2 898.221Z" fill="white"/>
<path d="M627.082 910.326L640.798 978.784L614.772 981.632C609.44 982.215 604.77 981.724 600.762 980.159C596.732 978.596 593.447 976.2 590.907 972.971C588.349 969.766 586.634 965.991 585.763 961.646C584.884 957.256 585.04 953.253 586.232 949.639C587.424 946.024 589.654 943.036 592.921 940.674C596.192 938.335 600.505 936.873 605.86 936.287L623.109 934.399L625.152 944.595L609.597 946.297C606.479 946.638 604.033 947.452 602.259 948.739C600.486 950.026 599.312 951.658 598.738 953.633C598.142 955.612 598.087 957.815 598.573 960.244C599.06 962.673 599.974 964.759 601.316 966.503C602.636 968.248 604.404 969.524 606.62 970.329C608.818 971.159 611.487 971.402 614.627 971.058L626.149 969.798L614.51 911.702L627.082 910.326Z" fill="white"/>
<path d="M572.892 913.892L578.758 965.926L566.792 965.812L565.815 957.14L565.269 957.135C564.653 960.129 563.278 962.429 561.143 964.033C558.988 965.659 556.411 966.458 553.411 966.43C552.729 966.423 551.964 966.382 551.116 966.307C550.247 966.253 549.522 966.167 548.941 966.049L547.669 954.768C548.213 954.954 549.06 955.12 550.211 955.266C551.343 955.435 552.431 955.524 553.477 955.534C555.727 955.555 557.695 955.089 559.38 954.135C561.046 953.203 562.295 951.895 563.127 950.211C563.958 948.527 564.249 946.578 564 944.365L560.551 913.775L572.892 913.892Z" fill="white"/>
<path d="M514.184 908.278C519.26 908.898 523.69 910.56 527.474 913.264C531.258 915.967 534.231 919.467 536.395 923.762C538.536 928.054 539.68 932.903 539.828 938.31C539.976 943.717 539.091 948.33 537.171 952.149C535.23 955.965 532.429 958.77 528.768 960.564C525.107 962.359 520.739 962.946 515.663 962.326C510.587 961.705 506.157 960.044 502.373 957.34C498.589 954.636 495.627 951.126 493.485 946.812C491.321 942.494 490.165 937.632 490.017 932.225C489.869 926.818 490.766 922.218 492.708 918.425C494.628 914.629 497.418 911.834 501.079 910.039C504.74 908.245 509.108 907.658 514.184 908.278ZM514.387 918.152C511.635 917.816 509.354 918.296 507.546 919.592C505.738 920.911 504.419 922.81 503.587 925.29C502.733 927.767 502.35 930.596 502.437 933.776C502.524 936.98 503.066 939.933 504.062 942.636C505.036 945.359 506.469 947.605 508.361 949.376C510.253 951.147 512.575 952.201 515.327 952.537C518.147 952.881 520.473 952.396 522.303 951.079C524.11 949.761 525.441 947.851 526.294 945.352C527.126 942.872 527.498 940.03 527.41 936.827C527.323 933.646 526.793 930.706 525.82 928.006C524.824 925.303 523.38 923.066 521.488 921.295C519.574 919.544 517.207 918.497 514.387 918.152Z" fill="white"/>
<path d="M455.3 949.308L455.855 939.779L485.178 946.584L484.623 956.113L455.3 949.308ZM476.655 966.957L464.634 964.168L467.49 915.092C467.586 913.435 467.417 912.108 466.981 911.11C466.522 910.13 465.892 909.386 465.092 908.878C464.291 908.37 463.393 908.001 462.396 907.77C461.644 907.595 460.954 907.492 460.328 907.462C459.679 907.426 459.186 907.416 458.849 907.429L457.383 897.328C458.039 897.25 458.972 897.213 460.183 897.219C461.373 897.219 462.821 897.394 464.528 897.744C467.544 898.352 470.229 899.447 472.583 901.028C474.935 902.631 476.757 904.687 478.047 907.194C479.315 909.695 479.843 912.577 479.63 915.839L476.655 966.957Z" fill="white"/>
<path d="M428.324 884.804C433.161 886.465 437.188 889.017 440.407 892.461C443.626 895.905 445.919 899.964 447.286 904.638C448.631 909.305 448.91 914.314 448.122 919.665C447.334 925.016 445.676 929.372 443.149 932.733C440.6 936.086 437.388 938.266 433.514 939.274C429.639 940.283 425.284 939.956 420.448 938.295C415.611 936.635 411.583 934.082 408.364 930.638C405.146 927.195 402.865 923.128 401.523 918.439C400.16 913.743 399.872 908.719 400.66 903.367C401.448 898.016 403.115 893.675 405.66 890.344C408.184 887.006 411.383 884.833 415.258 883.825C419.132 882.817 423.488 883.143 428.324 884.804ZM426.82 894.563C424.197 893.662 421.894 893.663 419.909 894.564C417.921 895.488 416.309 897.084 415.072 899.352C413.813 901.612 412.952 904.316 412.488 907.464C412.021 910.635 412.04 913.653 412.544 916.519C413.023 919.4 414.031 921.907 415.569 924.042C417.106 926.176 419.186 927.693 421.808 928.594C424.495 929.516 426.843 929.519 428.853 928.603C430.84 927.679 432.465 926.076 433.727 923.793C434.965 921.525 435.817 918.806 436.284 915.635C436.747 912.487 436.738 909.484 436.255 906.626C435.751 903.76 434.731 901.26 433.193 899.126C431.631 897.006 429.506 895.486 426.82 894.563Z" fill="white"/>
<path d="M378.112 861.705C382.826 863.965 386.585 867.016 389.39 870.859C392.174 874.692 393.97 879.004 394.778 883.794C395.559 888.597 395.285 893.561 393.955 898.686C392.619 903.834 390.518 907.935 387.651 910.988C384.779 914.064 381.377 915.895 377.445 916.484C373.487 917.085 369.203 916.28 364.592 914.069C360.759 912.231 357.565 909.846 355.007 906.914C352.424 903.993 350.608 900.735 349.559 897.14C348.505 893.568 348.328 889.896 349.03 886.127L359.666 891.226C359.463 893.874 359.96 896.4 361.156 898.805C362.326 901.221 364.254 903.073 366.939 904.36C369.213 905.45 371.383 905.748 373.447 905.254C375.505 904.781 377.333 903.555 378.93 901.575C380.506 899.585 381.737 896.885 382.621 893.475C383.518 890.022 383.817 886.826 383.52 883.888C383.216 880.972 382.388 878.436 381.036 876.278C379.657 874.133 377.809 872.505 375.494 871.395C373.854 870.609 372.303 870.236 370.841 870.277C369.352 870.33 368.002 870.784 366.789 871.637C365.577 872.491 364.57 873.752 363.768 875.42L353.132 870.321C354.329 866.863 356.138 864.156 358.558 862.199C360.973 860.265 363.848 859.219 367.184 859.063C370.514 858.928 374.157 859.808 378.112 861.705Z" fill="white"/>
<path d="M332.354 833.841C336.691 836.55 340.047 839.948 342.422 844.036C344.796 848.123 346.136 852.603 346.441 857.475C346.727 862.336 345.901 867.291 343.963 872.342C342.026 877.392 339.461 881.274 336.269 883.989C333.057 886.691 329.458 888.1 325.472 888.214C321.485 888.328 317.324 887.03 312.986 884.321C308.649 881.612 305.294 878.214 302.919 874.127C300.544 870.039 299.218 865.555 298.941 860.673C298.644 855.779 299.464 850.807 301.402 845.757C303.339 840.707 305.91 836.841 309.113 834.16C312.297 831.466 315.882 830.063 319.869 829.949C323.855 829.834 328.017 831.132 332.354 833.841ZM328.755 843.035C326.403 841.566 324.165 841.049 322.038 841.483C319.904 841.939 317.988 843.136 316.288 845.073C314.57 846.998 313.141 849.446 312.001 852.417C310.853 855.409 310.21 858.361 310.073 861.274C309.907 864.196 310.338 866.872 311.365 869.302C312.392 871.732 314.082 873.681 316.433 875.15C318.843 876.655 321.124 877.186 323.278 876.742C325.412 876.287 327.343 875.086 329.069 873.139C330.768 871.202 332.192 868.737 333.34 865.745C334.479 862.775 335.128 859.839 335.285 856.938C335.423 854.026 334.978 851.354 333.951 848.924C332.897 846.503 331.165 844.54 328.755 843.035Z" fill="white"/>
<path d="M263.135 869.155L293.831 806.447L303.731 813.814L273.035 876.523L263.135 869.155Z" fill="white"/>
<mask id="mask0_3_272" style="mask-type:alpha" maskUnits="userSpaceOnUse" x="186" y="140" width="758" height="766">
<path d="M215.556 357.096L232.409 377.284L253.882 367.796L242.824 389.762L259.677 409.951L235.99 403.338L224.932 425.304L221.351 399.251L197.664 392.638L219.137 383.149L215.556 357.096Z" fill="url(#paint2_linear_3_272)"/>
<path d="M333.843 624.785L350.696 644.974L372.17 635.486L361.111 657.452L377.964 677.641L354.277 671.028L343.219 692.994L339.638 666.941L315.951 660.328L337.424 650.839L333.843 624.785Z" fill="url(#paint3_linear_3_272)"/>
<path d="M274.7 490.94L291.552 511.129L313.026 501.641L301.968 523.607L318.82 543.796L295.133 537.183L284.075 559.149L280.494 533.096L256.807 526.483L278.281 516.994L274.7 490.94Z" fill="url(#paint4_linear_3_272)"/>
<path d="M392.986 758.63L409.839 778.819L431.313 769.331L420.254 791.297L437.107 811.486L413.42 804.873L402.362 826.839L398.781 800.786L375.094 794.173L396.567 784.684L392.986 758.63Z" fill="url(#paint5_linear_3_272)"/>
<path d="M245.128 424.018L261.981 444.207L283.454 434.718L272.396 456.684L289.249 476.873L265.562 470.26L254.503 492.227L250.922 466.173L227.235 459.56L248.709 450.071L245.128 424.018Z" fill="url(#paint6_linear_3_272)"/>
<path d="M363.415 691.708L380.267 711.897L401.741 702.408L390.683 724.374L407.535 744.563L383.848 737.95L372.79 759.917L369.209 733.863L345.522 727.25L366.996 717.761L363.415 691.708Z" fill="url(#paint7_linear_3_272)"/>
<path d="M304.272 557.863L321.125 578.052L342.598 568.563L331.54 590.529L348.393 610.718L324.706 604.105L313.647 626.072L310.066 600.018L286.379 593.405L307.853 583.916L304.272 557.863Z" fill="url(#paint8_linear_3_272)"/>
<path d="M422.558 825.553L439.411 845.742L460.884 836.253L449.826 858.219L466.679 878.408L442.992 871.795L431.933 893.762L428.352 867.708L404.666 861.095L426.139 851.606L422.558 825.553Z" fill="url(#paint9_linear_3_272)"/>
<path d="M446.428 255.078L463.28 275.267L484.754 265.778L473.696 287.744L490.548 307.933L466.861 301.32L455.803 323.286L452.222 297.233L428.535 290.62L450.009 281.131L446.428 255.078Z" fill="url(#paint10_linear_3_272)"/>
<path d="M564.715 522.768L581.567 542.957L603.041 533.468L591.983 555.434L608.835 575.623L585.148 569.01L574.09 590.976L570.509 564.923L546.822 558.31L568.296 548.821L564.715 522.768Z" fill="url(#paint11_linear_3_272)"/>
<path d="M505.571 388.923L522.424 409.112L543.897 399.623L532.839 421.589L549.692 441.778L526.005 435.165L514.946 457.131L511.365 431.078L487.678 424.465L509.152 414.976L505.571 388.923Z" fill="url(#paint12_linear_3_272)"/>
<path d="M623.858 656.613L640.711 676.802L662.184 667.313L651.126 689.279L667.979 709.468L644.292 702.855L633.233 724.821L629.652 698.768L605.966 692.155L627.439 682.666L623.858 656.613Z" fill="url(#paint13_linear_3_272)"/>
<path d="M476 322L492.852 342.189L514.326 332.701L503.267 354.667L520.12 374.856L496.433 368.243L485.375 390.209L481.794 364.156L458.107 357.543L479.581 348.054L476 322Z" fill="url(#paint14_linear_3_272)"/>
<path d="M594.287 589.69L611.139 609.879L632.613 600.39L621.555 622.357L638.407 642.546L614.72 635.933L603.662 657.899L600.081 631.846L576.394 625.232L597.868 615.744L594.287 589.69Z" fill="url(#paint15_linear_3_272)"/>
<path d="M535.143 455.845L551.995 476.034L573.469 466.546L562.411 488.512L579.263 508.701L555.576 502.088L544.518 524.054L540.937 498.001L517.25 491.388L538.724 481.899L535.143 455.845Z" fill="url(#paint16_linear_3_272)"/>
<path d="M653.43 723.535L670.282 743.724L691.756 734.235L680.698 756.202L697.55 776.391L673.863 769.778L662.805 791.744L659.224 765.691L635.537 759.078L657.011 749.589L653.43 723.535Z" fill="url(#paint17_linear_3_272)"/>
<path d="M367.24 290.069L384.092 310.258L405.566 300.77L394.508 322.736L411.36 342.925L387.673 336.312L376.615 358.278L373.034 332.225L349.347 325.612L370.821 316.123L367.24 290.069Z" fill="url(#paint18_linear_3_272)"/>
<path d="M485.527 557.759L502.379 577.948L523.853 568.46L512.795 590.426L529.647 610.615L505.96 604.002L494.902 625.968L491.321 599.915L467.634 593.302L489.108 583.813L485.527 557.759Z" fill="url(#paint19_linear_3_272)"/>
<path d="M426.383 423.914L443.236 444.103L464.71 434.615L453.651 456.581L470.504 476.77L446.817 470.157L435.759 492.123L432.178 466.07L408.491 459.457L429.964 449.968L426.383 423.914Z" fill="url(#paint20_linear_3_272)"/>
<path d="M544.67 691.604L561.523 711.793L582.996 702.305L571.938 724.271L588.791 744.46L565.104 737.847L554.045 759.813L550.464 733.76L526.778 727.147L548.251 717.658L544.67 691.604Z" fill="url(#paint21_linear_3_272)"/>
<path d="M396.812 356.992L413.664 377.181L435.138 367.692L424.079 389.658L440.932 409.847L417.245 403.234L406.187 425.2L402.606 399.147L378.919 392.534L400.393 383.045L396.812 356.992Z" fill="url(#paint22_linear_3_272)"/>
<path d="M515.098 624.682L531.951 644.871L553.425 635.382L542.366 657.348L559.219 677.537L535.532 670.924L524.474 692.89L520.893 666.837L497.206 660.224L518.679 650.735L515.098 624.682Z" fill="url(#paint23_linear_3_272)"/>
<path d="M455.956 490.837L472.808 511.026L494.282 501.537L483.224 523.503L500.076 543.692L476.389 537.079L465.331 559.045L461.75 532.992L438.063 526.379L459.537 516.89L455.956 490.837Z" fill="url(#paint24_linear_3_272)"/>
<path d="M574.242 758.527L591.094 778.716L612.568 769.227L601.51 791.193L618.362 811.382L594.676 804.769L583.617 826.735L580.036 800.682L556.349 794.069L577.823 784.58L574.242 758.527Z" fill="url(#paint25_linear_3_272)"/>
<path d="M598.111 188.052L614.964 208.241L636.437 198.752L625.379 220.718L642.232 240.907L618.545 234.294L607.486 256.26L603.905 230.207L580.219 223.594L601.692 214.105L598.111 188.052Z" fill="url(#paint26_linear_3_272)"/>
<path d="M716.398 455.742L733.251 475.931L754.725 466.442L743.666 488.408L760.519 508.597L736.832 501.984L725.774 523.95L722.193 497.897L698.506 491.284L719.979 481.795L716.398 455.742Z" fill="url(#paint27_linear_3_272)"/>
<path d="M657.255 321.897L674.107 342.086L695.581 332.597L684.523 354.563L701.375 374.752L677.688 368.139L666.63 390.105L663.049 364.052L639.362 357.439L660.836 347.95L657.255 321.897Z" fill="url(#paint28_linear_3_272)"/>
<path d="M775.542 589.587L792.395 609.776L813.868 600.287L802.81 622.253L819.663 642.442L795.976 635.829L784.917 657.795L781.336 631.742L757.649 625.129L779.123 615.64L775.542 589.587Z" fill="url(#paint29_linear_3_272)"/>
<path d="M627.683 254.974L644.536 275.163L666.009 265.674L654.951 287.641L671.804 307.83L648.117 301.217L637.059 323.183L633.477 297.13L609.791 290.516L631.264 281.028L627.683 254.974Z" fill="url(#paint30_linear_3_272)"/>
<path d="M745.97 522.664L762.822 542.853L784.296 533.364L773.238 555.331L790.09 575.52L766.403 568.907L755.345 590.873L751.764 564.82L728.077 558.206L749.551 548.718L745.97 522.664Z" fill="url(#paint31_linear_3_272)"/>
<path d="M686.827 388.819L703.68 409.008L725.153 399.519L714.095 421.486L730.948 441.675L707.261 435.062L696.202 457.028L692.621 430.974L668.934 424.361L690.408 414.873L686.827 388.819Z" fill="url(#paint32_linear_3_272)"/>
<path d="M805.113 656.509L821.966 676.698L843.44 667.209L832.381 689.176L849.234 709.365L825.547 702.752L814.489 724.718L810.908 698.665L787.221 692.051L808.694 682.563L805.113 656.509Z" fill="url(#paint33_linear_3_272)"/>
<path d="M294.744 322.104L311.597 342.293L333.07 332.804L322.012 354.77L338.865 374.959L315.178 368.346L304.119 390.313L300.538 364.259L276.851 357.646L298.325 348.157L294.744 322.104Z" fill="url(#paint34_linear_3_272)"/>
<path d="M413.031 589.794L429.884 609.983L451.357 600.494L440.299 622.46L457.152 642.649L433.465 636.036L422.407 658.002L418.825 631.949L395.139 625.336L416.612 615.847L413.031 589.794Z" fill="url(#paint35_linear_3_272)"/>
<path d="M353.888 455.949L370.74 476.138L392.214 466.649L381.156 488.615L398.008 508.804L374.321 502.191L363.263 524.157L359.682 498.104L335.995 491.491L357.469 482.002L353.888 455.949Z" fill="url(#paint36_linear_3_272)"/>
<path d="M472.175 723.639L489.027 743.828L510.501 734.339L499.442 756.305L516.295 776.494L492.608 769.881L481.55 791.847L477.969 765.794L454.282 759.181L475.756 749.692L472.175 723.639Z" fill="url(#paint37_linear_3_272)"/>
<path d="M324.316 389.026L341.168 409.215L362.642 399.727L351.584 421.693L368.436 441.882L344.749 435.269L333.691 457.235L330.11 431.182L306.423 424.569L327.897 415.08L324.316 389.026Z" fill="url(#paint38_linear_3_272)"/>
<path d="M442.603 656.716L459.455 676.905L480.929 667.417L469.87 689.383L486.723 709.572L463.036 702.959L451.978 724.925L448.397 698.872L424.71 692.259L446.184 682.77L442.603 656.716Z" fill="url(#paint39_linear_3_272)"/>
<path d="M383.459 522.871L400.312 543.06L421.786 533.572L410.727 555.538L427.58 575.727L403.893 569.114L392.835 591.08L389.254 565.027L365.567 558.414L387.041 548.925L383.459 522.871Z" fill="url(#paint40_linear_3_272)"/>
<path d="M501.746 790.561L518.599 810.75L540.072 801.262L529.014 823.228L545.866 843.417L522.18 836.804L511.121 858.77L507.54 832.717L483.853 826.104L505.327 816.615L501.746 790.561Z" fill="url(#paint41_linear_3_272)"/>
<path d="M525.616 220.086L542.468 240.275L563.942 230.787L552.883 252.753L569.736 272.942L546.049 266.329L534.991 288.295L531.41 262.242L507.723 255.629L529.197 246.14L525.616 220.086Z" fill="url(#paint42_linear_3_272)"/>
<path d="M643.903 487.776L660.755 507.965L682.229 498.476L671.171 520.443L688.023 540.632L664.336 534.019L653.278 555.985L649.697 529.932L626.01 523.318L647.484 513.83L643.903 487.776Z" fill="url(#paint43_linear_3_272)"/>
<path d="M584.759 353.931L601.612 374.12L623.085 364.631L612.027 386.598L628.88 406.787L605.193 400.174L594.134 422.14L590.553 396.087L566.866 389.473L588.34 379.985L584.759 353.931Z" fill="url(#paint44_linear_3_272)"/>
<path d="M703.046 621.621L719.898 641.81L741.372 632.321L730.314 654.288L747.166 674.477L723.48 667.864L712.421 689.83L708.84 663.777L685.153 657.163L706.627 647.675L703.046 621.621Z" fill="url(#paint45_linear_3_272)"/>
<path d="M555.187 287.009L572.04 307.198L593.514 297.709L582.455 319.675L599.308 339.864L575.621 333.251L564.563 355.217L560.982 329.164L537.295 322.551L558.768 313.062L555.187 287.009Z" fill="url(#paint46_linear_3_272)"/>
<path d="M673.474 554.699L690.327 574.888L711.8 565.399L700.742 587.365L717.595 607.554L693.908 600.941L682.849 622.907L679.268 596.854L655.581 590.241L677.055 580.752L673.474 554.699Z" fill="url(#paint47_linear_3_272)"/>
<path d="M614.331 420.854L631.183 441.043L652.657 431.554L641.599 453.52L658.451 473.709L634.764 467.096L623.706 489.062L620.125 463.009L596.438 456.396L617.912 446.907L614.331 420.854Z" fill="url(#paint48_linear_3_272)"/>
<path d="M732.618 688.544L749.47 708.733L770.944 699.244L759.886 721.21L776.738 741.399L753.051 734.786L741.993 756.752L738.412 730.699L714.725 724.086L736.199 714.597L732.618 688.544Z" fill="url(#paint49_linear_3_272)"/>
<path d="M446.428 255.078L463.28 275.267L484.754 265.778L473.696 287.744L490.548 307.933L466.861 301.32L455.803 323.286L452.222 297.233L428.535 290.62L450.009 281.131L446.428 255.078Z" fill="url(#paint50_linear_3_272)"/>
<path d="M564.715 522.768L581.567 542.957L603.041 533.468L591.983 555.434L608.835 575.623L585.148 569.01L574.09 590.976L570.509 564.923L546.822 558.31L568.296 548.821L564.715 522.768Z" fill="url(#paint51_linear_3_272)"/>
<path d="M505.571 388.923L522.424 409.112L543.897 399.623L532.839 421.589L549.692 441.778L526.005 435.165L514.946 457.131L511.365 431.078L487.678 424.465L509.152 414.976L505.571 388.923Z" fill="url(#paint52_linear_3_272)"/>
<path d="M623.858 656.613L640.711 676.802L662.184 667.313L651.126 689.279L667.979 709.468L644.292 702.855L633.233 724.821L629.652 698.768L605.966 692.155L627.439 682.666L623.858 656.613Z" fill="url(#paint53_linear_3_272)"/>
<path d="M476 322L492.852 342.189L514.326 332.701L503.267 354.667L520.12 374.856L496.433 368.243L485.375 390.209L481.794 364.156L458.107 357.543L479.581 348.054L476 322Z" fill="url(#paint54_linear_3_272)"/>
<path d="M594.287 589.69L611.139 609.879L632.613 600.39L621.555 622.357L638.407 642.546L614.72 635.933L603.662 657.899L600.081 631.846L576.394 625.232L597.868 615.744L594.287 589.69Z" fill="url(#paint55_linear_3_272)"/>
<path d="M535.143 455.845L551.995 476.034L573.469 466.546L562.411 488.512L579.263 508.701L555.576 502.088L544.518 524.054L540.937 498.001L517.25 491.388L538.724 481.899L535.143 455.845Z" fill="url(#paint56_linear_3_272)"/>
<path d="M653.43 723.535L670.282 743.724L691.756 734.235L680.698 756.202L697.55 776.391L673.863 769.778L662.805 791.744L659.224 765.691L635.537 759.078L657.011 749.589L653.43 723.535Z" fill="url(#paint57_linear_3_272)"/>
<path d="M677.299 153.06L694.152 173.249L715.626 163.76L704.567 185.727L721.42 205.916L697.733 199.303L686.675 221.269L683.094 195.215L659.407 188.602L680.88 179.114L677.299 153.06Z" fill="url(#paint58_linear_3_272)"/>
<path d="M795.586 420.75L812.439 440.939L833.913 431.45L822.854 453.417L839.707 473.606L816.02 466.993L804.962 488.959L801.381 462.905L777.694 456.292L799.167 446.804L795.586 420.75Z" fill="url(#paint59_linear_3_272)"/>
<path d="M736.443 286.905L753.295 307.094L774.769 297.605L763.711 319.572L780.563 339.761L756.876 333.148L745.818 355.114L742.237 329.06L718.55 322.447L740.024 312.959L736.443 286.905Z" fill="url(#paint60_linear_3_272)"/>
<path d="M854.73 554.595L871.582 574.784L893.056 565.295L881.998 587.262L898.85 607.451L875.163 600.838L864.105 622.804L860.524 596.75L836.837 590.137L858.311 580.649L854.73 554.595Z" fill="url(#paint61_linear_3_272)"/>
<path d="M706.871 219.983L723.724 240.172L745.197 230.683L734.139 252.649L750.991 272.838L727.305 266.225L716.246 288.191L712.665 262.138L688.978 255.525L710.452 246.036L706.871 219.983Z" fill="url(#paint62_linear_3_272)"/>
<path d="M825.158 487.673L842.01 507.862L863.484 498.373L852.426 520.339L869.278 540.528L845.591 533.915L834.533 555.881L830.952 529.828L807.265 523.215L828.739 513.726L825.158 487.673Z" fill="url(#paint63_linear_3_272)"/>
<path d="M766.015 353.828L782.867 374.017L804.341 364.528L793.282 386.494L810.135 406.683L786.448 400.07L775.39 422.036L771.809 395.983L748.122 389.37L769.596 379.881L766.015 353.828Z" fill="url(#paint64_linear_3_272)"/>
<path d="M884.301 621.518L901.154 641.707L922.628 632.218L911.569 654.184L928.422 674.373L904.735 667.76L893.677 689.726L890.096 663.673L866.409 657.06L887.882 647.571L884.301 621.518Z" fill="url(#paint65_linear_3_272)"/>
</mask>
<g mask="url(#mask0_3_272)">
<circle cx="569.5" cy="520.5" r="282.5" fill="url(#paint66_linear_3_272)"/>
</g>
<rect y="572" width="1081.29" height="289.932" transform="rotate(-20.8617 0 572)" fill="url(#paint67_radial_3_272)"/>
<path d="M168.419 751.997C163.692 753.822 159.581 753.908 156.085 752.256C152.589 750.604 149.929 747.415 148.104 742.688L108.131 639.135C106.259 634.284 106.086 630.135 107.614 626.687C109.266 623.191 112.455 620.53 117.182 618.706L162.521 601.204C177.199 595.538 189.959 594.901 200.8 599.291C211.594 603.557 219.536 612.282 224.625 625.468C229.715 638.653 229.72 650.513 224.64 661.05C219.56 671.586 209.681 679.687 195.003 685.353L163.844 697.38L177.024 731.525C178.849 736.252 179.021 740.401 177.542 743.974C176.187 747.498 173.146 750.173 168.419 751.997ZM155.201 674.991L181.509 664.835C188.973 661.954 193.984 658.091 196.544 653.244C199.228 648.349 199.321 642.667 196.825 636.199C194.328 629.731 190.465 625.648 185.236 623.95C180.132 622.205 173.848 622.772 166.385 625.653L140.077 635.808L155.201 674.991ZM391.036 666.493C378.099 671.487 365.638 673.082 353.65 671.277C341.739 669.301 331.079 664.269 321.668 656.182C312.383 648.047 305.123 637.2 299.889 623.642C295.904 613.317 293.819 603.474 293.636 594.112C293.528 584.578 295.207 575.783 298.672 567.728C302.09 559.549 307.154 552.306 313.867 545.999C320.704 539.644 328.973 534.594 338.675 530.849C351.86 525.759 364.384 524.14 376.247 525.993C388.11 527.845 398.685 532.839 407.971 540.974C417.333 548.936 424.631 559.697 429.865 573.255C433.85 583.579 435.896 593.509 436.003 603.043C436.111 612.577 434.456 621.434 431.039 629.614C427.622 637.793 422.557 645.036 415.844 651.343C409.132 657.65 400.862 662.7 391.036 666.493ZM381.529 641.865C388.868 639.032 394.439 634.952 398.242 629.625C402.122 624.125 404.182 617.613 404.422 610.089C404.738 602.392 403.167 594.065 399.71 585.11C394.429 571.427 387.3 562.03 378.324 556.92C369.3 551.685 359.253 551.204 348.182 555.477C340.968 558.262 335.397 562.342 331.469 567.717C327.541 573.092 325.457 579.542 325.217 587.067C324.978 594.591 326.61 602.894 330.115 611.974C335.349 625.532 342.502 634.991 351.574 640.35C360.598 645.585 370.583 646.09 381.529 641.865ZM585.16 591.131C581.179 592.667 577.547 593.069 574.263 592.336C571.055 591.43 567.922 589.424 564.864 586.316L477.513 499.98C474.331 496.921 472.561 493.817 472.203 490.668C471.797 487.394 472.464 484.493 474.203 481.964C475.894 479.31 478.419 477.335 481.777 476.038C486.007 474.406 489.625 474.153 492.632 475.279C495.591 476.28 498.537 478.359 501.471 481.514L579.509 560.94L570.18 564.541L574.539 453.095C574.715 448.739 575.563 445.196 577.082 442.466C578.6 439.736 581.35 437.602 585.33 436.066C588.689 434.769 591.761 434.584 594.548 435.509C597.411 436.262 599.668 438.035 601.318 440.828C603.044 443.449 603.819 446.937 603.642 451.293L596.956 573.929C596.655 578.332 595.621 581.947 593.854 584.773C592.163 587.427 589.265 589.546 585.16 591.131ZM721.898 538.348C718.415 539.693 715.242 539.989 712.379 539.236C709.64 538.435 707.432 536.786 705.753 534.29C704.199 531.746 703.583 528.482 703.903 524.499L711.264 401.389C711.621 396.392 712.808 392.432 714.825 389.51C716.793 386.463 719.581 384.244 723.188 382.851C726.795 381.459 730.351 381.23 733.856 382.164C737.313 382.973 740.79 385.132 744.289 388.641L832.831 474.732C835.745 477.466 837.505 480.36 838.112 483.413C838.795 486.293 838.391 488.95 836.901 491.383C835.363 493.692 832.914 495.495 829.556 496.791C825.326 498.424 821.646 498.701 818.514 497.623C815.507 496.497 812.317 494.156 808.943 490.599L787.737 468.985L802.402 472.543L724.597 502.576L733.068 490.088L732.071 520.272C731.886 525.346 731.12 529.286 729.774 532.093C728.504 534.727 725.878 536.812 721.898 538.348ZM735.347 415.461L733.431 481.587L725.585 476.255L783.985 453.712L781.756 462.933L735.72 415.317L735.347 415.461ZM925.314 459.828C920.588 461.652 916.476 461.738 912.98 460.087C909.484 458.435 906.824 455.245 904.999 450.519L865.027 346.966C863.154 342.115 862.982 337.965 864.509 334.517C866.161 331.021 869.35 328.361 874.077 326.536L919.416 309.035C934.094 303.369 946.854 302.731 957.695 307.121C968.489 311.387 976.431 320.113 981.52 333.298C986.61 346.483 986.615 358.344 981.535 368.88C976.455 379.416 966.576 387.517 951.898 393.183L920.739 405.211L933.919 439.355C935.744 444.082 935.916 448.232 934.437 451.804C933.082 455.328 930.041 458.003 925.314 459.828ZM912.097 382.821L938.405 372.666C945.868 369.785 950.879 365.921 953.439 361.074C956.123 356.179 956.217 350.498 953.72 344.029C951.223 337.561 947.36 333.478 942.131 331.781C937.027 330.035 930.743 330.603 923.28 333.484L896.972 343.639L912.097 382.821Z" fill="white"/>
<defs>
<linearGradient id="paint0_linear_3_272" x1="565" y1="0" x2="565" y2="1046" gradientUnits="userSpaceOnUse">
<stop stop-color="#11A97D"/>
<stop offset="1" stop-color="#6610F2"/>
</linearGradient>
<linearGradient id="paint1_linear_3_272" x1="565.5" y1="222" x2="565.5" y2="823" gradientUnits="userSpaceOnUse">
<stop stop-color="#11A97D"/>
<stop offset="1" stop-color="#6610F2"/>
</linearGradient>
<linearGradient id="paint2_linear_3_272" x1="215.556" y1="357.096" x2="245.128" y2="424.018" gradientUnits="userSpaceOnUse">
<stop stop-color="#6610F2"/>
<stop offset="1" stop-color="#11A97D"/>
</linearGradient>
<linearGradient id="paint3_linear_3_272" x1="333.843" y1="624.785" x2="363.415" y2="691.708" gradientUnits="userSpaceOnUse">
<stop stop-color="#6610F2"/>
<stop offset="1" stop-color="#11A97D"/>
</linearGradient>
<linearGradient id="paint4_linear_3_272" x1="274.7" y1="490.94" x2="304.272" y2="557.863" gradientUnits="userSpaceOnUse">
<stop stop-color="#6610F2"/>
<stop offset="1" stop-color="#11A97D"/>
</linearGradient>
<linearGradient id="paint5_linear_3_272" x1="392.986" y1="758.63" x2="422.558" y2="825.553" gradientUnits="userSpaceOnUse">
<stop stop-color="#6610F2"/>
<stop offset="1" stop-color="#11A97D"/>
</linearGradient>
<linearGradient id="paint6_linear_3_272" x1="245.128" y1="424.018" x2="274.7" y2="490.94" gradientUnits="userSpaceOnUse">
<stop stop-color="#6610F2"/>
<stop offset="1" stop-color="#11A97D"/>
</linearGradient>
<linearGradient id="paint7_linear_3_272" x1="363.415" y1="691.708" x2="392.986" y2="758.63" gradientUnits="userSpaceOnUse">
<stop stop-color="#6610F2"/>
<stop offset="1" stop-color="#11A97D"/>
</linearGradient>
<linearGradient id="paint8_linear_3_272" x1="304.272" y1="557.863" x2="333.844" y2="624.785" gradientUnits="userSpaceOnUse">
<stop stop-color="#6610F2"/>
<stop offset="1" stop-color="#11A97D"/>
</linearGradient>
<linearGradient id="paint9_linear_3_272" x1="422.558" y1="825.553" x2="452.13" y2="892.475" gradientUnits="userSpaceOnUse">
<stop stop-color="#6610F2"/>
<stop offset="1" stop-color="#11A97D"/>
</linearGradient>
<linearGradient id="paint10_linear_3_272" x1="446.428" y1="255.078" x2="476" y2="322" gradientUnits="userSpaceOnUse">
<stop stop-color="#6610F2"/>
<stop offset="1" stop-color="#11A97D"/>
</linearGradient>
<linearGradient id="paint11_linear_3_272" x1="564.715" y1="522.768" x2="594.286" y2="589.69" gradientUnits="userSpaceOnUse">
<stop stop-color="#6610F2"/>
<stop offset="1" stop-color="#11A97D"/>
</linearGradient>
<linearGradient id="paint12_linear_3_272" x1="505.571" y1="388.923" x2="535.143" y2="455.845" gradientUnits="userSpaceOnUse">
<stop stop-color="#6610F2"/>
<stop offset="1" stop-color="#11A97D"/>
</linearGradient>
<linearGradient id="paint13_linear_3_272" x1="623.858" y1="656.613" x2="653.43" y2="723.535" gradientUnits="userSpaceOnUse">
<stop stop-color="#6610F2"/>
<stop offset="1" stop-color="#11A97D"/>
</linearGradient>
<linearGradient id="paint14_linear_3_272" x1="476" y1="322" x2="505.571" y2="388.923" gradientUnits="userSpaceOnUse">
<stop stop-color="#6610F2"/>
<stop offset="1" stop-color="#11A97D"/>
</linearGradient>
<linearGradient id="paint15_linear_3_272" x1="594.287" y1="589.69" x2="623.858" y2="656.613" gradientUnits="userSpaceOnUse">
<stop stop-color="#6610F2"/>
<stop offset="1" stop-color="#11A97D"/>
</linearGradient>
<linearGradient id="paint16_linear_3_272" x1="535.143" y1="455.845" x2="564.715" y2="522.768" gradientUnits="userSpaceOnUse">
<stop stop-color="#6610F2"/>
<stop offset="1" stop-color="#11A97D"/>
</linearGradient>
<linearGradient id="paint17_linear_3_272" x1="653.43" y1="723.535" x2="683.001" y2="790.458" gradientUnits="userSpaceOnUse">
<stop stop-color="#6610F2"/>
<stop offset="1" stop-color="#11A97D"/>
</linearGradient>
<linearGradient id="paint18_linear_3_272" x1="367.24" y1="290.069" x2="396.811" y2="356.992" gradientUnits="userSpaceOnUse">
<stop stop-color="#6610F2"/>
<stop offset="1" stop-color="#11A97D"/>
</linearGradient>
<linearGradient id="paint19_linear_3_272" x1="485.527" y1="557.759" x2="515.099" y2="624.682" gradientUnits="userSpaceOnUse">
<stop stop-color="#6610F2"/>
<stop offset="1" stop-color="#11A97D"/>
</linearGradient>
<linearGradient id="paint20_linear_3_272" x1="426.383" y1="423.914" x2="455.955" y2="490.837" gradientUnits="userSpaceOnUse">
<stop stop-color="#6610F2"/>
<stop offset="1" stop-color="#11A97D"/>
</linearGradient>
<linearGradient id="paint21_linear_3_272" x1="544.67" y1="691.604" x2="574.242" y2="758.527" gradientUnits="userSpaceOnUse">
<stop stop-color="#6610F2"/>
<stop offset="1" stop-color="#11A97D"/>
</linearGradient>
<linearGradient id="paint22_linear_3_272" x1="396.812" y1="356.992" x2="426.383" y2="423.914" gradientUnits="userSpaceOnUse">
<stop stop-color="#6610F2"/>
<stop offset="1" stop-color="#11A97D"/>
</linearGradient>
<linearGradient id="paint23_linear_3_272" x1="515.098" y1="624.682" x2="544.67" y2="691.604" gradientUnits="userSpaceOnUse">
<stop stop-color="#6610F2"/>
<stop offset="1" stop-color="#11A97D"/>
</linearGradient>
<linearGradient id="paint24_linear_3_272" x1="455.956" y1="490.837" x2="485.527" y2="557.759" gradientUnits="userSpaceOnUse">
<stop stop-color="#6610F2"/>
<stop offset="1" stop-color="#11A97D"/>
</linearGradient>
<linearGradient id="paint25_linear_3_272" x1="574.242" y1="758.527" x2="603.814" y2="825.449" gradientUnits="userSpaceOnUse">
<stop stop-color="#6610F2"/>
<stop offset="1" stop-color="#11A97D"/>
</linearGradient>
<linearGradient id="paint26_linear_3_272" x1="598.111" y1="188.052" x2="627.683" y2="254.974" gradientUnits="userSpaceOnUse">
<stop stop-color="#6610F2"/>
<stop offset="1" stop-color="#11A97D"/>
</linearGradient>
<linearGradient id="paint27_linear_3_272" x1="716.398" y1="455.742" x2="745.97" y2="522.664" gradientUnits="userSpaceOnUse">
<stop stop-color="#6610F2"/>
<stop offset="1" stop-color="#11A97D"/>
</linearGradient>
<linearGradient id="paint28_linear_3_272" x1="657.255" y1="321.897" x2="686.826" y2="388.819" gradientUnits="userSpaceOnUse">
<stop stop-color="#6610F2"/>
<stop offset="1" stop-color="#11A97D"/>
</linearGradient>
<linearGradient id="paint29_linear_3_272" x1="775.542" y1="589.587" x2="805.114" y2="656.509" gradientUnits="userSpaceOnUse">
<stop stop-color="#6610F2"/>
<stop offset="1" stop-color="#11A97D"/>
</linearGradient>
<linearGradient id="paint30_linear_3_272" x1="627.683" y1="254.974" x2="657.255" y2="321.897" gradientUnits="userSpaceOnUse">
<stop stop-color="#6610F2"/>
<stop offset="1" stop-color="#11A97D"/>
</linearGradient>
<linearGradient id="paint31_linear_3_272" x1="745.97" y1="522.664" x2="775.542" y2="589.587" gradientUnits="userSpaceOnUse">
<stop stop-color="#6610F2"/>
<stop offset="1" stop-color="#11A97D"/>
</linearGradient>
<linearGradient id="paint32_linear_3_272" x1="686.827" y1="388.819" x2="716.399" y2="455.742" gradientUnits="userSpaceOnUse">
<stop stop-color="#6610F2"/>
<stop offset="1" stop-color="#11A97D"/>
</linearGradient>
<linearGradient id="paint33_linear_3_272" x1="805.113" y1="656.509" x2="834.685" y2="723.432" gradientUnits="userSpaceOnUse">
<stop stop-color="#6610F2"/>
<stop offset="1" stop-color="#11A97D"/>
</linearGradient>
<linearGradient id="paint34_linear_3_272" x1="294.744" y1="322.104" x2="324.316" y2="389.026" gradientUnits="userSpaceOnUse">
<stop stop-color="#6610F2"/>
<stop offset="1" stop-color="#11A97D"/>
</linearGradient>
<linearGradient id="paint35_linear_3_272" x1="413.031" y1="589.794" x2="442.603" y2="656.716" gradientUnits="userSpaceOnUse">
<stop stop-color="#6610F2"/>
<stop offset="1" stop-color="#11A97D"/>
</linearGradient>
<linearGradient id="paint36_linear_3_272" x1="353.888" y1="455.949" x2="383.459" y2="522.871" gradientUnits="userSpaceOnUse">
<stop stop-color="#6610F2"/>
<stop offset="1" stop-color="#11A97D"/>
</linearGradient>
<linearGradient id="paint37_linear_3_272" x1="472.175" y1="723.639" x2="501.746" y2="790.561" gradientUnits="userSpaceOnUse">
<stop stop-color="#6610F2"/>
<stop offset="1" stop-color="#11A97D"/>
</linearGradient>
<linearGradient id="paint38_linear_3_272" x1="324.316" y1="389.026" x2="353.888" y2="455.949" gradientUnits="userSpaceOnUse">
<stop stop-color="#6610F2"/>
<stop offset="1" stop-color="#11A97D"/>
</linearGradient>
<linearGradient id="paint39_linear_3_272" x1="442.603" y1="656.716" x2="472.174" y2="723.639" gradientUnits="userSpaceOnUse">
<stop stop-color="#6610F2"/>
<stop offset="1" stop-color="#11A97D"/>
</linearGradient>
<linearGradient id="paint40_linear_3_272" x1="383.459" y1="522.871" x2="413.031" y2="589.794" gradientUnits="userSpaceOnUse">
<stop stop-color="#6610F2"/>
<stop offset="1" stop-color="#11A97D"/>
</linearGradient>
<linearGradient id="paint41_linear_3_272" x1="501.746" y1="790.561" x2="531.318" y2="857.484" gradientUnits="userSpaceOnUse">
<stop stop-color="#6610F2"/>
<stop offset="1" stop-color="#11A97D"/>
</linearGradient>
<linearGradient id="paint42_linear_3_272" x1="525.616" y1="220.086" x2="555.187" y2="287.009" gradientUnits="userSpaceOnUse">
<stop stop-color="#6610F2"/>
<stop offset="1" stop-color="#11A97D"/>
</linearGradient>
<linearGradient id="paint43_linear_3_272" x1="643.903" y1="487.776" x2="673.474" y2="554.699" gradientUnits="userSpaceOnUse">
<stop stop-color="#6610F2"/>
<stop offset="1" stop-color="#11A97D"/>
</linearGradient>
<linearGradient id="paint44_linear_3_272" x1="584.759" y1="353.931" x2="614.331" y2="420.854" gradientUnits="userSpaceOnUse">
<stop stop-color="#6610F2"/>
<stop offset="1" stop-color="#11A97D"/>
</linearGradient>
<linearGradient id="paint45_linear_3_272" x1="703.046" y1="621.621" x2="732.618" y2="688.544" gradientUnits="userSpaceOnUse">
<stop stop-color="#6610F2"/>
<stop offset="1" stop-color="#11A97D"/>
</linearGradient>
<linearGradient id="paint46_linear_3_272" x1="555.187" y1="287.009" x2="584.759" y2="353.931" gradientUnits="userSpaceOnUse">
<stop stop-color="#6610F2"/>
<stop offset="1" stop-color="#11A97D"/>
</linearGradient>
<linearGradient id="paint47_linear_3_272" x1="673.474" y1="554.699" x2="703.046" y2="621.621" gradientUnits="userSpaceOnUse">
<stop stop-color="#6610F2"/>
<stop offset="1" stop-color="#11A97D"/>
</linearGradient>
<linearGradient id="paint48_linear_3_272" x1="614.331" y1="420.854" x2="643.903" y2="487.776" gradientUnits="userSpaceOnUse">
<stop stop-color="#6610F2"/>
<stop offset="1" stop-color="#11A97D"/>
</linearGradient>
<linearGradient id="paint49_linear_3_272" x1="732.618" y1="688.544" x2="762.189" y2="755.466" gradientUnits="userSpaceOnUse">
<stop stop-color="#6610F2"/>
<stop offset="1" stop-color="#11A97D"/>
</linearGradient>
<linearGradient id="paint50_linear_3_272" x1="446.428" y1="255.078" x2="476" y2="322" gradientUnits="userSpaceOnUse">
<stop stop-color="#6610F2"/>
<stop offset="1" stop-color="#11A97D"/>
</linearGradient>
<linearGradient id="paint51_linear_3_272" x1="564.715" y1="522.768" x2="594.286" y2="589.69" gradientUnits="userSpaceOnUse">
<stop stop-color="#6610F2"/>
<stop offset="1" stop-color="#11A97D"/>
</linearGradient>
<linearGradient id="paint52_linear_3_272" x1="505.571" y1="388.923" x2="535.143" y2="455.845" gradientUnits="userSpaceOnUse">
<stop stop-color="#6610F2"/>
<stop offset="1" stop-color="#11A97D"/>
</linearGradient>
<linearGradient id="paint53_linear_3_272" x1="623.858" y1="656.613" x2="653.43" y2="723.535" gradientUnits="userSpaceOnUse">
<stop stop-color="#6610F2"/>
<stop offset="1" stop-color="#11A97D"/>
</linearGradient>
<linearGradient id="paint54_linear_3_272" x1="476" y1="322" x2="505.571" y2="388.923" gradientUnits="userSpaceOnUse">
<stop stop-color="#6610F2"/>
<stop offset="1" stop-color="#11A97D"/>
</linearGradient>
<linearGradient id="paint55_linear_3_272" x1="594.287" y1="589.69" x2="623.858" y2="656.613" gradientUnits="userSpaceOnUse">
<stop stop-color="#6610F2"/>
<stop offset="1" stop-color="#11A97D"/>
</linearGradient>
<linearGradient id="paint56_linear_3_272" x1="535.143" y1="455.845" x2="564.715" y2="522.768" gradientUnits="userSpaceOnUse">
<stop stop-color="#6610F2"/>
<stop offset="1" stop-color="#11A97D"/>
</linearGradient>
<linearGradient id="paint57_linear_3_272" x1="653.43" y1="723.535" x2="683.001" y2="790.458" gradientUnits="userSpaceOnUse">
<stop stop-color="#6610F2"/>
<stop offset="1" stop-color="#11A97D"/>
</linearGradient>
<linearGradient id="paint58_linear_3_272" x1="677.299" y1="153.06" x2="706.871" y2="219.983" gradientUnits="userSpaceOnUse">
<stop stop-color="#6610F2"/>
<stop offset="1" stop-color="#11A97D"/>
</linearGradient>
<linearGradient id="paint59_linear_3_272" x1="795.586" y1="420.75" x2="825.158" y2="487.673" gradientUnits="userSpaceOnUse">
<stop stop-color="#6610F2"/>
<stop offset="1" stop-color="#11A97D"/>
</linearGradient>
<linearGradient id="paint60_linear_3_272" x1="736.443" y1="286.905" x2="766.014" y2="353.828" gradientUnits="userSpaceOnUse">
<stop stop-color="#6610F2"/>
<stop offset="1" stop-color="#11A97D"/>
</linearGradient>
<linearGradient id="paint61_linear_3_272" x1="854.73" y1="554.595" x2="884.301" y2="621.518" gradientUnits="userSpaceOnUse">
<stop stop-color="#6610F2"/>
<stop offset="1" stop-color="#11A97D"/>
</linearGradient>
<linearGradient id="paint62_linear_3_272" x1="706.871" y1="219.983" x2="736.443" y2="286.905" gradientUnits="userSpaceOnUse">
<stop stop-color="#6610F2"/>
<stop offset="1" stop-color="#11A97D"/>
</linearGradient>
<linearGradient id="paint63_linear_3_272" x1="825.158" y1="487.673" x2="854.73" y2="554.595" gradientUnits="userSpaceOnUse">
<stop stop-color="#6610F2"/>
<stop offset="1" stop-color="#11A97D"/>
</linearGradient>
<linearGradient id="paint64_linear_3_272" x1="766.015" y1="353.828" x2="795.586" y2="420.75" gradientUnits="userSpaceOnUse">
<stop stop-color="#6610F2"/>
<stop offset="1" stop-color="#11A97D"/>
</linearGradient>
<linearGradient id="paint65_linear_3_272" x1="884.301" y1="621.518" x2="913.873" y2="688.44" gradientUnits="userSpaceOnUse">
<stop stop-color="#6610F2"/>
<stop offset="1" stop-color="#11A97D"/>
</linearGradient>
<linearGradient id="paint66_linear_3_272" x1="569.5" y1="238" x2="569.5" y2="803" gradientUnits="userSpaceOnUse">
<stop stop-color="#6610F2"/>
<stop offset="1" stop-color="#11A97D"/>
</linearGradient>
<radialGradient id="paint67_radial_3_272" cx="0" cy="0" r="1" gradientUnits="userSpaceOnUse" gradientTransform="translate(540.645 716.966) rotate(92.979) scale(313.2 1168.07)">
<stop offset="0.255208" stop-color="#11A97D"/>
<stop offset="1" stop-color="#6610F2"/>
</radialGradient>
</defs>
</svg>
